%TF.GenerationSoftware,KiCad,Pcbnew,7.0.10*%
%TF.CreationDate,2024-01-02T15:41:26+01:00*%
%TF.ProjectId,Master_Clock,4d617374-6572-45f4-936c-6f636b2e6b69,1.0*%
%TF.SameCoordinates,Original*%
%TF.FileFunction,Legend,Bot*%
%TF.FilePolarity,Positive*%
%FSLAX46Y46*%
G04 Gerber Fmt 4.6, Leading zero omitted, Abs format (unit mm)*
G04 Created by KiCad (PCBNEW 7.0.10) date 2024-01-02 15:41:26*
%MOMM*%
%LPD*%
G01*
G04 APERTURE LIST*
%ADD10C,0.150000*%
%ADD11C,0.120000*%
G04 APERTURE END LIST*
D10*
X151314285Y-74786104D02*
X151352381Y-74824200D01*
X151352381Y-74824200D02*
X151466666Y-74862295D01*
X151466666Y-74862295D02*
X151542857Y-74862295D01*
X151542857Y-74862295D02*
X151657143Y-74824200D01*
X151657143Y-74824200D02*
X151733333Y-74748009D01*
X151733333Y-74748009D02*
X151771428Y-74671819D01*
X151771428Y-74671819D02*
X151809524Y-74519438D01*
X151809524Y-74519438D02*
X151809524Y-74405152D01*
X151809524Y-74405152D02*
X151771428Y-74252771D01*
X151771428Y-74252771D02*
X151733333Y-74176580D01*
X151733333Y-74176580D02*
X151657143Y-74100390D01*
X151657143Y-74100390D02*
X151542857Y-74062295D01*
X151542857Y-74062295D02*
X151466666Y-74062295D01*
X151466666Y-74062295D02*
X151352381Y-74100390D01*
X151352381Y-74100390D02*
X151314285Y-74138485D01*
X150552381Y-74862295D02*
X151009524Y-74862295D01*
X150780952Y-74862295D02*
X150780952Y-74062295D01*
X150780952Y-74062295D02*
X150857143Y-74176580D01*
X150857143Y-74176580D02*
X150933333Y-74252771D01*
X150933333Y-74252771D02*
X151009524Y-74290866D01*
X150285714Y-74062295D02*
X149790476Y-74062295D01*
X149790476Y-74062295D02*
X150057142Y-74367057D01*
X150057142Y-74367057D02*
X149942857Y-74367057D01*
X149942857Y-74367057D02*
X149866666Y-74405152D01*
X149866666Y-74405152D02*
X149828571Y-74443247D01*
X149828571Y-74443247D02*
X149790476Y-74519438D01*
X149790476Y-74519438D02*
X149790476Y-74709914D01*
X149790476Y-74709914D02*
X149828571Y-74786104D01*
X149828571Y-74786104D02*
X149866666Y-74824200D01*
X149866666Y-74824200D02*
X149942857Y-74862295D01*
X149942857Y-74862295D02*
X150171428Y-74862295D01*
X150171428Y-74862295D02*
X150247619Y-74824200D01*
X150247619Y-74824200D02*
X150285714Y-74786104D01*
X157162295Y-105609524D02*
X156362295Y-105609524D01*
X156362295Y-105609524D02*
X156362295Y-105800000D01*
X156362295Y-105800000D02*
X156400390Y-105914286D01*
X156400390Y-105914286D02*
X156476580Y-105990476D01*
X156476580Y-105990476D02*
X156552771Y-106028571D01*
X156552771Y-106028571D02*
X156705152Y-106066667D01*
X156705152Y-106066667D02*
X156819438Y-106066667D01*
X156819438Y-106066667D02*
X156971819Y-106028571D01*
X156971819Y-106028571D02*
X157048009Y-105990476D01*
X157048009Y-105990476D02*
X157124200Y-105914286D01*
X157124200Y-105914286D02*
X157162295Y-105800000D01*
X157162295Y-105800000D02*
X157162295Y-105609524D01*
X157162295Y-106828571D02*
X157162295Y-106371428D01*
X157162295Y-106600000D02*
X156362295Y-106600000D01*
X156362295Y-106600000D02*
X156476580Y-106523809D01*
X156476580Y-106523809D02*
X156552771Y-106447619D01*
X156552771Y-106447619D02*
X156590866Y-106371428D01*
X145814285Y-90862295D02*
X146080952Y-90481342D01*
X146271428Y-90862295D02*
X146271428Y-90062295D01*
X146271428Y-90062295D02*
X145966666Y-90062295D01*
X145966666Y-90062295D02*
X145890476Y-90100390D01*
X145890476Y-90100390D02*
X145852381Y-90138485D01*
X145852381Y-90138485D02*
X145814285Y-90214676D01*
X145814285Y-90214676D02*
X145814285Y-90328961D01*
X145814285Y-90328961D02*
X145852381Y-90405152D01*
X145852381Y-90405152D02*
X145890476Y-90443247D01*
X145890476Y-90443247D02*
X145966666Y-90481342D01*
X145966666Y-90481342D02*
X146271428Y-90481342D01*
X145052381Y-90862295D02*
X145509524Y-90862295D01*
X145280952Y-90862295D02*
X145280952Y-90062295D01*
X145280952Y-90062295D02*
X145357143Y-90176580D01*
X145357143Y-90176580D02*
X145433333Y-90252771D01*
X145433333Y-90252771D02*
X145509524Y-90290866D01*
X144557142Y-90062295D02*
X144480952Y-90062295D01*
X144480952Y-90062295D02*
X144404761Y-90100390D01*
X144404761Y-90100390D02*
X144366666Y-90138485D01*
X144366666Y-90138485D02*
X144328571Y-90214676D01*
X144328571Y-90214676D02*
X144290476Y-90367057D01*
X144290476Y-90367057D02*
X144290476Y-90557533D01*
X144290476Y-90557533D02*
X144328571Y-90709914D01*
X144328571Y-90709914D02*
X144366666Y-90786104D01*
X144366666Y-90786104D02*
X144404761Y-90824200D01*
X144404761Y-90824200D02*
X144480952Y-90862295D01*
X144480952Y-90862295D02*
X144557142Y-90862295D01*
X144557142Y-90862295D02*
X144633333Y-90824200D01*
X144633333Y-90824200D02*
X144671428Y-90786104D01*
X144671428Y-90786104D02*
X144709523Y-90709914D01*
X144709523Y-90709914D02*
X144747619Y-90557533D01*
X144747619Y-90557533D02*
X144747619Y-90367057D01*
X144747619Y-90367057D02*
X144709523Y-90214676D01*
X144709523Y-90214676D02*
X144671428Y-90138485D01*
X144671428Y-90138485D02*
X144633333Y-90100390D01*
X144633333Y-90100390D02*
X144557142Y-90062295D01*
X146088485Y-93361309D02*
X146050390Y-93285119D01*
X146050390Y-93285119D02*
X145974200Y-93208928D01*
X145974200Y-93208928D02*
X145859914Y-93094642D01*
X145859914Y-93094642D02*
X145821819Y-93018452D01*
X145821819Y-93018452D02*
X145821819Y-92942261D01*
X146012295Y-92980357D02*
X145974200Y-92904166D01*
X145974200Y-92904166D02*
X145898009Y-92827976D01*
X145898009Y-92827976D02*
X145745628Y-92789880D01*
X145745628Y-92789880D02*
X145478961Y-92789880D01*
X145478961Y-92789880D02*
X145326580Y-92827976D01*
X145326580Y-92827976D02*
X145250390Y-92904166D01*
X145250390Y-92904166D02*
X145212295Y-92980357D01*
X145212295Y-92980357D02*
X145212295Y-93132738D01*
X145212295Y-93132738D02*
X145250390Y-93208928D01*
X145250390Y-93208928D02*
X145326580Y-93285119D01*
X145326580Y-93285119D02*
X145478961Y-93323214D01*
X145478961Y-93323214D02*
X145745628Y-93323214D01*
X145745628Y-93323214D02*
X145898009Y-93285119D01*
X145898009Y-93285119D02*
X145974200Y-93208928D01*
X145974200Y-93208928D02*
X146012295Y-93132738D01*
X146012295Y-93132738D02*
X146012295Y-92980357D01*
X146012295Y-94085118D02*
X146012295Y-93627975D01*
X146012295Y-93856547D02*
X145212295Y-93856547D01*
X145212295Y-93856547D02*
X145326580Y-93780356D01*
X145326580Y-93780356D02*
X145402771Y-93704166D01*
X145402771Y-93704166D02*
X145440866Y-93627975D01*
X151286104Y-69366667D02*
X151324200Y-69328571D01*
X151324200Y-69328571D02*
X151362295Y-69214286D01*
X151362295Y-69214286D02*
X151362295Y-69138095D01*
X151362295Y-69138095D02*
X151324200Y-69023809D01*
X151324200Y-69023809D02*
X151248009Y-68947619D01*
X151248009Y-68947619D02*
X151171819Y-68909524D01*
X151171819Y-68909524D02*
X151019438Y-68871428D01*
X151019438Y-68871428D02*
X150905152Y-68871428D01*
X150905152Y-68871428D02*
X150752771Y-68909524D01*
X150752771Y-68909524D02*
X150676580Y-68947619D01*
X150676580Y-68947619D02*
X150600390Y-69023809D01*
X150600390Y-69023809D02*
X150562295Y-69138095D01*
X150562295Y-69138095D02*
X150562295Y-69214286D01*
X150562295Y-69214286D02*
X150600390Y-69328571D01*
X150600390Y-69328571D02*
X150638485Y-69366667D01*
X151362295Y-69747619D02*
X151362295Y-69900000D01*
X151362295Y-69900000D02*
X151324200Y-69976190D01*
X151324200Y-69976190D02*
X151286104Y-70014286D01*
X151286104Y-70014286D02*
X151171819Y-70090476D01*
X151171819Y-70090476D02*
X151019438Y-70128571D01*
X151019438Y-70128571D02*
X150714676Y-70128571D01*
X150714676Y-70128571D02*
X150638485Y-70090476D01*
X150638485Y-70090476D02*
X150600390Y-70052381D01*
X150600390Y-70052381D02*
X150562295Y-69976190D01*
X150562295Y-69976190D02*
X150562295Y-69823809D01*
X150562295Y-69823809D02*
X150600390Y-69747619D01*
X150600390Y-69747619D02*
X150638485Y-69709524D01*
X150638485Y-69709524D02*
X150714676Y-69671428D01*
X150714676Y-69671428D02*
X150905152Y-69671428D01*
X150905152Y-69671428D02*
X150981342Y-69709524D01*
X150981342Y-69709524D02*
X151019438Y-69747619D01*
X151019438Y-69747619D02*
X151057533Y-69823809D01*
X151057533Y-69823809D02*
X151057533Y-69976190D01*
X151057533Y-69976190D02*
X151019438Y-70052381D01*
X151019438Y-70052381D02*
X150981342Y-70090476D01*
X150981342Y-70090476D02*
X150905152Y-70128571D01*
X152162295Y-93366667D02*
X151781342Y-93100000D01*
X152162295Y-92909524D02*
X151362295Y-92909524D01*
X151362295Y-92909524D02*
X151362295Y-93214286D01*
X151362295Y-93214286D02*
X151400390Y-93290476D01*
X151400390Y-93290476D02*
X151438485Y-93328571D01*
X151438485Y-93328571D02*
X151514676Y-93366667D01*
X151514676Y-93366667D02*
X151628961Y-93366667D01*
X151628961Y-93366667D02*
X151705152Y-93328571D01*
X151705152Y-93328571D02*
X151743247Y-93290476D01*
X151743247Y-93290476D02*
X151781342Y-93214286D01*
X151781342Y-93214286D02*
X151781342Y-92909524D01*
X151362295Y-94090476D02*
X151362295Y-93709524D01*
X151362295Y-93709524D02*
X151743247Y-93671428D01*
X151743247Y-93671428D02*
X151705152Y-93709524D01*
X151705152Y-93709524D02*
X151667057Y-93785714D01*
X151667057Y-93785714D02*
X151667057Y-93976190D01*
X151667057Y-93976190D02*
X151705152Y-94052381D01*
X151705152Y-94052381D02*
X151743247Y-94090476D01*
X151743247Y-94090476D02*
X151819438Y-94128571D01*
X151819438Y-94128571D02*
X152009914Y-94128571D01*
X152009914Y-94128571D02*
X152086104Y-94090476D01*
X152086104Y-94090476D02*
X152124200Y-94052381D01*
X152124200Y-94052381D02*
X152162295Y-93976190D01*
X152162295Y-93976190D02*
X152162295Y-93785714D01*
X152162295Y-93785714D02*
X152124200Y-93709524D01*
X152124200Y-93709524D02*
X152086104Y-93671428D01*
X153714285Y-90286104D02*
X153752381Y-90324200D01*
X153752381Y-90324200D02*
X153866666Y-90362295D01*
X153866666Y-90362295D02*
X153942857Y-90362295D01*
X153942857Y-90362295D02*
X154057143Y-90324200D01*
X154057143Y-90324200D02*
X154133333Y-90248009D01*
X154133333Y-90248009D02*
X154171428Y-90171819D01*
X154171428Y-90171819D02*
X154209524Y-90019438D01*
X154209524Y-90019438D02*
X154209524Y-89905152D01*
X154209524Y-89905152D02*
X154171428Y-89752771D01*
X154171428Y-89752771D02*
X154133333Y-89676580D01*
X154133333Y-89676580D02*
X154057143Y-89600390D01*
X154057143Y-89600390D02*
X153942857Y-89562295D01*
X153942857Y-89562295D02*
X153866666Y-89562295D01*
X153866666Y-89562295D02*
X153752381Y-89600390D01*
X153752381Y-89600390D02*
X153714285Y-89638485D01*
X152952381Y-90362295D02*
X153409524Y-90362295D01*
X153180952Y-90362295D02*
X153180952Y-89562295D01*
X153180952Y-89562295D02*
X153257143Y-89676580D01*
X153257143Y-89676580D02*
X153333333Y-89752771D01*
X153333333Y-89752771D02*
X153409524Y-89790866D01*
X152647619Y-89638485D02*
X152609523Y-89600390D01*
X152609523Y-89600390D02*
X152533333Y-89562295D01*
X152533333Y-89562295D02*
X152342857Y-89562295D01*
X152342857Y-89562295D02*
X152266666Y-89600390D01*
X152266666Y-89600390D02*
X152228571Y-89638485D01*
X152228571Y-89638485D02*
X152190476Y-89714676D01*
X152190476Y-89714676D02*
X152190476Y-89790866D01*
X152190476Y-89790866D02*
X152228571Y-89905152D01*
X152228571Y-89905152D02*
X152685714Y-90362295D01*
X152685714Y-90362295D02*
X152190476Y-90362295D01*
X161014285Y-94762295D02*
X161280952Y-94381342D01*
X161471428Y-94762295D02*
X161471428Y-93962295D01*
X161471428Y-93962295D02*
X161166666Y-93962295D01*
X161166666Y-93962295D02*
X161090476Y-94000390D01*
X161090476Y-94000390D02*
X161052381Y-94038485D01*
X161052381Y-94038485D02*
X161014285Y-94114676D01*
X161014285Y-94114676D02*
X161014285Y-94228961D01*
X161014285Y-94228961D02*
X161052381Y-94305152D01*
X161052381Y-94305152D02*
X161090476Y-94343247D01*
X161090476Y-94343247D02*
X161166666Y-94381342D01*
X161166666Y-94381342D02*
X161471428Y-94381342D01*
X160252381Y-94762295D02*
X160709524Y-94762295D01*
X160480952Y-94762295D02*
X160480952Y-93962295D01*
X160480952Y-93962295D02*
X160557143Y-94076580D01*
X160557143Y-94076580D02*
X160633333Y-94152771D01*
X160633333Y-94152771D02*
X160709524Y-94190866D01*
X159985714Y-93962295D02*
X159490476Y-93962295D01*
X159490476Y-93962295D02*
X159757142Y-94267057D01*
X159757142Y-94267057D02*
X159642857Y-94267057D01*
X159642857Y-94267057D02*
X159566666Y-94305152D01*
X159566666Y-94305152D02*
X159528571Y-94343247D01*
X159528571Y-94343247D02*
X159490476Y-94419438D01*
X159490476Y-94419438D02*
X159490476Y-94609914D01*
X159490476Y-94609914D02*
X159528571Y-94686104D01*
X159528571Y-94686104D02*
X159566666Y-94724200D01*
X159566666Y-94724200D02*
X159642857Y-94762295D01*
X159642857Y-94762295D02*
X159871428Y-94762295D01*
X159871428Y-94762295D02*
X159947619Y-94724200D01*
X159947619Y-94724200D02*
X159985714Y-94686104D01*
X148514285Y-68486104D02*
X148552381Y-68524200D01*
X148552381Y-68524200D02*
X148666666Y-68562295D01*
X148666666Y-68562295D02*
X148742857Y-68562295D01*
X148742857Y-68562295D02*
X148857143Y-68524200D01*
X148857143Y-68524200D02*
X148933333Y-68448009D01*
X148933333Y-68448009D02*
X148971428Y-68371819D01*
X148971428Y-68371819D02*
X149009524Y-68219438D01*
X149009524Y-68219438D02*
X149009524Y-68105152D01*
X149009524Y-68105152D02*
X148971428Y-67952771D01*
X148971428Y-67952771D02*
X148933333Y-67876580D01*
X148933333Y-67876580D02*
X148857143Y-67800390D01*
X148857143Y-67800390D02*
X148742857Y-67762295D01*
X148742857Y-67762295D02*
X148666666Y-67762295D01*
X148666666Y-67762295D02*
X148552381Y-67800390D01*
X148552381Y-67800390D02*
X148514285Y-67838485D01*
X147752381Y-68562295D02*
X148209524Y-68562295D01*
X147980952Y-68562295D02*
X147980952Y-67762295D01*
X147980952Y-67762295D02*
X148057143Y-67876580D01*
X148057143Y-67876580D02*
X148133333Y-67952771D01*
X148133333Y-67952771D02*
X148209524Y-67990866D01*
X147066666Y-68028961D02*
X147066666Y-68562295D01*
X147257142Y-67724200D02*
X147447619Y-68295628D01*
X147447619Y-68295628D02*
X146952380Y-68295628D01*
X152286104Y-95866667D02*
X152324200Y-95828571D01*
X152324200Y-95828571D02*
X152362295Y-95714286D01*
X152362295Y-95714286D02*
X152362295Y-95638095D01*
X152362295Y-95638095D02*
X152324200Y-95523809D01*
X152324200Y-95523809D02*
X152248009Y-95447619D01*
X152248009Y-95447619D02*
X152171819Y-95409524D01*
X152171819Y-95409524D02*
X152019438Y-95371428D01*
X152019438Y-95371428D02*
X151905152Y-95371428D01*
X151905152Y-95371428D02*
X151752771Y-95409524D01*
X151752771Y-95409524D02*
X151676580Y-95447619D01*
X151676580Y-95447619D02*
X151600390Y-95523809D01*
X151600390Y-95523809D02*
X151562295Y-95638095D01*
X151562295Y-95638095D02*
X151562295Y-95714286D01*
X151562295Y-95714286D02*
X151600390Y-95828571D01*
X151600390Y-95828571D02*
X151638485Y-95866667D01*
X151562295Y-96552381D02*
X151562295Y-96400000D01*
X151562295Y-96400000D02*
X151600390Y-96323809D01*
X151600390Y-96323809D02*
X151638485Y-96285714D01*
X151638485Y-96285714D02*
X151752771Y-96209524D01*
X151752771Y-96209524D02*
X151905152Y-96171428D01*
X151905152Y-96171428D02*
X152209914Y-96171428D01*
X152209914Y-96171428D02*
X152286104Y-96209524D01*
X152286104Y-96209524D02*
X152324200Y-96247619D01*
X152324200Y-96247619D02*
X152362295Y-96323809D01*
X152362295Y-96323809D02*
X152362295Y-96476190D01*
X152362295Y-96476190D02*
X152324200Y-96552381D01*
X152324200Y-96552381D02*
X152286104Y-96590476D01*
X152286104Y-96590476D02*
X152209914Y-96628571D01*
X152209914Y-96628571D02*
X152019438Y-96628571D01*
X152019438Y-96628571D02*
X151943247Y-96590476D01*
X151943247Y-96590476D02*
X151905152Y-96552381D01*
X151905152Y-96552381D02*
X151867057Y-96476190D01*
X151867057Y-96476190D02*
X151867057Y-96323809D01*
X151867057Y-96323809D02*
X151905152Y-96247619D01*
X151905152Y-96247619D02*
X151943247Y-96209524D01*
X151943247Y-96209524D02*
X152019438Y-96171428D01*
X161862295Y-66085714D02*
X161481342Y-65819047D01*
X161862295Y-65628571D02*
X161062295Y-65628571D01*
X161062295Y-65628571D02*
X161062295Y-65933333D01*
X161062295Y-65933333D02*
X161100390Y-66009523D01*
X161100390Y-66009523D02*
X161138485Y-66047618D01*
X161138485Y-66047618D02*
X161214676Y-66085714D01*
X161214676Y-66085714D02*
X161328961Y-66085714D01*
X161328961Y-66085714D02*
X161405152Y-66047618D01*
X161405152Y-66047618D02*
X161443247Y-66009523D01*
X161443247Y-66009523D02*
X161481342Y-65933333D01*
X161481342Y-65933333D02*
X161481342Y-65628571D01*
X161862295Y-66847618D02*
X161862295Y-66390475D01*
X161862295Y-66619047D02*
X161062295Y-66619047D01*
X161062295Y-66619047D02*
X161176580Y-66542856D01*
X161176580Y-66542856D02*
X161252771Y-66466666D01*
X161252771Y-66466666D02*
X161290866Y-66390475D01*
X161328961Y-67533333D02*
X161862295Y-67533333D01*
X161024200Y-67342857D02*
X161595628Y-67152380D01*
X161595628Y-67152380D02*
X161595628Y-67647619D01*
X150962295Y-106666667D02*
X150581342Y-106400000D01*
X150962295Y-106209524D02*
X150162295Y-106209524D01*
X150162295Y-106209524D02*
X150162295Y-106514286D01*
X150162295Y-106514286D02*
X150200390Y-106590476D01*
X150200390Y-106590476D02*
X150238485Y-106628571D01*
X150238485Y-106628571D02*
X150314676Y-106666667D01*
X150314676Y-106666667D02*
X150428961Y-106666667D01*
X150428961Y-106666667D02*
X150505152Y-106628571D01*
X150505152Y-106628571D02*
X150543247Y-106590476D01*
X150543247Y-106590476D02*
X150581342Y-106514286D01*
X150581342Y-106514286D02*
X150581342Y-106209524D01*
X150238485Y-106971428D02*
X150200390Y-107009524D01*
X150200390Y-107009524D02*
X150162295Y-107085714D01*
X150162295Y-107085714D02*
X150162295Y-107276190D01*
X150162295Y-107276190D02*
X150200390Y-107352381D01*
X150200390Y-107352381D02*
X150238485Y-107390476D01*
X150238485Y-107390476D02*
X150314676Y-107428571D01*
X150314676Y-107428571D02*
X150390866Y-107428571D01*
X150390866Y-107428571D02*
X150505152Y-107390476D01*
X150505152Y-107390476D02*
X150962295Y-106933333D01*
X150962295Y-106933333D02*
X150962295Y-107428571D01*
X149562295Y-100866667D02*
X149181342Y-100600000D01*
X149562295Y-100409524D02*
X148762295Y-100409524D01*
X148762295Y-100409524D02*
X148762295Y-100714286D01*
X148762295Y-100714286D02*
X148800390Y-100790476D01*
X148800390Y-100790476D02*
X148838485Y-100828571D01*
X148838485Y-100828571D02*
X148914676Y-100866667D01*
X148914676Y-100866667D02*
X149028961Y-100866667D01*
X149028961Y-100866667D02*
X149105152Y-100828571D01*
X149105152Y-100828571D02*
X149143247Y-100790476D01*
X149143247Y-100790476D02*
X149181342Y-100714286D01*
X149181342Y-100714286D02*
X149181342Y-100409524D01*
X149028961Y-101552381D02*
X149562295Y-101552381D01*
X148724200Y-101361905D02*
X149295628Y-101171428D01*
X149295628Y-101171428D02*
X149295628Y-101666667D01*
X153762295Y-95590476D02*
X154409914Y-95590476D01*
X154409914Y-95590476D02*
X154486104Y-95628571D01*
X154486104Y-95628571D02*
X154524200Y-95666666D01*
X154524200Y-95666666D02*
X154562295Y-95742857D01*
X154562295Y-95742857D02*
X154562295Y-95895238D01*
X154562295Y-95895238D02*
X154524200Y-95971428D01*
X154524200Y-95971428D02*
X154486104Y-96009523D01*
X154486104Y-96009523D02*
X154409914Y-96047619D01*
X154409914Y-96047619D02*
X153762295Y-96047619D01*
X153838485Y-96390475D02*
X153800390Y-96428571D01*
X153800390Y-96428571D02*
X153762295Y-96504761D01*
X153762295Y-96504761D02*
X153762295Y-96695237D01*
X153762295Y-96695237D02*
X153800390Y-96771428D01*
X153800390Y-96771428D02*
X153838485Y-96809523D01*
X153838485Y-96809523D02*
X153914676Y-96847618D01*
X153914676Y-96847618D02*
X153990866Y-96847618D01*
X153990866Y-96847618D02*
X154105152Y-96809523D01*
X154105152Y-96809523D02*
X154562295Y-96352380D01*
X154562295Y-96352380D02*
X154562295Y-96847618D01*
X149286104Y-106666667D02*
X149324200Y-106628571D01*
X149324200Y-106628571D02*
X149362295Y-106514286D01*
X149362295Y-106514286D02*
X149362295Y-106438095D01*
X149362295Y-106438095D02*
X149324200Y-106323809D01*
X149324200Y-106323809D02*
X149248009Y-106247619D01*
X149248009Y-106247619D02*
X149171819Y-106209524D01*
X149171819Y-106209524D02*
X149019438Y-106171428D01*
X149019438Y-106171428D02*
X148905152Y-106171428D01*
X148905152Y-106171428D02*
X148752771Y-106209524D01*
X148752771Y-106209524D02*
X148676580Y-106247619D01*
X148676580Y-106247619D02*
X148600390Y-106323809D01*
X148600390Y-106323809D02*
X148562295Y-106438095D01*
X148562295Y-106438095D02*
X148562295Y-106514286D01*
X148562295Y-106514286D02*
X148600390Y-106628571D01*
X148600390Y-106628571D02*
X148638485Y-106666667D01*
X149362295Y-107428571D02*
X149362295Y-106971428D01*
X149362295Y-107200000D02*
X148562295Y-107200000D01*
X148562295Y-107200000D02*
X148676580Y-107123809D01*
X148676580Y-107123809D02*
X148752771Y-107047619D01*
X148752771Y-107047619D02*
X148790866Y-106971428D01*
X146809523Y-97962295D02*
X146352380Y-97962295D01*
X146580952Y-98762295D02*
X146580952Y-97962295D01*
X146085713Y-98762295D02*
X146085713Y-97962295D01*
X146085713Y-97962295D02*
X145780951Y-97962295D01*
X145780951Y-97962295D02*
X145704761Y-98000390D01*
X145704761Y-98000390D02*
X145666666Y-98038485D01*
X145666666Y-98038485D02*
X145628570Y-98114676D01*
X145628570Y-98114676D02*
X145628570Y-98228961D01*
X145628570Y-98228961D02*
X145666666Y-98305152D01*
X145666666Y-98305152D02*
X145704761Y-98343247D01*
X145704761Y-98343247D02*
X145780951Y-98381342D01*
X145780951Y-98381342D02*
X146085713Y-98381342D01*
X145323809Y-98038485D02*
X145285713Y-98000390D01*
X145285713Y-98000390D02*
X145209523Y-97962295D01*
X145209523Y-97962295D02*
X145019047Y-97962295D01*
X145019047Y-97962295D02*
X144942856Y-98000390D01*
X144942856Y-98000390D02*
X144904761Y-98038485D01*
X144904761Y-98038485D02*
X144866666Y-98114676D01*
X144866666Y-98114676D02*
X144866666Y-98190866D01*
X144866666Y-98190866D02*
X144904761Y-98305152D01*
X144904761Y-98305152D02*
X145361904Y-98762295D01*
X145361904Y-98762295D02*
X144866666Y-98762295D01*
X153809523Y-78362295D02*
X153352380Y-78362295D01*
X153580952Y-79162295D02*
X153580952Y-78362295D01*
X153085713Y-79162295D02*
X153085713Y-78362295D01*
X153085713Y-78362295D02*
X152780951Y-78362295D01*
X152780951Y-78362295D02*
X152704761Y-78400390D01*
X152704761Y-78400390D02*
X152666666Y-78438485D01*
X152666666Y-78438485D02*
X152628570Y-78514676D01*
X152628570Y-78514676D02*
X152628570Y-78628961D01*
X152628570Y-78628961D02*
X152666666Y-78705152D01*
X152666666Y-78705152D02*
X152704761Y-78743247D01*
X152704761Y-78743247D02*
X152780951Y-78781342D01*
X152780951Y-78781342D02*
X153085713Y-78781342D01*
X151866666Y-79162295D02*
X152323809Y-79162295D01*
X152095237Y-79162295D02*
X152095237Y-78362295D01*
X152095237Y-78362295D02*
X152171428Y-78476580D01*
X152171428Y-78476580D02*
X152247618Y-78552771D01*
X152247618Y-78552771D02*
X152323809Y-78590866D01*
X146009523Y-83062295D02*
X146009523Y-83709914D01*
X146009523Y-83709914D02*
X145971428Y-83786104D01*
X145971428Y-83786104D02*
X145933333Y-83824200D01*
X145933333Y-83824200D02*
X145857142Y-83862295D01*
X145857142Y-83862295D02*
X145704761Y-83862295D01*
X145704761Y-83862295D02*
X145628571Y-83824200D01*
X145628571Y-83824200D02*
X145590476Y-83786104D01*
X145590476Y-83786104D02*
X145552380Y-83709914D01*
X145552380Y-83709914D02*
X145552380Y-83062295D01*
X144790476Y-83062295D02*
X145171428Y-83062295D01*
X145171428Y-83062295D02*
X145209524Y-83443247D01*
X145209524Y-83443247D02*
X145171428Y-83405152D01*
X145171428Y-83405152D02*
X145095238Y-83367057D01*
X145095238Y-83367057D02*
X144904762Y-83367057D01*
X144904762Y-83367057D02*
X144828571Y-83405152D01*
X144828571Y-83405152D02*
X144790476Y-83443247D01*
X144790476Y-83443247D02*
X144752381Y-83519438D01*
X144752381Y-83519438D02*
X144752381Y-83709914D01*
X144752381Y-83709914D02*
X144790476Y-83786104D01*
X144790476Y-83786104D02*
X144828571Y-83824200D01*
X144828571Y-83824200D02*
X144904762Y-83862295D01*
X144904762Y-83862295D02*
X145095238Y-83862295D01*
X145095238Y-83862295D02*
X145171428Y-83824200D01*
X145171428Y-83824200D02*
X145209524Y-83786104D01*
X153714285Y-77686104D02*
X153752381Y-77724200D01*
X153752381Y-77724200D02*
X153866666Y-77762295D01*
X153866666Y-77762295D02*
X153942857Y-77762295D01*
X153942857Y-77762295D02*
X154057143Y-77724200D01*
X154057143Y-77724200D02*
X154133333Y-77648009D01*
X154133333Y-77648009D02*
X154171428Y-77571819D01*
X154171428Y-77571819D02*
X154209524Y-77419438D01*
X154209524Y-77419438D02*
X154209524Y-77305152D01*
X154209524Y-77305152D02*
X154171428Y-77152771D01*
X154171428Y-77152771D02*
X154133333Y-77076580D01*
X154133333Y-77076580D02*
X154057143Y-77000390D01*
X154057143Y-77000390D02*
X153942857Y-76962295D01*
X153942857Y-76962295D02*
X153866666Y-76962295D01*
X153866666Y-76962295D02*
X153752381Y-77000390D01*
X153752381Y-77000390D02*
X153714285Y-77038485D01*
X152952381Y-77762295D02*
X153409524Y-77762295D01*
X153180952Y-77762295D02*
X153180952Y-76962295D01*
X153180952Y-76962295D02*
X153257143Y-77076580D01*
X153257143Y-77076580D02*
X153333333Y-77152771D01*
X153333333Y-77152771D02*
X153409524Y-77190866D01*
X152190476Y-77762295D02*
X152647619Y-77762295D01*
X152419047Y-77762295D02*
X152419047Y-76962295D01*
X152419047Y-76962295D02*
X152495238Y-77076580D01*
X152495238Y-77076580D02*
X152571428Y-77152771D01*
X152571428Y-77152771D02*
X152647619Y-77190866D01*
X163362295Y-99366666D02*
X163362295Y-98985714D01*
X163362295Y-98985714D02*
X162562295Y-98985714D01*
X163362295Y-100052380D02*
X163362295Y-99595237D01*
X163362295Y-99823809D02*
X162562295Y-99823809D01*
X162562295Y-99823809D02*
X162676580Y-99747618D01*
X162676580Y-99747618D02*
X162752771Y-99671428D01*
X162752771Y-99671428D02*
X162790866Y-99595237D01*
X157962295Y-117790476D02*
X158609914Y-117790476D01*
X158609914Y-117790476D02*
X158686104Y-117828571D01*
X158686104Y-117828571D02*
X158724200Y-117866666D01*
X158724200Y-117866666D02*
X158762295Y-117942857D01*
X158762295Y-117942857D02*
X158762295Y-118095238D01*
X158762295Y-118095238D02*
X158724200Y-118171428D01*
X158724200Y-118171428D02*
X158686104Y-118209523D01*
X158686104Y-118209523D02*
X158609914Y-118247619D01*
X158609914Y-118247619D02*
X157962295Y-118247619D01*
X157962295Y-118552380D02*
X157962295Y-119047618D01*
X157962295Y-119047618D02*
X158267057Y-118780952D01*
X158267057Y-118780952D02*
X158267057Y-118895237D01*
X158267057Y-118895237D02*
X158305152Y-118971428D01*
X158305152Y-118971428D02*
X158343247Y-119009523D01*
X158343247Y-119009523D02*
X158419438Y-119047618D01*
X158419438Y-119047618D02*
X158609914Y-119047618D01*
X158609914Y-119047618D02*
X158686104Y-119009523D01*
X158686104Y-119009523D02*
X158724200Y-118971428D01*
X158724200Y-118971428D02*
X158762295Y-118895237D01*
X158762295Y-118895237D02*
X158762295Y-118666666D01*
X158762295Y-118666666D02*
X158724200Y-118590475D01*
X158724200Y-118590475D02*
X158686104Y-118552380D01*
X153733332Y-88362295D02*
X153999999Y-87981342D01*
X154190475Y-88362295D02*
X154190475Y-87562295D01*
X154190475Y-87562295D02*
X153885713Y-87562295D01*
X153885713Y-87562295D02*
X153809523Y-87600390D01*
X153809523Y-87600390D02*
X153771428Y-87638485D01*
X153771428Y-87638485D02*
X153733332Y-87714676D01*
X153733332Y-87714676D02*
X153733332Y-87828961D01*
X153733332Y-87828961D02*
X153771428Y-87905152D01*
X153771428Y-87905152D02*
X153809523Y-87943247D01*
X153809523Y-87943247D02*
X153885713Y-87981342D01*
X153885713Y-87981342D02*
X154190475Y-87981342D01*
X153276190Y-87905152D02*
X153352380Y-87867057D01*
X153352380Y-87867057D02*
X153390475Y-87828961D01*
X153390475Y-87828961D02*
X153428571Y-87752771D01*
X153428571Y-87752771D02*
X153428571Y-87714676D01*
X153428571Y-87714676D02*
X153390475Y-87638485D01*
X153390475Y-87638485D02*
X153352380Y-87600390D01*
X153352380Y-87600390D02*
X153276190Y-87562295D01*
X153276190Y-87562295D02*
X153123809Y-87562295D01*
X153123809Y-87562295D02*
X153047618Y-87600390D01*
X153047618Y-87600390D02*
X153009523Y-87638485D01*
X153009523Y-87638485D02*
X152971428Y-87714676D01*
X152971428Y-87714676D02*
X152971428Y-87752771D01*
X152971428Y-87752771D02*
X153009523Y-87828961D01*
X153009523Y-87828961D02*
X153047618Y-87867057D01*
X153047618Y-87867057D02*
X153123809Y-87905152D01*
X153123809Y-87905152D02*
X153276190Y-87905152D01*
X153276190Y-87905152D02*
X153352380Y-87943247D01*
X153352380Y-87943247D02*
X153390475Y-87981342D01*
X153390475Y-87981342D02*
X153428571Y-88057533D01*
X153428571Y-88057533D02*
X153428571Y-88209914D01*
X153428571Y-88209914D02*
X153390475Y-88286104D01*
X153390475Y-88286104D02*
X153352380Y-88324200D01*
X153352380Y-88324200D02*
X153276190Y-88362295D01*
X153276190Y-88362295D02*
X153123809Y-88362295D01*
X153123809Y-88362295D02*
X153047618Y-88324200D01*
X153047618Y-88324200D02*
X153009523Y-88286104D01*
X153009523Y-88286104D02*
X152971428Y-88209914D01*
X152971428Y-88209914D02*
X152971428Y-88057533D01*
X152971428Y-88057533D02*
X153009523Y-87981342D01*
X153009523Y-87981342D02*
X153047618Y-87943247D01*
X153047618Y-87943247D02*
X153123809Y-87905152D01*
X145714285Y-78815737D02*
X145752381Y-78853833D01*
X145752381Y-78853833D02*
X145866666Y-78891928D01*
X145866666Y-78891928D02*
X145942857Y-78891928D01*
X145942857Y-78891928D02*
X146057143Y-78853833D01*
X146057143Y-78853833D02*
X146133333Y-78777642D01*
X146133333Y-78777642D02*
X146171428Y-78701452D01*
X146171428Y-78701452D02*
X146209524Y-78549071D01*
X146209524Y-78549071D02*
X146209524Y-78434785D01*
X146209524Y-78434785D02*
X146171428Y-78282404D01*
X146171428Y-78282404D02*
X146133333Y-78206213D01*
X146133333Y-78206213D02*
X146057143Y-78130023D01*
X146057143Y-78130023D02*
X145942857Y-78091928D01*
X145942857Y-78091928D02*
X145866666Y-78091928D01*
X145866666Y-78091928D02*
X145752381Y-78130023D01*
X145752381Y-78130023D02*
X145714285Y-78168118D01*
X144952381Y-78891928D02*
X145409524Y-78891928D01*
X145180952Y-78891928D02*
X145180952Y-78091928D01*
X145180952Y-78091928D02*
X145257143Y-78206213D01*
X145257143Y-78206213D02*
X145333333Y-78282404D01*
X145333333Y-78282404D02*
X145409524Y-78320499D01*
X144457142Y-78091928D02*
X144380952Y-78091928D01*
X144380952Y-78091928D02*
X144304761Y-78130023D01*
X144304761Y-78130023D02*
X144266666Y-78168118D01*
X144266666Y-78168118D02*
X144228571Y-78244309D01*
X144228571Y-78244309D02*
X144190476Y-78396690D01*
X144190476Y-78396690D02*
X144190476Y-78587166D01*
X144190476Y-78587166D02*
X144228571Y-78739547D01*
X144228571Y-78739547D02*
X144266666Y-78815737D01*
X144266666Y-78815737D02*
X144304761Y-78853833D01*
X144304761Y-78853833D02*
X144380952Y-78891928D01*
X144380952Y-78891928D02*
X144457142Y-78891928D01*
X144457142Y-78891928D02*
X144533333Y-78853833D01*
X144533333Y-78853833D02*
X144571428Y-78815737D01*
X144571428Y-78815737D02*
X144609523Y-78739547D01*
X144609523Y-78739547D02*
X144647619Y-78587166D01*
X144647619Y-78587166D02*
X144647619Y-78396690D01*
X144647619Y-78396690D02*
X144609523Y-78244309D01*
X144609523Y-78244309D02*
X144571428Y-78168118D01*
X144571428Y-78168118D02*
X144533333Y-78130023D01*
X144533333Y-78130023D02*
X144457142Y-78091928D01*
X154216104Y-83391667D02*
X154254200Y-83353571D01*
X154254200Y-83353571D02*
X154292295Y-83239286D01*
X154292295Y-83239286D02*
X154292295Y-83163095D01*
X154292295Y-83163095D02*
X154254200Y-83048809D01*
X154254200Y-83048809D02*
X154178009Y-82972619D01*
X154178009Y-82972619D02*
X154101819Y-82934524D01*
X154101819Y-82934524D02*
X153949438Y-82896428D01*
X153949438Y-82896428D02*
X153835152Y-82896428D01*
X153835152Y-82896428D02*
X153682771Y-82934524D01*
X153682771Y-82934524D02*
X153606580Y-82972619D01*
X153606580Y-82972619D02*
X153530390Y-83048809D01*
X153530390Y-83048809D02*
X153492295Y-83163095D01*
X153492295Y-83163095D02*
X153492295Y-83239286D01*
X153492295Y-83239286D02*
X153530390Y-83353571D01*
X153530390Y-83353571D02*
X153568485Y-83391667D01*
X153492295Y-83658333D02*
X153492295Y-84191667D01*
X153492295Y-84191667D02*
X154292295Y-83848809D01*
X145433332Y-89262295D02*
X145699999Y-88881342D01*
X145890475Y-89262295D02*
X145890475Y-88462295D01*
X145890475Y-88462295D02*
X145585713Y-88462295D01*
X145585713Y-88462295D02*
X145509523Y-88500390D01*
X145509523Y-88500390D02*
X145471428Y-88538485D01*
X145471428Y-88538485D02*
X145433332Y-88614676D01*
X145433332Y-88614676D02*
X145433332Y-88728961D01*
X145433332Y-88728961D02*
X145471428Y-88805152D01*
X145471428Y-88805152D02*
X145509523Y-88843247D01*
X145509523Y-88843247D02*
X145585713Y-88881342D01*
X145585713Y-88881342D02*
X145890475Y-88881342D01*
X145052380Y-89262295D02*
X144899999Y-89262295D01*
X144899999Y-89262295D02*
X144823809Y-89224200D01*
X144823809Y-89224200D02*
X144785713Y-89186104D01*
X144785713Y-89186104D02*
X144709523Y-89071819D01*
X144709523Y-89071819D02*
X144671428Y-88919438D01*
X144671428Y-88919438D02*
X144671428Y-88614676D01*
X144671428Y-88614676D02*
X144709523Y-88538485D01*
X144709523Y-88538485D02*
X144747618Y-88500390D01*
X144747618Y-88500390D02*
X144823809Y-88462295D01*
X144823809Y-88462295D02*
X144976190Y-88462295D01*
X144976190Y-88462295D02*
X145052380Y-88500390D01*
X145052380Y-88500390D02*
X145090475Y-88538485D01*
X145090475Y-88538485D02*
X145128571Y-88614676D01*
X145128571Y-88614676D02*
X145128571Y-88805152D01*
X145128571Y-88805152D02*
X145090475Y-88881342D01*
X145090475Y-88881342D02*
X145052380Y-88919438D01*
X145052380Y-88919438D02*
X144976190Y-88957533D01*
X144976190Y-88957533D02*
X144823809Y-88957533D01*
X144823809Y-88957533D02*
X144747618Y-88919438D01*
X144747618Y-88919438D02*
X144709523Y-88881342D01*
X144709523Y-88881342D02*
X144671428Y-88805152D01*
X153733332Y-75962295D02*
X153999999Y-75581342D01*
X154190475Y-75962295D02*
X154190475Y-75162295D01*
X154190475Y-75162295D02*
X153885713Y-75162295D01*
X153885713Y-75162295D02*
X153809523Y-75200390D01*
X153809523Y-75200390D02*
X153771428Y-75238485D01*
X153771428Y-75238485D02*
X153733332Y-75314676D01*
X153733332Y-75314676D02*
X153733332Y-75428961D01*
X153733332Y-75428961D02*
X153771428Y-75505152D01*
X153771428Y-75505152D02*
X153809523Y-75543247D01*
X153809523Y-75543247D02*
X153885713Y-75581342D01*
X153885713Y-75581342D02*
X154190475Y-75581342D01*
X153466666Y-75162295D02*
X152933332Y-75162295D01*
X152933332Y-75162295D02*
X153276190Y-75962295D01*
X148162295Y-96885714D02*
X147781342Y-96619047D01*
X148162295Y-96428571D02*
X147362295Y-96428571D01*
X147362295Y-96428571D02*
X147362295Y-96733333D01*
X147362295Y-96733333D02*
X147400390Y-96809523D01*
X147400390Y-96809523D02*
X147438485Y-96847618D01*
X147438485Y-96847618D02*
X147514676Y-96885714D01*
X147514676Y-96885714D02*
X147628961Y-96885714D01*
X147628961Y-96885714D02*
X147705152Y-96847618D01*
X147705152Y-96847618D02*
X147743247Y-96809523D01*
X147743247Y-96809523D02*
X147781342Y-96733333D01*
X147781342Y-96733333D02*
X147781342Y-96428571D01*
X148162295Y-97647618D02*
X148162295Y-97190475D01*
X148162295Y-97419047D02*
X147362295Y-97419047D01*
X147362295Y-97419047D02*
X147476580Y-97342856D01*
X147476580Y-97342856D02*
X147552771Y-97266666D01*
X147552771Y-97266666D02*
X147590866Y-97190475D01*
X147438485Y-97952380D02*
X147400390Y-97990476D01*
X147400390Y-97990476D02*
X147362295Y-98066666D01*
X147362295Y-98066666D02*
X147362295Y-98257142D01*
X147362295Y-98257142D02*
X147400390Y-98333333D01*
X147400390Y-98333333D02*
X147438485Y-98371428D01*
X147438485Y-98371428D02*
X147514676Y-98409523D01*
X147514676Y-98409523D02*
X147590866Y-98409523D01*
X147590866Y-98409523D02*
X147705152Y-98371428D01*
X147705152Y-98371428D02*
X148162295Y-97914285D01*
X148162295Y-97914285D02*
X148162295Y-98409523D01*
X145633332Y-77362295D02*
X145899999Y-76981342D01*
X146090475Y-77362295D02*
X146090475Y-76562295D01*
X146090475Y-76562295D02*
X145785713Y-76562295D01*
X145785713Y-76562295D02*
X145709523Y-76600390D01*
X145709523Y-76600390D02*
X145671428Y-76638485D01*
X145671428Y-76638485D02*
X145633332Y-76714676D01*
X145633332Y-76714676D02*
X145633332Y-76828961D01*
X145633332Y-76828961D02*
X145671428Y-76905152D01*
X145671428Y-76905152D02*
X145709523Y-76943247D01*
X145709523Y-76943247D02*
X145785713Y-76981342D01*
X145785713Y-76981342D02*
X146090475Y-76981342D01*
X144947618Y-76562295D02*
X145099999Y-76562295D01*
X145099999Y-76562295D02*
X145176190Y-76600390D01*
X145176190Y-76600390D02*
X145214285Y-76638485D01*
X145214285Y-76638485D02*
X145290475Y-76752771D01*
X145290475Y-76752771D02*
X145328571Y-76905152D01*
X145328571Y-76905152D02*
X145328571Y-77209914D01*
X145328571Y-77209914D02*
X145290475Y-77286104D01*
X145290475Y-77286104D02*
X145252380Y-77324200D01*
X145252380Y-77324200D02*
X145176190Y-77362295D01*
X145176190Y-77362295D02*
X145023809Y-77362295D01*
X145023809Y-77362295D02*
X144947618Y-77324200D01*
X144947618Y-77324200D02*
X144909523Y-77286104D01*
X144909523Y-77286104D02*
X144871428Y-77209914D01*
X144871428Y-77209914D02*
X144871428Y-77019438D01*
X144871428Y-77019438D02*
X144909523Y-76943247D01*
X144909523Y-76943247D02*
X144947618Y-76905152D01*
X144947618Y-76905152D02*
X145023809Y-76867057D01*
X145023809Y-76867057D02*
X145176190Y-76867057D01*
X145176190Y-76867057D02*
X145252380Y-76905152D01*
X145252380Y-76905152D02*
X145290475Y-76943247D01*
X145290475Y-76943247D02*
X145328571Y-77019438D01*
X162762295Y-111666667D02*
X162381342Y-111400000D01*
X162762295Y-111209524D02*
X161962295Y-111209524D01*
X161962295Y-111209524D02*
X161962295Y-111514286D01*
X161962295Y-111514286D02*
X162000390Y-111590476D01*
X162000390Y-111590476D02*
X162038485Y-111628571D01*
X162038485Y-111628571D02*
X162114676Y-111666667D01*
X162114676Y-111666667D02*
X162228961Y-111666667D01*
X162228961Y-111666667D02*
X162305152Y-111628571D01*
X162305152Y-111628571D02*
X162343247Y-111590476D01*
X162343247Y-111590476D02*
X162381342Y-111514286D01*
X162381342Y-111514286D02*
X162381342Y-111209524D01*
X162762295Y-112428571D02*
X162762295Y-111971428D01*
X162762295Y-112200000D02*
X161962295Y-112200000D01*
X161962295Y-112200000D02*
X162076580Y-112123809D01*
X162076580Y-112123809D02*
X162152771Y-112047619D01*
X162152771Y-112047619D02*
X162190866Y-111971428D01*
X156609523Y-66662295D02*
X156609523Y-67309914D01*
X156609523Y-67309914D02*
X156571428Y-67386104D01*
X156571428Y-67386104D02*
X156533333Y-67424200D01*
X156533333Y-67424200D02*
X156457142Y-67462295D01*
X156457142Y-67462295D02*
X156304761Y-67462295D01*
X156304761Y-67462295D02*
X156228571Y-67424200D01*
X156228571Y-67424200D02*
X156190476Y-67386104D01*
X156190476Y-67386104D02*
X156152380Y-67309914D01*
X156152380Y-67309914D02*
X156152380Y-66662295D01*
X155428571Y-66928961D02*
X155428571Y-67462295D01*
X155619047Y-66624200D02*
X155809524Y-67195628D01*
X155809524Y-67195628D02*
X155314285Y-67195628D01*
X157086104Y-95866667D02*
X157124200Y-95828571D01*
X157124200Y-95828571D02*
X157162295Y-95714286D01*
X157162295Y-95714286D02*
X157162295Y-95638095D01*
X157162295Y-95638095D02*
X157124200Y-95523809D01*
X157124200Y-95523809D02*
X157048009Y-95447619D01*
X157048009Y-95447619D02*
X156971819Y-95409524D01*
X156971819Y-95409524D02*
X156819438Y-95371428D01*
X156819438Y-95371428D02*
X156705152Y-95371428D01*
X156705152Y-95371428D02*
X156552771Y-95409524D01*
X156552771Y-95409524D02*
X156476580Y-95447619D01*
X156476580Y-95447619D02*
X156400390Y-95523809D01*
X156400390Y-95523809D02*
X156362295Y-95638095D01*
X156362295Y-95638095D02*
X156362295Y-95714286D01*
X156362295Y-95714286D02*
X156400390Y-95828571D01*
X156400390Y-95828571D02*
X156438485Y-95866667D01*
X156438485Y-96171428D02*
X156400390Y-96209524D01*
X156400390Y-96209524D02*
X156362295Y-96285714D01*
X156362295Y-96285714D02*
X156362295Y-96476190D01*
X156362295Y-96476190D02*
X156400390Y-96552381D01*
X156400390Y-96552381D02*
X156438485Y-96590476D01*
X156438485Y-96590476D02*
X156514676Y-96628571D01*
X156514676Y-96628571D02*
X156590866Y-96628571D01*
X156590866Y-96628571D02*
X156705152Y-96590476D01*
X156705152Y-96590476D02*
X157162295Y-96133333D01*
X157162295Y-96133333D02*
X157162295Y-96628571D01*
X159686104Y-66466667D02*
X159724200Y-66428571D01*
X159724200Y-66428571D02*
X159762295Y-66314286D01*
X159762295Y-66314286D02*
X159762295Y-66238095D01*
X159762295Y-66238095D02*
X159724200Y-66123809D01*
X159724200Y-66123809D02*
X159648009Y-66047619D01*
X159648009Y-66047619D02*
X159571819Y-66009524D01*
X159571819Y-66009524D02*
X159419438Y-65971428D01*
X159419438Y-65971428D02*
X159305152Y-65971428D01*
X159305152Y-65971428D02*
X159152771Y-66009524D01*
X159152771Y-66009524D02*
X159076580Y-66047619D01*
X159076580Y-66047619D02*
X159000390Y-66123809D01*
X159000390Y-66123809D02*
X158962295Y-66238095D01*
X158962295Y-66238095D02*
X158962295Y-66314286D01*
X158962295Y-66314286D02*
X159000390Y-66428571D01*
X159000390Y-66428571D02*
X159038485Y-66466667D01*
X159305152Y-66923809D02*
X159267057Y-66847619D01*
X159267057Y-66847619D02*
X159228961Y-66809524D01*
X159228961Y-66809524D02*
X159152771Y-66771428D01*
X159152771Y-66771428D02*
X159114676Y-66771428D01*
X159114676Y-66771428D02*
X159038485Y-66809524D01*
X159038485Y-66809524D02*
X159000390Y-66847619D01*
X159000390Y-66847619D02*
X158962295Y-66923809D01*
X158962295Y-66923809D02*
X158962295Y-67076190D01*
X158962295Y-67076190D02*
X159000390Y-67152381D01*
X159000390Y-67152381D02*
X159038485Y-67190476D01*
X159038485Y-67190476D02*
X159114676Y-67228571D01*
X159114676Y-67228571D02*
X159152771Y-67228571D01*
X159152771Y-67228571D02*
X159228961Y-67190476D01*
X159228961Y-67190476D02*
X159267057Y-67152381D01*
X159267057Y-67152381D02*
X159305152Y-67076190D01*
X159305152Y-67076190D02*
X159305152Y-66923809D01*
X159305152Y-66923809D02*
X159343247Y-66847619D01*
X159343247Y-66847619D02*
X159381342Y-66809524D01*
X159381342Y-66809524D02*
X159457533Y-66771428D01*
X159457533Y-66771428D02*
X159609914Y-66771428D01*
X159609914Y-66771428D02*
X159686104Y-66809524D01*
X159686104Y-66809524D02*
X159724200Y-66847619D01*
X159724200Y-66847619D02*
X159762295Y-66923809D01*
X159762295Y-66923809D02*
X159762295Y-67076190D01*
X159762295Y-67076190D02*
X159724200Y-67152381D01*
X159724200Y-67152381D02*
X159686104Y-67190476D01*
X159686104Y-67190476D02*
X159609914Y-67228571D01*
X159609914Y-67228571D02*
X159457533Y-67228571D01*
X159457533Y-67228571D02*
X159381342Y-67190476D01*
X159381342Y-67190476D02*
X159343247Y-67152381D01*
X159343247Y-67152381D02*
X159305152Y-67076190D01*
X151362295Y-117990476D02*
X152009914Y-117990476D01*
X152009914Y-117990476D02*
X152086104Y-118028571D01*
X152086104Y-118028571D02*
X152124200Y-118066666D01*
X152124200Y-118066666D02*
X152162295Y-118142857D01*
X152162295Y-118142857D02*
X152162295Y-118295238D01*
X152162295Y-118295238D02*
X152124200Y-118371428D01*
X152124200Y-118371428D02*
X152086104Y-118409523D01*
X152086104Y-118409523D02*
X152009914Y-118447619D01*
X152009914Y-118447619D02*
X151362295Y-118447619D01*
X152162295Y-119247618D02*
X152162295Y-118790475D01*
X152162295Y-119019047D02*
X151362295Y-119019047D01*
X151362295Y-119019047D02*
X151476580Y-118942856D01*
X151476580Y-118942856D02*
X151552771Y-118866666D01*
X151552771Y-118866666D02*
X151590866Y-118790475D01*
X153633332Y-106286104D02*
X153671428Y-106324200D01*
X153671428Y-106324200D02*
X153785713Y-106362295D01*
X153785713Y-106362295D02*
X153861904Y-106362295D01*
X153861904Y-106362295D02*
X153976190Y-106324200D01*
X153976190Y-106324200D02*
X154052380Y-106248009D01*
X154052380Y-106248009D02*
X154090475Y-106171819D01*
X154090475Y-106171819D02*
X154128571Y-106019438D01*
X154128571Y-106019438D02*
X154128571Y-105905152D01*
X154128571Y-105905152D02*
X154090475Y-105752771D01*
X154090475Y-105752771D02*
X154052380Y-105676580D01*
X154052380Y-105676580D02*
X153976190Y-105600390D01*
X153976190Y-105600390D02*
X153861904Y-105562295D01*
X153861904Y-105562295D02*
X153785713Y-105562295D01*
X153785713Y-105562295D02*
X153671428Y-105600390D01*
X153671428Y-105600390D02*
X153633332Y-105638485D01*
X153366666Y-105562295D02*
X152871428Y-105562295D01*
X152871428Y-105562295D02*
X153138094Y-105867057D01*
X153138094Y-105867057D02*
X153023809Y-105867057D01*
X153023809Y-105867057D02*
X152947618Y-105905152D01*
X152947618Y-105905152D02*
X152909523Y-105943247D01*
X152909523Y-105943247D02*
X152871428Y-106019438D01*
X152871428Y-106019438D02*
X152871428Y-106209914D01*
X152871428Y-106209914D02*
X152909523Y-106286104D01*
X152909523Y-106286104D02*
X152947618Y-106324200D01*
X152947618Y-106324200D02*
X153023809Y-106362295D01*
X153023809Y-106362295D02*
X153252380Y-106362295D01*
X153252380Y-106362295D02*
X153328571Y-106324200D01*
X153328571Y-106324200D02*
X153366666Y-106286104D01*
X151847619Y-71562295D02*
X151314285Y-72362295D01*
X151314285Y-71562295D02*
X151847619Y-72362295D01*
X150590476Y-72362295D02*
X151047619Y-72362295D01*
X150819047Y-72362295D02*
X150819047Y-71562295D01*
X150819047Y-71562295D02*
X150895238Y-71676580D01*
X150895238Y-71676580D02*
X150971428Y-71752771D01*
X150971428Y-71752771D02*
X151047619Y-71790866D01*
X145962295Y-110085714D02*
X145581342Y-109819047D01*
X145962295Y-109628571D02*
X145162295Y-109628571D01*
X145162295Y-109628571D02*
X145162295Y-109933333D01*
X145162295Y-109933333D02*
X145200390Y-110009523D01*
X145200390Y-110009523D02*
X145238485Y-110047618D01*
X145238485Y-110047618D02*
X145314676Y-110085714D01*
X145314676Y-110085714D02*
X145428961Y-110085714D01*
X145428961Y-110085714D02*
X145505152Y-110047618D01*
X145505152Y-110047618D02*
X145543247Y-110009523D01*
X145543247Y-110009523D02*
X145581342Y-109933333D01*
X145581342Y-109933333D02*
X145581342Y-109628571D01*
X145962295Y-110847618D02*
X145962295Y-110390475D01*
X145962295Y-110619047D02*
X145162295Y-110619047D01*
X145162295Y-110619047D02*
X145276580Y-110542856D01*
X145276580Y-110542856D02*
X145352771Y-110466666D01*
X145352771Y-110466666D02*
X145390866Y-110390475D01*
X145962295Y-111609523D02*
X145962295Y-111152380D01*
X145962295Y-111380952D02*
X145162295Y-111380952D01*
X145162295Y-111380952D02*
X145276580Y-111304761D01*
X145276580Y-111304761D02*
X145352771Y-111228571D01*
X145352771Y-111228571D02*
X145390866Y-111152380D01*
X162762295Y-115666667D02*
X162381342Y-115400000D01*
X162762295Y-115209524D02*
X161962295Y-115209524D01*
X161962295Y-115209524D02*
X161962295Y-115514286D01*
X161962295Y-115514286D02*
X162000390Y-115590476D01*
X162000390Y-115590476D02*
X162038485Y-115628571D01*
X162038485Y-115628571D02*
X162114676Y-115666667D01*
X162114676Y-115666667D02*
X162228961Y-115666667D01*
X162228961Y-115666667D02*
X162305152Y-115628571D01*
X162305152Y-115628571D02*
X162343247Y-115590476D01*
X162343247Y-115590476D02*
X162381342Y-115514286D01*
X162381342Y-115514286D02*
X162381342Y-115209524D01*
X161962295Y-115933333D02*
X161962295Y-116428571D01*
X161962295Y-116428571D02*
X162267057Y-116161905D01*
X162267057Y-116161905D02*
X162267057Y-116276190D01*
X162267057Y-116276190D02*
X162305152Y-116352381D01*
X162305152Y-116352381D02*
X162343247Y-116390476D01*
X162343247Y-116390476D02*
X162419438Y-116428571D01*
X162419438Y-116428571D02*
X162609914Y-116428571D01*
X162609914Y-116428571D02*
X162686104Y-116390476D01*
X162686104Y-116390476D02*
X162724200Y-116352381D01*
X162724200Y-116352381D02*
X162762295Y-116276190D01*
X162762295Y-116276190D02*
X162762295Y-116047619D01*
X162762295Y-116047619D02*
X162724200Y-115971428D01*
X162724200Y-115971428D02*
X162686104Y-115933333D01*
D11*
%TO.C,C13*%
X148146267Y-75010000D02*
X147853733Y-75010000D01*
X148146267Y-73990000D02*
X147853733Y-73990000D01*
%TO.C,D1*%
X156000000Y-105210000D02*
X156000000Y-101350000D01*
X158000000Y-105210000D02*
X156000000Y-105210000D01*
X158000000Y-105210000D02*
X158000000Y-101350000D01*
%TO.C,R10*%
X147795276Y-89915000D02*
X148304724Y-89915000D01*
X147795276Y-90960000D02*
X148304724Y-90960000D01*
%TO.C,Q1*%
X149610000Y-93437500D02*
X149610000Y-92787500D01*
X149610000Y-93437500D02*
X149610000Y-94087500D01*
X146490000Y-93437500D02*
X146490000Y-91762500D01*
X146490000Y-93437500D02*
X146490000Y-94087500D01*
%TO.C,C9*%
X153235000Y-69238748D02*
X153235000Y-69761252D01*
X151765000Y-69238748D02*
X151765000Y-69761252D01*
%TO.C,R5*%
X151122500Y-93245276D02*
X151122500Y-93754724D01*
X150077500Y-93245276D02*
X150077500Y-93754724D01*
%TO.C,C12*%
X155853733Y-89490000D02*
X156146267Y-89490000D01*
X155853733Y-90510000D02*
X156146267Y-90510000D01*
%TO.C,R13*%
X160245276Y-94977500D02*
X160754724Y-94977500D01*
X160245276Y-96022500D02*
X160754724Y-96022500D01*
%TO.C,REF\u002A\u002A*%
X153350000Y-123200000D02*
G75*
G03*
X151450000Y-123200000I-950000J0D01*
G01*
X151450000Y-123200000D02*
G75*
G03*
X153350000Y-123200000I950000J0D01*
G01*
%TO.C,C14*%
X148146267Y-70010000D02*
X147853733Y-70010000D01*
X148146267Y-68990000D02*
X147853733Y-68990000D01*
%TO.C,C6*%
X151010000Y-97353733D02*
X151010000Y-97646267D01*
X149990000Y-97353733D02*
X149990000Y-97646267D01*
%TO.C,R14*%
X162022500Y-69245276D02*
X162022500Y-69754724D01*
X160977500Y-69245276D02*
X160977500Y-69754724D01*
%TO.C,R2*%
X149977500Y-104754724D02*
X149977500Y-104245276D01*
X151022500Y-104754724D02*
X151022500Y-104245276D01*
%TO.C,R4*%
X149977500Y-101254724D02*
X149977500Y-100745276D01*
X151022500Y-101254724D02*
X151022500Y-100745276D01*
%TO.C,U2*%
X151940000Y-100880000D02*
X151940000Y-99120000D01*
X155010000Y-99120000D02*
X155010000Y-101550000D01*
%TO.C,C1*%
X148490000Y-104646267D02*
X148490000Y-104353733D01*
X149510000Y-104646267D02*
X149510000Y-104353733D01*
%TO.C,TP2*%
X146700000Y-97000000D02*
G75*
G03*
X145300000Y-97000000I-700000J0D01*
G01*
X145300000Y-97000000D02*
G75*
G03*
X146700000Y-97000000I700000J0D01*
G01*
%TO.C,TP1*%
X151500000Y-78600000D02*
G75*
G03*
X150100000Y-78600000I-700000J0D01*
G01*
X150100000Y-78600000D02*
G75*
G03*
X151500000Y-78600000I700000J0D01*
G01*
%TO.C,U5*%
X146440000Y-83500000D02*
X146440000Y-85450000D01*
X146440000Y-83500000D02*
X146440000Y-81550000D01*
X151560000Y-83500000D02*
X151560000Y-86950000D01*
X151560000Y-83500000D02*
X151560000Y-81550000D01*
%TO.C,C11*%
X155853733Y-74990000D02*
X156146267Y-74990000D01*
X155853733Y-76010000D02*
X156146267Y-76010000D01*
%TO.C,REF\u002A\u002A*%
X158430000Y-123200000D02*
G75*
G03*
X156530000Y-123200000I-950000J0D01*
G01*
X156530000Y-123200000D02*
G75*
G03*
X158430000Y-123200000I950000J0D01*
G01*
%TO.C,L1*%
X162210000Y-98113748D02*
X162210000Y-100886252D01*
X158790000Y-98113748D02*
X158790000Y-100886252D01*
%TO.C,U3*%
X154440000Y-113800000D02*
X154440000Y-115750000D01*
X154440000Y-113800000D02*
X154440000Y-111850000D01*
X159560000Y-113800000D02*
X159560000Y-117250000D01*
X159560000Y-113800000D02*
X159560000Y-111850000D01*
%TO.C,R8*%
X156254724Y-88522500D02*
X155745276Y-88522500D01*
X156254724Y-87477500D02*
X155745276Y-87477500D01*
%TO.C,C10*%
X147853733Y-77990000D02*
X148146267Y-77990000D01*
X147853733Y-79010000D02*
X148146267Y-79010000D01*
%TO.C,C7*%
X151990000Y-83671267D02*
X151990000Y-83378733D01*
X153010000Y-83671267D02*
X153010000Y-83378733D01*
%TO.C,R9*%
X148304724Y-89460000D02*
X147795276Y-89460000D01*
X148304724Y-88415000D02*
X147795276Y-88415000D01*
%TO.C,R7*%
X156254724Y-78022500D02*
X155745276Y-78022500D01*
X156254724Y-76977500D02*
X155745276Y-76977500D01*
%TO.C,REF\u002A\u002A*%
X155890000Y-123200000D02*
G75*
G03*
X153990000Y-123200000I-950000J0D01*
G01*
X153990000Y-123200000D02*
G75*
G03*
X155890000Y-123200000I950000J0D01*
G01*
X150810000Y-123200000D02*
G75*
G03*
X148910000Y-123200000I-950000J0D01*
G01*
X148910000Y-123200000D02*
G75*
G03*
X150810000Y-123200000I950000J0D01*
G01*
%TO.C,R12*%
X148477500Y-97754724D02*
X148477500Y-97245276D01*
X149522500Y-97754724D02*
X149522500Y-97245276D01*
%TO.C,R6*%
X148254724Y-77522500D02*
X147745276Y-77522500D01*
X148254724Y-76477500D02*
X147745276Y-76477500D01*
%TO.C,R1*%
X161522500Y-111545276D02*
X161522500Y-112054724D01*
X160477500Y-111545276D02*
X160477500Y-112054724D01*
%TO.C,U4*%
X156000000Y-71060000D02*
X156800000Y-71060000D01*
X156000000Y-71060000D02*
X155200000Y-71060000D01*
X156000000Y-67940000D02*
X157800000Y-67940000D01*
X156000000Y-67940000D02*
X155200000Y-67940000D01*
%TO.C,C2*%
X157735000Y-98513748D02*
X157735000Y-99036252D01*
X156265000Y-98513748D02*
X156265000Y-99036252D01*
%TO.C,C8*%
X160235000Y-69238748D02*
X160235000Y-69761252D01*
X158765000Y-69238748D02*
X158765000Y-69761252D01*
%TO.C,U1*%
X147440000Y-113800000D02*
X147440000Y-115750000D01*
X147440000Y-113800000D02*
X147440000Y-111850000D01*
X152560000Y-113800000D02*
X152560000Y-117250000D01*
X152560000Y-113800000D02*
X152560000Y-111850000D01*
%TO.C,REF\u002A\u002A*%
X160970000Y-123190000D02*
G75*
G03*
X159070000Y-123190000I-950000J0D01*
G01*
X159070000Y-123190000D02*
G75*
G03*
X160970000Y-123190000I950000J0D01*
G01*
X163510000Y-123190000D02*
G75*
G03*
X161610000Y-123190000I-950000J0D01*
G01*
X161610000Y-123190000D02*
G75*
G03*
X163510000Y-123190000I950000J0D01*
G01*
%TO.C,C3*%
X153761252Y-105235000D02*
X153238748Y-105235000D01*
X153761252Y-103765000D02*
X153238748Y-103765000D01*
%TO.C,X1*%
X148500000Y-73100000D02*
X148500000Y-72880000D01*
X148500000Y-72880000D02*
X147500000Y-72880000D01*
X148500000Y-71120000D02*
X147500000Y-71120000D01*
%TO.C,REF\u002A\u002A*%
X148270000Y-123200000D02*
G75*
G03*
X146370000Y-123200000I-950000J0D01*
G01*
X146370000Y-123200000D02*
G75*
G03*
X148270000Y-123200000I950000J0D01*
G01*
%TO.C,R11*%
X146022500Y-113245276D02*
X146022500Y-113754724D01*
X144977500Y-113245276D02*
X144977500Y-113754724D01*
%TO.C,R3*%
X161522500Y-115545276D02*
X161522500Y-116054724D01*
X160477500Y-115545276D02*
X160477500Y-116054724D01*
%TD*%
M02*
