M48
; DRILL file {KiCad 7.0.10} date Sa 17 Feb 2024 17:59:55 CET
; FORMAT={-:-/ absolute / inch / decimal}
; #@! TF.CreationDate,2024-02-17T17:59:55+01:00
; #@! TF.GenerationSoftware,Kicad,Pcbnew,7.0.10
; #@! TF.FileFunction,Plated,1,2,PTH
FMAT,2
INCH
; #@! TA.AperFunction,Plated,PTH,ViaDrill
T1C0.0157
; #@! TA.AperFunction,Plated,PTH,ComponentDrill
T2C0.0315
; #@! TA.AperFunction,Plated,PTH,ComponentDrill
T3C0.0394
; #@! TA.AperFunction,Plated,PTH,ComponentDrill
T4C0.0433
; #@! TA.AperFunction,Plated,PTH,ComponentDrill
T5C0.0512
; #@! TA.AperFunction,Plated,PTH,ComponentDrill
T6C0.1260
%
G90
G05
T1
X5.7283Y-2.8543
X5.7362Y-2.9331
X5.7441Y-2.7362
X5.7874Y-3.9764
X5.8071Y-4.2323
X5.8465Y-4.6457
X5.8563Y-4.311
X5.8661Y-4.4488
X5.874Y-3.7047
X5.8824Y-3.9405
X5.9173Y-3.563
X5.9173Y-3.6024
X5.9252Y-4.6457
X5.937Y-3.0276
X5.9449Y-3.2677
X5.9646Y-4.5079
X5.9843Y-3.937
X6.0039Y-3.1811
X6.0039Y-4.0673
X6.0433Y-3.937
X6.0448Y-2.7362
X6.063Y-4.4488
X6.1024Y-4.6457
X6.122Y-3.937
X6.1319Y-3.2441
X6.2205Y-2.9724
X6.2205Y-3.5433
X6.2598Y-3.9296
X6.2638Y-3.248
X6.3189Y-3.9296
X6.3386Y-4.6457
X6.3976Y-3.189
X6.4055Y-3.248
X6.4252Y-2.5787
T2
X5.7323Y-4.0266
X5.7323Y-4.2234
X5.7323Y-4.5866
X5.7323Y-4.7835
T3
X5.7154Y-2.6181
X5.8154Y-2.6181
X5.9154Y-2.6181
T4
X6.1319Y-2.8839
X6.1319Y-3.1398
X6.1319Y-3.376
X6.1319Y-3.6319
X6.3091Y-2.8839
X6.3091Y-3.1398
X6.3091Y-3.376
X6.3091Y-3.6319
T5
X6.1063Y-2.4764
X6.1063Y-4.7205
X6.3031Y-2.4764
X6.3031Y-4.7205
T6
X5.8071Y-2.4213
X6.3189Y-4.2126
M30
