%TF.GenerationSoftware,KiCad,Pcbnew,7.0.10*%
%TF.CreationDate,2024-02-17T17:59:56+01:00*%
%TF.ProjectId,Master_Clock,4d617374-6572-45f4-936c-6f636b2e6b69,1.1*%
%TF.SameCoordinates,Original*%
%TF.FileFunction,Drillmap*%
%TF.FilePolarity,Positive*%
%FSLAX45Y45*%
G04 Gerber Fmt 4.5, Leading zero omitted, Abs format (unit mm)*
G04 Created by KiCad (PCBNEW 7.0.10) date 2024-02-17 17:59:56*
%MOMM*%
%LPD*%
G01*
G04 APERTURE LIST*
%ADD10C,0.150000*%
%ADD11C,0.200000*%
%ADD12C,0.100000*%
%ADD13C,0.110000*%
%ADD14C,0.130000*%
%ADD15C,0.320000*%
G04 APERTURE END LIST*
D10*
X14400000Y-5800000D02*
X16400000Y-5800000D01*
X16400000Y-12500000D01*
X14400000Y-12500000D01*
X14400000Y-5800000D01*
D11*
D12*
X14530000Y-7230000D02*
X14570000Y-7270000D01*
X14570000Y-7230000D02*
X14530000Y-7270000D01*
X14550000Y-7430000D02*
X14590000Y-7470000D01*
X14590000Y-7430000D02*
X14550000Y-7470000D01*
X14570000Y-6930000D02*
X14610000Y-6970000D01*
X14610000Y-6930000D02*
X14570000Y-6970000D01*
X14680000Y-10080000D02*
X14720000Y-10120000D01*
X14720000Y-10080000D02*
X14680000Y-10120000D01*
X14730000Y-10730000D02*
X14770000Y-10770000D01*
X14770000Y-10730000D02*
X14730000Y-10770000D01*
X14830000Y-11780000D02*
X14870000Y-11820000D01*
X14870000Y-11780000D02*
X14830000Y-11820000D01*
X14855000Y-10930000D02*
X14895000Y-10970000D01*
X14895000Y-10930000D02*
X14855000Y-10970000D01*
X14880000Y-11280000D02*
X14920000Y-11320000D01*
X14920000Y-11280000D02*
X14880000Y-11320000D01*
X14900000Y-9390000D02*
X14940000Y-9430000D01*
X14940000Y-9390000D02*
X14900000Y-9430000D01*
X14921250Y-9988750D02*
X14961250Y-10028750D01*
X14961250Y-9988750D02*
X14921250Y-10028750D01*
X15010000Y-9030000D02*
X15050000Y-9070000D01*
X15050000Y-9030000D02*
X15010000Y-9070000D01*
X15010000Y-9130000D02*
X15050000Y-9170000D01*
X15050000Y-9130000D02*
X15010000Y-9170000D01*
X15030000Y-11780000D02*
X15070000Y-11820000D01*
X15070000Y-11780000D02*
X15030000Y-11820000D01*
X15060000Y-7670000D02*
X15100000Y-7710000D01*
X15100000Y-7670000D02*
X15060000Y-7710000D01*
X15080000Y-8280000D02*
X15120000Y-8320000D01*
X15120000Y-8280000D02*
X15080000Y-8320000D01*
X15130000Y-11430000D02*
X15170000Y-11470000D01*
X15170000Y-11430000D02*
X15130000Y-11470000D01*
X15180000Y-9980000D02*
X15220000Y-10020000D01*
X15220000Y-9980000D02*
X15180000Y-10020000D01*
X15230000Y-8060000D02*
X15270000Y-8100000D01*
X15270000Y-8060000D02*
X15230000Y-8100000D01*
X15230000Y-10310950D02*
X15270000Y-10350950D01*
X15270000Y-10310950D02*
X15230000Y-10350950D01*
X15330000Y-9980000D02*
X15370000Y-10020000D01*
X15370000Y-9980000D02*
X15330000Y-10020000D01*
X15333750Y-6930000D02*
X15373750Y-6970000D01*
X15373750Y-6930000D02*
X15333750Y-6970000D01*
X15380000Y-11280000D02*
X15420000Y-11320000D01*
X15420000Y-11280000D02*
X15380000Y-11320000D01*
X15480000Y-11780000D02*
X15520000Y-11820000D01*
X15520000Y-11780000D02*
X15480000Y-11820000D01*
X15530000Y-9980000D02*
X15570000Y-10020000D01*
X15570000Y-9980000D02*
X15530000Y-10020000D01*
X15555000Y-8220000D02*
X15595000Y-8260000D01*
X15595000Y-8220000D02*
X15555000Y-8260000D01*
X15780000Y-7530000D02*
X15820000Y-7570000D01*
X15820000Y-7530000D02*
X15780000Y-7570000D01*
X15780000Y-8980000D02*
X15820000Y-9020000D01*
X15820000Y-8980000D02*
X15780000Y-9020000D01*
X15880000Y-9961250D02*
X15920000Y-10001250D01*
X15920000Y-9961250D02*
X15880000Y-10001250D01*
X15890000Y-8230000D02*
X15930000Y-8270000D01*
X15930000Y-8230000D02*
X15890000Y-8270000D01*
X16030000Y-9961250D02*
X16070000Y-10001250D01*
X16070000Y-9961250D02*
X16030000Y-10001250D01*
X16080000Y-11780000D02*
X16120000Y-11820000D01*
X16120000Y-11780000D02*
X16080000Y-11820000D01*
X16230000Y-8080000D02*
X16270000Y-8120000D01*
X16270000Y-8080000D02*
X16230000Y-8120000D01*
X16250000Y-8230000D02*
X16290000Y-8270000D01*
X16290000Y-8230000D02*
X16250000Y-8270000D01*
X16300000Y-6530000D02*
X16340000Y-6570000D01*
X16340000Y-6530000D02*
X16300000Y-6570000D01*
X14600000Y-10227500D02*
G75*
G03*
X14520000Y-10227500I-40000J0D01*
G01*
X14520000Y-10227500D02*
G75*
G03*
X14600000Y-10227500I40000J0D01*
G01*
X14600000Y-10727500D02*
G75*
G03*
X14520000Y-10727500I-40000J0D01*
G01*
X14520000Y-10727500D02*
G75*
G03*
X14600000Y-10727500I40000J0D01*
G01*
X14600000Y-11650000D02*
G75*
G03*
X14520000Y-11650000I-40000J0D01*
G01*
X14520000Y-11650000D02*
G75*
G03*
X14600000Y-11650000I40000J0D01*
G01*
X14600000Y-12150000D02*
G75*
G03*
X14520000Y-12150000I-40000J0D01*
G01*
X14520000Y-12150000D02*
G75*
G03*
X14600000Y-12150000I40000J0D01*
G01*
X14517000Y-6600000D02*
X14517000Y-6700000D01*
X14467000Y-6650000D02*
X14567000Y-6650000D01*
X14771000Y-6600000D02*
X14771000Y-6700000D01*
X14721000Y-6650000D02*
X14821000Y-6650000D01*
X15025000Y-6600000D02*
X15025000Y-6700000D01*
X14975000Y-6650000D02*
X15075000Y-6650000D01*
D13*
X15613891Y-7363891D02*
X15613891Y-7286109D01*
X15536109Y-7286109D01*
X15536109Y-7363891D01*
X15613891Y-7363891D01*
X15613891Y-8013891D02*
X15613891Y-7936109D01*
X15536109Y-7936109D01*
X15536109Y-8013891D01*
X15613891Y-8013891D01*
X15613891Y-8613891D02*
X15613891Y-8536109D01*
X15536109Y-8536109D01*
X15536109Y-8613891D01*
X15613891Y-8613891D01*
X15613891Y-9263891D02*
X15613891Y-9186109D01*
X15536109Y-9186109D01*
X15536109Y-9263891D01*
X15613891Y-9263891D01*
X16063891Y-7363891D02*
X16063891Y-7286109D01*
X15986109Y-7286109D01*
X15986109Y-7363891D01*
X16063891Y-7363891D01*
X16063891Y-8013891D02*
X16063891Y-7936109D01*
X15986109Y-7936109D01*
X15986109Y-8013891D01*
X16063891Y-8013891D01*
X16063891Y-8613891D02*
X16063891Y-8536109D01*
X15986109Y-8536109D01*
X15986109Y-8613891D01*
X16063891Y-8613891D01*
X16063891Y-9263891D02*
X16063891Y-9186109D01*
X15986109Y-9186109D01*
X15986109Y-9263891D01*
X16063891Y-9263891D01*
D14*
X15510000Y-6355000D02*
X15575000Y-6290000D01*
X15510000Y-6225000D01*
X15445000Y-6290000D01*
X15510000Y-6355000D01*
X15510000Y-12055000D02*
X15575000Y-11990000D01*
X15510000Y-11925000D01*
X15445000Y-11990000D01*
X15510000Y-12055000D01*
X16010000Y-6355000D02*
X16075000Y-6290000D01*
X16010000Y-6225000D01*
X15945000Y-6290000D01*
X16010000Y-6355000D01*
X16010000Y-12055000D02*
X16075000Y-11990000D01*
X16010000Y-11925000D01*
X15945000Y-11990000D01*
X16010000Y-12055000D01*
D15*
X14590000Y-5990000D02*
X14910000Y-6310000D01*
X14910000Y-5990000D02*
X14590000Y-6310000D01*
X14910000Y-6150000D02*
G75*
G03*
X14590000Y-6150000I-160000J0D01*
G01*
X14590000Y-6150000D02*
G75*
G03*
X14910000Y-6150000I160000J0D01*
G01*
X15890000Y-10540000D02*
X16210000Y-10860000D01*
X16210000Y-10540000D02*
X15890000Y-10860000D01*
X16210000Y-10700000D02*
G75*
G03*
X15890000Y-10700000I-160000J0D01*
G01*
X15890000Y-10700000D02*
G75*
G03*
X16210000Y-10700000I160000J0D01*
G01*
D11*
X14653277Y-12818984D02*
X14653277Y-12618984D01*
X14653277Y-12618984D02*
X14700896Y-12618984D01*
X14700896Y-12618984D02*
X14729467Y-12628508D01*
X14729467Y-12628508D02*
X14748515Y-12647555D01*
X14748515Y-12647555D02*
X14758039Y-12666603D01*
X14758039Y-12666603D02*
X14767562Y-12704698D01*
X14767562Y-12704698D02*
X14767562Y-12733269D01*
X14767562Y-12733269D02*
X14758039Y-12771365D01*
X14758039Y-12771365D02*
X14748515Y-12790412D01*
X14748515Y-12790412D02*
X14729467Y-12809460D01*
X14729467Y-12809460D02*
X14700896Y-12818984D01*
X14700896Y-12818984D02*
X14653277Y-12818984D01*
X14853277Y-12818984D02*
X14853277Y-12685650D01*
X14853277Y-12723746D02*
X14862801Y-12704698D01*
X14862801Y-12704698D02*
X14872324Y-12695174D01*
X14872324Y-12695174D02*
X14891372Y-12685650D01*
X14891372Y-12685650D02*
X14910420Y-12685650D01*
X14977086Y-12818984D02*
X14977086Y-12685650D01*
X14977086Y-12618984D02*
X14967562Y-12628508D01*
X14967562Y-12628508D02*
X14977086Y-12638031D01*
X14977086Y-12638031D02*
X14986610Y-12628508D01*
X14986610Y-12628508D02*
X14977086Y-12618984D01*
X14977086Y-12618984D02*
X14977086Y-12638031D01*
X15100896Y-12818984D02*
X15081848Y-12809460D01*
X15081848Y-12809460D02*
X15072324Y-12790412D01*
X15072324Y-12790412D02*
X15072324Y-12618984D01*
X15205658Y-12818984D02*
X15186610Y-12809460D01*
X15186610Y-12809460D02*
X15177086Y-12790412D01*
X15177086Y-12790412D02*
X15177086Y-12618984D01*
X15434229Y-12818984D02*
X15434229Y-12618984D01*
X15434229Y-12618984D02*
X15500896Y-12761841D01*
X15500896Y-12761841D02*
X15567562Y-12618984D01*
X15567562Y-12618984D02*
X15567562Y-12818984D01*
X15748515Y-12818984D02*
X15748515Y-12714222D01*
X15748515Y-12714222D02*
X15738991Y-12695174D01*
X15738991Y-12695174D02*
X15719943Y-12685650D01*
X15719943Y-12685650D02*
X15681848Y-12685650D01*
X15681848Y-12685650D02*
X15662801Y-12695174D01*
X15748515Y-12809460D02*
X15729467Y-12818984D01*
X15729467Y-12818984D02*
X15681848Y-12818984D01*
X15681848Y-12818984D02*
X15662801Y-12809460D01*
X15662801Y-12809460D02*
X15653277Y-12790412D01*
X15653277Y-12790412D02*
X15653277Y-12771365D01*
X15653277Y-12771365D02*
X15662801Y-12752317D01*
X15662801Y-12752317D02*
X15681848Y-12742793D01*
X15681848Y-12742793D02*
X15729467Y-12742793D01*
X15729467Y-12742793D02*
X15748515Y-12733269D01*
X15843753Y-12685650D02*
X15843753Y-12885650D01*
X15843753Y-12695174D02*
X15862801Y-12685650D01*
X15862801Y-12685650D02*
X15900896Y-12685650D01*
X15900896Y-12685650D02*
X15919943Y-12695174D01*
X15919943Y-12695174D02*
X15929467Y-12704698D01*
X15929467Y-12704698D02*
X15938991Y-12723746D01*
X15938991Y-12723746D02*
X15938991Y-12780888D01*
X15938991Y-12780888D02*
X15929467Y-12799936D01*
X15929467Y-12799936D02*
X15919943Y-12809460D01*
X15919943Y-12809460D02*
X15900896Y-12818984D01*
X15900896Y-12818984D02*
X15862801Y-12818984D01*
X15862801Y-12818984D02*
X15843753Y-12809460D01*
X16024705Y-12799936D02*
X16034229Y-12809460D01*
X16034229Y-12809460D02*
X16024705Y-12818984D01*
X16024705Y-12818984D02*
X16015182Y-12809460D01*
X16015182Y-12809460D02*
X16024705Y-12799936D01*
X16024705Y-12799936D02*
X16024705Y-12818984D01*
X16024705Y-12695174D02*
X16034229Y-12704698D01*
X16034229Y-12704698D02*
X16024705Y-12714222D01*
X16024705Y-12714222D02*
X16015182Y-12704698D01*
X16015182Y-12704698D02*
X16024705Y-12695174D01*
X16024705Y-12695174D02*
X16024705Y-12714222D01*
D12*
X14352500Y-13127500D02*
X14392500Y-13167500D01*
X14392500Y-13127500D02*
X14352500Y-13167500D01*
D11*
X14691372Y-13038984D02*
X14710420Y-13038984D01*
X14710420Y-13038984D02*
X14729467Y-13048508D01*
X14729467Y-13048508D02*
X14738991Y-13058031D01*
X14738991Y-13058031D02*
X14748515Y-13077079D01*
X14748515Y-13077079D02*
X14758039Y-13115174D01*
X14758039Y-13115174D02*
X14758039Y-13162793D01*
X14758039Y-13162793D02*
X14748515Y-13200888D01*
X14748515Y-13200888D02*
X14738991Y-13219936D01*
X14738991Y-13219936D02*
X14729467Y-13229460D01*
X14729467Y-13229460D02*
X14710420Y-13238984D01*
X14710420Y-13238984D02*
X14691372Y-13238984D01*
X14691372Y-13238984D02*
X14672324Y-13229460D01*
X14672324Y-13229460D02*
X14662801Y-13219936D01*
X14662801Y-13219936D02*
X14653277Y-13200888D01*
X14653277Y-13200888D02*
X14643753Y-13162793D01*
X14643753Y-13162793D02*
X14643753Y-13115174D01*
X14643753Y-13115174D02*
X14653277Y-13077079D01*
X14653277Y-13077079D02*
X14662801Y-13058031D01*
X14662801Y-13058031D02*
X14672324Y-13048508D01*
X14672324Y-13048508D02*
X14691372Y-13038984D01*
X14843753Y-13219936D02*
X14853277Y-13229460D01*
X14853277Y-13229460D02*
X14843753Y-13238984D01*
X14843753Y-13238984D02*
X14834229Y-13229460D01*
X14834229Y-13229460D02*
X14843753Y-13219936D01*
X14843753Y-13219936D02*
X14843753Y-13238984D01*
X15024705Y-13105650D02*
X15024705Y-13238984D01*
X14977086Y-13029460D02*
X14929467Y-13172317D01*
X14929467Y-13172317D02*
X15053277Y-13172317D01*
X15167562Y-13038984D02*
X15186610Y-13038984D01*
X15186610Y-13038984D02*
X15205658Y-13048508D01*
X15205658Y-13048508D02*
X15215182Y-13058031D01*
X15215182Y-13058031D02*
X15224705Y-13077079D01*
X15224705Y-13077079D02*
X15234229Y-13115174D01*
X15234229Y-13115174D02*
X15234229Y-13162793D01*
X15234229Y-13162793D02*
X15224705Y-13200888D01*
X15224705Y-13200888D02*
X15215182Y-13219936D01*
X15215182Y-13219936D02*
X15205658Y-13229460D01*
X15205658Y-13229460D02*
X15186610Y-13238984D01*
X15186610Y-13238984D02*
X15167562Y-13238984D01*
X15167562Y-13238984D02*
X15148515Y-13229460D01*
X15148515Y-13229460D02*
X15138991Y-13219936D01*
X15138991Y-13219936D02*
X15129467Y-13200888D01*
X15129467Y-13200888D02*
X15119943Y-13162793D01*
X15119943Y-13162793D02*
X15119943Y-13115174D01*
X15119943Y-13115174D02*
X15129467Y-13077079D01*
X15129467Y-13077079D02*
X15138991Y-13058031D01*
X15138991Y-13058031D02*
X15148515Y-13048508D01*
X15148515Y-13048508D02*
X15167562Y-13038984D01*
X15358039Y-13038984D02*
X15377086Y-13038984D01*
X15377086Y-13038984D02*
X15396134Y-13048508D01*
X15396134Y-13048508D02*
X15405658Y-13058031D01*
X15405658Y-13058031D02*
X15415182Y-13077079D01*
X15415182Y-13077079D02*
X15424705Y-13115174D01*
X15424705Y-13115174D02*
X15424705Y-13162793D01*
X15424705Y-13162793D02*
X15415182Y-13200888D01*
X15415182Y-13200888D02*
X15405658Y-13219936D01*
X15405658Y-13219936D02*
X15396134Y-13229460D01*
X15396134Y-13229460D02*
X15377086Y-13238984D01*
X15377086Y-13238984D02*
X15358039Y-13238984D01*
X15358039Y-13238984D02*
X15338991Y-13229460D01*
X15338991Y-13229460D02*
X15329467Y-13219936D01*
X15329467Y-13219936D02*
X15319943Y-13200888D01*
X15319943Y-13200888D02*
X15310420Y-13162793D01*
X15310420Y-13162793D02*
X15310420Y-13115174D01*
X15310420Y-13115174D02*
X15319943Y-13077079D01*
X15319943Y-13077079D02*
X15329467Y-13058031D01*
X15329467Y-13058031D02*
X15338991Y-13048508D01*
X15338991Y-13048508D02*
X15358039Y-13038984D01*
X15510420Y-13238984D02*
X15510420Y-13105650D01*
X15510420Y-13124698D02*
X15519943Y-13115174D01*
X15519943Y-13115174D02*
X15538991Y-13105650D01*
X15538991Y-13105650D02*
X15567563Y-13105650D01*
X15567563Y-13105650D02*
X15586610Y-13115174D01*
X15586610Y-13115174D02*
X15596134Y-13134222D01*
X15596134Y-13134222D02*
X15596134Y-13238984D01*
X15596134Y-13134222D02*
X15605658Y-13115174D01*
X15605658Y-13115174D02*
X15624705Y-13105650D01*
X15624705Y-13105650D02*
X15653277Y-13105650D01*
X15653277Y-13105650D02*
X15672324Y-13115174D01*
X15672324Y-13115174D02*
X15681848Y-13134222D01*
X15681848Y-13134222D02*
X15681848Y-13238984D01*
X15777086Y-13238984D02*
X15777086Y-13105650D01*
X15777086Y-13124698D02*
X15786610Y-13115174D01*
X15786610Y-13115174D02*
X15805658Y-13105650D01*
X15805658Y-13105650D02*
X15834229Y-13105650D01*
X15834229Y-13105650D02*
X15853277Y-13115174D01*
X15853277Y-13115174D02*
X15862801Y-13134222D01*
X15862801Y-13134222D02*
X15862801Y-13238984D01*
X15862801Y-13134222D02*
X15872324Y-13115174D01*
X15872324Y-13115174D02*
X15891372Y-13105650D01*
X15891372Y-13105650D02*
X15919943Y-13105650D01*
X15919943Y-13105650D02*
X15938991Y-13115174D01*
X15938991Y-13115174D02*
X15948515Y-13134222D01*
X15948515Y-13134222D02*
X15948515Y-13238984D01*
X16338991Y-13029460D02*
X16167563Y-13286603D01*
X16596134Y-13038984D02*
X16615182Y-13038984D01*
X16615182Y-13038984D02*
X16634229Y-13048508D01*
X16634229Y-13048508D02*
X16643753Y-13058031D01*
X16643753Y-13058031D02*
X16653277Y-13077079D01*
X16653277Y-13077079D02*
X16662801Y-13115174D01*
X16662801Y-13115174D02*
X16662801Y-13162793D01*
X16662801Y-13162793D02*
X16653277Y-13200888D01*
X16653277Y-13200888D02*
X16643753Y-13219936D01*
X16643753Y-13219936D02*
X16634229Y-13229460D01*
X16634229Y-13229460D02*
X16615182Y-13238984D01*
X16615182Y-13238984D02*
X16596134Y-13238984D01*
X16596134Y-13238984D02*
X16577086Y-13229460D01*
X16577086Y-13229460D02*
X16567563Y-13219936D01*
X16567563Y-13219936D02*
X16558039Y-13200888D01*
X16558039Y-13200888D02*
X16548515Y-13162793D01*
X16548515Y-13162793D02*
X16548515Y-13115174D01*
X16548515Y-13115174D02*
X16558039Y-13077079D01*
X16558039Y-13077079D02*
X16567563Y-13058031D01*
X16567563Y-13058031D02*
X16577086Y-13048508D01*
X16577086Y-13048508D02*
X16596134Y-13038984D01*
X16748515Y-13219936D02*
X16758039Y-13229460D01*
X16758039Y-13229460D02*
X16748515Y-13238984D01*
X16748515Y-13238984D02*
X16738991Y-13229460D01*
X16738991Y-13229460D02*
X16748515Y-13219936D01*
X16748515Y-13219936D02*
X16748515Y-13238984D01*
X16881848Y-13038984D02*
X16900896Y-13038984D01*
X16900896Y-13038984D02*
X16919944Y-13048508D01*
X16919944Y-13048508D02*
X16929468Y-13058031D01*
X16929468Y-13058031D02*
X16938991Y-13077079D01*
X16938991Y-13077079D02*
X16948515Y-13115174D01*
X16948515Y-13115174D02*
X16948515Y-13162793D01*
X16948515Y-13162793D02*
X16938991Y-13200888D01*
X16938991Y-13200888D02*
X16929468Y-13219936D01*
X16929468Y-13219936D02*
X16919944Y-13229460D01*
X16919944Y-13229460D02*
X16900896Y-13238984D01*
X16900896Y-13238984D02*
X16881848Y-13238984D01*
X16881848Y-13238984D02*
X16862801Y-13229460D01*
X16862801Y-13229460D02*
X16853277Y-13219936D01*
X16853277Y-13219936D02*
X16843753Y-13200888D01*
X16843753Y-13200888D02*
X16834229Y-13162793D01*
X16834229Y-13162793D02*
X16834229Y-13115174D01*
X16834229Y-13115174D02*
X16843753Y-13077079D01*
X16843753Y-13077079D02*
X16853277Y-13058031D01*
X16853277Y-13058031D02*
X16862801Y-13048508D01*
X16862801Y-13048508D02*
X16881848Y-13038984D01*
X17138991Y-13238984D02*
X17024706Y-13238984D01*
X17081848Y-13238984D02*
X17081848Y-13038984D01*
X17081848Y-13038984D02*
X17062801Y-13067555D01*
X17062801Y-13067555D02*
X17043753Y-13086603D01*
X17043753Y-13086603D02*
X17024706Y-13096127D01*
X17319944Y-13038984D02*
X17224706Y-13038984D01*
X17224706Y-13038984D02*
X17215182Y-13134222D01*
X17215182Y-13134222D02*
X17224706Y-13124698D01*
X17224706Y-13124698D02*
X17243753Y-13115174D01*
X17243753Y-13115174D02*
X17291372Y-13115174D01*
X17291372Y-13115174D02*
X17310420Y-13124698D01*
X17310420Y-13124698D02*
X17319944Y-13134222D01*
X17319944Y-13134222D02*
X17329468Y-13153269D01*
X17329468Y-13153269D02*
X17329468Y-13200888D01*
X17329468Y-13200888D02*
X17319944Y-13219936D01*
X17319944Y-13219936D02*
X17310420Y-13229460D01*
X17310420Y-13229460D02*
X17291372Y-13238984D01*
X17291372Y-13238984D02*
X17243753Y-13238984D01*
X17243753Y-13238984D02*
X17224706Y-13229460D01*
X17224706Y-13229460D02*
X17215182Y-13219936D01*
X17396134Y-13038984D02*
X17529468Y-13038984D01*
X17529468Y-13038984D02*
X17443753Y-13238984D01*
X17596134Y-13038984D02*
X17596134Y-13077079D01*
X17672325Y-13038984D02*
X17672325Y-13077079D01*
X17967563Y-13315174D02*
X17958039Y-13305650D01*
X17958039Y-13305650D02*
X17938991Y-13277079D01*
X17938991Y-13277079D02*
X17929468Y-13258031D01*
X17929468Y-13258031D02*
X17919944Y-13229460D01*
X17919944Y-13229460D02*
X17910420Y-13181841D01*
X17910420Y-13181841D02*
X17910420Y-13143746D01*
X17910420Y-13143746D02*
X17919944Y-13096127D01*
X17919944Y-13096127D02*
X17929468Y-13067555D01*
X17929468Y-13067555D02*
X17938991Y-13048508D01*
X17938991Y-13048508D02*
X17958039Y-13019936D01*
X17958039Y-13019936D02*
X17967563Y-13010412D01*
X18024706Y-13038984D02*
X18148515Y-13038984D01*
X18148515Y-13038984D02*
X18081849Y-13115174D01*
X18081849Y-13115174D02*
X18110420Y-13115174D01*
X18110420Y-13115174D02*
X18129468Y-13124698D01*
X18129468Y-13124698D02*
X18138991Y-13134222D01*
X18138991Y-13134222D02*
X18148515Y-13153269D01*
X18148515Y-13153269D02*
X18148515Y-13200888D01*
X18148515Y-13200888D02*
X18138991Y-13219936D01*
X18138991Y-13219936D02*
X18129468Y-13229460D01*
X18129468Y-13229460D02*
X18110420Y-13238984D01*
X18110420Y-13238984D02*
X18053277Y-13238984D01*
X18053277Y-13238984D02*
X18034230Y-13229460D01*
X18034230Y-13229460D02*
X18024706Y-13219936D01*
X18319944Y-13105650D02*
X18319944Y-13238984D01*
X18272325Y-13029460D02*
X18224706Y-13172317D01*
X18224706Y-13172317D02*
X18348515Y-13172317D01*
X18577087Y-13238984D02*
X18577087Y-13038984D01*
X18662801Y-13238984D02*
X18662801Y-13134222D01*
X18662801Y-13134222D02*
X18653277Y-13115174D01*
X18653277Y-13115174D02*
X18634230Y-13105650D01*
X18634230Y-13105650D02*
X18605658Y-13105650D01*
X18605658Y-13105650D02*
X18586611Y-13115174D01*
X18586611Y-13115174D02*
X18577087Y-13124698D01*
X18786611Y-13238984D02*
X18767563Y-13229460D01*
X18767563Y-13229460D02*
X18758039Y-13219936D01*
X18758039Y-13219936D02*
X18748515Y-13200888D01*
X18748515Y-13200888D02*
X18748515Y-13143746D01*
X18748515Y-13143746D02*
X18758039Y-13124698D01*
X18758039Y-13124698D02*
X18767563Y-13115174D01*
X18767563Y-13115174D02*
X18786611Y-13105650D01*
X18786611Y-13105650D02*
X18815182Y-13105650D01*
X18815182Y-13105650D02*
X18834230Y-13115174D01*
X18834230Y-13115174D02*
X18843753Y-13124698D01*
X18843753Y-13124698D02*
X18853277Y-13143746D01*
X18853277Y-13143746D02*
X18853277Y-13200888D01*
X18853277Y-13200888D02*
X18843753Y-13219936D01*
X18843753Y-13219936D02*
X18834230Y-13229460D01*
X18834230Y-13229460D02*
X18815182Y-13238984D01*
X18815182Y-13238984D02*
X18786611Y-13238984D01*
X18967563Y-13238984D02*
X18948515Y-13229460D01*
X18948515Y-13229460D02*
X18938992Y-13210412D01*
X18938992Y-13210412D02*
X18938992Y-13038984D01*
X19119944Y-13229460D02*
X19100896Y-13238984D01*
X19100896Y-13238984D02*
X19062801Y-13238984D01*
X19062801Y-13238984D02*
X19043753Y-13229460D01*
X19043753Y-13229460D02*
X19034230Y-13210412D01*
X19034230Y-13210412D02*
X19034230Y-13134222D01*
X19034230Y-13134222D02*
X19043753Y-13115174D01*
X19043753Y-13115174D02*
X19062801Y-13105650D01*
X19062801Y-13105650D02*
X19100896Y-13105650D01*
X19100896Y-13105650D02*
X19119944Y-13115174D01*
X19119944Y-13115174D02*
X19129468Y-13134222D01*
X19129468Y-13134222D02*
X19129468Y-13153269D01*
X19129468Y-13153269D02*
X19034230Y-13172317D01*
X19205658Y-13229460D02*
X19224706Y-13238984D01*
X19224706Y-13238984D02*
X19262801Y-13238984D01*
X19262801Y-13238984D02*
X19281849Y-13229460D01*
X19281849Y-13229460D02*
X19291373Y-13210412D01*
X19291373Y-13210412D02*
X19291373Y-13200888D01*
X19291373Y-13200888D02*
X19281849Y-13181841D01*
X19281849Y-13181841D02*
X19262801Y-13172317D01*
X19262801Y-13172317D02*
X19234230Y-13172317D01*
X19234230Y-13172317D02*
X19215182Y-13162793D01*
X19215182Y-13162793D02*
X19205658Y-13143746D01*
X19205658Y-13143746D02*
X19205658Y-13134222D01*
X19205658Y-13134222D02*
X19215182Y-13115174D01*
X19215182Y-13115174D02*
X19234230Y-13105650D01*
X19234230Y-13105650D02*
X19262801Y-13105650D01*
X19262801Y-13105650D02*
X19281849Y-13115174D01*
X19358039Y-13315174D02*
X19367563Y-13305650D01*
X19367563Y-13305650D02*
X19386611Y-13277079D01*
X19386611Y-13277079D02*
X19396134Y-13258031D01*
X19396134Y-13258031D02*
X19405658Y-13229460D01*
X19405658Y-13229460D02*
X19415182Y-13181841D01*
X19415182Y-13181841D02*
X19415182Y-13143746D01*
X19415182Y-13143746D02*
X19405658Y-13096127D01*
X19405658Y-13096127D02*
X19396134Y-13067555D01*
X19396134Y-13067555D02*
X19386611Y-13048508D01*
X19386611Y-13048508D02*
X19367563Y-13019936D01*
X19367563Y-13019936D02*
X19358039Y-13010412D01*
D12*
X14392500Y-13411500D02*
G75*
G03*
X14312500Y-13411500I-40000J0D01*
G01*
X14312500Y-13411500D02*
G75*
G03*
X14392500Y-13411500I40000J0D01*
G01*
D11*
X14691372Y-13302984D02*
X14710420Y-13302984D01*
X14710420Y-13302984D02*
X14729467Y-13312508D01*
X14729467Y-13312508D02*
X14738991Y-13322031D01*
X14738991Y-13322031D02*
X14748515Y-13341079D01*
X14748515Y-13341079D02*
X14758039Y-13379174D01*
X14758039Y-13379174D02*
X14758039Y-13426793D01*
X14758039Y-13426793D02*
X14748515Y-13464888D01*
X14748515Y-13464888D02*
X14738991Y-13483936D01*
X14738991Y-13483936D02*
X14729467Y-13493460D01*
X14729467Y-13493460D02*
X14710420Y-13502984D01*
X14710420Y-13502984D02*
X14691372Y-13502984D01*
X14691372Y-13502984D02*
X14672324Y-13493460D01*
X14672324Y-13493460D02*
X14662801Y-13483936D01*
X14662801Y-13483936D02*
X14653277Y-13464888D01*
X14653277Y-13464888D02*
X14643753Y-13426793D01*
X14643753Y-13426793D02*
X14643753Y-13379174D01*
X14643753Y-13379174D02*
X14653277Y-13341079D01*
X14653277Y-13341079D02*
X14662801Y-13322031D01*
X14662801Y-13322031D02*
X14672324Y-13312508D01*
X14672324Y-13312508D02*
X14691372Y-13302984D01*
X14843753Y-13483936D02*
X14853277Y-13493460D01*
X14853277Y-13493460D02*
X14843753Y-13502984D01*
X14843753Y-13502984D02*
X14834229Y-13493460D01*
X14834229Y-13493460D02*
X14843753Y-13483936D01*
X14843753Y-13483936D02*
X14843753Y-13502984D01*
X14967562Y-13388698D02*
X14948515Y-13379174D01*
X14948515Y-13379174D02*
X14938991Y-13369650D01*
X14938991Y-13369650D02*
X14929467Y-13350603D01*
X14929467Y-13350603D02*
X14929467Y-13341079D01*
X14929467Y-13341079D02*
X14938991Y-13322031D01*
X14938991Y-13322031D02*
X14948515Y-13312508D01*
X14948515Y-13312508D02*
X14967562Y-13302984D01*
X14967562Y-13302984D02*
X15005658Y-13302984D01*
X15005658Y-13302984D02*
X15024705Y-13312508D01*
X15024705Y-13312508D02*
X15034229Y-13322031D01*
X15034229Y-13322031D02*
X15043753Y-13341079D01*
X15043753Y-13341079D02*
X15043753Y-13350603D01*
X15043753Y-13350603D02*
X15034229Y-13369650D01*
X15034229Y-13369650D02*
X15024705Y-13379174D01*
X15024705Y-13379174D02*
X15005658Y-13388698D01*
X15005658Y-13388698D02*
X14967562Y-13388698D01*
X14967562Y-13388698D02*
X14948515Y-13398222D01*
X14948515Y-13398222D02*
X14938991Y-13407746D01*
X14938991Y-13407746D02*
X14929467Y-13426793D01*
X14929467Y-13426793D02*
X14929467Y-13464888D01*
X14929467Y-13464888D02*
X14938991Y-13483936D01*
X14938991Y-13483936D02*
X14948515Y-13493460D01*
X14948515Y-13493460D02*
X14967562Y-13502984D01*
X14967562Y-13502984D02*
X15005658Y-13502984D01*
X15005658Y-13502984D02*
X15024705Y-13493460D01*
X15024705Y-13493460D02*
X15034229Y-13483936D01*
X15034229Y-13483936D02*
X15043753Y-13464888D01*
X15043753Y-13464888D02*
X15043753Y-13426793D01*
X15043753Y-13426793D02*
X15034229Y-13407746D01*
X15034229Y-13407746D02*
X15024705Y-13398222D01*
X15024705Y-13398222D02*
X15005658Y-13388698D01*
X15167562Y-13302984D02*
X15186610Y-13302984D01*
X15186610Y-13302984D02*
X15205658Y-13312508D01*
X15205658Y-13312508D02*
X15215182Y-13322031D01*
X15215182Y-13322031D02*
X15224705Y-13341079D01*
X15224705Y-13341079D02*
X15234229Y-13379174D01*
X15234229Y-13379174D02*
X15234229Y-13426793D01*
X15234229Y-13426793D02*
X15224705Y-13464888D01*
X15224705Y-13464888D02*
X15215182Y-13483936D01*
X15215182Y-13483936D02*
X15205658Y-13493460D01*
X15205658Y-13493460D02*
X15186610Y-13502984D01*
X15186610Y-13502984D02*
X15167562Y-13502984D01*
X15167562Y-13502984D02*
X15148515Y-13493460D01*
X15148515Y-13493460D02*
X15138991Y-13483936D01*
X15138991Y-13483936D02*
X15129467Y-13464888D01*
X15129467Y-13464888D02*
X15119943Y-13426793D01*
X15119943Y-13426793D02*
X15119943Y-13379174D01*
X15119943Y-13379174D02*
X15129467Y-13341079D01*
X15129467Y-13341079D02*
X15138991Y-13322031D01*
X15138991Y-13322031D02*
X15148515Y-13312508D01*
X15148515Y-13312508D02*
X15167562Y-13302984D01*
X15358039Y-13302984D02*
X15377086Y-13302984D01*
X15377086Y-13302984D02*
X15396134Y-13312508D01*
X15396134Y-13312508D02*
X15405658Y-13322031D01*
X15405658Y-13322031D02*
X15415182Y-13341079D01*
X15415182Y-13341079D02*
X15424705Y-13379174D01*
X15424705Y-13379174D02*
X15424705Y-13426793D01*
X15424705Y-13426793D02*
X15415182Y-13464888D01*
X15415182Y-13464888D02*
X15405658Y-13483936D01*
X15405658Y-13483936D02*
X15396134Y-13493460D01*
X15396134Y-13493460D02*
X15377086Y-13502984D01*
X15377086Y-13502984D02*
X15358039Y-13502984D01*
X15358039Y-13502984D02*
X15338991Y-13493460D01*
X15338991Y-13493460D02*
X15329467Y-13483936D01*
X15329467Y-13483936D02*
X15319943Y-13464888D01*
X15319943Y-13464888D02*
X15310420Y-13426793D01*
X15310420Y-13426793D02*
X15310420Y-13379174D01*
X15310420Y-13379174D02*
X15319943Y-13341079D01*
X15319943Y-13341079D02*
X15329467Y-13322031D01*
X15329467Y-13322031D02*
X15338991Y-13312508D01*
X15338991Y-13312508D02*
X15358039Y-13302984D01*
X15510420Y-13502984D02*
X15510420Y-13369650D01*
X15510420Y-13388698D02*
X15519943Y-13379174D01*
X15519943Y-13379174D02*
X15538991Y-13369650D01*
X15538991Y-13369650D02*
X15567563Y-13369650D01*
X15567563Y-13369650D02*
X15586610Y-13379174D01*
X15586610Y-13379174D02*
X15596134Y-13398222D01*
X15596134Y-13398222D02*
X15596134Y-13502984D01*
X15596134Y-13398222D02*
X15605658Y-13379174D01*
X15605658Y-13379174D02*
X15624705Y-13369650D01*
X15624705Y-13369650D02*
X15653277Y-13369650D01*
X15653277Y-13369650D02*
X15672324Y-13379174D01*
X15672324Y-13379174D02*
X15681848Y-13398222D01*
X15681848Y-13398222D02*
X15681848Y-13502984D01*
X15777086Y-13502984D02*
X15777086Y-13369650D01*
X15777086Y-13388698D02*
X15786610Y-13379174D01*
X15786610Y-13379174D02*
X15805658Y-13369650D01*
X15805658Y-13369650D02*
X15834229Y-13369650D01*
X15834229Y-13369650D02*
X15853277Y-13379174D01*
X15853277Y-13379174D02*
X15862801Y-13398222D01*
X15862801Y-13398222D02*
X15862801Y-13502984D01*
X15862801Y-13398222D02*
X15872324Y-13379174D01*
X15872324Y-13379174D02*
X15891372Y-13369650D01*
X15891372Y-13369650D02*
X15919943Y-13369650D01*
X15919943Y-13369650D02*
X15938991Y-13379174D01*
X15938991Y-13379174D02*
X15948515Y-13398222D01*
X15948515Y-13398222D02*
X15948515Y-13502984D01*
X16338991Y-13293460D02*
X16167563Y-13550603D01*
X16596134Y-13302984D02*
X16615182Y-13302984D01*
X16615182Y-13302984D02*
X16634229Y-13312508D01*
X16634229Y-13312508D02*
X16643753Y-13322031D01*
X16643753Y-13322031D02*
X16653277Y-13341079D01*
X16653277Y-13341079D02*
X16662801Y-13379174D01*
X16662801Y-13379174D02*
X16662801Y-13426793D01*
X16662801Y-13426793D02*
X16653277Y-13464888D01*
X16653277Y-13464888D02*
X16643753Y-13483936D01*
X16643753Y-13483936D02*
X16634229Y-13493460D01*
X16634229Y-13493460D02*
X16615182Y-13502984D01*
X16615182Y-13502984D02*
X16596134Y-13502984D01*
X16596134Y-13502984D02*
X16577086Y-13493460D01*
X16577086Y-13493460D02*
X16567563Y-13483936D01*
X16567563Y-13483936D02*
X16558039Y-13464888D01*
X16558039Y-13464888D02*
X16548515Y-13426793D01*
X16548515Y-13426793D02*
X16548515Y-13379174D01*
X16548515Y-13379174D02*
X16558039Y-13341079D01*
X16558039Y-13341079D02*
X16567563Y-13322031D01*
X16567563Y-13322031D02*
X16577086Y-13312508D01*
X16577086Y-13312508D02*
X16596134Y-13302984D01*
X16748515Y-13483936D02*
X16758039Y-13493460D01*
X16758039Y-13493460D02*
X16748515Y-13502984D01*
X16748515Y-13502984D02*
X16738991Y-13493460D01*
X16738991Y-13493460D02*
X16748515Y-13483936D01*
X16748515Y-13483936D02*
X16748515Y-13502984D01*
X16881848Y-13302984D02*
X16900896Y-13302984D01*
X16900896Y-13302984D02*
X16919944Y-13312508D01*
X16919944Y-13312508D02*
X16929468Y-13322031D01*
X16929468Y-13322031D02*
X16938991Y-13341079D01*
X16938991Y-13341079D02*
X16948515Y-13379174D01*
X16948515Y-13379174D02*
X16948515Y-13426793D01*
X16948515Y-13426793D02*
X16938991Y-13464888D01*
X16938991Y-13464888D02*
X16929468Y-13483936D01*
X16929468Y-13483936D02*
X16919944Y-13493460D01*
X16919944Y-13493460D02*
X16900896Y-13502984D01*
X16900896Y-13502984D02*
X16881848Y-13502984D01*
X16881848Y-13502984D02*
X16862801Y-13493460D01*
X16862801Y-13493460D02*
X16853277Y-13483936D01*
X16853277Y-13483936D02*
X16843753Y-13464888D01*
X16843753Y-13464888D02*
X16834229Y-13426793D01*
X16834229Y-13426793D02*
X16834229Y-13379174D01*
X16834229Y-13379174D02*
X16843753Y-13341079D01*
X16843753Y-13341079D02*
X16853277Y-13322031D01*
X16853277Y-13322031D02*
X16862801Y-13312508D01*
X16862801Y-13312508D02*
X16881848Y-13302984D01*
X17015182Y-13302984D02*
X17138991Y-13302984D01*
X17138991Y-13302984D02*
X17072325Y-13379174D01*
X17072325Y-13379174D02*
X17100896Y-13379174D01*
X17100896Y-13379174D02*
X17119944Y-13388698D01*
X17119944Y-13388698D02*
X17129468Y-13398222D01*
X17129468Y-13398222D02*
X17138991Y-13417269D01*
X17138991Y-13417269D02*
X17138991Y-13464888D01*
X17138991Y-13464888D02*
X17129468Y-13483936D01*
X17129468Y-13483936D02*
X17119944Y-13493460D01*
X17119944Y-13493460D02*
X17100896Y-13502984D01*
X17100896Y-13502984D02*
X17043753Y-13502984D01*
X17043753Y-13502984D02*
X17024706Y-13493460D01*
X17024706Y-13493460D02*
X17015182Y-13483936D01*
X17329468Y-13502984D02*
X17215182Y-13502984D01*
X17272325Y-13502984D02*
X17272325Y-13302984D01*
X17272325Y-13302984D02*
X17253277Y-13331555D01*
X17253277Y-13331555D02*
X17234229Y-13350603D01*
X17234229Y-13350603D02*
X17215182Y-13360127D01*
X17510420Y-13302984D02*
X17415182Y-13302984D01*
X17415182Y-13302984D02*
X17405658Y-13398222D01*
X17405658Y-13398222D02*
X17415182Y-13388698D01*
X17415182Y-13388698D02*
X17434229Y-13379174D01*
X17434229Y-13379174D02*
X17481849Y-13379174D01*
X17481849Y-13379174D02*
X17500896Y-13388698D01*
X17500896Y-13388698D02*
X17510420Y-13398222D01*
X17510420Y-13398222D02*
X17519944Y-13417269D01*
X17519944Y-13417269D02*
X17519944Y-13464888D01*
X17519944Y-13464888D02*
X17510420Y-13483936D01*
X17510420Y-13483936D02*
X17500896Y-13493460D01*
X17500896Y-13493460D02*
X17481849Y-13502984D01*
X17481849Y-13502984D02*
X17434229Y-13502984D01*
X17434229Y-13502984D02*
X17415182Y-13493460D01*
X17415182Y-13493460D02*
X17405658Y-13483936D01*
X17596134Y-13302984D02*
X17596134Y-13341079D01*
X17672325Y-13302984D02*
X17672325Y-13341079D01*
X17967563Y-13579174D02*
X17958039Y-13569650D01*
X17958039Y-13569650D02*
X17938991Y-13541079D01*
X17938991Y-13541079D02*
X17929468Y-13522031D01*
X17929468Y-13522031D02*
X17919944Y-13493460D01*
X17919944Y-13493460D02*
X17910420Y-13445841D01*
X17910420Y-13445841D02*
X17910420Y-13407746D01*
X17910420Y-13407746D02*
X17919944Y-13360127D01*
X17919944Y-13360127D02*
X17929468Y-13331555D01*
X17929468Y-13331555D02*
X17938991Y-13312508D01*
X17938991Y-13312508D02*
X17958039Y-13283936D01*
X17958039Y-13283936D02*
X17967563Y-13274412D01*
X18129468Y-13369650D02*
X18129468Y-13502984D01*
X18081849Y-13293460D02*
X18034230Y-13436317D01*
X18034230Y-13436317D02*
X18158039Y-13436317D01*
X18386611Y-13502984D02*
X18386611Y-13302984D01*
X18472325Y-13502984D02*
X18472325Y-13398222D01*
X18472325Y-13398222D02*
X18462801Y-13379174D01*
X18462801Y-13379174D02*
X18443753Y-13369650D01*
X18443753Y-13369650D02*
X18415182Y-13369650D01*
X18415182Y-13369650D02*
X18396134Y-13379174D01*
X18396134Y-13379174D02*
X18386611Y-13388698D01*
X18596134Y-13502984D02*
X18577087Y-13493460D01*
X18577087Y-13493460D02*
X18567563Y-13483936D01*
X18567563Y-13483936D02*
X18558039Y-13464888D01*
X18558039Y-13464888D02*
X18558039Y-13407746D01*
X18558039Y-13407746D02*
X18567563Y-13388698D01*
X18567563Y-13388698D02*
X18577087Y-13379174D01*
X18577087Y-13379174D02*
X18596134Y-13369650D01*
X18596134Y-13369650D02*
X18624706Y-13369650D01*
X18624706Y-13369650D02*
X18643753Y-13379174D01*
X18643753Y-13379174D02*
X18653277Y-13388698D01*
X18653277Y-13388698D02*
X18662801Y-13407746D01*
X18662801Y-13407746D02*
X18662801Y-13464888D01*
X18662801Y-13464888D02*
X18653277Y-13483936D01*
X18653277Y-13483936D02*
X18643753Y-13493460D01*
X18643753Y-13493460D02*
X18624706Y-13502984D01*
X18624706Y-13502984D02*
X18596134Y-13502984D01*
X18777087Y-13502984D02*
X18758039Y-13493460D01*
X18758039Y-13493460D02*
X18748515Y-13474412D01*
X18748515Y-13474412D02*
X18748515Y-13302984D01*
X18929468Y-13493460D02*
X18910420Y-13502984D01*
X18910420Y-13502984D02*
X18872325Y-13502984D01*
X18872325Y-13502984D02*
X18853277Y-13493460D01*
X18853277Y-13493460D02*
X18843753Y-13474412D01*
X18843753Y-13474412D02*
X18843753Y-13398222D01*
X18843753Y-13398222D02*
X18853277Y-13379174D01*
X18853277Y-13379174D02*
X18872325Y-13369650D01*
X18872325Y-13369650D02*
X18910420Y-13369650D01*
X18910420Y-13369650D02*
X18929468Y-13379174D01*
X18929468Y-13379174D02*
X18938992Y-13398222D01*
X18938992Y-13398222D02*
X18938992Y-13417269D01*
X18938992Y-13417269D02*
X18843753Y-13436317D01*
X19015182Y-13493460D02*
X19034230Y-13502984D01*
X19034230Y-13502984D02*
X19072325Y-13502984D01*
X19072325Y-13502984D02*
X19091373Y-13493460D01*
X19091373Y-13493460D02*
X19100896Y-13474412D01*
X19100896Y-13474412D02*
X19100896Y-13464888D01*
X19100896Y-13464888D02*
X19091373Y-13445841D01*
X19091373Y-13445841D02*
X19072325Y-13436317D01*
X19072325Y-13436317D02*
X19043753Y-13436317D01*
X19043753Y-13436317D02*
X19024706Y-13426793D01*
X19024706Y-13426793D02*
X19015182Y-13407746D01*
X19015182Y-13407746D02*
X19015182Y-13398222D01*
X19015182Y-13398222D02*
X19024706Y-13379174D01*
X19024706Y-13379174D02*
X19043753Y-13369650D01*
X19043753Y-13369650D02*
X19072325Y-13369650D01*
X19072325Y-13369650D02*
X19091373Y-13379174D01*
X19167563Y-13579174D02*
X19177087Y-13569650D01*
X19177087Y-13569650D02*
X19196134Y-13541079D01*
X19196134Y-13541079D02*
X19205658Y-13522031D01*
X19205658Y-13522031D02*
X19215182Y-13493460D01*
X19215182Y-13493460D02*
X19224706Y-13445841D01*
X19224706Y-13445841D02*
X19224706Y-13407746D01*
X19224706Y-13407746D02*
X19215182Y-13360127D01*
X19215182Y-13360127D02*
X19205658Y-13331555D01*
X19205658Y-13331555D02*
X19196134Y-13312508D01*
X19196134Y-13312508D02*
X19177087Y-13283936D01*
X19177087Y-13283936D02*
X19167563Y-13274412D01*
D12*
X14342500Y-13625500D02*
X14342500Y-13725500D01*
X14292500Y-13675500D02*
X14392500Y-13675500D01*
D11*
X14758039Y-13766984D02*
X14643753Y-13766984D01*
X14700896Y-13766984D02*
X14700896Y-13566984D01*
X14700896Y-13566984D02*
X14681848Y-13595555D01*
X14681848Y-13595555D02*
X14662801Y-13614603D01*
X14662801Y-13614603D02*
X14643753Y-13624127D01*
X14843753Y-13747936D02*
X14853277Y-13757460D01*
X14853277Y-13757460D02*
X14843753Y-13766984D01*
X14843753Y-13766984D02*
X14834229Y-13757460D01*
X14834229Y-13757460D02*
X14843753Y-13747936D01*
X14843753Y-13747936D02*
X14843753Y-13766984D01*
X14977086Y-13566984D02*
X14996134Y-13566984D01*
X14996134Y-13566984D02*
X15015182Y-13576508D01*
X15015182Y-13576508D02*
X15024705Y-13586031D01*
X15024705Y-13586031D02*
X15034229Y-13605079D01*
X15034229Y-13605079D02*
X15043753Y-13643174D01*
X15043753Y-13643174D02*
X15043753Y-13690793D01*
X15043753Y-13690793D02*
X15034229Y-13728888D01*
X15034229Y-13728888D02*
X15024705Y-13747936D01*
X15024705Y-13747936D02*
X15015182Y-13757460D01*
X15015182Y-13757460D02*
X14996134Y-13766984D01*
X14996134Y-13766984D02*
X14977086Y-13766984D01*
X14977086Y-13766984D02*
X14958039Y-13757460D01*
X14958039Y-13757460D02*
X14948515Y-13747936D01*
X14948515Y-13747936D02*
X14938991Y-13728888D01*
X14938991Y-13728888D02*
X14929467Y-13690793D01*
X14929467Y-13690793D02*
X14929467Y-13643174D01*
X14929467Y-13643174D02*
X14938991Y-13605079D01*
X14938991Y-13605079D02*
X14948515Y-13586031D01*
X14948515Y-13586031D02*
X14958039Y-13576508D01*
X14958039Y-13576508D02*
X14977086Y-13566984D01*
X15167562Y-13566984D02*
X15186610Y-13566984D01*
X15186610Y-13566984D02*
X15205658Y-13576508D01*
X15205658Y-13576508D02*
X15215182Y-13586031D01*
X15215182Y-13586031D02*
X15224705Y-13605079D01*
X15224705Y-13605079D02*
X15234229Y-13643174D01*
X15234229Y-13643174D02*
X15234229Y-13690793D01*
X15234229Y-13690793D02*
X15224705Y-13728888D01*
X15224705Y-13728888D02*
X15215182Y-13747936D01*
X15215182Y-13747936D02*
X15205658Y-13757460D01*
X15205658Y-13757460D02*
X15186610Y-13766984D01*
X15186610Y-13766984D02*
X15167562Y-13766984D01*
X15167562Y-13766984D02*
X15148515Y-13757460D01*
X15148515Y-13757460D02*
X15138991Y-13747936D01*
X15138991Y-13747936D02*
X15129467Y-13728888D01*
X15129467Y-13728888D02*
X15119943Y-13690793D01*
X15119943Y-13690793D02*
X15119943Y-13643174D01*
X15119943Y-13643174D02*
X15129467Y-13605079D01*
X15129467Y-13605079D02*
X15138991Y-13586031D01*
X15138991Y-13586031D02*
X15148515Y-13576508D01*
X15148515Y-13576508D02*
X15167562Y-13566984D01*
X15358039Y-13566984D02*
X15377086Y-13566984D01*
X15377086Y-13566984D02*
X15396134Y-13576508D01*
X15396134Y-13576508D02*
X15405658Y-13586031D01*
X15405658Y-13586031D02*
X15415182Y-13605079D01*
X15415182Y-13605079D02*
X15424705Y-13643174D01*
X15424705Y-13643174D02*
X15424705Y-13690793D01*
X15424705Y-13690793D02*
X15415182Y-13728888D01*
X15415182Y-13728888D02*
X15405658Y-13747936D01*
X15405658Y-13747936D02*
X15396134Y-13757460D01*
X15396134Y-13757460D02*
X15377086Y-13766984D01*
X15377086Y-13766984D02*
X15358039Y-13766984D01*
X15358039Y-13766984D02*
X15338991Y-13757460D01*
X15338991Y-13757460D02*
X15329467Y-13747936D01*
X15329467Y-13747936D02*
X15319943Y-13728888D01*
X15319943Y-13728888D02*
X15310420Y-13690793D01*
X15310420Y-13690793D02*
X15310420Y-13643174D01*
X15310420Y-13643174D02*
X15319943Y-13605079D01*
X15319943Y-13605079D02*
X15329467Y-13586031D01*
X15329467Y-13586031D02*
X15338991Y-13576508D01*
X15338991Y-13576508D02*
X15358039Y-13566984D01*
X15510420Y-13766984D02*
X15510420Y-13633650D01*
X15510420Y-13652698D02*
X15519943Y-13643174D01*
X15519943Y-13643174D02*
X15538991Y-13633650D01*
X15538991Y-13633650D02*
X15567563Y-13633650D01*
X15567563Y-13633650D02*
X15586610Y-13643174D01*
X15586610Y-13643174D02*
X15596134Y-13662222D01*
X15596134Y-13662222D02*
X15596134Y-13766984D01*
X15596134Y-13662222D02*
X15605658Y-13643174D01*
X15605658Y-13643174D02*
X15624705Y-13633650D01*
X15624705Y-13633650D02*
X15653277Y-13633650D01*
X15653277Y-13633650D02*
X15672324Y-13643174D01*
X15672324Y-13643174D02*
X15681848Y-13662222D01*
X15681848Y-13662222D02*
X15681848Y-13766984D01*
X15777086Y-13766984D02*
X15777086Y-13633650D01*
X15777086Y-13652698D02*
X15786610Y-13643174D01*
X15786610Y-13643174D02*
X15805658Y-13633650D01*
X15805658Y-13633650D02*
X15834229Y-13633650D01*
X15834229Y-13633650D02*
X15853277Y-13643174D01*
X15853277Y-13643174D02*
X15862801Y-13662222D01*
X15862801Y-13662222D02*
X15862801Y-13766984D01*
X15862801Y-13662222D02*
X15872324Y-13643174D01*
X15872324Y-13643174D02*
X15891372Y-13633650D01*
X15891372Y-13633650D02*
X15919943Y-13633650D01*
X15919943Y-13633650D02*
X15938991Y-13643174D01*
X15938991Y-13643174D02*
X15948515Y-13662222D01*
X15948515Y-13662222D02*
X15948515Y-13766984D01*
X16338991Y-13557460D02*
X16167563Y-13814603D01*
X16596134Y-13566984D02*
X16615182Y-13566984D01*
X16615182Y-13566984D02*
X16634229Y-13576508D01*
X16634229Y-13576508D02*
X16643753Y-13586031D01*
X16643753Y-13586031D02*
X16653277Y-13605079D01*
X16653277Y-13605079D02*
X16662801Y-13643174D01*
X16662801Y-13643174D02*
X16662801Y-13690793D01*
X16662801Y-13690793D02*
X16653277Y-13728888D01*
X16653277Y-13728888D02*
X16643753Y-13747936D01*
X16643753Y-13747936D02*
X16634229Y-13757460D01*
X16634229Y-13757460D02*
X16615182Y-13766984D01*
X16615182Y-13766984D02*
X16596134Y-13766984D01*
X16596134Y-13766984D02*
X16577086Y-13757460D01*
X16577086Y-13757460D02*
X16567563Y-13747936D01*
X16567563Y-13747936D02*
X16558039Y-13728888D01*
X16558039Y-13728888D02*
X16548515Y-13690793D01*
X16548515Y-13690793D02*
X16548515Y-13643174D01*
X16548515Y-13643174D02*
X16558039Y-13605079D01*
X16558039Y-13605079D02*
X16567563Y-13586031D01*
X16567563Y-13586031D02*
X16577086Y-13576508D01*
X16577086Y-13576508D02*
X16596134Y-13566984D01*
X16748515Y-13747936D02*
X16758039Y-13757460D01*
X16758039Y-13757460D02*
X16748515Y-13766984D01*
X16748515Y-13766984D02*
X16738991Y-13757460D01*
X16738991Y-13757460D02*
X16748515Y-13747936D01*
X16748515Y-13747936D02*
X16748515Y-13766984D01*
X16881848Y-13566984D02*
X16900896Y-13566984D01*
X16900896Y-13566984D02*
X16919944Y-13576508D01*
X16919944Y-13576508D02*
X16929468Y-13586031D01*
X16929468Y-13586031D02*
X16938991Y-13605079D01*
X16938991Y-13605079D02*
X16948515Y-13643174D01*
X16948515Y-13643174D02*
X16948515Y-13690793D01*
X16948515Y-13690793D02*
X16938991Y-13728888D01*
X16938991Y-13728888D02*
X16929468Y-13747936D01*
X16929468Y-13747936D02*
X16919944Y-13757460D01*
X16919944Y-13757460D02*
X16900896Y-13766984D01*
X16900896Y-13766984D02*
X16881848Y-13766984D01*
X16881848Y-13766984D02*
X16862801Y-13757460D01*
X16862801Y-13757460D02*
X16853277Y-13747936D01*
X16853277Y-13747936D02*
X16843753Y-13728888D01*
X16843753Y-13728888D02*
X16834229Y-13690793D01*
X16834229Y-13690793D02*
X16834229Y-13643174D01*
X16834229Y-13643174D02*
X16843753Y-13605079D01*
X16843753Y-13605079D02*
X16853277Y-13586031D01*
X16853277Y-13586031D02*
X16862801Y-13576508D01*
X16862801Y-13576508D02*
X16881848Y-13566984D01*
X17015182Y-13566984D02*
X17138991Y-13566984D01*
X17138991Y-13566984D02*
X17072325Y-13643174D01*
X17072325Y-13643174D02*
X17100896Y-13643174D01*
X17100896Y-13643174D02*
X17119944Y-13652698D01*
X17119944Y-13652698D02*
X17129468Y-13662222D01*
X17129468Y-13662222D02*
X17138991Y-13681269D01*
X17138991Y-13681269D02*
X17138991Y-13728888D01*
X17138991Y-13728888D02*
X17129468Y-13747936D01*
X17129468Y-13747936D02*
X17119944Y-13757460D01*
X17119944Y-13757460D02*
X17100896Y-13766984D01*
X17100896Y-13766984D02*
X17043753Y-13766984D01*
X17043753Y-13766984D02*
X17024706Y-13757460D01*
X17024706Y-13757460D02*
X17015182Y-13747936D01*
X17234229Y-13766984D02*
X17272325Y-13766984D01*
X17272325Y-13766984D02*
X17291372Y-13757460D01*
X17291372Y-13757460D02*
X17300896Y-13747936D01*
X17300896Y-13747936D02*
X17319944Y-13719365D01*
X17319944Y-13719365D02*
X17329468Y-13681269D01*
X17329468Y-13681269D02*
X17329468Y-13605079D01*
X17329468Y-13605079D02*
X17319944Y-13586031D01*
X17319944Y-13586031D02*
X17310420Y-13576508D01*
X17310420Y-13576508D02*
X17291372Y-13566984D01*
X17291372Y-13566984D02*
X17253277Y-13566984D01*
X17253277Y-13566984D02*
X17234229Y-13576508D01*
X17234229Y-13576508D02*
X17224706Y-13586031D01*
X17224706Y-13586031D02*
X17215182Y-13605079D01*
X17215182Y-13605079D02*
X17215182Y-13652698D01*
X17215182Y-13652698D02*
X17224706Y-13671746D01*
X17224706Y-13671746D02*
X17234229Y-13681269D01*
X17234229Y-13681269D02*
X17253277Y-13690793D01*
X17253277Y-13690793D02*
X17291372Y-13690793D01*
X17291372Y-13690793D02*
X17310420Y-13681269D01*
X17310420Y-13681269D02*
X17319944Y-13671746D01*
X17319944Y-13671746D02*
X17329468Y-13652698D01*
X17500896Y-13633650D02*
X17500896Y-13766984D01*
X17453277Y-13557460D02*
X17405658Y-13700317D01*
X17405658Y-13700317D02*
X17529468Y-13700317D01*
X17596134Y-13566984D02*
X17596134Y-13605079D01*
X17672325Y-13566984D02*
X17672325Y-13605079D01*
X17967563Y-13843174D02*
X17958039Y-13833650D01*
X17958039Y-13833650D02*
X17938991Y-13805079D01*
X17938991Y-13805079D02*
X17929468Y-13786031D01*
X17929468Y-13786031D02*
X17919944Y-13757460D01*
X17919944Y-13757460D02*
X17910420Y-13709841D01*
X17910420Y-13709841D02*
X17910420Y-13671746D01*
X17910420Y-13671746D02*
X17919944Y-13624127D01*
X17919944Y-13624127D02*
X17929468Y-13595555D01*
X17929468Y-13595555D02*
X17938991Y-13576508D01*
X17938991Y-13576508D02*
X17958039Y-13547936D01*
X17958039Y-13547936D02*
X17967563Y-13538412D01*
X18024706Y-13566984D02*
X18148515Y-13566984D01*
X18148515Y-13566984D02*
X18081849Y-13643174D01*
X18081849Y-13643174D02*
X18110420Y-13643174D01*
X18110420Y-13643174D02*
X18129468Y-13652698D01*
X18129468Y-13652698D02*
X18138991Y-13662222D01*
X18138991Y-13662222D02*
X18148515Y-13681269D01*
X18148515Y-13681269D02*
X18148515Y-13728888D01*
X18148515Y-13728888D02*
X18138991Y-13747936D01*
X18138991Y-13747936D02*
X18129468Y-13757460D01*
X18129468Y-13757460D02*
X18110420Y-13766984D01*
X18110420Y-13766984D02*
X18053277Y-13766984D01*
X18053277Y-13766984D02*
X18034230Y-13757460D01*
X18034230Y-13757460D02*
X18024706Y-13747936D01*
X18386611Y-13766984D02*
X18386611Y-13566984D01*
X18472325Y-13766984D02*
X18472325Y-13662222D01*
X18472325Y-13662222D02*
X18462801Y-13643174D01*
X18462801Y-13643174D02*
X18443753Y-13633650D01*
X18443753Y-13633650D02*
X18415182Y-13633650D01*
X18415182Y-13633650D02*
X18396134Y-13643174D01*
X18396134Y-13643174D02*
X18386611Y-13652698D01*
X18596134Y-13766984D02*
X18577087Y-13757460D01*
X18577087Y-13757460D02*
X18567563Y-13747936D01*
X18567563Y-13747936D02*
X18558039Y-13728888D01*
X18558039Y-13728888D02*
X18558039Y-13671746D01*
X18558039Y-13671746D02*
X18567563Y-13652698D01*
X18567563Y-13652698D02*
X18577087Y-13643174D01*
X18577087Y-13643174D02*
X18596134Y-13633650D01*
X18596134Y-13633650D02*
X18624706Y-13633650D01*
X18624706Y-13633650D02*
X18643753Y-13643174D01*
X18643753Y-13643174D02*
X18653277Y-13652698D01*
X18653277Y-13652698D02*
X18662801Y-13671746D01*
X18662801Y-13671746D02*
X18662801Y-13728888D01*
X18662801Y-13728888D02*
X18653277Y-13747936D01*
X18653277Y-13747936D02*
X18643753Y-13757460D01*
X18643753Y-13757460D02*
X18624706Y-13766984D01*
X18624706Y-13766984D02*
X18596134Y-13766984D01*
X18777087Y-13766984D02*
X18758039Y-13757460D01*
X18758039Y-13757460D02*
X18748515Y-13738412D01*
X18748515Y-13738412D02*
X18748515Y-13566984D01*
X18929468Y-13757460D02*
X18910420Y-13766984D01*
X18910420Y-13766984D02*
X18872325Y-13766984D01*
X18872325Y-13766984D02*
X18853277Y-13757460D01*
X18853277Y-13757460D02*
X18843753Y-13738412D01*
X18843753Y-13738412D02*
X18843753Y-13662222D01*
X18843753Y-13662222D02*
X18853277Y-13643174D01*
X18853277Y-13643174D02*
X18872325Y-13633650D01*
X18872325Y-13633650D02*
X18910420Y-13633650D01*
X18910420Y-13633650D02*
X18929468Y-13643174D01*
X18929468Y-13643174D02*
X18938992Y-13662222D01*
X18938992Y-13662222D02*
X18938992Y-13681269D01*
X18938992Y-13681269D02*
X18843753Y-13700317D01*
X19015182Y-13757460D02*
X19034230Y-13766984D01*
X19034230Y-13766984D02*
X19072325Y-13766984D01*
X19072325Y-13766984D02*
X19091373Y-13757460D01*
X19091373Y-13757460D02*
X19100896Y-13738412D01*
X19100896Y-13738412D02*
X19100896Y-13728888D01*
X19100896Y-13728888D02*
X19091373Y-13709841D01*
X19091373Y-13709841D02*
X19072325Y-13700317D01*
X19072325Y-13700317D02*
X19043753Y-13700317D01*
X19043753Y-13700317D02*
X19024706Y-13690793D01*
X19024706Y-13690793D02*
X19015182Y-13671746D01*
X19015182Y-13671746D02*
X19015182Y-13662222D01*
X19015182Y-13662222D02*
X19024706Y-13643174D01*
X19024706Y-13643174D02*
X19043753Y-13633650D01*
X19043753Y-13633650D02*
X19072325Y-13633650D01*
X19072325Y-13633650D02*
X19091373Y-13643174D01*
X19167563Y-13843174D02*
X19177087Y-13833650D01*
X19177087Y-13833650D02*
X19196134Y-13805079D01*
X19196134Y-13805079D02*
X19205658Y-13786031D01*
X19205658Y-13786031D02*
X19215182Y-13757460D01*
X19215182Y-13757460D02*
X19224706Y-13709841D01*
X19224706Y-13709841D02*
X19224706Y-13671746D01*
X19224706Y-13671746D02*
X19215182Y-13624127D01*
X19215182Y-13624127D02*
X19205658Y-13595555D01*
X19205658Y-13595555D02*
X19196134Y-13576508D01*
X19196134Y-13576508D02*
X19177087Y-13547936D01*
X19177087Y-13547936D02*
X19167563Y-13538412D01*
D13*
X14376391Y-13978391D02*
X14376391Y-13900609D01*
X14298609Y-13900609D01*
X14298609Y-13978391D01*
X14376391Y-13978391D01*
D11*
X14758039Y-14030984D02*
X14643753Y-14030984D01*
X14700896Y-14030984D02*
X14700896Y-13830984D01*
X14700896Y-13830984D02*
X14681848Y-13859555D01*
X14681848Y-13859555D02*
X14662801Y-13878603D01*
X14662801Y-13878603D02*
X14643753Y-13888127D01*
X14843753Y-14011936D02*
X14853277Y-14021460D01*
X14853277Y-14021460D02*
X14843753Y-14030984D01*
X14843753Y-14030984D02*
X14834229Y-14021460D01*
X14834229Y-14021460D02*
X14843753Y-14011936D01*
X14843753Y-14011936D02*
X14843753Y-14030984D01*
X15043753Y-14030984D02*
X14929467Y-14030984D01*
X14986610Y-14030984D02*
X14986610Y-13830984D01*
X14986610Y-13830984D02*
X14967562Y-13859555D01*
X14967562Y-13859555D02*
X14948515Y-13878603D01*
X14948515Y-13878603D02*
X14929467Y-13888127D01*
X15167562Y-13830984D02*
X15186610Y-13830984D01*
X15186610Y-13830984D02*
X15205658Y-13840508D01*
X15205658Y-13840508D02*
X15215182Y-13850031D01*
X15215182Y-13850031D02*
X15224705Y-13869079D01*
X15224705Y-13869079D02*
X15234229Y-13907174D01*
X15234229Y-13907174D02*
X15234229Y-13954793D01*
X15234229Y-13954793D02*
X15224705Y-13992888D01*
X15224705Y-13992888D02*
X15215182Y-14011936D01*
X15215182Y-14011936D02*
X15205658Y-14021460D01*
X15205658Y-14021460D02*
X15186610Y-14030984D01*
X15186610Y-14030984D02*
X15167562Y-14030984D01*
X15167562Y-14030984D02*
X15148515Y-14021460D01*
X15148515Y-14021460D02*
X15138991Y-14011936D01*
X15138991Y-14011936D02*
X15129467Y-13992888D01*
X15129467Y-13992888D02*
X15119943Y-13954793D01*
X15119943Y-13954793D02*
X15119943Y-13907174D01*
X15119943Y-13907174D02*
X15129467Y-13869079D01*
X15129467Y-13869079D02*
X15138991Y-13850031D01*
X15138991Y-13850031D02*
X15148515Y-13840508D01*
X15148515Y-13840508D02*
X15167562Y-13830984D01*
X15358039Y-13830984D02*
X15377086Y-13830984D01*
X15377086Y-13830984D02*
X15396134Y-13840508D01*
X15396134Y-13840508D02*
X15405658Y-13850031D01*
X15405658Y-13850031D02*
X15415182Y-13869079D01*
X15415182Y-13869079D02*
X15424705Y-13907174D01*
X15424705Y-13907174D02*
X15424705Y-13954793D01*
X15424705Y-13954793D02*
X15415182Y-13992888D01*
X15415182Y-13992888D02*
X15405658Y-14011936D01*
X15405658Y-14011936D02*
X15396134Y-14021460D01*
X15396134Y-14021460D02*
X15377086Y-14030984D01*
X15377086Y-14030984D02*
X15358039Y-14030984D01*
X15358039Y-14030984D02*
X15338991Y-14021460D01*
X15338991Y-14021460D02*
X15329467Y-14011936D01*
X15329467Y-14011936D02*
X15319943Y-13992888D01*
X15319943Y-13992888D02*
X15310420Y-13954793D01*
X15310420Y-13954793D02*
X15310420Y-13907174D01*
X15310420Y-13907174D02*
X15319943Y-13869079D01*
X15319943Y-13869079D02*
X15329467Y-13850031D01*
X15329467Y-13850031D02*
X15338991Y-13840508D01*
X15338991Y-13840508D02*
X15358039Y-13830984D01*
X15510420Y-14030984D02*
X15510420Y-13897650D01*
X15510420Y-13916698D02*
X15519943Y-13907174D01*
X15519943Y-13907174D02*
X15538991Y-13897650D01*
X15538991Y-13897650D02*
X15567563Y-13897650D01*
X15567563Y-13897650D02*
X15586610Y-13907174D01*
X15586610Y-13907174D02*
X15596134Y-13926222D01*
X15596134Y-13926222D02*
X15596134Y-14030984D01*
X15596134Y-13926222D02*
X15605658Y-13907174D01*
X15605658Y-13907174D02*
X15624705Y-13897650D01*
X15624705Y-13897650D02*
X15653277Y-13897650D01*
X15653277Y-13897650D02*
X15672324Y-13907174D01*
X15672324Y-13907174D02*
X15681848Y-13926222D01*
X15681848Y-13926222D02*
X15681848Y-14030984D01*
X15777086Y-14030984D02*
X15777086Y-13897650D01*
X15777086Y-13916698D02*
X15786610Y-13907174D01*
X15786610Y-13907174D02*
X15805658Y-13897650D01*
X15805658Y-13897650D02*
X15834229Y-13897650D01*
X15834229Y-13897650D02*
X15853277Y-13907174D01*
X15853277Y-13907174D02*
X15862801Y-13926222D01*
X15862801Y-13926222D02*
X15862801Y-14030984D01*
X15862801Y-13926222D02*
X15872324Y-13907174D01*
X15872324Y-13907174D02*
X15891372Y-13897650D01*
X15891372Y-13897650D02*
X15919943Y-13897650D01*
X15919943Y-13897650D02*
X15938991Y-13907174D01*
X15938991Y-13907174D02*
X15948515Y-13926222D01*
X15948515Y-13926222D02*
X15948515Y-14030984D01*
X16338991Y-13821460D02*
X16167563Y-14078603D01*
X16596134Y-13830984D02*
X16615182Y-13830984D01*
X16615182Y-13830984D02*
X16634229Y-13840508D01*
X16634229Y-13840508D02*
X16643753Y-13850031D01*
X16643753Y-13850031D02*
X16653277Y-13869079D01*
X16653277Y-13869079D02*
X16662801Y-13907174D01*
X16662801Y-13907174D02*
X16662801Y-13954793D01*
X16662801Y-13954793D02*
X16653277Y-13992888D01*
X16653277Y-13992888D02*
X16643753Y-14011936D01*
X16643753Y-14011936D02*
X16634229Y-14021460D01*
X16634229Y-14021460D02*
X16615182Y-14030984D01*
X16615182Y-14030984D02*
X16596134Y-14030984D01*
X16596134Y-14030984D02*
X16577086Y-14021460D01*
X16577086Y-14021460D02*
X16567563Y-14011936D01*
X16567563Y-14011936D02*
X16558039Y-13992888D01*
X16558039Y-13992888D02*
X16548515Y-13954793D01*
X16548515Y-13954793D02*
X16548515Y-13907174D01*
X16548515Y-13907174D02*
X16558039Y-13869079D01*
X16558039Y-13869079D02*
X16567563Y-13850031D01*
X16567563Y-13850031D02*
X16577086Y-13840508D01*
X16577086Y-13840508D02*
X16596134Y-13830984D01*
X16748515Y-14011936D02*
X16758039Y-14021460D01*
X16758039Y-14021460D02*
X16748515Y-14030984D01*
X16748515Y-14030984D02*
X16738991Y-14021460D01*
X16738991Y-14021460D02*
X16748515Y-14011936D01*
X16748515Y-14011936D02*
X16748515Y-14030984D01*
X16881848Y-13830984D02*
X16900896Y-13830984D01*
X16900896Y-13830984D02*
X16919944Y-13840508D01*
X16919944Y-13840508D02*
X16929468Y-13850031D01*
X16929468Y-13850031D02*
X16938991Y-13869079D01*
X16938991Y-13869079D02*
X16948515Y-13907174D01*
X16948515Y-13907174D02*
X16948515Y-13954793D01*
X16948515Y-13954793D02*
X16938991Y-13992888D01*
X16938991Y-13992888D02*
X16929468Y-14011936D01*
X16929468Y-14011936D02*
X16919944Y-14021460D01*
X16919944Y-14021460D02*
X16900896Y-14030984D01*
X16900896Y-14030984D02*
X16881848Y-14030984D01*
X16881848Y-14030984D02*
X16862801Y-14021460D01*
X16862801Y-14021460D02*
X16853277Y-14011936D01*
X16853277Y-14011936D02*
X16843753Y-13992888D01*
X16843753Y-13992888D02*
X16834229Y-13954793D01*
X16834229Y-13954793D02*
X16834229Y-13907174D01*
X16834229Y-13907174D02*
X16843753Y-13869079D01*
X16843753Y-13869079D02*
X16853277Y-13850031D01*
X16853277Y-13850031D02*
X16862801Y-13840508D01*
X16862801Y-13840508D02*
X16881848Y-13830984D01*
X17119944Y-13897650D02*
X17119944Y-14030984D01*
X17072325Y-13821460D02*
X17024706Y-13964317D01*
X17024706Y-13964317D02*
X17148515Y-13964317D01*
X17205658Y-13830984D02*
X17329468Y-13830984D01*
X17329468Y-13830984D02*
X17262801Y-13907174D01*
X17262801Y-13907174D02*
X17291372Y-13907174D01*
X17291372Y-13907174D02*
X17310420Y-13916698D01*
X17310420Y-13916698D02*
X17319944Y-13926222D01*
X17319944Y-13926222D02*
X17329468Y-13945269D01*
X17329468Y-13945269D02*
X17329468Y-13992888D01*
X17329468Y-13992888D02*
X17319944Y-14011936D01*
X17319944Y-14011936D02*
X17310420Y-14021460D01*
X17310420Y-14021460D02*
X17291372Y-14030984D01*
X17291372Y-14030984D02*
X17234229Y-14030984D01*
X17234229Y-14030984D02*
X17215182Y-14021460D01*
X17215182Y-14021460D02*
X17205658Y-14011936D01*
X17396134Y-13830984D02*
X17519944Y-13830984D01*
X17519944Y-13830984D02*
X17453277Y-13907174D01*
X17453277Y-13907174D02*
X17481849Y-13907174D01*
X17481849Y-13907174D02*
X17500896Y-13916698D01*
X17500896Y-13916698D02*
X17510420Y-13926222D01*
X17510420Y-13926222D02*
X17519944Y-13945269D01*
X17519944Y-13945269D02*
X17519944Y-13992888D01*
X17519944Y-13992888D02*
X17510420Y-14011936D01*
X17510420Y-14011936D02*
X17500896Y-14021460D01*
X17500896Y-14021460D02*
X17481849Y-14030984D01*
X17481849Y-14030984D02*
X17424706Y-14030984D01*
X17424706Y-14030984D02*
X17405658Y-14021460D01*
X17405658Y-14021460D02*
X17396134Y-14011936D01*
X17596134Y-13830984D02*
X17596134Y-13869079D01*
X17672325Y-13830984D02*
X17672325Y-13869079D01*
X17967563Y-14107174D02*
X17958039Y-14097650D01*
X17958039Y-14097650D02*
X17938991Y-14069079D01*
X17938991Y-14069079D02*
X17929468Y-14050031D01*
X17929468Y-14050031D02*
X17919944Y-14021460D01*
X17919944Y-14021460D02*
X17910420Y-13973841D01*
X17910420Y-13973841D02*
X17910420Y-13935746D01*
X17910420Y-13935746D02*
X17919944Y-13888127D01*
X17919944Y-13888127D02*
X17929468Y-13859555D01*
X17929468Y-13859555D02*
X17938991Y-13840508D01*
X17938991Y-13840508D02*
X17958039Y-13811936D01*
X17958039Y-13811936D02*
X17967563Y-13802412D01*
X18072325Y-13916698D02*
X18053277Y-13907174D01*
X18053277Y-13907174D02*
X18043753Y-13897650D01*
X18043753Y-13897650D02*
X18034230Y-13878603D01*
X18034230Y-13878603D02*
X18034230Y-13869079D01*
X18034230Y-13869079D02*
X18043753Y-13850031D01*
X18043753Y-13850031D02*
X18053277Y-13840508D01*
X18053277Y-13840508D02*
X18072325Y-13830984D01*
X18072325Y-13830984D02*
X18110420Y-13830984D01*
X18110420Y-13830984D02*
X18129468Y-13840508D01*
X18129468Y-13840508D02*
X18138991Y-13850031D01*
X18138991Y-13850031D02*
X18148515Y-13869079D01*
X18148515Y-13869079D02*
X18148515Y-13878603D01*
X18148515Y-13878603D02*
X18138991Y-13897650D01*
X18138991Y-13897650D02*
X18129468Y-13907174D01*
X18129468Y-13907174D02*
X18110420Y-13916698D01*
X18110420Y-13916698D02*
X18072325Y-13916698D01*
X18072325Y-13916698D02*
X18053277Y-13926222D01*
X18053277Y-13926222D02*
X18043753Y-13935746D01*
X18043753Y-13935746D02*
X18034230Y-13954793D01*
X18034230Y-13954793D02*
X18034230Y-13992888D01*
X18034230Y-13992888D02*
X18043753Y-14011936D01*
X18043753Y-14011936D02*
X18053277Y-14021460D01*
X18053277Y-14021460D02*
X18072325Y-14030984D01*
X18072325Y-14030984D02*
X18110420Y-14030984D01*
X18110420Y-14030984D02*
X18129468Y-14021460D01*
X18129468Y-14021460D02*
X18138991Y-14011936D01*
X18138991Y-14011936D02*
X18148515Y-13992888D01*
X18148515Y-13992888D02*
X18148515Y-13954793D01*
X18148515Y-13954793D02*
X18138991Y-13935746D01*
X18138991Y-13935746D02*
X18129468Y-13926222D01*
X18129468Y-13926222D02*
X18110420Y-13916698D01*
X18386611Y-14030984D02*
X18386611Y-13830984D01*
X18472325Y-14030984D02*
X18472325Y-13926222D01*
X18472325Y-13926222D02*
X18462801Y-13907174D01*
X18462801Y-13907174D02*
X18443753Y-13897650D01*
X18443753Y-13897650D02*
X18415182Y-13897650D01*
X18415182Y-13897650D02*
X18396134Y-13907174D01*
X18396134Y-13907174D02*
X18386611Y-13916698D01*
X18596134Y-14030984D02*
X18577087Y-14021460D01*
X18577087Y-14021460D02*
X18567563Y-14011936D01*
X18567563Y-14011936D02*
X18558039Y-13992888D01*
X18558039Y-13992888D02*
X18558039Y-13935746D01*
X18558039Y-13935746D02*
X18567563Y-13916698D01*
X18567563Y-13916698D02*
X18577087Y-13907174D01*
X18577087Y-13907174D02*
X18596134Y-13897650D01*
X18596134Y-13897650D02*
X18624706Y-13897650D01*
X18624706Y-13897650D02*
X18643753Y-13907174D01*
X18643753Y-13907174D02*
X18653277Y-13916698D01*
X18653277Y-13916698D02*
X18662801Y-13935746D01*
X18662801Y-13935746D02*
X18662801Y-13992888D01*
X18662801Y-13992888D02*
X18653277Y-14011936D01*
X18653277Y-14011936D02*
X18643753Y-14021460D01*
X18643753Y-14021460D02*
X18624706Y-14030984D01*
X18624706Y-14030984D02*
X18596134Y-14030984D01*
X18777087Y-14030984D02*
X18758039Y-14021460D01*
X18758039Y-14021460D02*
X18748515Y-14002412D01*
X18748515Y-14002412D02*
X18748515Y-13830984D01*
X18929468Y-14021460D02*
X18910420Y-14030984D01*
X18910420Y-14030984D02*
X18872325Y-14030984D01*
X18872325Y-14030984D02*
X18853277Y-14021460D01*
X18853277Y-14021460D02*
X18843753Y-14002412D01*
X18843753Y-14002412D02*
X18843753Y-13926222D01*
X18843753Y-13926222D02*
X18853277Y-13907174D01*
X18853277Y-13907174D02*
X18872325Y-13897650D01*
X18872325Y-13897650D02*
X18910420Y-13897650D01*
X18910420Y-13897650D02*
X18929468Y-13907174D01*
X18929468Y-13907174D02*
X18938992Y-13926222D01*
X18938992Y-13926222D02*
X18938992Y-13945269D01*
X18938992Y-13945269D02*
X18843753Y-13964317D01*
X19015182Y-14021460D02*
X19034230Y-14030984D01*
X19034230Y-14030984D02*
X19072325Y-14030984D01*
X19072325Y-14030984D02*
X19091373Y-14021460D01*
X19091373Y-14021460D02*
X19100896Y-14002412D01*
X19100896Y-14002412D02*
X19100896Y-13992888D01*
X19100896Y-13992888D02*
X19091373Y-13973841D01*
X19091373Y-13973841D02*
X19072325Y-13964317D01*
X19072325Y-13964317D02*
X19043753Y-13964317D01*
X19043753Y-13964317D02*
X19024706Y-13954793D01*
X19024706Y-13954793D02*
X19015182Y-13935746D01*
X19015182Y-13935746D02*
X19015182Y-13926222D01*
X19015182Y-13926222D02*
X19024706Y-13907174D01*
X19024706Y-13907174D02*
X19043753Y-13897650D01*
X19043753Y-13897650D02*
X19072325Y-13897650D01*
X19072325Y-13897650D02*
X19091373Y-13907174D01*
X19167563Y-14107174D02*
X19177087Y-14097650D01*
X19177087Y-14097650D02*
X19196134Y-14069079D01*
X19196134Y-14069079D02*
X19205658Y-14050031D01*
X19205658Y-14050031D02*
X19215182Y-14021460D01*
X19215182Y-14021460D02*
X19224706Y-13973841D01*
X19224706Y-13973841D02*
X19224706Y-13935746D01*
X19224706Y-13935746D02*
X19215182Y-13888127D01*
X19215182Y-13888127D02*
X19205658Y-13859555D01*
X19205658Y-13859555D02*
X19196134Y-13840508D01*
X19196134Y-13840508D02*
X19177087Y-13811936D01*
X19177087Y-13811936D02*
X19167563Y-13802412D01*
D14*
X14327500Y-14268500D02*
X14392500Y-14203500D01*
X14327500Y-14138500D01*
X14262500Y-14203500D01*
X14327500Y-14268500D01*
D11*
X14758039Y-14294984D02*
X14643753Y-14294984D01*
X14700896Y-14294984D02*
X14700896Y-14094984D01*
X14700896Y-14094984D02*
X14681848Y-14123555D01*
X14681848Y-14123555D02*
X14662801Y-14142603D01*
X14662801Y-14142603D02*
X14643753Y-14152127D01*
X14843753Y-14275936D02*
X14853277Y-14285460D01*
X14853277Y-14285460D02*
X14843753Y-14294984D01*
X14843753Y-14294984D02*
X14834229Y-14285460D01*
X14834229Y-14285460D02*
X14843753Y-14275936D01*
X14843753Y-14275936D02*
X14843753Y-14294984D01*
X14919943Y-14094984D02*
X15043753Y-14094984D01*
X15043753Y-14094984D02*
X14977086Y-14171174D01*
X14977086Y-14171174D02*
X15005658Y-14171174D01*
X15005658Y-14171174D02*
X15024705Y-14180698D01*
X15024705Y-14180698D02*
X15034229Y-14190222D01*
X15034229Y-14190222D02*
X15043753Y-14209269D01*
X15043753Y-14209269D02*
X15043753Y-14256888D01*
X15043753Y-14256888D02*
X15034229Y-14275936D01*
X15034229Y-14275936D02*
X15024705Y-14285460D01*
X15024705Y-14285460D02*
X15005658Y-14294984D01*
X15005658Y-14294984D02*
X14948515Y-14294984D01*
X14948515Y-14294984D02*
X14929467Y-14285460D01*
X14929467Y-14285460D02*
X14919943Y-14275936D01*
X15167562Y-14094984D02*
X15186610Y-14094984D01*
X15186610Y-14094984D02*
X15205658Y-14104508D01*
X15205658Y-14104508D02*
X15215182Y-14114031D01*
X15215182Y-14114031D02*
X15224705Y-14133079D01*
X15224705Y-14133079D02*
X15234229Y-14171174D01*
X15234229Y-14171174D02*
X15234229Y-14218793D01*
X15234229Y-14218793D02*
X15224705Y-14256888D01*
X15224705Y-14256888D02*
X15215182Y-14275936D01*
X15215182Y-14275936D02*
X15205658Y-14285460D01*
X15205658Y-14285460D02*
X15186610Y-14294984D01*
X15186610Y-14294984D02*
X15167562Y-14294984D01*
X15167562Y-14294984D02*
X15148515Y-14285460D01*
X15148515Y-14285460D02*
X15138991Y-14275936D01*
X15138991Y-14275936D02*
X15129467Y-14256888D01*
X15129467Y-14256888D02*
X15119943Y-14218793D01*
X15119943Y-14218793D02*
X15119943Y-14171174D01*
X15119943Y-14171174D02*
X15129467Y-14133079D01*
X15129467Y-14133079D02*
X15138991Y-14114031D01*
X15138991Y-14114031D02*
X15148515Y-14104508D01*
X15148515Y-14104508D02*
X15167562Y-14094984D01*
X15358039Y-14094984D02*
X15377086Y-14094984D01*
X15377086Y-14094984D02*
X15396134Y-14104508D01*
X15396134Y-14104508D02*
X15405658Y-14114031D01*
X15405658Y-14114031D02*
X15415182Y-14133079D01*
X15415182Y-14133079D02*
X15424705Y-14171174D01*
X15424705Y-14171174D02*
X15424705Y-14218793D01*
X15424705Y-14218793D02*
X15415182Y-14256888D01*
X15415182Y-14256888D02*
X15405658Y-14275936D01*
X15405658Y-14275936D02*
X15396134Y-14285460D01*
X15396134Y-14285460D02*
X15377086Y-14294984D01*
X15377086Y-14294984D02*
X15358039Y-14294984D01*
X15358039Y-14294984D02*
X15338991Y-14285460D01*
X15338991Y-14285460D02*
X15329467Y-14275936D01*
X15329467Y-14275936D02*
X15319943Y-14256888D01*
X15319943Y-14256888D02*
X15310420Y-14218793D01*
X15310420Y-14218793D02*
X15310420Y-14171174D01*
X15310420Y-14171174D02*
X15319943Y-14133079D01*
X15319943Y-14133079D02*
X15329467Y-14114031D01*
X15329467Y-14114031D02*
X15338991Y-14104508D01*
X15338991Y-14104508D02*
X15358039Y-14094984D01*
X15510420Y-14294984D02*
X15510420Y-14161650D01*
X15510420Y-14180698D02*
X15519943Y-14171174D01*
X15519943Y-14171174D02*
X15538991Y-14161650D01*
X15538991Y-14161650D02*
X15567563Y-14161650D01*
X15567563Y-14161650D02*
X15586610Y-14171174D01*
X15586610Y-14171174D02*
X15596134Y-14190222D01*
X15596134Y-14190222D02*
X15596134Y-14294984D01*
X15596134Y-14190222D02*
X15605658Y-14171174D01*
X15605658Y-14171174D02*
X15624705Y-14161650D01*
X15624705Y-14161650D02*
X15653277Y-14161650D01*
X15653277Y-14161650D02*
X15672324Y-14171174D01*
X15672324Y-14171174D02*
X15681848Y-14190222D01*
X15681848Y-14190222D02*
X15681848Y-14294984D01*
X15777086Y-14294984D02*
X15777086Y-14161650D01*
X15777086Y-14180698D02*
X15786610Y-14171174D01*
X15786610Y-14171174D02*
X15805658Y-14161650D01*
X15805658Y-14161650D02*
X15834229Y-14161650D01*
X15834229Y-14161650D02*
X15853277Y-14171174D01*
X15853277Y-14171174D02*
X15862801Y-14190222D01*
X15862801Y-14190222D02*
X15862801Y-14294984D01*
X15862801Y-14190222D02*
X15872324Y-14171174D01*
X15872324Y-14171174D02*
X15891372Y-14161650D01*
X15891372Y-14161650D02*
X15919943Y-14161650D01*
X15919943Y-14161650D02*
X15938991Y-14171174D01*
X15938991Y-14171174D02*
X15948515Y-14190222D01*
X15948515Y-14190222D02*
X15948515Y-14294984D01*
X16338991Y-14085460D02*
X16167563Y-14342603D01*
X16596134Y-14094984D02*
X16615182Y-14094984D01*
X16615182Y-14094984D02*
X16634229Y-14104508D01*
X16634229Y-14104508D02*
X16643753Y-14114031D01*
X16643753Y-14114031D02*
X16653277Y-14133079D01*
X16653277Y-14133079D02*
X16662801Y-14171174D01*
X16662801Y-14171174D02*
X16662801Y-14218793D01*
X16662801Y-14218793D02*
X16653277Y-14256888D01*
X16653277Y-14256888D02*
X16643753Y-14275936D01*
X16643753Y-14275936D02*
X16634229Y-14285460D01*
X16634229Y-14285460D02*
X16615182Y-14294984D01*
X16615182Y-14294984D02*
X16596134Y-14294984D01*
X16596134Y-14294984D02*
X16577086Y-14285460D01*
X16577086Y-14285460D02*
X16567563Y-14275936D01*
X16567563Y-14275936D02*
X16558039Y-14256888D01*
X16558039Y-14256888D02*
X16548515Y-14218793D01*
X16548515Y-14218793D02*
X16548515Y-14171174D01*
X16548515Y-14171174D02*
X16558039Y-14133079D01*
X16558039Y-14133079D02*
X16567563Y-14114031D01*
X16567563Y-14114031D02*
X16577086Y-14104508D01*
X16577086Y-14104508D02*
X16596134Y-14094984D01*
X16748515Y-14275936D02*
X16758039Y-14285460D01*
X16758039Y-14285460D02*
X16748515Y-14294984D01*
X16748515Y-14294984D02*
X16738991Y-14285460D01*
X16738991Y-14285460D02*
X16748515Y-14275936D01*
X16748515Y-14275936D02*
X16748515Y-14294984D01*
X16881848Y-14094984D02*
X16900896Y-14094984D01*
X16900896Y-14094984D02*
X16919944Y-14104508D01*
X16919944Y-14104508D02*
X16929468Y-14114031D01*
X16929468Y-14114031D02*
X16938991Y-14133079D01*
X16938991Y-14133079D02*
X16948515Y-14171174D01*
X16948515Y-14171174D02*
X16948515Y-14218793D01*
X16948515Y-14218793D02*
X16938991Y-14256888D01*
X16938991Y-14256888D02*
X16929468Y-14275936D01*
X16929468Y-14275936D02*
X16919944Y-14285460D01*
X16919944Y-14285460D02*
X16900896Y-14294984D01*
X16900896Y-14294984D02*
X16881848Y-14294984D01*
X16881848Y-14294984D02*
X16862801Y-14285460D01*
X16862801Y-14285460D02*
X16853277Y-14275936D01*
X16853277Y-14275936D02*
X16843753Y-14256888D01*
X16843753Y-14256888D02*
X16834229Y-14218793D01*
X16834229Y-14218793D02*
X16834229Y-14171174D01*
X16834229Y-14171174D02*
X16843753Y-14133079D01*
X16843753Y-14133079D02*
X16853277Y-14114031D01*
X16853277Y-14114031D02*
X16862801Y-14104508D01*
X16862801Y-14104508D02*
X16881848Y-14094984D01*
X17129468Y-14094984D02*
X17034229Y-14094984D01*
X17034229Y-14094984D02*
X17024706Y-14190222D01*
X17024706Y-14190222D02*
X17034229Y-14180698D01*
X17034229Y-14180698D02*
X17053277Y-14171174D01*
X17053277Y-14171174D02*
X17100896Y-14171174D01*
X17100896Y-14171174D02*
X17119944Y-14180698D01*
X17119944Y-14180698D02*
X17129468Y-14190222D01*
X17129468Y-14190222D02*
X17138991Y-14209269D01*
X17138991Y-14209269D02*
X17138991Y-14256888D01*
X17138991Y-14256888D02*
X17129468Y-14275936D01*
X17129468Y-14275936D02*
X17119944Y-14285460D01*
X17119944Y-14285460D02*
X17100896Y-14294984D01*
X17100896Y-14294984D02*
X17053277Y-14294984D01*
X17053277Y-14294984D02*
X17034229Y-14285460D01*
X17034229Y-14285460D02*
X17024706Y-14275936D01*
X17329468Y-14294984D02*
X17215182Y-14294984D01*
X17272325Y-14294984D02*
X17272325Y-14094984D01*
X17272325Y-14094984D02*
X17253277Y-14123555D01*
X17253277Y-14123555D02*
X17234229Y-14142603D01*
X17234229Y-14142603D02*
X17215182Y-14152127D01*
X17405658Y-14114031D02*
X17415182Y-14104508D01*
X17415182Y-14104508D02*
X17434229Y-14094984D01*
X17434229Y-14094984D02*
X17481849Y-14094984D01*
X17481849Y-14094984D02*
X17500896Y-14104508D01*
X17500896Y-14104508D02*
X17510420Y-14114031D01*
X17510420Y-14114031D02*
X17519944Y-14133079D01*
X17519944Y-14133079D02*
X17519944Y-14152127D01*
X17519944Y-14152127D02*
X17510420Y-14180698D01*
X17510420Y-14180698D02*
X17396134Y-14294984D01*
X17396134Y-14294984D02*
X17519944Y-14294984D01*
X17596134Y-14094984D02*
X17596134Y-14133079D01*
X17672325Y-14094984D02*
X17672325Y-14133079D01*
X17967563Y-14371174D02*
X17958039Y-14361650D01*
X17958039Y-14361650D02*
X17938991Y-14333079D01*
X17938991Y-14333079D02*
X17929468Y-14314031D01*
X17929468Y-14314031D02*
X17919944Y-14285460D01*
X17919944Y-14285460D02*
X17910420Y-14237841D01*
X17910420Y-14237841D02*
X17910420Y-14199746D01*
X17910420Y-14199746D02*
X17919944Y-14152127D01*
X17919944Y-14152127D02*
X17929468Y-14123555D01*
X17929468Y-14123555D02*
X17938991Y-14104508D01*
X17938991Y-14104508D02*
X17958039Y-14075936D01*
X17958039Y-14075936D02*
X17967563Y-14066412D01*
X18129468Y-14161650D02*
X18129468Y-14294984D01*
X18081849Y-14085460D02*
X18034230Y-14228317D01*
X18034230Y-14228317D02*
X18158039Y-14228317D01*
X18386611Y-14294984D02*
X18386611Y-14094984D01*
X18472325Y-14294984D02*
X18472325Y-14190222D01*
X18472325Y-14190222D02*
X18462801Y-14171174D01*
X18462801Y-14171174D02*
X18443753Y-14161650D01*
X18443753Y-14161650D02*
X18415182Y-14161650D01*
X18415182Y-14161650D02*
X18396134Y-14171174D01*
X18396134Y-14171174D02*
X18386611Y-14180698D01*
X18596134Y-14294984D02*
X18577087Y-14285460D01*
X18577087Y-14285460D02*
X18567563Y-14275936D01*
X18567563Y-14275936D02*
X18558039Y-14256888D01*
X18558039Y-14256888D02*
X18558039Y-14199746D01*
X18558039Y-14199746D02*
X18567563Y-14180698D01*
X18567563Y-14180698D02*
X18577087Y-14171174D01*
X18577087Y-14171174D02*
X18596134Y-14161650D01*
X18596134Y-14161650D02*
X18624706Y-14161650D01*
X18624706Y-14161650D02*
X18643753Y-14171174D01*
X18643753Y-14171174D02*
X18653277Y-14180698D01*
X18653277Y-14180698D02*
X18662801Y-14199746D01*
X18662801Y-14199746D02*
X18662801Y-14256888D01*
X18662801Y-14256888D02*
X18653277Y-14275936D01*
X18653277Y-14275936D02*
X18643753Y-14285460D01*
X18643753Y-14285460D02*
X18624706Y-14294984D01*
X18624706Y-14294984D02*
X18596134Y-14294984D01*
X18777087Y-14294984D02*
X18758039Y-14285460D01*
X18758039Y-14285460D02*
X18748515Y-14266412D01*
X18748515Y-14266412D02*
X18748515Y-14094984D01*
X18929468Y-14285460D02*
X18910420Y-14294984D01*
X18910420Y-14294984D02*
X18872325Y-14294984D01*
X18872325Y-14294984D02*
X18853277Y-14285460D01*
X18853277Y-14285460D02*
X18843753Y-14266412D01*
X18843753Y-14266412D02*
X18843753Y-14190222D01*
X18843753Y-14190222D02*
X18853277Y-14171174D01*
X18853277Y-14171174D02*
X18872325Y-14161650D01*
X18872325Y-14161650D02*
X18910420Y-14161650D01*
X18910420Y-14161650D02*
X18929468Y-14171174D01*
X18929468Y-14171174D02*
X18938992Y-14190222D01*
X18938992Y-14190222D02*
X18938992Y-14209269D01*
X18938992Y-14209269D02*
X18843753Y-14228317D01*
X19015182Y-14285460D02*
X19034230Y-14294984D01*
X19034230Y-14294984D02*
X19072325Y-14294984D01*
X19072325Y-14294984D02*
X19091373Y-14285460D01*
X19091373Y-14285460D02*
X19100896Y-14266412D01*
X19100896Y-14266412D02*
X19100896Y-14256888D01*
X19100896Y-14256888D02*
X19091373Y-14237841D01*
X19091373Y-14237841D02*
X19072325Y-14228317D01*
X19072325Y-14228317D02*
X19043753Y-14228317D01*
X19043753Y-14228317D02*
X19024706Y-14218793D01*
X19024706Y-14218793D02*
X19015182Y-14199746D01*
X19015182Y-14199746D02*
X19015182Y-14190222D01*
X19015182Y-14190222D02*
X19024706Y-14171174D01*
X19024706Y-14171174D02*
X19043753Y-14161650D01*
X19043753Y-14161650D02*
X19072325Y-14161650D01*
X19072325Y-14161650D02*
X19091373Y-14171174D01*
X19167563Y-14371174D02*
X19177087Y-14361650D01*
X19177087Y-14361650D02*
X19196134Y-14333079D01*
X19196134Y-14333079D02*
X19205658Y-14314031D01*
X19205658Y-14314031D02*
X19215182Y-14285460D01*
X19215182Y-14285460D02*
X19224706Y-14237841D01*
X19224706Y-14237841D02*
X19224706Y-14199746D01*
X19224706Y-14199746D02*
X19215182Y-14152127D01*
X19215182Y-14152127D02*
X19205658Y-14123555D01*
X19205658Y-14123555D02*
X19196134Y-14104508D01*
X19196134Y-14104508D02*
X19177087Y-14075936D01*
X19177087Y-14075936D02*
X19167563Y-14066412D01*
X14192500Y-14367500D02*
X14392500Y-14567500D01*
X14392500Y-14367500D02*
X14192500Y-14567500D01*
X14392500Y-14467500D02*
G75*
G03*
X14192500Y-14467500I-100000J0D01*
G01*
X14192500Y-14467500D02*
G75*
G03*
X14392500Y-14467500I100000J0D01*
G01*
X14634229Y-14358984D02*
X14758039Y-14358984D01*
X14758039Y-14358984D02*
X14691372Y-14435174D01*
X14691372Y-14435174D02*
X14719943Y-14435174D01*
X14719943Y-14435174D02*
X14738991Y-14444698D01*
X14738991Y-14444698D02*
X14748515Y-14454222D01*
X14748515Y-14454222D02*
X14758039Y-14473269D01*
X14758039Y-14473269D02*
X14758039Y-14520888D01*
X14758039Y-14520888D02*
X14748515Y-14539936D01*
X14748515Y-14539936D02*
X14738991Y-14549460D01*
X14738991Y-14549460D02*
X14719943Y-14558984D01*
X14719943Y-14558984D02*
X14662801Y-14558984D01*
X14662801Y-14558984D02*
X14643753Y-14549460D01*
X14643753Y-14549460D02*
X14634229Y-14539936D01*
X14843753Y-14539936D02*
X14853277Y-14549460D01*
X14853277Y-14549460D02*
X14843753Y-14558984D01*
X14843753Y-14558984D02*
X14834229Y-14549460D01*
X14834229Y-14549460D02*
X14843753Y-14539936D01*
X14843753Y-14539936D02*
X14843753Y-14558984D01*
X14929467Y-14378031D02*
X14938991Y-14368508D01*
X14938991Y-14368508D02*
X14958039Y-14358984D01*
X14958039Y-14358984D02*
X15005658Y-14358984D01*
X15005658Y-14358984D02*
X15024705Y-14368508D01*
X15024705Y-14368508D02*
X15034229Y-14378031D01*
X15034229Y-14378031D02*
X15043753Y-14397079D01*
X15043753Y-14397079D02*
X15043753Y-14416127D01*
X15043753Y-14416127D02*
X15034229Y-14444698D01*
X15034229Y-14444698D02*
X14919943Y-14558984D01*
X14919943Y-14558984D02*
X15043753Y-14558984D01*
X15167562Y-14358984D02*
X15186610Y-14358984D01*
X15186610Y-14358984D02*
X15205658Y-14368508D01*
X15205658Y-14368508D02*
X15215182Y-14378031D01*
X15215182Y-14378031D02*
X15224705Y-14397079D01*
X15224705Y-14397079D02*
X15234229Y-14435174D01*
X15234229Y-14435174D02*
X15234229Y-14482793D01*
X15234229Y-14482793D02*
X15224705Y-14520888D01*
X15224705Y-14520888D02*
X15215182Y-14539936D01*
X15215182Y-14539936D02*
X15205658Y-14549460D01*
X15205658Y-14549460D02*
X15186610Y-14558984D01*
X15186610Y-14558984D02*
X15167562Y-14558984D01*
X15167562Y-14558984D02*
X15148515Y-14549460D01*
X15148515Y-14549460D02*
X15138991Y-14539936D01*
X15138991Y-14539936D02*
X15129467Y-14520888D01*
X15129467Y-14520888D02*
X15119943Y-14482793D01*
X15119943Y-14482793D02*
X15119943Y-14435174D01*
X15119943Y-14435174D02*
X15129467Y-14397079D01*
X15129467Y-14397079D02*
X15138991Y-14378031D01*
X15138991Y-14378031D02*
X15148515Y-14368508D01*
X15148515Y-14368508D02*
X15167562Y-14358984D01*
X15358039Y-14358984D02*
X15377086Y-14358984D01*
X15377086Y-14358984D02*
X15396134Y-14368508D01*
X15396134Y-14368508D02*
X15405658Y-14378031D01*
X15405658Y-14378031D02*
X15415182Y-14397079D01*
X15415182Y-14397079D02*
X15424705Y-14435174D01*
X15424705Y-14435174D02*
X15424705Y-14482793D01*
X15424705Y-14482793D02*
X15415182Y-14520888D01*
X15415182Y-14520888D02*
X15405658Y-14539936D01*
X15405658Y-14539936D02*
X15396134Y-14549460D01*
X15396134Y-14549460D02*
X15377086Y-14558984D01*
X15377086Y-14558984D02*
X15358039Y-14558984D01*
X15358039Y-14558984D02*
X15338991Y-14549460D01*
X15338991Y-14549460D02*
X15329467Y-14539936D01*
X15329467Y-14539936D02*
X15319943Y-14520888D01*
X15319943Y-14520888D02*
X15310420Y-14482793D01*
X15310420Y-14482793D02*
X15310420Y-14435174D01*
X15310420Y-14435174D02*
X15319943Y-14397079D01*
X15319943Y-14397079D02*
X15329467Y-14378031D01*
X15329467Y-14378031D02*
X15338991Y-14368508D01*
X15338991Y-14368508D02*
X15358039Y-14358984D01*
X15510420Y-14558984D02*
X15510420Y-14425650D01*
X15510420Y-14444698D02*
X15519943Y-14435174D01*
X15519943Y-14435174D02*
X15538991Y-14425650D01*
X15538991Y-14425650D02*
X15567563Y-14425650D01*
X15567563Y-14425650D02*
X15586610Y-14435174D01*
X15586610Y-14435174D02*
X15596134Y-14454222D01*
X15596134Y-14454222D02*
X15596134Y-14558984D01*
X15596134Y-14454222D02*
X15605658Y-14435174D01*
X15605658Y-14435174D02*
X15624705Y-14425650D01*
X15624705Y-14425650D02*
X15653277Y-14425650D01*
X15653277Y-14425650D02*
X15672324Y-14435174D01*
X15672324Y-14435174D02*
X15681848Y-14454222D01*
X15681848Y-14454222D02*
X15681848Y-14558984D01*
X15777086Y-14558984D02*
X15777086Y-14425650D01*
X15777086Y-14444698D02*
X15786610Y-14435174D01*
X15786610Y-14435174D02*
X15805658Y-14425650D01*
X15805658Y-14425650D02*
X15834229Y-14425650D01*
X15834229Y-14425650D02*
X15853277Y-14435174D01*
X15853277Y-14435174D02*
X15862801Y-14454222D01*
X15862801Y-14454222D02*
X15862801Y-14558984D01*
X15862801Y-14454222D02*
X15872324Y-14435174D01*
X15872324Y-14435174D02*
X15891372Y-14425650D01*
X15891372Y-14425650D02*
X15919943Y-14425650D01*
X15919943Y-14425650D02*
X15938991Y-14435174D01*
X15938991Y-14435174D02*
X15948515Y-14454222D01*
X15948515Y-14454222D02*
X15948515Y-14558984D01*
X16338991Y-14349460D02*
X16167563Y-14606603D01*
X16596134Y-14358984D02*
X16615182Y-14358984D01*
X16615182Y-14358984D02*
X16634229Y-14368508D01*
X16634229Y-14368508D02*
X16643753Y-14378031D01*
X16643753Y-14378031D02*
X16653277Y-14397079D01*
X16653277Y-14397079D02*
X16662801Y-14435174D01*
X16662801Y-14435174D02*
X16662801Y-14482793D01*
X16662801Y-14482793D02*
X16653277Y-14520888D01*
X16653277Y-14520888D02*
X16643753Y-14539936D01*
X16643753Y-14539936D02*
X16634229Y-14549460D01*
X16634229Y-14549460D02*
X16615182Y-14558984D01*
X16615182Y-14558984D02*
X16596134Y-14558984D01*
X16596134Y-14558984D02*
X16577086Y-14549460D01*
X16577086Y-14549460D02*
X16567563Y-14539936D01*
X16567563Y-14539936D02*
X16558039Y-14520888D01*
X16558039Y-14520888D02*
X16548515Y-14482793D01*
X16548515Y-14482793D02*
X16548515Y-14435174D01*
X16548515Y-14435174D02*
X16558039Y-14397079D01*
X16558039Y-14397079D02*
X16567563Y-14378031D01*
X16567563Y-14378031D02*
X16577086Y-14368508D01*
X16577086Y-14368508D02*
X16596134Y-14358984D01*
X16748515Y-14539936D02*
X16758039Y-14549460D01*
X16758039Y-14549460D02*
X16748515Y-14558984D01*
X16748515Y-14558984D02*
X16738991Y-14549460D01*
X16738991Y-14549460D02*
X16748515Y-14539936D01*
X16748515Y-14539936D02*
X16748515Y-14558984D01*
X16948515Y-14558984D02*
X16834229Y-14558984D01*
X16891372Y-14558984D02*
X16891372Y-14358984D01*
X16891372Y-14358984D02*
X16872325Y-14387555D01*
X16872325Y-14387555D02*
X16853277Y-14406603D01*
X16853277Y-14406603D02*
X16834229Y-14416127D01*
X17024706Y-14378031D02*
X17034229Y-14368508D01*
X17034229Y-14368508D02*
X17053277Y-14358984D01*
X17053277Y-14358984D02*
X17100896Y-14358984D01*
X17100896Y-14358984D02*
X17119944Y-14368508D01*
X17119944Y-14368508D02*
X17129468Y-14378031D01*
X17129468Y-14378031D02*
X17138991Y-14397079D01*
X17138991Y-14397079D02*
X17138991Y-14416127D01*
X17138991Y-14416127D02*
X17129468Y-14444698D01*
X17129468Y-14444698D02*
X17015182Y-14558984D01*
X17015182Y-14558984D02*
X17138991Y-14558984D01*
X17310420Y-14358984D02*
X17272325Y-14358984D01*
X17272325Y-14358984D02*
X17253277Y-14368508D01*
X17253277Y-14368508D02*
X17243753Y-14378031D01*
X17243753Y-14378031D02*
X17224706Y-14406603D01*
X17224706Y-14406603D02*
X17215182Y-14444698D01*
X17215182Y-14444698D02*
X17215182Y-14520888D01*
X17215182Y-14520888D02*
X17224706Y-14539936D01*
X17224706Y-14539936D02*
X17234229Y-14549460D01*
X17234229Y-14549460D02*
X17253277Y-14558984D01*
X17253277Y-14558984D02*
X17291372Y-14558984D01*
X17291372Y-14558984D02*
X17310420Y-14549460D01*
X17310420Y-14549460D02*
X17319944Y-14539936D01*
X17319944Y-14539936D02*
X17329468Y-14520888D01*
X17329468Y-14520888D02*
X17329468Y-14473269D01*
X17329468Y-14473269D02*
X17319944Y-14454222D01*
X17319944Y-14454222D02*
X17310420Y-14444698D01*
X17310420Y-14444698D02*
X17291372Y-14435174D01*
X17291372Y-14435174D02*
X17253277Y-14435174D01*
X17253277Y-14435174D02*
X17234229Y-14444698D01*
X17234229Y-14444698D02*
X17224706Y-14454222D01*
X17224706Y-14454222D02*
X17215182Y-14473269D01*
X17453277Y-14358984D02*
X17472325Y-14358984D01*
X17472325Y-14358984D02*
X17491372Y-14368508D01*
X17491372Y-14368508D02*
X17500896Y-14378031D01*
X17500896Y-14378031D02*
X17510420Y-14397079D01*
X17510420Y-14397079D02*
X17519944Y-14435174D01*
X17519944Y-14435174D02*
X17519944Y-14482793D01*
X17519944Y-14482793D02*
X17510420Y-14520888D01*
X17510420Y-14520888D02*
X17500896Y-14539936D01*
X17500896Y-14539936D02*
X17491372Y-14549460D01*
X17491372Y-14549460D02*
X17472325Y-14558984D01*
X17472325Y-14558984D02*
X17453277Y-14558984D01*
X17453277Y-14558984D02*
X17434229Y-14549460D01*
X17434229Y-14549460D02*
X17424706Y-14539936D01*
X17424706Y-14539936D02*
X17415182Y-14520888D01*
X17415182Y-14520888D02*
X17405658Y-14482793D01*
X17405658Y-14482793D02*
X17405658Y-14435174D01*
X17405658Y-14435174D02*
X17415182Y-14397079D01*
X17415182Y-14397079D02*
X17424706Y-14378031D01*
X17424706Y-14378031D02*
X17434229Y-14368508D01*
X17434229Y-14368508D02*
X17453277Y-14358984D01*
X17596134Y-14358984D02*
X17596134Y-14397079D01*
X17672325Y-14358984D02*
X17672325Y-14397079D01*
X17967563Y-14635174D02*
X17958039Y-14625650D01*
X17958039Y-14625650D02*
X17938991Y-14597079D01*
X17938991Y-14597079D02*
X17929468Y-14578031D01*
X17929468Y-14578031D02*
X17919944Y-14549460D01*
X17919944Y-14549460D02*
X17910420Y-14501841D01*
X17910420Y-14501841D02*
X17910420Y-14463746D01*
X17910420Y-14463746D02*
X17919944Y-14416127D01*
X17919944Y-14416127D02*
X17929468Y-14387555D01*
X17929468Y-14387555D02*
X17938991Y-14368508D01*
X17938991Y-14368508D02*
X17958039Y-14339936D01*
X17958039Y-14339936D02*
X17967563Y-14330412D01*
X18034230Y-14378031D02*
X18043753Y-14368508D01*
X18043753Y-14368508D02*
X18062801Y-14358984D01*
X18062801Y-14358984D02*
X18110420Y-14358984D01*
X18110420Y-14358984D02*
X18129468Y-14368508D01*
X18129468Y-14368508D02*
X18138991Y-14378031D01*
X18138991Y-14378031D02*
X18148515Y-14397079D01*
X18148515Y-14397079D02*
X18148515Y-14416127D01*
X18148515Y-14416127D02*
X18138991Y-14444698D01*
X18138991Y-14444698D02*
X18024706Y-14558984D01*
X18024706Y-14558984D02*
X18148515Y-14558984D01*
X18386611Y-14558984D02*
X18386611Y-14358984D01*
X18472325Y-14558984D02*
X18472325Y-14454222D01*
X18472325Y-14454222D02*
X18462801Y-14435174D01*
X18462801Y-14435174D02*
X18443753Y-14425650D01*
X18443753Y-14425650D02*
X18415182Y-14425650D01*
X18415182Y-14425650D02*
X18396134Y-14435174D01*
X18396134Y-14435174D02*
X18386611Y-14444698D01*
X18596134Y-14558984D02*
X18577087Y-14549460D01*
X18577087Y-14549460D02*
X18567563Y-14539936D01*
X18567563Y-14539936D02*
X18558039Y-14520888D01*
X18558039Y-14520888D02*
X18558039Y-14463746D01*
X18558039Y-14463746D02*
X18567563Y-14444698D01*
X18567563Y-14444698D02*
X18577087Y-14435174D01*
X18577087Y-14435174D02*
X18596134Y-14425650D01*
X18596134Y-14425650D02*
X18624706Y-14425650D01*
X18624706Y-14425650D02*
X18643753Y-14435174D01*
X18643753Y-14435174D02*
X18653277Y-14444698D01*
X18653277Y-14444698D02*
X18662801Y-14463746D01*
X18662801Y-14463746D02*
X18662801Y-14520888D01*
X18662801Y-14520888D02*
X18653277Y-14539936D01*
X18653277Y-14539936D02*
X18643753Y-14549460D01*
X18643753Y-14549460D02*
X18624706Y-14558984D01*
X18624706Y-14558984D02*
X18596134Y-14558984D01*
X18777087Y-14558984D02*
X18758039Y-14549460D01*
X18758039Y-14549460D02*
X18748515Y-14530412D01*
X18748515Y-14530412D02*
X18748515Y-14358984D01*
X18929468Y-14549460D02*
X18910420Y-14558984D01*
X18910420Y-14558984D02*
X18872325Y-14558984D01*
X18872325Y-14558984D02*
X18853277Y-14549460D01*
X18853277Y-14549460D02*
X18843753Y-14530412D01*
X18843753Y-14530412D02*
X18843753Y-14454222D01*
X18843753Y-14454222D02*
X18853277Y-14435174D01*
X18853277Y-14435174D02*
X18872325Y-14425650D01*
X18872325Y-14425650D02*
X18910420Y-14425650D01*
X18910420Y-14425650D02*
X18929468Y-14435174D01*
X18929468Y-14435174D02*
X18938992Y-14454222D01*
X18938992Y-14454222D02*
X18938992Y-14473269D01*
X18938992Y-14473269D02*
X18843753Y-14492317D01*
X19015182Y-14549460D02*
X19034230Y-14558984D01*
X19034230Y-14558984D02*
X19072325Y-14558984D01*
X19072325Y-14558984D02*
X19091373Y-14549460D01*
X19091373Y-14549460D02*
X19100896Y-14530412D01*
X19100896Y-14530412D02*
X19100896Y-14520888D01*
X19100896Y-14520888D02*
X19091373Y-14501841D01*
X19091373Y-14501841D02*
X19072325Y-14492317D01*
X19072325Y-14492317D02*
X19043753Y-14492317D01*
X19043753Y-14492317D02*
X19024706Y-14482793D01*
X19024706Y-14482793D02*
X19015182Y-14463746D01*
X19015182Y-14463746D02*
X19015182Y-14454222D01*
X19015182Y-14454222D02*
X19024706Y-14435174D01*
X19024706Y-14435174D02*
X19043753Y-14425650D01*
X19043753Y-14425650D02*
X19072325Y-14425650D01*
X19072325Y-14425650D02*
X19091373Y-14435174D01*
X19167563Y-14635174D02*
X19177087Y-14625650D01*
X19177087Y-14625650D02*
X19196134Y-14597079D01*
X19196134Y-14597079D02*
X19205658Y-14578031D01*
X19205658Y-14578031D02*
X19215182Y-14549460D01*
X19215182Y-14549460D02*
X19224706Y-14501841D01*
X19224706Y-14501841D02*
X19224706Y-14463746D01*
X19224706Y-14463746D02*
X19215182Y-14416127D01*
X19215182Y-14416127D02*
X19205658Y-14387555D01*
X19205658Y-14387555D02*
X19196134Y-14368508D01*
X19196134Y-14368508D02*
X19177087Y-14339936D01*
X19177087Y-14339936D02*
X19167563Y-14330412D01*
M02*
