%TF.GenerationSoftware,KiCad,Pcbnew,7.0.10*%
%TF.CreationDate,2024-02-17T17:59:34+01:00*%
%TF.ProjectId,Master_Clock,4d617374-6572-45f4-936c-6f636b2e6b69,1.1*%
%TF.SameCoordinates,Original*%
%TF.FileFunction,AssemblyDrawing,Bot*%
%FSLAX46Y46*%
G04 Gerber Fmt 4.6, Leading zero omitted, Abs format (unit mm)*
G04 Created by KiCad (PCBNEW 7.0.10) date 2024-02-17 17:59:34*
%MOMM*%
%LPD*%
G01*
G04 APERTURE LIST*
%ADD10C,0.060000*%
%ADD11C,0.100000*%
%TA.AperFunction,Profile*%
%ADD12C,0.150000*%
%TD*%
G04 APERTURE END LIST*
D10*
X148257142Y-74643832D02*
X148276190Y-74662880D01*
X148276190Y-74662880D02*
X148333332Y-74681927D01*
X148333332Y-74681927D02*
X148371428Y-74681927D01*
X148371428Y-74681927D02*
X148428571Y-74662880D01*
X148428571Y-74662880D02*
X148466666Y-74624784D01*
X148466666Y-74624784D02*
X148485713Y-74586689D01*
X148485713Y-74586689D02*
X148504761Y-74510499D01*
X148504761Y-74510499D02*
X148504761Y-74453356D01*
X148504761Y-74453356D02*
X148485713Y-74377165D01*
X148485713Y-74377165D02*
X148466666Y-74339070D01*
X148466666Y-74339070D02*
X148428571Y-74300975D01*
X148428571Y-74300975D02*
X148371428Y-74281927D01*
X148371428Y-74281927D02*
X148333332Y-74281927D01*
X148333332Y-74281927D02*
X148276190Y-74300975D01*
X148276190Y-74300975D02*
X148257142Y-74320022D01*
X147876190Y-74681927D02*
X148104761Y-74681927D01*
X147990475Y-74681927D02*
X147990475Y-74281927D01*
X147990475Y-74281927D02*
X148028571Y-74339070D01*
X148028571Y-74339070D02*
X148066666Y-74377165D01*
X148066666Y-74377165D02*
X148104761Y-74396213D01*
X147742857Y-74281927D02*
X147495238Y-74281927D01*
X147495238Y-74281927D02*
X147628571Y-74434308D01*
X147628571Y-74434308D02*
X147571428Y-74434308D01*
X147571428Y-74434308D02*
X147533333Y-74453356D01*
X147533333Y-74453356D02*
X147514285Y-74472403D01*
X147514285Y-74472403D02*
X147495238Y-74510499D01*
X147495238Y-74510499D02*
X147495238Y-74605737D01*
X147495238Y-74605737D02*
X147514285Y-74643832D01*
X147514285Y-74643832D02*
X147533333Y-74662880D01*
X147533333Y-74662880D02*
X147571428Y-74681927D01*
X147571428Y-74681927D02*
X147685714Y-74681927D01*
X147685714Y-74681927D02*
X147723809Y-74662880D01*
X147723809Y-74662880D02*
X147742857Y-74643832D01*
X155418072Y-102495237D02*
X155818072Y-102495237D01*
X155818072Y-102495237D02*
X155818072Y-102399999D01*
X155818072Y-102399999D02*
X155799024Y-102342856D01*
X155799024Y-102342856D02*
X155760929Y-102304761D01*
X155760929Y-102304761D02*
X155722834Y-102285714D01*
X155722834Y-102285714D02*
X155646643Y-102266666D01*
X155646643Y-102266666D02*
X155589500Y-102266666D01*
X155589500Y-102266666D02*
X155513310Y-102285714D01*
X155513310Y-102285714D02*
X155475215Y-102304761D01*
X155475215Y-102304761D02*
X155437120Y-102342856D01*
X155437120Y-102342856D02*
X155418072Y-102399999D01*
X155418072Y-102399999D02*
X155418072Y-102495237D01*
X155418072Y-101885714D02*
X155418072Y-102114285D01*
X155418072Y-101999999D02*
X155818072Y-101999999D01*
X155818072Y-101999999D02*
X155760929Y-102038095D01*
X155760929Y-102038095D02*
X155722834Y-102076190D01*
X155722834Y-102076190D02*
X155703786Y-102114285D01*
X148307142Y-90619427D02*
X148440475Y-90428951D01*
X148535713Y-90619427D02*
X148535713Y-90219427D01*
X148535713Y-90219427D02*
X148383332Y-90219427D01*
X148383332Y-90219427D02*
X148345237Y-90238475D01*
X148345237Y-90238475D02*
X148326190Y-90257522D01*
X148326190Y-90257522D02*
X148307142Y-90295618D01*
X148307142Y-90295618D02*
X148307142Y-90352760D01*
X148307142Y-90352760D02*
X148326190Y-90390856D01*
X148326190Y-90390856D02*
X148345237Y-90409903D01*
X148345237Y-90409903D02*
X148383332Y-90428951D01*
X148383332Y-90428951D02*
X148535713Y-90428951D01*
X147926190Y-90619427D02*
X148154761Y-90619427D01*
X148040475Y-90619427D02*
X148040475Y-90219427D01*
X148040475Y-90219427D02*
X148078571Y-90276570D01*
X148078571Y-90276570D02*
X148116666Y-90314665D01*
X148116666Y-90314665D02*
X148154761Y-90333713D01*
X147678571Y-90219427D02*
X147640476Y-90219427D01*
X147640476Y-90219427D02*
X147602380Y-90238475D01*
X147602380Y-90238475D02*
X147583333Y-90257522D01*
X147583333Y-90257522D02*
X147564285Y-90295618D01*
X147564285Y-90295618D02*
X147545238Y-90371808D01*
X147545238Y-90371808D02*
X147545238Y-90467046D01*
X147545238Y-90467046D02*
X147564285Y-90543237D01*
X147564285Y-90543237D02*
X147583333Y-90581332D01*
X147583333Y-90581332D02*
X147602380Y-90600380D01*
X147602380Y-90600380D02*
X147640476Y-90619427D01*
X147640476Y-90619427D02*
X147678571Y-90619427D01*
X147678571Y-90619427D02*
X147716666Y-90600380D01*
X147716666Y-90600380D02*
X147735714Y-90581332D01*
X147735714Y-90581332D02*
X147754761Y-90543237D01*
X147754761Y-90543237D02*
X147773809Y-90467046D01*
X147773809Y-90467046D02*
X147773809Y-90371808D01*
X147773809Y-90371808D02*
X147754761Y-90295618D01*
X147754761Y-90295618D02*
X147735714Y-90257522D01*
X147735714Y-90257522D02*
X147716666Y-90238475D01*
X147716666Y-90238475D02*
X147678571Y-90219427D01*
X147829977Y-93475595D02*
X147849024Y-93513690D01*
X147849024Y-93513690D02*
X147887120Y-93551785D01*
X147887120Y-93551785D02*
X147944262Y-93608928D01*
X147944262Y-93608928D02*
X147963310Y-93647023D01*
X147963310Y-93647023D02*
X147963310Y-93685119D01*
X147868072Y-93666071D02*
X147887120Y-93704166D01*
X147887120Y-93704166D02*
X147925215Y-93742261D01*
X147925215Y-93742261D02*
X148001405Y-93761309D01*
X148001405Y-93761309D02*
X148134739Y-93761309D01*
X148134739Y-93761309D02*
X148210929Y-93742261D01*
X148210929Y-93742261D02*
X148249024Y-93704166D01*
X148249024Y-93704166D02*
X148268072Y-93666071D01*
X148268072Y-93666071D02*
X148268072Y-93589880D01*
X148268072Y-93589880D02*
X148249024Y-93551785D01*
X148249024Y-93551785D02*
X148210929Y-93513690D01*
X148210929Y-93513690D02*
X148134739Y-93494642D01*
X148134739Y-93494642D02*
X148001405Y-93494642D01*
X148001405Y-93494642D02*
X147925215Y-93513690D01*
X147925215Y-93513690D02*
X147887120Y-93551785D01*
X147887120Y-93551785D02*
X147868072Y-93589880D01*
X147868072Y-93589880D02*
X147868072Y-93666071D01*
X147868072Y-93113690D02*
X147868072Y-93342261D01*
X147868072Y-93227975D02*
X148268072Y-93227975D01*
X148268072Y-93227975D02*
X148210929Y-93266071D01*
X148210929Y-93266071D02*
X148172834Y-93304166D01*
X148172834Y-93304166D02*
X148153786Y-93342261D01*
X152356167Y-69566666D02*
X152337120Y-69585714D01*
X152337120Y-69585714D02*
X152318072Y-69642856D01*
X152318072Y-69642856D02*
X152318072Y-69680952D01*
X152318072Y-69680952D02*
X152337120Y-69738095D01*
X152337120Y-69738095D02*
X152375215Y-69776190D01*
X152375215Y-69776190D02*
X152413310Y-69795237D01*
X152413310Y-69795237D02*
X152489500Y-69814285D01*
X152489500Y-69814285D02*
X152546643Y-69814285D01*
X152546643Y-69814285D02*
X152622834Y-69795237D01*
X152622834Y-69795237D02*
X152660929Y-69776190D01*
X152660929Y-69776190D02*
X152699024Y-69738095D01*
X152699024Y-69738095D02*
X152718072Y-69680952D01*
X152718072Y-69680952D02*
X152718072Y-69642856D01*
X152718072Y-69642856D02*
X152699024Y-69585714D01*
X152699024Y-69585714D02*
X152679977Y-69566666D01*
X152318072Y-69376190D02*
X152318072Y-69299999D01*
X152318072Y-69299999D02*
X152337120Y-69261904D01*
X152337120Y-69261904D02*
X152356167Y-69242856D01*
X152356167Y-69242856D02*
X152413310Y-69204761D01*
X152413310Y-69204761D02*
X152489500Y-69185714D01*
X152489500Y-69185714D02*
X152641881Y-69185714D01*
X152641881Y-69185714D02*
X152679977Y-69204761D01*
X152679977Y-69204761D02*
X152699024Y-69223809D01*
X152699024Y-69223809D02*
X152718072Y-69261904D01*
X152718072Y-69261904D02*
X152718072Y-69338095D01*
X152718072Y-69338095D02*
X152699024Y-69376190D01*
X152699024Y-69376190D02*
X152679977Y-69395237D01*
X152679977Y-69395237D02*
X152641881Y-69414285D01*
X152641881Y-69414285D02*
X152546643Y-69414285D01*
X152546643Y-69414285D02*
X152508548Y-69395237D01*
X152508548Y-69395237D02*
X152489500Y-69376190D01*
X152489500Y-69376190D02*
X152470453Y-69338095D01*
X152470453Y-69338095D02*
X152470453Y-69261904D01*
X152470453Y-69261904D02*
X152489500Y-69223809D01*
X152489500Y-69223809D02*
X152508548Y-69204761D01*
X152508548Y-69204761D02*
X152546643Y-69185714D01*
X150418072Y-93566666D02*
X150608548Y-93699999D01*
X150418072Y-93795237D02*
X150818072Y-93795237D01*
X150818072Y-93795237D02*
X150818072Y-93642856D01*
X150818072Y-93642856D02*
X150799024Y-93604761D01*
X150799024Y-93604761D02*
X150779977Y-93585714D01*
X150779977Y-93585714D02*
X150741881Y-93566666D01*
X150741881Y-93566666D02*
X150684739Y-93566666D01*
X150684739Y-93566666D02*
X150646643Y-93585714D01*
X150646643Y-93585714D02*
X150627596Y-93604761D01*
X150627596Y-93604761D02*
X150608548Y-93642856D01*
X150608548Y-93642856D02*
X150608548Y-93795237D01*
X150818072Y-93204761D02*
X150818072Y-93395237D01*
X150818072Y-93395237D02*
X150627596Y-93414285D01*
X150627596Y-93414285D02*
X150646643Y-93395237D01*
X150646643Y-93395237D02*
X150665691Y-93357142D01*
X150665691Y-93357142D02*
X150665691Y-93261904D01*
X150665691Y-93261904D02*
X150646643Y-93223809D01*
X150646643Y-93223809D02*
X150627596Y-93204761D01*
X150627596Y-93204761D02*
X150589500Y-93185714D01*
X150589500Y-93185714D02*
X150494262Y-93185714D01*
X150494262Y-93185714D02*
X150456167Y-93204761D01*
X150456167Y-93204761D02*
X150437120Y-93223809D01*
X150437120Y-93223809D02*
X150418072Y-93261904D01*
X150418072Y-93261904D02*
X150418072Y-93357142D01*
X150418072Y-93357142D02*
X150437120Y-93395237D01*
X150437120Y-93395237D02*
X150456167Y-93414285D01*
X156257142Y-90143832D02*
X156276190Y-90162880D01*
X156276190Y-90162880D02*
X156333332Y-90181927D01*
X156333332Y-90181927D02*
X156371428Y-90181927D01*
X156371428Y-90181927D02*
X156428571Y-90162880D01*
X156428571Y-90162880D02*
X156466666Y-90124784D01*
X156466666Y-90124784D02*
X156485713Y-90086689D01*
X156485713Y-90086689D02*
X156504761Y-90010499D01*
X156504761Y-90010499D02*
X156504761Y-89953356D01*
X156504761Y-89953356D02*
X156485713Y-89877165D01*
X156485713Y-89877165D02*
X156466666Y-89839070D01*
X156466666Y-89839070D02*
X156428571Y-89800975D01*
X156428571Y-89800975D02*
X156371428Y-89781927D01*
X156371428Y-89781927D02*
X156333332Y-89781927D01*
X156333332Y-89781927D02*
X156276190Y-89800975D01*
X156276190Y-89800975D02*
X156257142Y-89820022D01*
X155876190Y-90181927D02*
X156104761Y-90181927D01*
X155990475Y-90181927D02*
X155990475Y-89781927D01*
X155990475Y-89781927D02*
X156028571Y-89839070D01*
X156028571Y-89839070D02*
X156066666Y-89877165D01*
X156066666Y-89877165D02*
X156104761Y-89896213D01*
X155723809Y-89820022D02*
X155704761Y-89800975D01*
X155704761Y-89800975D02*
X155666666Y-89781927D01*
X155666666Y-89781927D02*
X155571428Y-89781927D01*
X155571428Y-89781927D02*
X155533333Y-89800975D01*
X155533333Y-89800975D02*
X155514285Y-89820022D01*
X155514285Y-89820022D02*
X155495238Y-89858118D01*
X155495238Y-89858118D02*
X155495238Y-89896213D01*
X155495238Y-89896213D02*
X155514285Y-89953356D01*
X155514285Y-89953356D02*
X155742857Y-90181927D01*
X155742857Y-90181927D02*
X155495238Y-90181927D01*
X160757142Y-95681927D02*
X160890475Y-95491451D01*
X160985713Y-95681927D02*
X160985713Y-95281927D01*
X160985713Y-95281927D02*
X160833332Y-95281927D01*
X160833332Y-95281927D02*
X160795237Y-95300975D01*
X160795237Y-95300975D02*
X160776190Y-95320022D01*
X160776190Y-95320022D02*
X160757142Y-95358118D01*
X160757142Y-95358118D02*
X160757142Y-95415260D01*
X160757142Y-95415260D02*
X160776190Y-95453356D01*
X160776190Y-95453356D02*
X160795237Y-95472403D01*
X160795237Y-95472403D02*
X160833332Y-95491451D01*
X160833332Y-95491451D02*
X160985713Y-95491451D01*
X160376190Y-95681927D02*
X160604761Y-95681927D01*
X160490475Y-95681927D02*
X160490475Y-95281927D01*
X160490475Y-95281927D02*
X160528571Y-95339070D01*
X160528571Y-95339070D02*
X160566666Y-95377165D01*
X160566666Y-95377165D02*
X160604761Y-95396213D01*
X160242857Y-95281927D02*
X159995238Y-95281927D01*
X159995238Y-95281927D02*
X160128571Y-95434308D01*
X160128571Y-95434308D02*
X160071428Y-95434308D01*
X160071428Y-95434308D02*
X160033333Y-95453356D01*
X160033333Y-95453356D02*
X160014285Y-95472403D01*
X160014285Y-95472403D02*
X159995238Y-95510499D01*
X159995238Y-95510499D02*
X159995238Y-95605737D01*
X159995238Y-95605737D02*
X160014285Y-95643832D01*
X160014285Y-95643832D02*
X160033333Y-95662880D01*
X160033333Y-95662880D02*
X160071428Y-95681927D01*
X160071428Y-95681927D02*
X160185714Y-95681927D01*
X160185714Y-95681927D02*
X160223809Y-95662880D01*
X160223809Y-95662880D02*
X160242857Y-95643832D01*
X148257142Y-69643832D02*
X148276190Y-69662880D01*
X148276190Y-69662880D02*
X148333332Y-69681927D01*
X148333332Y-69681927D02*
X148371428Y-69681927D01*
X148371428Y-69681927D02*
X148428571Y-69662880D01*
X148428571Y-69662880D02*
X148466666Y-69624784D01*
X148466666Y-69624784D02*
X148485713Y-69586689D01*
X148485713Y-69586689D02*
X148504761Y-69510499D01*
X148504761Y-69510499D02*
X148504761Y-69453356D01*
X148504761Y-69453356D02*
X148485713Y-69377165D01*
X148485713Y-69377165D02*
X148466666Y-69339070D01*
X148466666Y-69339070D02*
X148428571Y-69300975D01*
X148428571Y-69300975D02*
X148371428Y-69281927D01*
X148371428Y-69281927D02*
X148333332Y-69281927D01*
X148333332Y-69281927D02*
X148276190Y-69300975D01*
X148276190Y-69300975D02*
X148257142Y-69320022D01*
X147876190Y-69681927D02*
X148104761Y-69681927D01*
X147990475Y-69681927D02*
X147990475Y-69281927D01*
X147990475Y-69281927D02*
X148028571Y-69339070D01*
X148028571Y-69339070D02*
X148066666Y-69377165D01*
X148066666Y-69377165D02*
X148104761Y-69396213D01*
X147533333Y-69415260D02*
X147533333Y-69681927D01*
X147628571Y-69262880D02*
X147723809Y-69548594D01*
X147723809Y-69548594D02*
X147476190Y-69548594D01*
X150356167Y-97566666D02*
X150337120Y-97585714D01*
X150337120Y-97585714D02*
X150318072Y-97642856D01*
X150318072Y-97642856D02*
X150318072Y-97680952D01*
X150318072Y-97680952D02*
X150337120Y-97738095D01*
X150337120Y-97738095D02*
X150375215Y-97776190D01*
X150375215Y-97776190D02*
X150413310Y-97795237D01*
X150413310Y-97795237D02*
X150489500Y-97814285D01*
X150489500Y-97814285D02*
X150546643Y-97814285D01*
X150546643Y-97814285D02*
X150622834Y-97795237D01*
X150622834Y-97795237D02*
X150660929Y-97776190D01*
X150660929Y-97776190D02*
X150699024Y-97738095D01*
X150699024Y-97738095D02*
X150718072Y-97680952D01*
X150718072Y-97680952D02*
X150718072Y-97642856D01*
X150718072Y-97642856D02*
X150699024Y-97585714D01*
X150699024Y-97585714D02*
X150679977Y-97566666D01*
X150718072Y-97223809D02*
X150718072Y-97299999D01*
X150718072Y-97299999D02*
X150699024Y-97338095D01*
X150699024Y-97338095D02*
X150679977Y-97357142D01*
X150679977Y-97357142D02*
X150622834Y-97395237D01*
X150622834Y-97395237D02*
X150546643Y-97414285D01*
X150546643Y-97414285D02*
X150394262Y-97414285D01*
X150394262Y-97414285D02*
X150356167Y-97395237D01*
X150356167Y-97395237D02*
X150337120Y-97376190D01*
X150337120Y-97376190D02*
X150318072Y-97338095D01*
X150318072Y-97338095D02*
X150318072Y-97261904D01*
X150318072Y-97261904D02*
X150337120Y-97223809D01*
X150337120Y-97223809D02*
X150356167Y-97204761D01*
X150356167Y-97204761D02*
X150394262Y-97185714D01*
X150394262Y-97185714D02*
X150489500Y-97185714D01*
X150489500Y-97185714D02*
X150527596Y-97204761D01*
X150527596Y-97204761D02*
X150546643Y-97223809D01*
X150546643Y-97223809D02*
X150565691Y-97261904D01*
X150565691Y-97261904D02*
X150565691Y-97338095D01*
X150565691Y-97338095D02*
X150546643Y-97376190D01*
X150546643Y-97376190D02*
X150527596Y-97395237D01*
X150527596Y-97395237D02*
X150489500Y-97414285D01*
X161681927Y-69242857D02*
X161491451Y-69109524D01*
X161681927Y-69014286D02*
X161281927Y-69014286D01*
X161281927Y-69014286D02*
X161281927Y-69166667D01*
X161281927Y-69166667D02*
X161300975Y-69204762D01*
X161300975Y-69204762D02*
X161320022Y-69223809D01*
X161320022Y-69223809D02*
X161358118Y-69242857D01*
X161358118Y-69242857D02*
X161415260Y-69242857D01*
X161415260Y-69242857D02*
X161453356Y-69223809D01*
X161453356Y-69223809D02*
X161472403Y-69204762D01*
X161472403Y-69204762D02*
X161491451Y-69166667D01*
X161491451Y-69166667D02*
X161491451Y-69014286D01*
X161681927Y-69623809D02*
X161681927Y-69395238D01*
X161681927Y-69509524D02*
X161281927Y-69509524D01*
X161281927Y-69509524D02*
X161339070Y-69471428D01*
X161339070Y-69471428D02*
X161377165Y-69433333D01*
X161377165Y-69433333D02*
X161396213Y-69395238D01*
X161415260Y-69966666D02*
X161681927Y-69966666D01*
X161262880Y-69871428D02*
X161548594Y-69776190D01*
X161548594Y-69776190D02*
X161548594Y-70023809D01*
X150318072Y-104566666D02*
X150508548Y-104699999D01*
X150318072Y-104795237D02*
X150718072Y-104795237D01*
X150718072Y-104795237D02*
X150718072Y-104642856D01*
X150718072Y-104642856D02*
X150699024Y-104604761D01*
X150699024Y-104604761D02*
X150679977Y-104585714D01*
X150679977Y-104585714D02*
X150641881Y-104566666D01*
X150641881Y-104566666D02*
X150584739Y-104566666D01*
X150584739Y-104566666D02*
X150546643Y-104585714D01*
X150546643Y-104585714D02*
X150527596Y-104604761D01*
X150527596Y-104604761D02*
X150508548Y-104642856D01*
X150508548Y-104642856D02*
X150508548Y-104795237D01*
X150679977Y-104414285D02*
X150699024Y-104395237D01*
X150699024Y-104395237D02*
X150718072Y-104357142D01*
X150718072Y-104357142D02*
X150718072Y-104261904D01*
X150718072Y-104261904D02*
X150699024Y-104223809D01*
X150699024Y-104223809D02*
X150679977Y-104204761D01*
X150679977Y-104204761D02*
X150641881Y-104185714D01*
X150641881Y-104185714D02*
X150603786Y-104185714D01*
X150603786Y-104185714D02*
X150546643Y-104204761D01*
X150546643Y-104204761D02*
X150318072Y-104433333D01*
X150318072Y-104433333D02*
X150318072Y-104185714D01*
X150318072Y-101066666D02*
X150508548Y-101199999D01*
X150318072Y-101295237D02*
X150718072Y-101295237D01*
X150718072Y-101295237D02*
X150718072Y-101142856D01*
X150718072Y-101142856D02*
X150699024Y-101104761D01*
X150699024Y-101104761D02*
X150679977Y-101085714D01*
X150679977Y-101085714D02*
X150641881Y-101066666D01*
X150641881Y-101066666D02*
X150584739Y-101066666D01*
X150584739Y-101066666D02*
X150546643Y-101085714D01*
X150546643Y-101085714D02*
X150527596Y-101104761D01*
X150527596Y-101104761D02*
X150508548Y-101142856D01*
X150508548Y-101142856D02*
X150508548Y-101295237D01*
X150584739Y-100723809D02*
X150318072Y-100723809D01*
X150737120Y-100819047D02*
X150451405Y-100914285D01*
X150451405Y-100914285D02*
X150451405Y-100666666D01*
X153804761Y-99781927D02*
X153804761Y-100105737D01*
X153804761Y-100105737D02*
X153785714Y-100143832D01*
X153785714Y-100143832D02*
X153766666Y-100162880D01*
X153766666Y-100162880D02*
X153728571Y-100181927D01*
X153728571Y-100181927D02*
X153652380Y-100181927D01*
X153652380Y-100181927D02*
X153614285Y-100162880D01*
X153614285Y-100162880D02*
X153595238Y-100143832D01*
X153595238Y-100143832D02*
X153576190Y-100105737D01*
X153576190Y-100105737D02*
X153576190Y-99781927D01*
X153404761Y-99820022D02*
X153385713Y-99800975D01*
X153385713Y-99800975D02*
X153347618Y-99781927D01*
X153347618Y-99781927D02*
X153252380Y-99781927D01*
X153252380Y-99781927D02*
X153214285Y-99800975D01*
X153214285Y-99800975D02*
X153195237Y-99820022D01*
X153195237Y-99820022D02*
X153176190Y-99858118D01*
X153176190Y-99858118D02*
X153176190Y-99896213D01*
X153176190Y-99896213D02*
X153195237Y-99953356D01*
X153195237Y-99953356D02*
X153423809Y-100181927D01*
X153423809Y-100181927D02*
X153176190Y-100181927D01*
X148856167Y-104566666D02*
X148837120Y-104585714D01*
X148837120Y-104585714D02*
X148818072Y-104642856D01*
X148818072Y-104642856D02*
X148818072Y-104680952D01*
X148818072Y-104680952D02*
X148837120Y-104738095D01*
X148837120Y-104738095D02*
X148875215Y-104776190D01*
X148875215Y-104776190D02*
X148913310Y-104795237D01*
X148913310Y-104795237D02*
X148989500Y-104814285D01*
X148989500Y-104814285D02*
X149046643Y-104814285D01*
X149046643Y-104814285D02*
X149122834Y-104795237D01*
X149122834Y-104795237D02*
X149160929Y-104776190D01*
X149160929Y-104776190D02*
X149199024Y-104738095D01*
X149199024Y-104738095D02*
X149218072Y-104680952D01*
X149218072Y-104680952D02*
X149218072Y-104642856D01*
X149218072Y-104642856D02*
X149199024Y-104585714D01*
X149199024Y-104585714D02*
X149179977Y-104566666D01*
X148818072Y-104185714D02*
X148818072Y-104414285D01*
X148818072Y-104299999D02*
X149218072Y-104299999D01*
X149218072Y-104299999D02*
X149160929Y-104338095D01*
X149160929Y-104338095D02*
X149122834Y-104376190D01*
X149122834Y-104376190D02*
X149103786Y-104414285D01*
X149304761Y-83281927D02*
X149304761Y-83605737D01*
X149304761Y-83605737D02*
X149285714Y-83643832D01*
X149285714Y-83643832D02*
X149266666Y-83662880D01*
X149266666Y-83662880D02*
X149228571Y-83681927D01*
X149228571Y-83681927D02*
X149152380Y-83681927D01*
X149152380Y-83681927D02*
X149114285Y-83662880D01*
X149114285Y-83662880D02*
X149095238Y-83643832D01*
X149095238Y-83643832D02*
X149076190Y-83605737D01*
X149076190Y-83605737D02*
X149076190Y-83281927D01*
X148695237Y-83281927D02*
X148885713Y-83281927D01*
X148885713Y-83281927D02*
X148904761Y-83472403D01*
X148904761Y-83472403D02*
X148885713Y-83453356D01*
X148885713Y-83453356D02*
X148847618Y-83434308D01*
X148847618Y-83434308D02*
X148752380Y-83434308D01*
X148752380Y-83434308D02*
X148714285Y-83453356D01*
X148714285Y-83453356D02*
X148695237Y-83472403D01*
X148695237Y-83472403D02*
X148676190Y-83510499D01*
X148676190Y-83510499D02*
X148676190Y-83605737D01*
X148676190Y-83605737D02*
X148695237Y-83643832D01*
X148695237Y-83643832D02*
X148714285Y-83662880D01*
X148714285Y-83662880D02*
X148752380Y-83681927D01*
X148752380Y-83681927D02*
X148847618Y-83681927D01*
X148847618Y-83681927D02*
X148885713Y-83662880D01*
X148885713Y-83662880D02*
X148904761Y-83643832D01*
X156257142Y-75643832D02*
X156276190Y-75662880D01*
X156276190Y-75662880D02*
X156333332Y-75681927D01*
X156333332Y-75681927D02*
X156371428Y-75681927D01*
X156371428Y-75681927D02*
X156428571Y-75662880D01*
X156428571Y-75662880D02*
X156466666Y-75624784D01*
X156466666Y-75624784D02*
X156485713Y-75586689D01*
X156485713Y-75586689D02*
X156504761Y-75510499D01*
X156504761Y-75510499D02*
X156504761Y-75453356D01*
X156504761Y-75453356D02*
X156485713Y-75377165D01*
X156485713Y-75377165D02*
X156466666Y-75339070D01*
X156466666Y-75339070D02*
X156428571Y-75300975D01*
X156428571Y-75300975D02*
X156371428Y-75281927D01*
X156371428Y-75281927D02*
X156333332Y-75281927D01*
X156333332Y-75281927D02*
X156276190Y-75300975D01*
X156276190Y-75300975D02*
X156257142Y-75320022D01*
X155876190Y-75681927D02*
X156104761Y-75681927D01*
X155990475Y-75681927D02*
X155990475Y-75281927D01*
X155990475Y-75281927D02*
X156028571Y-75339070D01*
X156028571Y-75339070D02*
X156066666Y-75377165D01*
X156066666Y-75377165D02*
X156104761Y-75396213D01*
X155495238Y-75681927D02*
X155723809Y-75681927D01*
X155609523Y-75681927D02*
X155609523Y-75281927D01*
X155609523Y-75281927D02*
X155647619Y-75339070D01*
X155647619Y-75339070D02*
X155685714Y-75377165D01*
X155685714Y-75377165D02*
X155723809Y-75396213D01*
X146757142Y-109431927D02*
X146890475Y-109241451D01*
X146985713Y-109431927D02*
X146985713Y-109031927D01*
X146985713Y-109031927D02*
X146833332Y-109031927D01*
X146833332Y-109031927D02*
X146795237Y-109050975D01*
X146795237Y-109050975D02*
X146776190Y-109070022D01*
X146776190Y-109070022D02*
X146757142Y-109108118D01*
X146757142Y-109108118D02*
X146757142Y-109165260D01*
X146757142Y-109165260D02*
X146776190Y-109203356D01*
X146776190Y-109203356D02*
X146795237Y-109222403D01*
X146795237Y-109222403D02*
X146833332Y-109241451D01*
X146833332Y-109241451D02*
X146985713Y-109241451D01*
X146376190Y-109431927D02*
X146604761Y-109431927D01*
X146490475Y-109431927D02*
X146490475Y-109031927D01*
X146490475Y-109031927D02*
X146528571Y-109089070D01*
X146528571Y-109089070D02*
X146566666Y-109127165D01*
X146566666Y-109127165D02*
X146604761Y-109146213D01*
X146014285Y-109031927D02*
X146204761Y-109031927D01*
X146204761Y-109031927D02*
X146223809Y-109222403D01*
X146223809Y-109222403D02*
X146204761Y-109203356D01*
X146204761Y-109203356D02*
X146166666Y-109184308D01*
X146166666Y-109184308D02*
X146071428Y-109184308D01*
X146071428Y-109184308D02*
X146033333Y-109203356D01*
X146033333Y-109203356D02*
X146014285Y-109222403D01*
X146014285Y-109222403D02*
X145995238Y-109260499D01*
X145995238Y-109260499D02*
X145995238Y-109355737D01*
X145995238Y-109355737D02*
X146014285Y-109393832D01*
X146014285Y-109393832D02*
X146033333Y-109412880D01*
X146033333Y-109412880D02*
X146071428Y-109431927D01*
X146071428Y-109431927D02*
X146166666Y-109431927D01*
X146166666Y-109431927D02*
X146204761Y-109412880D01*
X146204761Y-109412880D02*
X146223809Y-109393832D01*
X160566666Y-99681927D02*
X160757142Y-99681927D01*
X160757142Y-99681927D02*
X160757142Y-99281927D01*
X160223809Y-99681927D02*
X160452380Y-99681927D01*
X160338094Y-99681927D02*
X160338094Y-99281927D01*
X160338094Y-99281927D02*
X160376190Y-99339070D01*
X160376190Y-99339070D02*
X160414285Y-99377165D01*
X160414285Y-99377165D02*
X160452380Y-99396213D01*
X157304761Y-113581927D02*
X157304761Y-113905737D01*
X157304761Y-113905737D02*
X157285714Y-113943832D01*
X157285714Y-113943832D02*
X157266666Y-113962880D01*
X157266666Y-113962880D02*
X157228571Y-113981927D01*
X157228571Y-113981927D02*
X157152380Y-113981927D01*
X157152380Y-113981927D02*
X157114285Y-113962880D01*
X157114285Y-113962880D02*
X157095238Y-113943832D01*
X157095238Y-113943832D02*
X157076190Y-113905737D01*
X157076190Y-113905737D02*
X157076190Y-113581927D01*
X156923809Y-113581927D02*
X156676190Y-113581927D01*
X156676190Y-113581927D02*
X156809523Y-113734308D01*
X156809523Y-113734308D02*
X156752380Y-113734308D01*
X156752380Y-113734308D02*
X156714285Y-113753356D01*
X156714285Y-113753356D02*
X156695237Y-113772403D01*
X156695237Y-113772403D02*
X156676190Y-113810499D01*
X156676190Y-113810499D02*
X156676190Y-113905737D01*
X156676190Y-113905737D02*
X156695237Y-113943832D01*
X156695237Y-113943832D02*
X156714285Y-113962880D01*
X156714285Y-113962880D02*
X156752380Y-113981927D01*
X156752380Y-113981927D02*
X156866666Y-113981927D01*
X156866666Y-113981927D02*
X156904761Y-113962880D01*
X156904761Y-113962880D02*
X156923809Y-113943832D01*
X156066666Y-88181927D02*
X156199999Y-87991451D01*
X156295237Y-88181927D02*
X156295237Y-87781927D01*
X156295237Y-87781927D02*
X156142856Y-87781927D01*
X156142856Y-87781927D02*
X156104761Y-87800975D01*
X156104761Y-87800975D02*
X156085714Y-87820022D01*
X156085714Y-87820022D02*
X156066666Y-87858118D01*
X156066666Y-87858118D02*
X156066666Y-87915260D01*
X156066666Y-87915260D02*
X156085714Y-87953356D01*
X156085714Y-87953356D02*
X156104761Y-87972403D01*
X156104761Y-87972403D02*
X156142856Y-87991451D01*
X156142856Y-87991451D02*
X156295237Y-87991451D01*
X155838095Y-87953356D02*
X155876190Y-87934308D01*
X155876190Y-87934308D02*
X155895237Y-87915260D01*
X155895237Y-87915260D02*
X155914285Y-87877165D01*
X155914285Y-87877165D02*
X155914285Y-87858118D01*
X155914285Y-87858118D02*
X155895237Y-87820022D01*
X155895237Y-87820022D02*
X155876190Y-87800975D01*
X155876190Y-87800975D02*
X155838095Y-87781927D01*
X155838095Y-87781927D02*
X155761904Y-87781927D01*
X155761904Y-87781927D02*
X155723809Y-87800975D01*
X155723809Y-87800975D02*
X155704761Y-87820022D01*
X155704761Y-87820022D02*
X155685714Y-87858118D01*
X155685714Y-87858118D02*
X155685714Y-87877165D01*
X155685714Y-87877165D02*
X155704761Y-87915260D01*
X155704761Y-87915260D02*
X155723809Y-87934308D01*
X155723809Y-87934308D02*
X155761904Y-87953356D01*
X155761904Y-87953356D02*
X155838095Y-87953356D01*
X155838095Y-87953356D02*
X155876190Y-87972403D01*
X155876190Y-87972403D02*
X155895237Y-87991451D01*
X155895237Y-87991451D02*
X155914285Y-88029546D01*
X155914285Y-88029546D02*
X155914285Y-88105737D01*
X155914285Y-88105737D02*
X155895237Y-88143832D01*
X155895237Y-88143832D02*
X155876190Y-88162880D01*
X155876190Y-88162880D02*
X155838095Y-88181927D01*
X155838095Y-88181927D02*
X155761904Y-88181927D01*
X155761904Y-88181927D02*
X155723809Y-88162880D01*
X155723809Y-88162880D02*
X155704761Y-88143832D01*
X155704761Y-88143832D02*
X155685714Y-88105737D01*
X155685714Y-88105737D02*
X155685714Y-88029546D01*
X155685714Y-88029546D02*
X155704761Y-87991451D01*
X155704761Y-87991451D02*
X155723809Y-87972403D01*
X155723809Y-87972403D02*
X155761904Y-87953356D01*
X148257142Y-78643832D02*
X148276190Y-78662880D01*
X148276190Y-78662880D02*
X148333332Y-78681927D01*
X148333332Y-78681927D02*
X148371428Y-78681927D01*
X148371428Y-78681927D02*
X148428571Y-78662880D01*
X148428571Y-78662880D02*
X148466666Y-78624784D01*
X148466666Y-78624784D02*
X148485713Y-78586689D01*
X148485713Y-78586689D02*
X148504761Y-78510499D01*
X148504761Y-78510499D02*
X148504761Y-78453356D01*
X148504761Y-78453356D02*
X148485713Y-78377165D01*
X148485713Y-78377165D02*
X148466666Y-78339070D01*
X148466666Y-78339070D02*
X148428571Y-78300975D01*
X148428571Y-78300975D02*
X148371428Y-78281927D01*
X148371428Y-78281927D02*
X148333332Y-78281927D01*
X148333332Y-78281927D02*
X148276190Y-78300975D01*
X148276190Y-78300975D02*
X148257142Y-78320022D01*
X147876190Y-78681927D02*
X148104761Y-78681927D01*
X147990475Y-78681927D02*
X147990475Y-78281927D01*
X147990475Y-78281927D02*
X148028571Y-78339070D01*
X148028571Y-78339070D02*
X148066666Y-78377165D01*
X148066666Y-78377165D02*
X148104761Y-78396213D01*
X147628571Y-78281927D02*
X147590476Y-78281927D01*
X147590476Y-78281927D02*
X147552380Y-78300975D01*
X147552380Y-78300975D02*
X147533333Y-78320022D01*
X147533333Y-78320022D02*
X147514285Y-78358118D01*
X147514285Y-78358118D02*
X147495238Y-78434308D01*
X147495238Y-78434308D02*
X147495238Y-78529546D01*
X147495238Y-78529546D02*
X147514285Y-78605737D01*
X147514285Y-78605737D02*
X147533333Y-78643832D01*
X147533333Y-78643832D02*
X147552380Y-78662880D01*
X147552380Y-78662880D02*
X147590476Y-78681927D01*
X147590476Y-78681927D02*
X147628571Y-78681927D01*
X147628571Y-78681927D02*
X147666666Y-78662880D01*
X147666666Y-78662880D02*
X147685714Y-78643832D01*
X147685714Y-78643832D02*
X147704761Y-78605737D01*
X147704761Y-78605737D02*
X147723809Y-78529546D01*
X147723809Y-78529546D02*
X147723809Y-78434308D01*
X147723809Y-78434308D02*
X147704761Y-78358118D01*
X147704761Y-78358118D02*
X147685714Y-78320022D01*
X147685714Y-78320022D02*
X147666666Y-78300975D01*
X147666666Y-78300975D02*
X147628571Y-78281927D01*
X152356167Y-83591666D02*
X152337120Y-83610714D01*
X152337120Y-83610714D02*
X152318072Y-83667856D01*
X152318072Y-83667856D02*
X152318072Y-83705952D01*
X152318072Y-83705952D02*
X152337120Y-83763095D01*
X152337120Y-83763095D02*
X152375215Y-83801190D01*
X152375215Y-83801190D02*
X152413310Y-83820237D01*
X152413310Y-83820237D02*
X152489500Y-83839285D01*
X152489500Y-83839285D02*
X152546643Y-83839285D01*
X152546643Y-83839285D02*
X152622834Y-83820237D01*
X152622834Y-83820237D02*
X152660929Y-83801190D01*
X152660929Y-83801190D02*
X152699024Y-83763095D01*
X152699024Y-83763095D02*
X152718072Y-83705952D01*
X152718072Y-83705952D02*
X152718072Y-83667856D01*
X152718072Y-83667856D02*
X152699024Y-83610714D01*
X152699024Y-83610714D02*
X152679977Y-83591666D01*
X152718072Y-83458333D02*
X152718072Y-83191666D01*
X152718072Y-83191666D02*
X152318072Y-83363095D01*
X146757142Y-112931927D02*
X146890475Y-112741451D01*
X146985713Y-112931927D02*
X146985713Y-112531927D01*
X146985713Y-112531927D02*
X146833332Y-112531927D01*
X146833332Y-112531927D02*
X146795237Y-112550975D01*
X146795237Y-112550975D02*
X146776190Y-112570022D01*
X146776190Y-112570022D02*
X146757142Y-112608118D01*
X146757142Y-112608118D02*
X146757142Y-112665260D01*
X146757142Y-112665260D02*
X146776190Y-112703356D01*
X146776190Y-112703356D02*
X146795237Y-112722403D01*
X146795237Y-112722403D02*
X146833332Y-112741451D01*
X146833332Y-112741451D02*
X146985713Y-112741451D01*
X146376190Y-112931927D02*
X146604761Y-112931927D01*
X146490475Y-112931927D02*
X146490475Y-112531927D01*
X146490475Y-112531927D02*
X146528571Y-112589070D01*
X146528571Y-112589070D02*
X146566666Y-112627165D01*
X146566666Y-112627165D02*
X146604761Y-112646213D01*
X146033333Y-112531927D02*
X146109523Y-112531927D01*
X146109523Y-112531927D02*
X146147619Y-112550975D01*
X146147619Y-112550975D02*
X146166666Y-112570022D01*
X146166666Y-112570022D02*
X146204761Y-112627165D01*
X146204761Y-112627165D02*
X146223809Y-112703356D01*
X146223809Y-112703356D02*
X146223809Y-112855737D01*
X146223809Y-112855737D02*
X146204761Y-112893832D01*
X146204761Y-112893832D02*
X146185714Y-112912880D01*
X146185714Y-112912880D02*
X146147619Y-112931927D01*
X146147619Y-112931927D02*
X146071428Y-112931927D01*
X146071428Y-112931927D02*
X146033333Y-112912880D01*
X146033333Y-112912880D02*
X146014285Y-112893832D01*
X146014285Y-112893832D02*
X145995238Y-112855737D01*
X145995238Y-112855737D02*
X145995238Y-112760499D01*
X145995238Y-112760499D02*
X146014285Y-112722403D01*
X146014285Y-112722403D02*
X146033333Y-112703356D01*
X146033333Y-112703356D02*
X146071428Y-112684308D01*
X146071428Y-112684308D02*
X146147619Y-112684308D01*
X146147619Y-112684308D02*
X146185714Y-112703356D01*
X146185714Y-112703356D02*
X146204761Y-112722403D01*
X146204761Y-112722403D02*
X146223809Y-112760499D01*
X148116666Y-89119427D02*
X148249999Y-88928951D01*
X148345237Y-89119427D02*
X148345237Y-88719427D01*
X148345237Y-88719427D02*
X148192856Y-88719427D01*
X148192856Y-88719427D02*
X148154761Y-88738475D01*
X148154761Y-88738475D02*
X148135714Y-88757522D01*
X148135714Y-88757522D02*
X148116666Y-88795618D01*
X148116666Y-88795618D02*
X148116666Y-88852760D01*
X148116666Y-88852760D02*
X148135714Y-88890856D01*
X148135714Y-88890856D02*
X148154761Y-88909903D01*
X148154761Y-88909903D02*
X148192856Y-88928951D01*
X148192856Y-88928951D02*
X148345237Y-88928951D01*
X147926190Y-89119427D02*
X147849999Y-89119427D01*
X147849999Y-89119427D02*
X147811904Y-89100380D01*
X147811904Y-89100380D02*
X147792856Y-89081332D01*
X147792856Y-89081332D02*
X147754761Y-89024189D01*
X147754761Y-89024189D02*
X147735714Y-88947999D01*
X147735714Y-88947999D02*
X147735714Y-88795618D01*
X147735714Y-88795618D02*
X147754761Y-88757522D01*
X147754761Y-88757522D02*
X147773809Y-88738475D01*
X147773809Y-88738475D02*
X147811904Y-88719427D01*
X147811904Y-88719427D02*
X147888095Y-88719427D01*
X147888095Y-88719427D02*
X147926190Y-88738475D01*
X147926190Y-88738475D02*
X147945237Y-88757522D01*
X147945237Y-88757522D02*
X147964285Y-88795618D01*
X147964285Y-88795618D02*
X147964285Y-88890856D01*
X147964285Y-88890856D02*
X147945237Y-88928951D01*
X147945237Y-88928951D02*
X147926190Y-88947999D01*
X147926190Y-88947999D02*
X147888095Y-88967046D01*
X147888095Y-88967046D02*
X147811904Y-88967046D01*
X147811904Y-88967046D02*
X147773809Y-88947999D01*
X147773809Y-88947999D02*
X147754761Y-88928951D01*
X147754761Y-88928951D02*
X147735714Y-88890856D01*
X146757142Y-111181927D02*
X146890475Y-110991451D01*
X146985713Y-111181927D02*
X146985713Y-110781927D01*
X146985713Y-110781927D02*
X146833332Y-110781927D01*
X146833332Y-110781927D02*
X146795237Y-110800975D01*
X146795237Y-110800975D02*
X146776190Y-110820022D01*
X146776190Y-110820022D02*
X146757142Y-110858118D01*
X146757142Y-110858118D02*
X146757142Y-110915260D01*
X146757142Y-110915260D02*
X146776190Y-110953356D01*
X146776190Y-110953356D02*
X146795237Y-110972403D01*
X146795237Y-110972403D02*
X146833332Y-110991451D01*
X146833332Y-110991451D02*
X146985713Y-110991451D01*
X146376190Y-111181927D02*
X146604761Y-111181927D01*
X146490475Y-111181927D02*
X146490475Y-110781927D01*
X146490475Y-110781927D02*
X146528571Y-110839070D01*
X146528571Y-110839070D02*
X146566666Y-110877165D01*
X146566666Y-110877165D02*
X146604761Y-110896213D01*
X146242857Y-110781927D02*
X145976190Y-110781927D01*
X145976190Y-110781927D02*
X146147619Y-111181927D01*
X156066666Y-77681927D02*
X156199999Y-77491451D01*
X156295237Y-77681927D02*
X156295237Y-77281927D01*
X156295237Y-77281927D02*
X156142856Y-77281927D01*
X156142856Y-77281927D02*
X156104761Y-77300975D01*
X156104761Y-77300975D02*
X156085714Y-77320022D01*
X156085714Y-77320022D02*
X156066666Y-77358118D01*
X156066666Y-77358118D02*
X156066666Y-77415260D01*
X156066666Y-77415260D02*
X156085714Y-77453356D01*
X156085714Y-77453356D02*
X156104761Y-77472403D01*
X156104761Y-77472403D02*
X156142856Y-77491451D01*
X156142856Y-77491451D02*
X156295237Y-77491451D01*
X155933333Y-77281927D02*
X155666666Y-77281927D01*
X155666666Y-77281927D02*
X155838095Y-77681927D01*
X148818072Y-97757142D02*
X149008548Y-97890475D01*
X148818072Y-97985713D02*
X149218072Y-97985713D01*
X149218072Y-97985713D02*
X149218072Y-97833332D01*
X149218072Y-97833332D02*
X149199024Y-97795237D01*
X149199024Y-97795237D02*
X149179977Y-97776190D01*
X149179977Y-97776190D02*
X149141881Y-97757142D01*
X149141881Y-97757142D02*
X149084739Y-97757142D01*
X149084739Y-97757142D02*
X149046643Y-97776190D01*
X149046643Y-97776190D02*
X149027596Y-97795237D01*
X149027596Y-97795237D02*
X149008548Y-97833332D01*
X149008548Y-97833332D02*
X149008548Y-97985713D01*
X148818072Y-97376190D02*
X148818072Y-97604761D01*
X148818072Y-97490475D02*
X149218072Y-97490475D01*
X149218072Y-97490475D02*
X149160929Y-97528571D01*
X149160929Y-97528571D02*
X149122834Y-97566666D01*
X149122834Y-97566666D02*
X149103786Y-97604761D01*
X149179977Y-97223809D02*
X149199024Y-97204761D01*
X149199024Y-97204761D02*
X149218072Y-97166666D01*
X149218072Y-97166666D02*
X149218072Y-97071428D01*
X149218072Y-97071428D02*
X149199024Y-97033333D01*
X149199024Y-97033333D02*
X149179977Y-97014285D01*
X149179977Y-97014285D02*
X149141881Y-96995238D01*
X149141881Y-96995238D02*
X149103786Y-96995238D01*
X149103786Y-96995238D02*
X149046643Y-97014285D01*
X149046643Y-97014285D02*
X148818072Y-97242857D01*
X148818072Y-97242857D02*
X148818072Y-96995238D01*
X148066666Y-77181927D02*
X148199999Y-76991451D01*
X148295237Y-77181927D02*
X148295237Y-76781927D01*
X148295237Y-76781927D02*
X148142856Y-76781927D01*
X148142856Y-76781927D02*
X148104761Y-76800975D01*
X148104761Y-76800975D02*
X148085714Y-76820022D01*
X148085714Y-76820022D02*
X148066666Y-76858118D01*
X148066666Y-76858118D02*
X148066666Y-76915260D01*
X148066666Y-76915260D02*
X148085714Y-76953356D01*
X148085714Y-76953356D02*
X148104761Y-76972403D01*
X148104761Y-76972403D02*
X148142856Y-76991451D01*
X148142856Y-76991451D02*
X148295237Y-76991451D01*
X147723809Y-76781927D02*
X147799999Y-76781927D01*
X147799999Y-76781927D02*
X147838095Y-76800975D01*
X147838095Y-76800975D02*
X147857142Y-76820022D01*
X147857142Y-76820022D02*
X147895237Y-76877165D01*
X147895237Y-76877165D02*
X147914285Y-76953356D01*
X147914285Y-76953356D02*
X147914285Y-77105737D01*
X147914285Y-77105737D02*
X147895237Y-77143832D01*
X147895237Y-77143832D02*
X147876190Y-77162880D01*
X147876190Y-77162880D02*
X147838095Y-77181927D01*
X147838095Y-77181927D02*
X147761904Y-77181927D01*
X147761904Y-77181927D02*
X147723809Y-77162880D01*
X147723809Y-77162880D02*
X147704761Y-77143832D01*
X147704761Y-77143832D02*
X147685714Y-77105737D01*
X147685714Y-77105737D02*
X147685714Y-77010499D01*
X147685714Y-77010499D02*
X147704761Y-76972403D01*
X147704761Y-76972403D02*
X147723809Y-76953356D01*
X147723809Y-76953356D02*
X147761904Y-76934308D01*
X147761904Y-76934308D02*
X147838095Y-76934308D01*
X147838095Y-76934308D02*
X147876190Y-76953356D01*
X147876190Y-76953356D02*
X147895237Y-76972403D01*
X147895237Y-76972403D02*
X147914285Y-77010499D01*
X160818072Y-111866666D02*
X161008548Y-111999999D01*
X160818072Y-112095237D02*
X161218072Y-112095237D01*
X161218072Y-112095237D02*
X161218072Y-111942856D01*
X161218072Y-111942856D02*
X161199024Y-111904761D01*
X161199024Y-111904761D02*
X161179977Y-111885714D01*
X161179977Y-111885714D02*
X161141881Y-111866666D01*
X161141881Y-111866666D02*
X161084739Y-111866666D01*
X161084739Y-111866666D02*
X161046643Y-111885714D01*
X161046643Y-111885714D02*
X161027596Y-111904761D01*
X161027596Y-111904761D02*
X161008548Y-111942856D01*
X161008548Y-111942856D02*
X161008548Y-112095237D01*
X160818072Y-111485714D02*
X160818072Y-111714285D01*
X160818072Y-111599999D02*
X161218072Y-111599999D01*
X161218072Y-111599999D02*
X161160929Y-111638095D01*
X161160929Y-111638095D02*
X161122834Y-111676190D01*
X161122834Y-111676190D02*
X161103786Y-111714285D01*
X156304761Y-69281927D02*
X156304761Y-69605737D01*
X156304761Y-69605737D02*
X156285714Y-69643832D01*
X156285714Y-69643832D02*
X156266666Y-69662880D01*
X156266666Y-69662880D02*
X156228571Y-69681927D01*
X156228571Y-69681927D02*
X156152380Y-69681927D01*
X156152380Y-69681927D02*
X156114285Y-69662880D01*
X156114285Y-69662880D02*
X156095238Y-69643832D01*
X156095238Y-69643832D02*
X156076190Y-69605737D01*
X156076190Y-69605737D02*
X156076190Y-69281927D01*
X155714285Y-69415260D02*
X155714285Y-69681927D01*
X155809523Y-69262880D02*
X155904761Y-69548594D01*
X155904761Y-69548594D02*
X155657142Y-69548594D01*
X156856167Y-98841666D02*
X156837120Y-98860714D01*
X156837120Y-98860714D02*
X156818072Y-98917856D01*
X156818072Y-98917856D02*
X156818072Y-98955952D01*
X156818072Y-98955952D02*
X156837120Y-99013095D01*
X156837120Y-99013095D02*
X156875215Y-99051190D01*
X156875215Y-99051190D02*
X156913310Y-99070237D01*
X156913310Y-99070237D02*
X156989500Y-99089285D01*
X156989500Y-99089285D02*
X157046643Y-99089285D01*
X157046643Y-99089285D02*
X157122834Y-99070237D01*
X157122834Y-99070237D02*
X157160929Y-99051190D01*
X157160929Y-99051190D02*
X157199024Y-99013095D01*
X157199024Y-99013095D02*
X157218072Y-98955952D01*
X157218072Y-98955952D02*
X157218072Y-98917856D01*
X157218072Y-98917856D02*
X157199024Y-98860714D01*
X157199024Y-98860714D02*
X157179977Y-98841666D01*
X157179977Y-98689285D02*
X157199024Y-98670237D01*
X157199024Y-98670237D02*
X157218072Y-98632142D01*
X157218072Y-98632142D02*
X157218072Y-98536904D01*
X157218072Y-98536904D02*
X157199024Y-98498809D01*
X157199024Y-98498809D02*
X157179977Y-98479761D01*
X157179977Y-98479761D02*
X157141881Y-98460714D01*
X157141881Y-98460714D02*
X157103786Y-98460714D01*
X157103786Y-98460714D02*
X157046643Y-98479761D01*
X157046643Y-98479761D02*
X156818072Y-98708333D01*
X156818072Y-98708333D02*
X156818072Y-98460714D01*
X159356167Y-69566666D02*
X159337120Y-69585714D01*
X159337120Y-69585714D02*
X159318072Y-69642856D01*
X159318072Y-69642856D02*
X159318072Y-69680952D01*
X159318072Y-69680952D02*
X159337120Y-69738095D01*
X159337120Y-69738095D02*
X159375215Y-69776190D01*
X159375215Y-69776190D02*
X159413310Y-69795237D01*
X159413310Y-69795237D02*
X159489500Y-69814285D01*
X159489500Y-69814285D02*
X159546643Y-69814285D01*
X159546643Y-69814285D02*
X159622834Y-69795237D01*
X159622834Y-69795237D02*
X159660929Y-69776190D01*
X159660929Y-69776190D02*
X159699024Y-69738095D01*
X159699024Y-69738095D02*
X159718072Y-69680952D01*
X159718072Y-69680952D02*
X159718072Y-69642856D01*
X159718072Y-69642856D02*
X159699024Y-69585714D01*
X159699024Y-69585714D02*
X159679977Y-69566666D01*
X159546643Y-69338095D02*
X159565691Y-69376190D01*
X159565691Y-69376190D02*
X159584739Y-69395237D01*
X159584739Y-69395237D02*
X159622834Y-69414285D01*
X159622834Y-69414285D02*
X159641881Y-69414285D01*
X159641881Y-69414285D02*
X159679977Y-69395237D01*
X159679977Y-69395237D02*
X159699024Y-69376190D01*
X159699024Y-69376190D02*
X159718072Y-69338095D01*
X159718072Y-69338095D02*
X159718072Y-69261904D01*
X159718072Y-69261904D02*
X159699024Y-69223809D01*
X159699024Y-69223809D02*
X159679977Y-69204761D01*
X159679977Y-69204761D02*
X159641881Y-69185714D01*
X159641881Y-69185714D02*
X159622834Y-69185714D01*
X159622834Y-69185714D02*
X159584739Y-69204761D01*
X159584739Y-69204761D02*
X159565691Y-69223809D01*
X159565691Y-69223809D02*
X159546643Y-69261904D01*
X159546643Y-69261904D02*
X159546643Y-69338095D01*
X159546643Y-69338095D02*
X159527596Y-69376190D01*
X159527596Y-69376190D02*
X159508548Y-69395237D01*
X159508548Y-69395237D02*
X159470453Y-69414285D01*
X159470453Y-69414285D02*
X159394262Y-69414285D01*
X159394262Y-69414285D02*
X159356167Y-69395237D01*
X159356167Y-69395237D02*
X159337120Y-69376190D01*
X159337120Y-69376190D02*
X159318072Y-69338095D01*
X159318072Y-69338095D02*
X159318072Y-69261904D01*
X159318072Y-69261904D02*
X159337120Y-69223809D01*
X159337120Y-69223809D02*
X159356167Y-69204761D01*
X159356167Y-69204761D02*
X159394262Y-69185714D01*
X159394262Y-69185714D02*
X159470453Y-69185714D01*
X159470453Y-69185714D02*
X159508548Y-69204761D01*
X159508548Y-69204761D02*
X159527596Y-69223809D01*
X159527596Y-69223809D02*
X159546643Y-69261904D01*
X151399761Y-113581927D02*
X151399761Y-113905737D01*
X151399761Y-113905737D02*
X151380714Y-113943832D01*
X151380714Y-113943832D02*
X151361666Y-113962880D01*
X151361666Y-113962880D02*
X151323571Y-113981927D01*
X151323571Y-113981927D02*
X151247380Y-113981927D01*
X151247380Y-113981927D02*
X151209285Y-113962880D01*
X151209285Y-113962880D02*
X151190238Y-113943832D01*
X151190238Y-113943832D02*
X151171190Y-113905737D01*
X151171190Y-113905737D02*
X151171190Y-113581927D01*
X150771190Y-113981927D02*
X150999761Y-113981927D01*
X150885475Y-113981927D02*
X150885475Y-113581927D01*
X150885475Y-113581927D02*
X150923571Y-113639070D01*
X150923571Y-113639070D02*
X150961666Y-113677165D01*
X150961666Y-113677165D02*
X150999761Y-113696213D01*
X153566666Y-104643832D02*
X153585714Y-104662880D01*
X153585714Y-104662880D02*
X153642856Y-104681927D01*
X153642856Y-104681927D02*
X153680952Y-104681927D01*
X153680952Y-104681927D02*
X153738095Y-104662880D01*
X153738095Y-104662880D02*
X153776190Y-104624784D01*
X153776190Y-104624784D02*
X153795237Y-104586689D01*
X153795237Y-104586689D02*
X153814285Y-104510499D01*
X153814285Y-104510499D02*
X153814285Y-104453356D01*
X153814285Y-104453356D02*
X153795237Y-104377165D01*
X153795237Y-104377165D02*
X153776190Y-104339070D01*
X153776190Y-104339070D02*
X153738095Y-104300975D01*
X153738095Y-104300975D02*
X153680952Y-104281927D01*
X153680952Y-104281927D02*
X153642856Y-104281927D01*
X153642856Y-104281927D02*
X153585714Y-104300975D01*
X153585714Y-104300975D02*
X153566666Y-104320022D01*
X153433333Y-104281927D02*
X153185714Y-104281927D01*
X153185714Y-104281927D02*
X153319047Y-104434308D01*
X153319047Y-104434308D02*
X153261904Y-104434308D01*
X153261904Y-104434308D02*
X153223809Y-104453356D01*
X153223809Y-104453356D02*
X153204761Y-104472403D01*
X153204761Y-104472403D02*
X153185714Y-104510499D01*
X153185714Y-104510499D02*
X153185714Y-104605737D01*
X153185714Y-104605737D02*
X153204761Y-104643832D01*
X153204761Y-104643832D02*
X153223809Y-104662880D01*
X153223809Y-104662880D02*
X153261904Y-104681927D01*
X153261904Y-104681927D02*
X153376190Y-104681927D01*
X153376190Y-104681927D02*
X153414285Y-104662880D01*
X153414285Y-104662880D02*
X153433333Y-104643832D01*
X148323809Y-71781927D02*
X148057142Y-72181927D01*
X148057142Y-71781927D02*
X148323809Y-72181927D01*
X147695238Y-72181927D02*
X147923809Y-72181927D01*
X147809523Y-72181927D02*
X147809523Y-71781927D01*
X147809523Y-71781927D02*
X147847619Y-71839070D01*
X147847619Y-71839070D02*
X147885714Y-71877165D01*
X147885714Y-71877165D02*
X147923809Y-71896213D01*
X146757142Y-114681927D02*
X146890475Y-114491451D01*
X146985713Y-114681927D02*
X146985713Y-114281927D01*
X146985713Y-114281927D02*
X146833332Y-114281927D01*
X146833332Y-114281927D02*
X146795237Y-114300975D01*
X146795237Y-114300975D02*
X146776190Y-114320022D01*
X146776190Y-114320022D02*
X146757142Y-114358118D01*
X146757142Y-114358118D02*
X146757142Y-114415260D01*
X146757142Y-114415260D02*
X146776190Y-114453356D01*
X146776190Y-114453356D02*
X146795237Y-114472403D01*
X146795237Y-114472403D02*
X146833332Y-114491451D01*
X146833332Y-114491451D02*
X146985713Y-114491451D01*
X146376190Y-114681927D02*
X146604761Y-114681927D01*
X146490475Y-114681927D02*
X146490475Y-114281927D01*
X146490475Y-114281927D02*
X146528571Y-114339070D01*
X146528571Y-114339070D02*
X146566666Y-114377165D01*
X146566666Y-114377165D02*
X146604761Y-114396213D01*
X145995238Y-114681927D02*
X146223809Y-114681927D01*
X146109523Y-114681927D02*
X146109523Y-114281927D01*
X146109523Y-114281927D02*
X146147619Y-114339070D01*
X146147619Y-114339070D02*
X146185714Y-114377165D01*
X146185714Y-114377165D02*
X146223809Y-114396213D01*
X160818072Y-115866666D02*
X161008548Y-115999999D01*
X160818072Y-116095237D02*
X161218072Y-116095237D01*
X161218072Y-116095237D02*
X161218072Y-115942856D01*
X161218072Y-115942856D02*
X161199024Y-115904761D01*
X161199024Y-115904761D02*
X161179977Y-115885714D01*
X161179977Y-115885714D02*
X161141881Y-115866666D01*
X161141881Y-115866666D02*
X161084739Y-115866666D01*
X161084739Y-115866666D02*
X161046643Y-115885714D01*
X161046643Y-115885714D02*
X161027596Y-115904761D01*
X161027596Y-115904761D02*
X161008548Y-115942856D01*
X161008548Y-115942856D02*
X161008548Y-116095237D01*
X161218072Y-115733333D02*
X161218072Y-115485714D01*
X161218072Y-115485714D02*
X161065691Y-115619047D01*
X161065691Y-115619047D02*
X161065691Y-115561904D01*
X161065691Y-115561904D02*
X161046643Y-115523809D01*
X161046643Y-115523809D02*
X161027596Y-115504761D01*
X161027596Y-115504761D02*
X160989500Y-115485714D01*
X160989500Y-115485714D02*
X160894262Y-115485714D01*
X160894262Y-115485714D02*
X160856167Y-115504761D01*
X160856167Y-115504761D02*
X160837120Y-115523809D01*
X160837120Y-115523809D02*
X160818072Y-115561904D01*
X160818072Y-115561904D02*
X160818072Y-115676190D01*
X160818072Y-115676190D02*
X160837120Y-115714285D01*
X160837120Y-115714285D02*
X160856167Y-115733333D01*
D11*
%TO.C,C13*%
X148800000Y-74900000D02*
X148800000Y-74100000D01*
X148800000Y-74100000D02*
X147200000Y-74100000D01*
X147200000Y-74900000D02*
X148800000Y-74900000D01*
X147200000Y-74100000D02*
X147200000Y-74900000D01*
%TO.C,D1*%
X156100000Y-104400000D02*
X157900000Y-104400000D01*
X157900000Y-104400000D02*
X157900000Y-101600000D01*
X157000000Y-103750000D02*
X157000000Y-103350000D01*
X157000000Y-103350000D02*
X156450000Y-103350000D01*
X157000000Y-103350000D02*
X157550000Y-103350000D01*
X157000000Y-103350000D02*
X157400000Y-102750000D01*
X156600000Y-102750000D02*
X157000000Y-103350000D01*
X157000000Y-102750000D02*
X157000000Y-102250000D01*
X157400000Y-102750000D02*
X156600000Y-102750000D01*
X156100000Y-101600000D02*
X156100000Y-104400000D01*
X157900000Y-101600000D02*
X156100000Y-101600000D01*
%TO.C,R10*%
X147250000Y-90025000D02*
X147250000Y-90850000D01*
X147250000Y-90850000D02*
X148850000Y-90850000D01*
X148850000Y-90025000D02*
X147250000Y-90025000D01*
X148850000Y-90850000D02*
X148850000Y-90025000D01*
%TO.C,Q1*%
X149500000Y-92787500D02*
X146925000Y-92787500D01*
X146925000Y-92787500D02*
X146600000Y-93112500D01*
X146600000Y-93112500D02*
X146600000Y-94087500D01*
X149500000Y-94087500D02*
X149500000Y-92787500D01*
X146600000Y-94087500D02*
X149500000Y-94087500D01*
%TO.C,C9*%
X153125000Y-68500000D02*
X151875000Y-68500000D01*
X151875000Y-68500000D02*
X151875000Y-70500000D01*
X153125000Y-70500000D02*
X153125000Y-68500000D01*
X151875000Y-70500000D02*
X153125000Y-70500000D01*
%TO.C,R5*%
X151012500Y-92700000D02*
X150187500Y-92700000D01*
X150187500Y-92700000D02*
X150187500Y-94300000D01*
X151012500Y-94300000D02*
X151012500Y-92700000D01*
X150187500Y-94300000D02*
X151012500Y-94300000D01*
%TO.C,C12*%
X155200000Y-89600000D02*
X155200000Y-90400000D01*
X155200000Y-90400000D02*
X156800000Y-90400000D01*
X156800000Y-89600000D02*
X155200000Y-89600000D01*
X156800000Y-90400000D02*
X156800000Y-89600000D01*
%TO.C,R13*%
X159700000Y-95087500D02*
X159700000Y-95912500D01*
X159700000Y-95912500D02*
X161300000Y-95912500D01*
X161300000Y-95087500D02*
X159700000Y-95087500D01*
X161300000Y-95912500D02*
X161300000Y-95087500D01*
%TO.C,C14*%
X148800000Y-69900000D02*
X148800000Y-69100000D01*
X148800000Y-69100000D02*
X147200000Y-69100000D01*
X147200000Y-69900000D02*
X148800000Y-69900000D01*
X147200000Y-69100000D02*
X147200000Y-69900000D01*
%TO.C,C6*%
X150900000Y-96700000D02*
X150100000Y-96700000D01*
X150100000Y-96700000D02*
X150100000Y-98300000D01*
X150900000Y-98300000D02*
X150900000Y-96700000D01*
X150100000Y-98300000D02*
X150900000Y-98300000D01*
%TO.C,R14*%
X161912500Y-68700000D02*
X161087500Y-68700000D01*
X161087500Y-68700000D02*
X161087500Y-70300000D01*
X161912500Y-70300000D02*
X161912500Y-68700000D01*
X161087500Y-70300000D02*
X161912500Y-70300000D01*
%TO.C,R2*%
X150087500Y-105300000D02*
X150912500Y-105300000D01*
X150912500Y-105300000D02*
X150912500Y-103700000D01*
X150087500Y-103700000D02*
X150087500Y-105300000D01*
X150912500Y-103700000D02*
X150087500Y-103700000D01*
%TO.C,R4*%
X150087500Y-101800000D02*
X150912500Y-101800000D01*
X150912500Y-101800000D02*
X150912500Y-100200000D01*
X150087500Y-100200000D02*
X150087500Y-101800000D01*
X150912500Y-100200000D02*
X150087500Y-100200000D01*
%TO.C,U2*%
X154500000Y-100880000D02*
X152050000Y-100880000D01*
X154500000Y-100880000D02*
X154950000Y-100430000D01*
X152050000Y-99120000D02*
X152050000Y-100880000D01*
X154950000Y-99120000D02*
X154950000Y-100430000D01*
X154950000Y-99120000D02*
X152050000Y-99120000D01*
%TO.C,C1*%
X148600000Y-105300000D02*
X149400000Y-105300000D01*
X149400000Y-105300000D02*
X149400000Y-103700000D01*
X148600000Y-103700000D02*
X148600000Y-105300000D01*
X149400000Y-103700000D02*
X148600000Y-103700000D01*
%TO.C,U5*%
X146550000Y-85450000D02*
X150475000Y-85450000D01*
X150475000Y-85450000D02*
X151450000Y-84475000D01*
X151450000Y-84475000D02*
X151450000Y-81550000D01*
X146550000Y-81550000D02*
X146550000Y-85450000D01*
X151450000Y-81550000D02*
X146550000Y-81550000D01*
%TO.C,C11*%
X155200000Y-75100000D02*
X155200000Y-75900000D01*
X155200000Y-75900000D02*
X156800000Y-75900000D01*
X156800000Y-75100000D02*
X155200000Y-75100000D01*
X156800000Y-75900000D02*
X156800000Y-75100000D01*
%TO.C,R15*%
X147300000Y-109662500D02*
X147300000Y-108837500D01*
X147300000Y-108837500D02*
X145700000Y-108837500D01*
X145700000Y-109662500D02*
X147300000Y-109662500D01*
X145700000Y-108837500D02*
X145700000Y-109662500D01*
%TO.C,L1*%
X162100000Y-97250000D02*
X158900000Y-97250000D01*
X158900000Y-97250000D02*
X158900000Y-101750000D01*
X162100000Y-101750000D02*
X162100000Y-97250000D01*
X158900000Y-101750000D02*
X162100000Y-101750000D01*
%TO.C,U3*%
X154550000Y-115750000D02*
X158475000Y-115750000D01*
X158475000Y-115750000D02*
X159450000Y-114775000D01*
X159450000Y-114775000D02*
X159450000Y-111850000D01*
X154550000Y-111850000D02*
X154550000Y-115750000D01*
X159450000Y-111850000D02*
X154550000Y-111850000D01*
%TO.C,R8*%
X156800000Y-88412500D02*
X156800000Y-87587500D01*
X156800000Y-87587500D02*
X155200000Y-87587500D01*
X155200000Y-88412500D02*
X156800000Y-88412500D01*
X155200000Y-87587500D02*
X155200000Y-88412500D01*
%TO.C,C10*%
X147200000Y-78100000D02*
X147200000Y-78900000D01*
X147200000Y-78900000D02*
X148800000Y-78900000D01*
X148800000Y-78100000D02*
X147200000Y-78100000D01*
X148800000Y-78900000D02*
X148800000Y-78100000D01*
%TO.C,C7*%
X152100000Y-84325000D02*
X152900000Y-84325000D01*
X152900000Y-84325000D02*
X152900000Y-82725000D01*
X152100000Y-82725000D02*
X152100000Y-84325000D01*
X152900000Y-82725000D02*
X152100000Y-82725000D01*
%TO.C,R16*%
X147300000Y-113162500D02*
X147300000Y-112337500D01*
X147300000Y-112337500D02*
X145700000Y-112337500D01*
X145700000Y-113162500D02*
X147300000Y-113162500D01*
X145700000Y-112337500D02*
X145700000Y-113162500D01*
%TO.C,R9*%
X148850000Y-89350000D02*
X148850000Y-88525000D01*
X148850000Y-88525000D02*
X147250000Y-88525000D01*
X147250000Y-89350000D02*
X148850000Y-89350000D01*
X147250000Y-88525000D02*
X147250000Y-89350000D01*
%TO.C,R17*%
X145700000Y-110587500D02*
X145700000Y-111412500D01*
X145700000Y-111412500D02*
X147300000Y-111412500D01*
X147300000Y-110587500D02*
X145700000Y-110587500D01*
X147300000Y-111412500D02*
X147300000Y-110587500D01*
%TO.C,R7*%
X156800000Y-77912500D02*
X156800000Y-77087500D01*
X156800000Y-77087500D02*
X155200000Y-77087500D01*
X155200000Y-77912500D02*
X156800000Y-77912500D01*
X155200000Y-77087500D02*
X155200000Y-77912500D01*
%TO.C,R12*%
X148587500Y-98300000D02*
X149412500Y-98300000D01*
X149412500Y-98300000D02*
X149412500Y-96700000D01*
X148587500Y-96700000D02*
X148587500Y-98300000D01*
X149412500Y-96700000D02*
X148587500Y-96700000D01*
%TO.C,R6*%
X148800000Y-77412500D02*
X148800000Y-76587500D01*
X148800000Y-76587500D02*
X147200000Y-76587500D01*
X147200000Y-77412500D02*
X148800000Y-77412500D01*
X147200000Y-76587500D02*
X147200000Y-77412500D01*
%TO.C,R1*%
X161412500Y-111000000D02*
X160587500Y-111000000D01*
X160587500Y-111000000D02*
X160587500Y-112600000D01*
X161412500Y-112600000D02*
X161412500Y-111000000D01*
X160587500Y-112600000D02*
X161412500Y-112600000D01*
%TO.C,U4*%
X156800000Y-70950000D02*
X156800000Y-68450000D01*
X156800000Y-68450000D02*
X156400000Y-68050000D01*
X156400000Y-68050000D02*
X155200000Y-68050000D01*
X155200000Y-70950000D02*
X156800000Y-70950000D01*
X155200000Y-68050000D02*
X155200000Y-70950000D01*
%TO.C,C2*%
X157625000Y-97775000D02*
X156375000Y-97775000D01*
X156375000Y-97775000D02*
X156375000Y-99775000D01*
X157625000Y-99775000D02*
X157625000Y-97775000D01*
X156375000Y-99775000D02*
X157625000Y-99775000D01*
%TO.C,C8*%
X160125000Y-68500000D02*
X158875000Y-68500000D01*
X158875000Y-68500000D02*
X158875000Y-70500000D01*
X160125000Y-70500000D02*
X160125000Y-68500000D01*
X158875000Y-70500000D02*
X160125000Y-70500000D01*
%TO.C,U1*%
X148645000Y-115750000D02*
X152570000Y-115750000D01*
X152570000Y-115750000D02*
X153545000Y-114775000D01*
X153545000Y-114775000D02*
X153545000Y-111850000D01*
X148645000Y-111850000D02*
X148645000Y-115750000D01*
X153545000Y-111850000D02*
X148645000Y-111850000D01*
%TO.C,C3*%
X154500000Y-105125000D02*
X154500000Y-103875000D01*
X154500000Y-103875000D02*
X152500000Y-103875000D01*
X152500000Y-105125000D02*
X154500000Y-105125000D01*
X152500000Y-103875000D02*
X152500000Y-105125000D01*
%TO.C,X1*%
X149600000Y-71250000D02*
X149600000Y-72750000D01*
X149600000Y-71250000D02*
X146400000Y-71250000D01*
X146400000Y-72750000D02*
X149600000Y-72750000D01*
X146400000Y-71250000D02*
X146400000Y-72750000D01*
X149228661Y-72340000D02*
G75*
G03*
X148931339Y-72340000I-148661J0D01*
G01*
X148931339Y-72340000D02*
G75*
G03*
X149228661Y-72340000I148661J0D01*
G01*
%TO.C,R11*%
X147300000Y-114912500D02*
X147300000Y-114087500D01*
X147300000Y-114087500D02*
X145700000Y-114087500D01*
X145700000Y-114912500D02*
X147300000Y-114912500D01*
X145700000Y-114087500D02*
X145700000Y-114912500D01*
%TO.C,R3*%
X161412500Y-115000000D02*
X160587500Y-115000000D01*
X160587500Y-115000000D02*
X160587500Y-116600000D01*
X161412500Y-116600000D02*
X161412500Y-115000000D01*
X160587500Y-116600000D02*
X161412500Y-116600000D01*
%TD*%
D12*
X144000000Y-58000000D02*
X164000000Y-58000000D01*
X164000000Y-125000000D01*
X144000000Y-125000000D01*
X144000000Y-58000000D01*
M02*
