%TF.GenerationSoftware,KiCad,Pcbnew,7.0.10*%
%TF.CreationDate,2024-02-17T17:59:33+01:00*%
%TF.ProjectId,Master_Clock,4d617374-6572-45f4-936c-6f636b2e6b69,1.1*%
%TF.SameCoordinates,Original*%
%TF.FileFunction,OtherDrawing,Comment*%
%FSLAX46Y46*%
G04 Gerber Fmt 4.6, Leading zero omitted, Abs format (unit mm)*
G04 Created by KiCad (PCBNEW 7.0.10) date 2024-02-17 17:59:33*
%MOMM*%
%LPD*%
G01*
G04 APERTURE LIST*
%ADD10C,0.150000*%
%TA.AperFunction,Profile*%
%ADD11C,0.150000*%
%TD*%
G04 APERTURE END LIST*
D10*
X168304819Y-117904761D02*
X168304819Y-118476189D01*
X168304819Y-118190475D02*
X167304819Y-118190475D01*
X167304819Y-118190475D02*
X167447676Y-118285713D01*
X167447676Y-118285713D02*
X167542914Y-118380951D01*
X167542914Y-118380951D02*
X167590533Y-118476189D01*
X167733390Y-117333332D02*
X167685771Y-117428570D01*
X167685771Y-117428570D02*
X167638152Y-117476189D01*
X167638152Y-117476189D02*
X167542914Y-117523808D01*
X167542914Y-117523808D02*
X167495295Y-117523808D01*
X167495295Y-117523808D02*
X167400057Y-117476189D01*
X167400057Y-117476189D02*
X167352438Y-117428570D01*
X167352438Y-117428570D02*
X167304819Y-117333332D01*
X167304819Y-117333332D02*
X167304819Y-117142856D01*
X167304819Y-117142856D02*
X167352438Y-117047618D01*
X167352438Y-117047618D02*
X167400057Y-116999999D01*
X167400057Y-116999999D02*
X167495295Y-116952380D01*
X167495295Y-116952380D02*
X167542914Y-116952380D01*
X167542914Y-116952380D02*
X167638152Y-116999999D01*
X167638152Y-116999999D02*
X167685771Y-117047618D01*
X167685771Y-117047618D02*
X167733390Y-117142856D01*
X167733390Y-117142856D02*
X167733390Y-117333332D01*
X167733390Y-117333332D02*
X167781009Y-117428570D01*
X167781009Y-117428570D02*
X167828628Y-117476189D01*
X167828628Y-117476189D02*
X167923866Y-117523808D01*
X167923866Y-117523808D02*
X168114342Y-117523808D01*
X168114342Y-117523808D02*
X168209580Y-117476189D01*
X168209580Y-117476189D02*
X168257200Y-117428570D01*
X168257200Y-117428570D02*
X168304819Y-117333332D01*
X168304819Y-117333332D02*
X168304819Y-117142856D01*
X168304819Y-117142856D02*
X168257200Y-117047618D01*
X168257200Y-117047618D02*
X168209580Y-116999999D01*
X168209580Y-116999999D02*
X168114342Y-116952380D01*
X168114342Y-116952380D02*
X167923866Y-116952380D01*
X167923866Y-116952380D02*
X167828628Y-116999999D01*
X167828628Y-116999999D02*
X167781009Y-117047618D01*
X167781009Y-117047618D02*
X167733390Y-117142856D01*
X168304819Y-115761903D02*
X167638152Y-115761903D01*
X167733390Y-115761903D02*
X167685771Y-115714284D01*
X167685771Y-115714284D02*
X167638152Y-115619046D01*
X167638152Y-115619046D02*
X167638152Y-115476189D01*
X167638152Y-115476189D02*
X167685771Y-115380951D01*
X167685771Y-115380951D02*
X167781009Y-115333332D01*
X167781009Y-115333332D02*
X168304819Y-115333332D01*
X167781009Y-115333332D02*
X167685771Y-115285713D01*
X167685771Y-115285713D02*
X167638152Y-115190475D01*
X167638152Y-115190475D02*
X167638152Y-115047618D01*
X167638152Y-115047618D02*
X167685771Y-114952379D01*
X167685771Y-114952379D02*
X167781009Y-114904760D01*
X167781009Y-114904760D02*
X168304819Y-114904760D01*
X168304819Y-114428570D02*
X167638152Y-114428570D01*
X167733390Y-114428570D02*
X167685771Y-114380951D01*
X167685771Y-114380951D02*
X167638152Y-114285713D01*
X167638152Y-114285713D02*
X167638152Y-114142856D01*
X167638152Y-114142856D02*
X167685771Y-114047618D01*
X167685771Y-114047618D02*
X167781009Y-113999999D01*
X167781009Y-113999999D02*
X168304819Y-113999999D01*
X167781009Y-113999999D02*
X167685771Y-113952380D01*
X167685771Y-113952380D02*
X167638152Y-113857142D01*
X167638152Y-113857142D02*
X167638152Y-113714285D01*
X167638152Y-113714285D02*
X167685771Y-113619046D01*
X167685771Y-113619046D02*
X167781009Y-113571427D01*
X167781009Y-113571427D02*
X168304819Y-113571427D01*
X161000000Y-107000000D02*
X169586420Y-107000000D01*
X161000000Y-125000000D02*
X169586420Y-125000000D01*
X169000000Y-107000000D02*
X169000000Y-125000000D01*
X169000000Y-107000000D02*
X169000000Y-125000000D01*
X169000000Y-107000000D02*
X169586421Y-108126504D01*
X169000000Y-107000000D02*
X168413579Y-108126504D01*
X169000000Y-125000000D02*
X168413579Y-123873496D01*
X169000000Y-125000000D02*
X169586421Y-123873496D01*
X144738096Y-51954819D02*
X145357143Y-51954819D01*
X145357143Y-51954819D02*
X145023810Y-52335771D01*
X145023810Y-52335771D02*
X145166667Y-52335771D01*
X145166667Y-52335771D02*
X145261905Y-52383390D01*
X145261905Y-52383390D02*
X145309524Y-52431009D01*
X145309524Y-52431009D02*
X145357143Y-52526247D01*
X145357143Y-52526247D02*
X145357143Y-52764342D01*
X145357143Y-52764342D02*
X145309524Y-52859580D01*
X145309524Y-52859580D02*
X145261905Y-52907200D01*
X145261905Y-52907200D02*
X145166667Y-52954819D01*
X145166667Y-52954819D02*
X144880953Y-52954819D01*
X144880953Y-52954819D02*
X144785715Y-52907200D01*
X144785715Y-52907200D02*
X144738096Y-52859580D01*
X145833334Y-52907200D02*
X145833334Y-52954819D01*
X145833334Y-52954819D02*
X145785715Y-53050057D01*
X145785715Y-53050057D02*
X145738096Y-53097676D01*
X146738095Y-51954819D02*
X146261905Y-51954819D01*
X146261905Y-51954819D02*
X146214286Y-52431009D01*
X146214286Y-52431009D02*
X146261905Y-52383390D01*
X146261905Y-52383390D02*
X146357143Y-52335771D01*
X146357143Y-52335771D02*
X146595238Y-52335771D01*
X146595238Y-52335771D02*
X146690476Y-52383390D01*
X146690476Y-52383390D02*
X146738095Y-52431009D01*
X146738095Y-52431009D02*
X146785714Y-52526247D01*
X146785714Y-52526247D02*
X146785714Y-52764342D01*
X146785714Y-52764342D02*
X146738095Y-52859580D01*
X146738095Y-52859580D02*
X146690476Y-52907200D01*
X146690476Y-52907200D02*
X146595238Y-52954819D01*
X146595238Y-52954819D02*
X146357143Y-52954819D01*
X146357143Y-52954819D02*
X146261905Y-52907200D01*
X146261905Y-52907200D02*
X146214286Y-52859580D01*
X147976191Y-52954819D02*
X147976191Y-52288152D01*
X147976191Y-52383390D02*
X148023810Y-52335771D01*
X148023810Y-52335771D02*
X148119048Y-52288152D01*
X148119048Y-52288152D02*
X148261905Y-52288152D01*
X148261905Y-52288152D02*
X148357143Y-52335771D01*
X148357143Y-52335771D02*
X148404762Y-52431009D01*
X148404762Y-52431009D02*
X148404762Y-52954819D01*
X148404762Y-52431009D02*
X148452381Y-52335771D01*
X148452381Y-52335771D02*
X148547619Y-52288152D01*
X148547619Y-52288152D02*
X148690476Y-52288152D01*
X148690476Y-52288152D02*
X148785715Y-52335771D01*
X148785715Y-52335771D02*
X148833334Y-52431009D01*
X148833334Y-52431009D02*
X148833334Y-52954819D01*
X149309524Y-52954819D02*
X149309524Y-52288152D01*
X149309524Y-52383390D02*
X149357143Y-52335771D01*
X149357143Y-52335771D02*
X149452381Y-52288152D01*
X149452381Y-52288152D02*
X149595238Y-52288152D01*
X149595238Y-52288152D02*
X149690476Y-52335771D01*
X149690476Y-52335771D02*
X149738095Y-52431009D01*
X149738095Y-52431009D02*
X149738095Y-52954819D01*
X149738095Y-52431009D02*
X149785714Y-52335771D01*
X149785714Y-52335771D02*
X149880952Y-52288152D01*
X149880952Y-52288152D02*
X150023809Y-52288152D01*
X150023809Y-52288152D02*
X150119048Y-52335771D01*
X150119048Y-52335771D02*
X150166667Y-52431009D01*
X150166667Y-52431009D02*
X150166667Y-52954819D01*
X147500000Y-61000000D02*
X147500000Y-53413580D01*
X144000000Y-61000000D02*
X144000000Y-53413580D01*
X147500000Y-54000000D02*
X144000000Y-54000000D01*
X147500000Y-54000000D02*
X144000000Y-54000000D01*
X147500000Y-54000000D02*
X146373496Y-54586421D01*
X147500000Y-54000000D02*
X146373496Y-53413579D01*
X144000000Y-54000000D02*
X145126504Y-53413579D01*
X144000000Y-54000000D02*
X145126504Y-54586421D01*
X159488096Y-131954819D02*
X160107143Y-131954819D01*
X160107143Y-131954819D02*
X159773810Y-132335771D01*
X159773810Y-132335771D02*
X159916667Y-132335771D01*
X159916667Y-132335771D02*
X160011905Y-132383390D01*
X160011905Y-132383390D02*
X160059524Y-132431009D01*
X160059524Y-132431009D02*
X160107143Y-132526247D01*
X160107143Y-132526247D02*
X160107143Y-132764342D01*
X160107143Y-132764342D02*
X160059524Y-132859580D01*
X160059524Y-132859580D02*
X160011905Y-132907200D01*
X160011905Y-132907200D02*
X159916667Y-132954819D01*
X159916667Y-132954819D02*
X159630953Y-132954819D01*
X159630953Y-132954819D02*
X159535715Y-132907200D01*
X159535715Y-132907200D02*
X159488096Y-132859580D01*
X160583334Y-132907200D02*
X160583334Y-132954819D01*
X160583334Y-132954819D02*
X160535715Y-133050057D01*
X160535715Y-133050057D02*
X160488096Y-133097676D01*
X161488095Y-131954819D02*
X161011905Y-131954819D01*
X161011905Y-131954819D02*
X160964286Y-132431009D01*
X160964286Y-132431009D02*
X161011905Y-132383390D01*
X161011905Y-132383390D02*
X161107143Y-132335771D01*
X161107143Y-132335771D02*
X161345238Y-132335771D01*
X161345238Y-132335771D02*
X161440476Y-132383390D01*
X161440476Y-132383390D02*
X161488095Y-132431009D01*
X161488095Y-132431009D02*
X161535714Y-132526247D01*
X161535714Y-132526247D02*
X161535714Y-132764342D01*
X161535714Y-132764342D02*
X161488095Y-132859580D01*
X161488095Y-132859580D02*
X161440476Y-132907200D01*
X161440476Y-132907200D02*
X161345238Y-132954819D01*
X161345238Y-132954819D02*
X161107143Y-132954819D01*
X161107143Y-132954819D02*
X161011905Y-132907200D01*
X161011905Y-132907200D02*
X160964286Y-132859580D01*
X162726191Y-132954819D02*
X162726191Y-132288152D01*
X162726191Y-132383390D02*
X162773810Y-132335771D01*
X162773810Y-132335771D02*
X162869048Y-132288152D01*
X162869048Y-132288152D02*
X163011905Y-132288152D01*
X163011905Y-132288152D02*
X163107143Y-132335771D01*
X163107143Y-132335771D02*
X163154762Y-132431009D01*
X163154762Y-132431009D02*
X163154762Y-132954819D01*
X163154762Y-132431009D02*
X163202381Y-132335771D01*
X163202381Y-132335771D02*
X163297619Y-132288152D01*
X163297619Y-132288152D02*
X163440476Y-132288152D01*
X163440476Y-132288152D02*
X163535715Y-132335771D01*
X163535715Y-132335771D02*
X163583334Y-132431009D01*
X163583334Y-132431009D02*
X163583334Y-132954819D01*
X164059524Y-132954819D02*
X164059524Y-132288152D01*
X164059524Y-132383390D02*
X164107143Y-132335771D01*
X164107143Y-132335771D02*
X164202381Y-132288152D01*
X164202381Y-132288152D02*
X164345238Y-132288152D01*
X164345238Y-132288152D02*
X164440476Y-132335771D01*
X164440476Y-132335771D02*
X164488095Y-132431009D01*
X164488095Y-132431009D02*
X164488095Y-132954819D01*
X164488095Y-132431009D02*
X164535714Y-132335771D01*
X164535714Y-132335771D02*
X164630952Y-132288152D01*
X164630952Y-132288152D02*
X164773809Y-132288152D01*
X164773809Y-132288152D02*
X164869048Y-132335771D01*
X164869048Y-132335771D02*
X164916667Y-132431009D01*
X164916667Y-132431009D02*
X164916667Y-132954819D01*
X160500000Y-107500000D02*
X160500000Y-131586420D01*
X164000000Y-107500000D02*
X164000000Y-131586420D01*
X160500000Y-131000000D02*
X164000000Y-131000000D01*
X160500000Y-131000000D02*
X164000000Y-131000000D01*
X160500000Y-131000000D02*
X161626504Y-130413579D01*
X160500000Y-131000000D02*
X161626504Y-131586421D01*
X164000000Y-131000000D02*
X162873496Y-131586421D01*
X164000000Y-131000000D02*
X162873496Y-130413579D01*
X129304819Y-93499999D02*
X129304819Y-93690475D01*
X129304819Y-93690475D02*
X129352438Y-93785713D01*
X129352438Y-93785713D02*
X129400057Y-93833332D01*
X129400057Y-93833332D02*
X129542914Y-93928570D01*
X129542914Y-93928570D02*
X129733390Y-93976189D01*
X129733390Y-93976189D02*
X130114342Y-93976189D01*
X130114342Y-93976189D02*
X130209580Y-93928570D01*
X130209580Y-93928570D02*
X130257200Y-93880951D01*
X130257200Y-93880951D02*
X130304819Y-93785713D01*
X130304819Y-93785713D02*
X130304819Y-93595237D01*
X130304819Y-93595237D02*
X130257200Y-93499999D01*
X130257200Y-93499999D02*
X130209580Y-93452380D01*
X130209580Y-93452380D02*
X130114342Y-93404761D01*
X130114342Y-93404761D02*
X129876247Y-93404761D01*
X129876247Y-93404761D02*
X129781009Y-93452380D01*
X129781009Y-93452380D02*
X129733390Y-93499999D01*
X129733390Y-93499999D02*
X129685771Y-93595237D01*
X129685771Y-93595237D02*
X129685771Y-93785713D01*
X129685771Y-93785713D02*
X129733390Y-93880951D01*
X129733390Y-93880951D02*
X129781009Y-93928570D01*
X129781009Y-93928570D02*
X129876247Y-93976189D01*
X129304819Y-93071427D02*
X129304819Y-92404761D01*
X129304819Y-92404761D02*
X130304819Y-92833332D01*
X130304819Y-91261903D02*
X129638152Y-91261903D01*
X129733390Y-91261903D02*
X129685771Y-91214284D01*
X129685771Y-91214284D02*
X129638152Y-91119046D01*
X129638152Y-91119046D02*
X129638152Y-90976189D01*
X129638152Y-90976189D02*
X129685771Y-90880951D01*
X129685771Y-90880951D02*
X129781009Y-90833332D01*
X129781009Y-90833332D02*
X130304819Y-90833332D01*
X129781009Y-90833332D02*
X129685771Y-90785713D01*
X129685771Y-90785713D02*
X129638152Y-90690475D01*
X129638152Y-90690475D02*
X129638152Y-90547618D01*
X129638152Y-90547618D02*
X129685771Y-90452379D01*
X129685771Y-90452379D02*
X129781009Y-90404760D01*
X129781009Y-90404760D02*
X130304819Y-90404760D01*
X130304819Y-89928570D02*
X129638152Y-89928570D01*
X129733390Y-89928570D02*
X129685771Y-89880951D01*
X129685771Y-89880951D02*
X129638152Y-89785713D01*
X129638152Y-89785713D02*
X129638152Y-89642856D01*
X129638152Y-89642856D02*
X129685771Y-89547618D01*
X129685771Y-89547618D02*
X129781009Y-89499999D01*
X129781009Y-89499999D02*
X130304819Y-89499999D01*
X129781009Y-89499999D02*
X129685771Y-89452380D01*
X129685771Y-89452380D02*
X129638152Y-89357142D01*
X129638152Y-89357142D02*
X129638152Y-89214285D01*
X129638152Y-89214285D02*
X129685771Y-89119046D01*
X129685771Y-89119046D02*
X129781009Y-89071427D01*
X129781009Y-89071427D02*
X130304819Y-89071427D01*
X143500000Y-125000000D02*
X130413580Y-125000000D01*
X143500000Y-58000000D02*
X130413580Y-58000000D01*
X131000000Y-125000000D02*
X131000000Y-58000000D01*
X131000000Y-125000000D02*
X131000000Y-58000000D01*
X131000000Y-125000000D02*
X130413579Y-123873496D01*
X131000000Y-125000000D02*
X131586421Y-123873496D01*
X131000000Y-58000000D02*
X131586421Y-59126504D01*
X131000000Y-58000000D02*
X130413579Y-59126504D01*
X151523810Y-47400057D02*
X151571429Y-47352438D01*
X151571429Y-47352438D02*
X151666667Y-47304819D01*
X151666667Y-47304819D02*
X151904762Y-47304819D01*
X151904762Y-47304819D02*
X152000000Y-47352438D01*
X152000000Y-47352438D02*
X152047619Y-47400057D01*
X152047619Y-47400057D02*
X152095238Y-47495295D01*
X152095238Y-47495295D02*
X152095238Y-47590533D01*
X152095238Y-47590533D02*
X152047619Y-47733390D01*
X152047619Y-47733390D02*
X151476191Y-48304819D01*
X151476191Y-48304819D02*
X152095238Y-48304819D01*
X152714286Y-47304819D02*
X152809524Y-47304819D01*
X152809524Y-47304819D02*
X152904762Y-47352438D01*
X152904762Y-47352438D02*
X152952381Y-47400057D01*
X152952381Y-47400057D02*
X153000000Y-47495295D01*
X153000000Y-47495295D02*
X153047619Y-47685771D01*
X153047619Y-47685771D02*
X153047619Y-47923866D01*
X153047619Y-47923866D02*
X153000000Y-48114342D01*
X153000000Y-48114342D02*
X152952381Y-48209580D01*
X152952381Y-48209580D02*
X152904762Y-48257200D01*
X152904762Y-48257200D02*
X152809524Y-48304819D01*
X152809524Y-48304819D02*
X152714286Y-48304819D01*
X152714286Y-48304819D02*
X152619048Y-48257200D01*
X152619048Y-48257200D02*
X152571429Y-48209580D01*
X152571429Y-48209580D02*
X152523810Y-48114342D01*
X152523810Y-48114342D02*
X152476191Y-47923866D01*
X152476191Y-47923866D02*
X152476191Y-47685771D01*
X152476191Y-47685771D02*
X152523810Y-47495295D01*
X152523810Y-47495295D02*
X152571429Y-47400057D01*
X152571429Y-47400057D02*
X152619048Y-47352438D01*
X152619048Y-47352438D02*
X152714286Y-47304819D01*
X154238096Y-48304819D02*
X154238096Y-47638152D01*
X154238096Y-47733390D02*
X154285715Y-47685771D01*
X154285715Y-47685771D02*
X154380953Y-47638152D01*
X154380953Y-47638152D02*
X154523810Y-47638152D01*
X154523810Y-47638152D02*
X154619048Y-47685771D01*
X154619048Y-47685771D02*
X154666667Y-47781009D01*
X154666667Y-47781009D02*
X154666667Y-48304819D01*
X154666667Y-47781009D02*
X154714286Y-47685771D01*
X154714286Y-47685771D02*
X154809524Y-47638152D01*
X154809524Y-47638152D02*
X154952381Y-47638152D01*
X154952381Y-47638152D02*
X155047620Y-47685771D01*
X155047620Y-47685771D02*
X155095239Y-47781009D01*
X155095239Y-47781009D02*
X155095239Y-48304819D01*
X155571429Y-48304819D02*
X155571429Y-47638152D01*
X155571429Y-47733390D02*
X155619048Y-47685771D01*
X155619048Y-47685771D02*
X155714286Y-47638152D01*
X155714286Y-47638152D02*
X155857143Y-47638152D01*
X155857143Y-47638152D02*
X155952381Y-47685771D01*
X155952381Y-47685771D02*
X156000000Y-47781009D01*
X156000000Y-47781009D02*
X156000000Y-48304819D01*
X156000000Y-47781009D02*
X156047619Y-47685771D01*
X156047619Y-47685771D02*
X156142857Y-47638152D01*
X156142857Y-47638152D02*
X156285714Y-47638152D01*
X156285714Y-47638152D02*
X156380953Y-47685771D01*
X156380953Y-47685771D02*
X156428572Y-47781009D01*
X156428572Y-47781009D02*
X156428572Y-48304819D01*
X164000000Y-57500000D02*
X164000000Y-48413580D01*
X144000000Y-57500000D02*
X144000000Y-48413580D01*
X164000000Y-49000000D02*
X144000000Y-49000000D01*
X164000000Y-49000000D02*
X144000000Y-49000000D01*
X164000000Y-49000000D02*
X162873496Y-49586421D01*
X164000000Y-49000000D02*
X162873496Y-48413579D01*
X144000000Y-49000000D02*
X145126504Y-48413579D01*
X144000000Y-49000000D02*
X145126504Y-49586421D01*
X136954819Y-64261903D02*
X136954819Y-63642856D01*
X136954819Y-63642856D02*
X137335771Y-63976189D01*
X137335771Y-63976189D02*
X137335771Y-63833332D01*
X137335771Y-63833332D02*
X137383390Y-63738094D01*
X137383390Y-63738094D02*
X137431009Y-63690475D01*
X137431009Y-63690475D02*
X137526247Y-63642856D01*
X137526247Y-63642856D02*
X137764342Y-63642856D01*
X137764342Y-63642856D02*
X137859580Y-63690475D01*
X137859580Y-63690475D02*
X137907200Y-63738094D01*
X137907200Y-63738094D02*
X137954819Y-63833332D01*
X137954819Y-63833332D02*
X137954819Y-64119046D01*
X137954819Y-64119046D02*
X137907200Y-64214284D01*
X137907200Y-64214284D02*
X137859580Y-64261903D01*
X137907200Y-63166665D02*
X137954819Y-63166665D01*
X137954819Y-63166665D02*
X138050057Y-63214284D01*
X138050057Y-63214284D02*
X138097676Y-63261903D01*
X136954819Y-62261904D02*
X136954819Y-62738094D01*
X136954819Y-62738094D02*
X137431009Y-62785713D01*
X137431009Y-62785713D02*
X137383390Y-62738094D01*
X137383390Y-62738094D02*
X137335771Y-62642856D01*
X137335771Y-62642856D02*
X137335771Y-62404761D01*
X137335771Y-62404761D02*
X137383390Y-62309523D01*
X137383390Y-62309523D02*
X137431009Y-62261904D01*
X137431009Y-62261904D02*
X137526247Y-62214285D01*
X137526247Y-62214285D02*
X137764342Y-62214285D01*
X137764342Y-62214285D02*
X137859580Y-62261904D01*
X137859580Y-62261904D02*
X137907200Y-62309523D01*
X137907200Y-62309523D02*
X137954819Y-62404761D01*
X137954819Y-62404761D02*
X137954819Y-62642856D01*
X137954819Y-62642856D02*
X137907200Y-62738094D01*
X137907200Y-62738094D02*
X137859580Y-62785713D01*
X137954819Y-61023808D02*
X137288152Y-61023808D01*
X137383390Y-61023808D02*
X137335771Y-60976189D01*
X137335771Y-60976189D02*
X137288152Y-60880951D01*
X137288152Y-60880951D02*
X137288152Y-60738094D01*
X137288152Y-60738094D02*
X137335771Y-60642856D01*
X137335771Y-60642856D02*
X137431009Y-60595237D01*
X137431009Y-60595237D02*
X137954819Y-60595237D01*
X137431009Y-60595237D02*
X137335771Y-60547618D01*
X137335771Y-60547618D02*
X137288152Y-60452380D01*
X137288152Y-60452380D02*
X137288152Y-60309523D01*
X137288152Y-60309523D02*
X137335771Y-60214284D01*
X137335771Y-60214284D02*
X137431009Y-60166665D01*
X137431009Y-60166665D02*
X137954819Y-60166665D01*
X137954819Y-59690475D02*
X137288152Y-59690475D01*
X137383390Y-59690475D02*
X137335771Y-59642856D01*
X137335771Y-59642856D02*
X137288152Y-59547618D01*
X137288152Y-59547618D02*
X137288152Y-59404761D01*
X137288152Y-59404761D02*
X137335771Y-59309523D01*
X137335771Y-59309523D02*
X137431009Y-59261904D01*
X137431009Y-59261904D02*
X137954819Y-59261904D01*
X137431009Y-59261904D02*
X137335771Y-59214285D01*
X137335771Y-59214285D02*
X137288152Y-59119047D01*
X137288152Y-59119047D02*
X137288152Y-58976190D01*
X137288152Y-58976190D02*
X137335771Y-58880951D01*
X137335771Y-58880951D02*
X137431009Y-58833332D01*
X137431009Y-58833332D02*
X137954819Y-58833332D01*
X147000000Y-61500000D02*
X138913580Y-61500000D01*
X147000000Y-58000000D02*
X138913580Y-58000000D01*
X139500000Y-61500000D02*
X139500000Y-58000000D01*
X139500000Y-61500000D02*
X139500000Y-58000000D01*
X139500000Y-61500000D02*
X138913579Y-60373496D01*
X139500000Y-61500000D02*
X140086421Y-60373496D01*
X139500000Y-58000000D02*
X140086421Y-59126504D01*
X139500000Y-58000000D02*
X138913579Y-59126504D01*
D11*
X144000000Y-58000000D02*
X164000000Y-58000000D01*
X164000000Y-125000000D01*
X144000000Y-125000000D01*
X144000000Y-58000000D01*
M02*
