%TF.GenerationSoftware,KiCad,Pcbnew,7.0.10*%
%TF.CreationDate,2024-02-17T17:59:56+01:00*%
%TF.ProjectId,Master_Clock,4d617374-6572-45f4-936c-6f636b2e6b69,1.1*%
%TF.SameCoordinates,Original*%
%TF.FileFunction,Drillmap*%
%TF.FilePolarity,Positive*%
%FSLAX45Y45*%
G04 Gerber Fmt 4.5, Leading zero omitted, Abs format (unit mm)*
G04 Created by KiCad (PCBNEW 7.0.10) date 2024-02-17 17:59:56*
%MOMM*%
%LPD*%
G01*
G04 APERTURE LIST*
%ADD10C,0.150000*%
%ADD11C,0.200000*%
G04 APERTURE END LIST*
D10*
X14400000Y-5800000D02*
X16400000Y-5800000D01*
X16400000Y-12500000D01*
X14400000Y-12500000D01*
X14400000Y-5800000D01*
D11*
X14653277Y-12818984D02*
X14653277Y-12618984D01*
X14653277Y-12618984D02*
X14700896Y-12618984D01*
X14700896Y-12618984D02*
X14729467Y-12628508D01*
X14729467Y-12628508D02*
X14748515Y-12647555D01*
X14748515Y-12647555D02*
X14758039Y-12666603D01*
X14758039Y-12666603D02*
X14767562Y-12704698D01*
X14767562Y-12704698D02*
X14767562Y-12733269D01*
X14767562Y-12733269D02*
X14758039Y-12771365D01*
X14758039Y-12771365D02*
X14748515Y-12790412D01*
X14748515Y-12790412D02*
X14729467Y-12809460D01*
X14729467Y-12809460D02*
X14700896Y-12818984D01*
X14700896Y-12818984D02*
X14653277Y-12818984D01*
X14853277Y-12818984D02*
X14853277Y-12685650D01*
X14853277Y-12723746D02*
X14862801Y-12704698D01*
X14862801Y-12704698D02*
X14872324Y-12695174D01*
X14872324Y-12695174D02*
X14891372Y-12685650D01*
X14891372Y-12685650D02*
X14910420Y-12685650D01*
X14977086Y-12818984D02*
X14977086Y-12685650D01*
X14977086Y-12618984D02*
X14967562Y-12628508D01*
X14967562Y-12628508D02*
X14977086Y-12638031D01*
X14977086Y-12638031D02*
X14986610Y-12628508D01*
X14986610Y-12628508D02*
X14977086Y-12618984D01*
X14977086Y-12618984D02*
X14977086Y-12638031D01*
X15100896Y-12818984D02*
X15081848Y-12809460D01*
X15081848Y-12809460D02*
X15072324Y-12790412D01*
X15072324Y-12790412D02*
X15072324Y-12618984D01*
X15205658Y-12818984D02*
X15186610Y-12809460D01*
X15186610Y-12809460D02*
X15177086Y-12790412D01*
X15177086Y-12790412D02*
X15177086Y-12618984D01*
X15434229Y-12818984D02*
X15434229Y-12618984D01*
X15434229Y-12618984D02*
X15500896Y-12761841D01*
X15500896Y-12761841D02*
X15567562Y-12618984D01*
X15567562Y-12618984D02*
X15567562Y-12818984D01*
X15748515Y-12818984D02*
X15748515Y-12714222D01*
X15748515Y-12714222D02*
X15738991Y-12695174D01*
X15738991Y-12695174D02*
X15719943Y-12685650D01*
X15719943Y-12685650D02*
X15681848Y-12685650D01*
X15681848Y-12685650D02*
X15662801Y-12695174D01*
X15748515Y-12809460D02*
X15729467Y-12818984D01*
X15729467Y-12818984D02*
X15681848Y-12818984D01*
X15681848Y-12818984D02*
X15662801Y-12809460D01*
X15662801Y-12809460D02*
X15653277Y-12790412D01*
X15653277Y-12790412D02*
X15653277Y-12771365D01*
X15653277Y-12771365D02*
X15662801Y-12752317D01*
X15662801Y-12752317D02*
X15681848Y-12742793D01*
X15681848Y-12742793D02*
X15729467Y-12742793D01*
X15729467Y-12742793D02*
X15748515Y-12733269D01*
X15843753Y-12685650D02*
X15843753Y-12885650D01*
X15843753Y-12695174D02*
X15862801Y-12685650D01*
X15862801Y-12685650D02*
X15900896Y-12685650D01*
X15900896Y-12685650D02*
X15919943Y-12695174D01*
X15919943Y-12695174D02*
X15929467Y-12704698D01*
X15929467Y-12704698D02*
X15938991Y-12723746D01*
X15938991Y-12723746D02*
X15938991Y-12780888D01*
X15938991Y-12780888D02*
X15929467Y-12799936D01*
X15929467Y-12799936D02*
X15919943Y-12809460D01*
X15919943Y-12809460D02*
X15900896Y-12818984D01*
X15900896Y-12818984D02*
X15862801Y-12818984D01*
X15862801Y-12818984D02*
X15843753Y-12809460D01*
X16024705Y-12799936D02*
X16034229Y-12809460D01*
X16034229Y-12809460D02*
X16024705Y-12818984D01*
X16024705Y-12818984D02*
X16015182Y-12809460D01*
X16015182Y-12809460D02*
X16024705Y-12799936D01*
X16024705Y-12799936D02*
X16024705Y-12818984D01*
X16024705Y-12695174D02*
X16034229Y-12704698D01*
X16034229Y-12704698D02*
X16024705Y-12714222D01*
X16024705Y-12714222D02*
X16015182Y-12704698D01*
X16015182Y-12704698D02*
X16024705Y-12695174D01*
X16024705Y-12695174D02*
X16024705Y-12714222D01*
M02*
