%TF.GenerationSoftware,KiCad,Pcbnew,7.0.10*%
%TF.CreationDate,2024-02-17T17:59:34+01:00*%
%TF.ProjectId,Master_Clock,4d617374-6572-45f4-936c-6f636b2e6b69,1.1*%
%TF.SameCoordinates,Original*%
%TF.FileFunction,AssemblyDrawing,Top*%
%FSLAX46Y46*%
G04 Gerber Fmt 4.6, Leading zero omitted, Abs format (unit mm)*
G04 Created by KiCad (PCBNEW 7.0.10) date 2024-02-17 17:59:34*
%MOMM*%
%LPD*%
G01*
G04 APERTURE LIST*
%ADD10C,0.150000*%
%ADD11C,0.060000*%
%ADD12C,0.100000*%
%TA.AperFunction,Profile*%
%ADD13C,0.150000*%
%TD*%
G04 APERTURE END LIST*
D10*
X157266666Y-116554819D02*
X157266666Y-117269104D01*
X157266666Y-117269104D02*
X157219047Y-117411961D01*
X157219047Y-117411961D02*
X157123809Y-117507200D01*
X157123809Y-117507200D02*
X156980952Y-117554819D01*
X156980952Y-117554819D02*
X156885714Y-117554819D01*
X157695238Y-116650057D02*
X157742857Y-116602438D01*
X157742857Y-116602438D02*
X157838095Y-116554819D01*
X157838095Y-116554819D02*
X158076190Y-116554819D01*
X158076190Y-116554819D02*
X158171428Y-116602438D01*
X158171428Y-116602438D02*
X158219047Y-116650057D01*
X158219047Y-116650057D02*
X158266666Y-116745295D01*
X158266666Y-116745295D02*
X158266666Y-116840533D01*
X158266666Y-116840533D02*
X158219047Y-116983390D01*
X158219047Y-116983390D02*
X157647619Y-117554819D01*
X157647619Y-117554819D02*
X158266666Y-117554819D01*
X158407200Y-77833332D02*
X158454819Y-77690475D01*
X158454819Y-77690475D02*
X158454819Y-77452380D01*
X158454819Y-77452380D02*
X158407200Y-77357142D01*
X158407200Y-77357142D02*
X158359580Y-77309523D01*
X158359580Y-77309523D02*
X158264342Y-77261904D01*
X158264342Y-77261904D02*
X158169104Y-77261904D01*
X158169104Y-77261904D02*
X158073866Y-77309523D01*
X158073866Y-77309523D02*
X158026247Y-77357142D01*
X158026247Y-77357142D02*
X157978628Y-77452380D01*
X157978628Y-77452380D02*
X157931009Y-77642856D01*
X157931009Y-77642856D02*
X157883390Y-77738094D01*
X157883390Y-77738094D02*
X157835771Y-77785713D01*
X157835771Y-77785713D02*
X157740533Y-77833332D01*
X157740533Y-77833332D02*
X157645295Y-77833332D01*
X157645295Y-77833332D02*
X157550057Y-77785713D01*
X157550057Y-77785713D02*
X157502438Y-77738094D01*
X157502438Y-77738094D02*
X157454819Y-77642856D01*
X157454819Y-77642856D02*
X157454819Y-77404761D01*
X157454819Y-77404761D02*
X157502438Y-77261904D01*
X157454819Y-76928570D02*
X158454819Y-76690475D01*
X158454819Y-76690475D02*
X157740533Y-76499999D01*
X157740533Y-76499999D02*
X158454819Y-76309523D01*
X158454819Y-76309523D02*
X157454819Y-76071428D01*
X158454819Y-75166666D02*
X158454819Y-75738094D01*
X158454819Y-75452380D02*
X157454819Y-75452380D01*
X157454819Y-75452380D02*
X157597676Y-75547618D01*
X157597676Y-75547618D02*
X157692914Y-75642856D01*
X157692914Y-75642856D02*
X157740533Y-75738094D01*
X145959580Y-119166666D02*
X146007200Y-119214285D01*
X146007200Y-119214285D02*
X146054819Y-119357142D01*
X146054819Y-119357142D02*
X146054819Y-119452380D01*
X146054819Y-119452380D02*
X146007200Y-119595237D01*
X146007200Y-119595237D02*
X145911961Y-119690475D01*
X145911961Y-119690475D02*
X145816723Y-119738094D01*
X145816723Y-119738094D02*
X145626247Y-119785713D01*
X145626247Y-119785713D02*
X145483390Y-119785713D01*
X145483390Y-119785713D02*
X145292914Y-119738094D01*
X145292914Y-119738094D02*
X145197676Y-119690475D01*
X145197676Y-119690475D02*
X145102438Y-119595237D01*
X145102438Y-119595237D02*
X145054819Y-119452380D01*
X145054819Y-119452380D02*
X145054819Y-119357142D01*
X145054819Y-119357142D02*
X145102438Y-119214285D01*
X145102438Y-119214285D02*
X145150057Y-119166666D01*
X145054819Y-118261904D02*
X145054819Y-118738094D01*
X145054819Y-118738094D02*
X145531009Y-118785713D01*
X145531009Y-118785713D02*
X145483390Y-118738094D01*
X145483390Y-118738094D02*
X145435771Y-118642856D01*
X145435771Y-118642856D02*
X145435771Y-118404761D01*
X145435771Y-118404761D02*
X145483390Y-118309523D01*
X145483390Y-118309523D02*
X145531009Y-118261904D01*
X145531009Y-118261904D02*
X145626247Y-118214285D01*
X145626247Y-118214285D02*
X145864342Y-118214285D01*
X145864342Y-118214285D02*
X145959580Y-118261904D01*
X145959580Y-118261904D02*
X146007200Y-118309523D01*
X146007200Y-118309523D02*
X146054819Y-118404761D01*
X146054819Y-118404761D02*
X146054819Y-118642856D01*
X146054819Y-118642856D02*
X146007200Y-118738094D01*
X146007200Y-118738094D02*
X145959580Y-118785713D01*
X147376666Y-65954819D02*
X147376666Y-66669104D01*
X147376666Y-66669104D02*
X147329047Y-66811961D01*
X147329047Y-66811961D02*
X147233809Y-66907200D01*
X147233809Y-66907200D02*
X147090952Y-66954819D01*
X147090952Y-66954819D02*
X146995714Y-66954819D01*
X147757619Y-65954819D02*
X148376666Y-65954819D01*
X148376666Y-65954819D02*
X148043333Y-66335771D01*
X148043333Y-66335771D02*
X148186190Y-66335771D01*
X148186190Y-66335771D02*
X148281428Y-66383390D01*
X148281428Y-66383390D02*
X148329047Y-66431009D01*
X148329047Y-66431009D02*
X148376666Y-66526247D01*
X148376666Y-66526247D02*
X148376666Y-66764342D01*
X148376666Y-66764342D02*
X148329047Y-66859580D01*
X148329047Y-66859580D02*
X148281428Y-66907200D01*
X148281428Y-66907200D02*
X148186190Y-66954819D01*
X148186190Y-66954819D02*
X147900476Y-66954819D01*
X147900476Y-66954819D02*
X147805238Y-66907200D01*
X147805238Y-66907200D02*
X147757619Y-66859580D01*
X158407200Y-90333332D02*
X158454819Y-90190475D01*
X158454819Y-90190475D02*
X158454819Y-89952380D01*
X158454819Y-89952380D02*
X158407200Y-89857142D01*
X158407200Y-89857142D02*
X158359580Y-89809523D01*
X158359580Y-89809523D02*
X158264342Y-89761904D01*
X158264342Y-89761904D02*
X158169104Y-89761904D01*
X158169104Y-89761904D02*
X158073866Y-89809523D01*
X158073866Y-89809523D02*
X158026247Y-89857142D01*
X158026247Y-89857142D02*
X157978628Y-89952380D01*
X157978628Y-89952380D02*
X157931009Y-90142856D01*
X157931009Y-90142856D02*
X157883390Y-90238094D01*
X157883390Y-90238094D02*
X157835771Y-90285713D01*
X157835771Y-90285713D02*
X157740533Y-90333332D01*
X157740533Y-90333332D02*
X157645295Y-90333332D01*
X157645295Y-90333332D02*
X157550057Y-90285713D01*
X157550057Y-90285713D02*
X157502438Y-90238094D01*
X157502438Y-90238094D02*
X157454819Y-90142856D01*
X157454819Y-90142856D02*
X157454819Y-89904761D01*
X157454819Y-89904761D02*
X157502438Y-89761904D01*
X157454819Y-89428570D02*
X158454819Y-89190475D01*
X158454819Y-89190475D02*
X157740533Y-88999999D01*
X157740533Y-88999999D02*
X158454819Y-88809523D01*
X158454819Y-88809523D02*
X157454819Y-88571428D01*
X157550057Y-88238094D02*
X157502438Y-88190475D01*
X157502438Y-88190475D02*
X157454819Y-88095237D01*
X157454819Y-88095237D02*
X157454819Y-87857142D01*
X157454819Y-87857142D02*
X157502438Y-87761904D01*
X157502438Y-87761904D02*
X157550057Y-87714285D01*
X157550057Y-87714285D02*
X157645295Y-87666666D01*
X157645295Y-87666666D02*
X157740533Y-87666666D01*
X157740533Y-87666666D02*
X157883390Y-87714285D01*
X157883390Y-87714285D02*
X158454819Y-88285713D01*
X158454819Y-88285713D02*
X158454819Y-87666666D01*
X157166666Y-64954819D02*
X157166666Y-65669104D01*
X157166666Y-65669104D02*
X157119047Y-65811961D01*
X157119047Y-65811961D02*
X157023809Y-65907200D01*
X157023809Y-65907200D02*
X156880952Y-65954819D01*
X156880952Y-65954819D02*
X156785714Y-65954819D01*
X158166666Y-65954819D02*
X157595238Y-65954819D01*
X157880952Y-65954819D02*
X157880952Y-64954819D01*
X157880952Y-64954819D02*
X157785714Y-65097676D01*
X157785714Y-65097676D02*
X157690476Y-65192914D01*
X157690476Y-65192914D02*
X157595238Y-65240533D01*
D11*
X147181927Y-89795237D02*
X146781927Y-89795237D01*
X146781927Y-89795237D02*
X146781927Y-89699999D01*
X146781927Y-89699999D02*
X146800975Y-89642856D01*
X146800975Y-89642856D02*
X146839070Y-89604761D01*
X146839070Y-89604761D02*
X146877165Y-89585714D01*
X146877165Y-89585714D02*
X146953356Y-89566666D01*
X146953356Y-89566666D02*
X147010499Y-89566666D01*
X147010499Y-89566666D02*
X147086689Y-89585714D01*
X147086689Y-89585714D02*
X147124784Y-89604761D01*
X147124784Y-89604761D02*
X147162880Y-89642856D01*
X147162880Y-89642856D02*
X147181927Y-89699999D01*
X147181927Y-89699999D02*
X147181927Y-89795237D01*
X146820022Y-89414285D02*
X146800975Y-89395237D01*
X146800975Y-89395237D02*
X146781927Y-89357142D01*
X146781927Y-89357142D02*
X146781927Y-89261904D01*
X146781927Y-89261904D02*
X146800975Y-89223809D01*
X146800975Y-89223809D02*
X146820022Y-89204761D01*
X146820022Y-89204761D02*
X146858118Y-89185714D01*
X146858118Y-89185714D02*
X146896213Y-89185714D01*
X146896213Y-89185714D02*
X146953356Y-89204761D01*
X146953356Y-89204761D02*
X147181927Y-89433333D01*
X147181927Y-89433333D02*
X147181927Y-89185714D01*
D10*
X145959580Y-104941666D02*
X146007200Y-104989285D01*
X146007200Y-104989285D02*
X146054819Y-105132142D01*
X146054819Y-105132142D02*
X146054819Y-105227380D01*
X146054819Y-105227380D02*
X146007200Y-105370237D01*
X146007200Y-105370237D02*
X145911961Y-105465475D01*
X145911961Y-105465475D02*
X145816723Y-105513094D01*
X145816723Y-105513094D02*
X145626247Y-105560713D01*
X145626247Y-105560713D02*
X145483390Y-105560713D01*
X145483390Y-105560713D02*
X145292914Y-105513094D01*
X145292914Y-105513094D02*
X145197676Y-105465475D01*
X145197676Y-105465475D02*
X145102438Y-105370237D01*
X145102438Y-105370237D02*
X145054819Y-105227380D01*
X145054819Y-105227380D02*
X145054819Y-105132142D01*
X145054819Y-105132142D02*
X145102438Y-104989285D01*
X145102438Y-104989285D02*
X145150057Y-104941666D01*
X145388152Y-104084523D02*
X146054819Y-104084523D01*
X145007200Y-104322618D02*
X145721485Y-104560713D01*
X145721485Y-104560713D02*
X145721485Y-103941666D01*
D12*
%TO.C,J2*%
X152600000Y-115900000D02*
X162600000Y-115900000D01*
X152600000Y-123400000D02*
X162600000Y-123400000D01*
X152600000Y-124500000D02*
X152600000Y-115900000D01*
X152600000Y-124500000D02*
X162600000Y-124500000D01*
X153000000Y-124900000D02*
X152600000Y-124500000D01*
X156373000Y-118383000D02*
X153583000Y-121173000D01*
X156617000Y-118627000D02*
X153827000Y-121417000D01*
X161373000Y-118383000D02*
X158584000Y-121173000D01*
X161617000Y-118627000D02*
X158828000Y-121417000D01*
X162600000Y-115900000D02*
X162600000Y-124900000D01*
X162600000Y-124900000D02*
X153000000Y-124900000D01*
X157100000Y-119900000D02*
G75*
G03*
X153100000Y-119900000I-2000000J0D01*
G01*
X153100000Y-119900000D02*
G75*
G03*
X157100000Y-119900000I2000000J0D01*
G01*
X162100000Y-119900000D02*
G75*
G03*
X158100000Y-119900000I-2000000J0D01*
G01*
X158100000Y-119900000D02*
G75*
G03*
X162100000Y-119900000I2000000J0D01*
G01*
%TO.C,SW1*%
X155000000Y-79500000D02*
X155000000Y-76500000D01*
X161000000Y-79500000D02*
X155000000Y-79500000D01*
X155000000Y-76500000D02*
X155000000Y-73500000D01*
X155000000Y-73500000D02*
X161000000Y-73500000D01*
X161000000Y-73500000D02*
X161000000Y-79500000D01*
X160015564Y-76500000D02*
G75*
G03*
X155984436Y-76500000I-2015564J0D01*
G01*
X155984436Y-76500000D02*
G75*
G03*
X160015564Y-76500000I2015564J0D01*
G01*
%TO.C,C5*%
X151850000Y-119000000D02*
G75*
G03*
X139350000Y-119000000I-6250000J0D01*
G01*
X139350000Y-119000000D02*
G75*
G03*
X151850000Y-119000000I6250000J0D01*
G01*
%TO.C,J3*%
X150885000Y-65230000D02*
X151520000Y-65865000D01*
X143900000Y-65230000D02*
X150885000Y-65230000D01*
X151520000Y-65865000D02*
X151520000Y-67770000D01*
X151520000Y-67770000D02*
X143900000Y-67770000D01*
X143900000Y-67770000D02*
X143900000Y-65230000D01*
%TO.C,SW2*%
X155000000Y-92000000D02*
X155000000Y-89000000D01*
X161000000Y-92000000D02*
X155000000Y-92000000D01*
X155000000Y-89000000D02*
X155000000Y-86000000D01*
X155000000Y-86000000D02*
X161000000Y-86000000D01*
X161000000Y-86000000D02*
X161000000Y-92000000D01*
X160015564Y-89000000D02*
G75*
G03*
X155984436Y-89000000I-2015564J0D01*
G01*
X155984436Y-89000000D02*
G75*
G03*
X160015564Y-89000000I2015564J0D01*
G01*
%TO.C,J1*%
X162600000Y-66900000D02*
X152600000Y-66900000D01*
X162600000Y-59400000D02*
X152600000Y-59400000D01*
X162600000Y-58300000D02*
X162600000Y-66900000D01*
X162600000Y-58300000D02*
X152600000Y-58300000D01*
X162200000Y-57900000D02*
X162600000Y-58300000D01*
X158827000Y-64417000D02*
X161617000Y-61627000D01*
X158583000Y-64173000D02*
X161373000Y-61383000D01*
X153827000Y-64417000D02*
X156616000Y-61627000D01*
X153583000Y-64173000D02*
X156372000Y-61383000D01*
X152600000Y-66900000D02*
X152600000Y-57900000D01*
X152600000Y-57900000D02*
X162200000Y-57900000D01*
X162100000Y-62900000D02*
G75*
G03*
X158100000Y-62900000I-2000000J0D01*
G01*
X158100000Y-62900000D02*
G75*
G03*
X162100000Y-62900000I2000000J0D01*
G01*
X157100000Y-62900000D02*
G75*
G03*
X153100000Y-62900000I-2000000J0D01*
G01*
X153100000Y-62900000D02*
G75*
G03*
X157100000Y-62900000I2000000J0D01*
G01*
%TO.C,D2*%
X146900000Y-90300000D02*
X147400000Y-90300000D01*
X147400000Y-90300000D02*
X147400000Y-88700000D01*
X146600000Y-90000000D02*
X146900000Y-90300000D01*
X146600000Y-88700000D02*
X146600000Y-90000000D01*
X147400000Y-88700000D02*
X146600000Y-88700000D01*
%TO.C,C4*%
X151850000Y-104775000D02*
G75*
G03*
X139350000Y-104775000I-6250000J0D01*
G01*
X139350000Y-104775000D02*
G75*
G03*
X151850000Y-104775000I6250000J0D01*
G01*
%TD*%
D13*
X144000000Y-58000000D02*
X164000000Y-58000000D01*
X164000000Y-125000000D01*
X144000000Y-125000000D01*
X144000000Y-58000000D01*
M02*
