%TF.GenerationSoftware,KiCad,Pcbnew,7.0.10*%
%TF.CreationDate,2024-01-02T15:41:25+01:00*%
%TF.ProjectId,Master_Clock,4d617374-6572-45f4-936c-6f636b2e6b69,1.0*%
%TF.SameCoordinates,Original*%
%TF.FileFunction,Copper,L2,Bot*%
%TF.FilePolarity,Positive*%
%FSLAX46Y46*%
G04 Gerber Fmt 4.6, Leading zero omitted, Abs format (unit mm)*
G04 Created by KiCad (PCBNEW 7.0.10) date 2024-01-02 15:41:25*
%MOMM*%
%LPD*%
G01*
G04 APERTURE LIST*
G04 Aperture macros list*
%AMRoundRect*
0 Rectangle with rounded corners*
0 $1 Rounding radius*
0 $2 $3 $4 $5 $6 $7 $8 $9 X,Y pos of 4 corners*
0 Add a 4 corners polygon primitive as box body*
4,1,4,$2,$3,$4,$5,$6,$7,$8,$9,$2,$3,0*
0 Add four circle primitives for the rounded corners*
1,1,$1+$1,$2,$3*
1,1,$1+$1,$4,$5*
1,1,$1+$1,$6,$7*
1,1,$1+$1,$8,$9*
0 Add four rect primitives between the rounded corners*
20,1,$1+$1,$2,$3,$4,$5,0*
20,1,$1+$1,$4,$5,$6,$7,0*
20,1,$1+$1,$6,$7,$8,$9,0*
20,1,$1+$1,$8,$9,$2,$3,0*%
G04 Aperture macros list end*
%ADD10C,0.150000*%
%TA.AperFunction,NonConductor*%
%ADD11C,0.150000*%
%TD*%
%TA.AperFunction,ComponentPad*%
%ADD12R,2.600000X2.600000*%
%TD*%
%TA.AperFunction,ComponentPad*%
%ADD13C,2.600000*%
%TD*%
%TA.AperFunction,ComponentPad*%
%ADD14C,5.700000*%
%TD*%
%TA.AperFunction,ComponentPad*%
%ADD15C,2.000000*%
%TD*%
%TA.AperFunction,ComponentPad*%
%ADD16C,1.600000*%
%TD*%
%TA.AperFunction,ComponentPad*%
%ADD17R,1.700000X1.700000*%
%TD*%
%TA.AperFunction,ComponentPad*%
%ADD18O,1.700000X1.700000*%
%TD*%
%TA.AperFunction,SMDPad,CuDef*%
%ADD19RoundRect,0.237500X0.300000X0.237500X-0.300000X0.237500X-0.300000X-0.237500X0.300000X-0.237500X0*%
%TD*%
%TA.AperFunction,SMDPad,CuDef*%
%ADD20RoundRect,0.250000X0.300000X-0.300000X0.300000X0.300000X-0.300000X0.300000X-0.300000X-0.300000X0*%
%TD*%
%TA.AperFunction,SMDPad,CuDef*%
%ADD21RoundRect,0.237500X-0.250000X-0.237500X0.250000X-0.237500X0.250000X0.237500X-0.250000X0.237500X0*%
%TD*%
%TA.AperFunction,SMDPad,CuDef*%
%ADD22RoundRect,0.150000X-0.150000X0.587500X-0.150000X-0.587500X0.150000X-0.587500X0.150000X0.587500X0*%
%TD*%
%TA.AperFunction,SMDPad,CuDef*%
%ADD23RoundRect,0.250000X-0.475000X0.337500X-0.475000X-0.337500X0.475000X-0.337500X0.475000X0.337500X0*%
%TD*%
%TA.AperFunction,SMDPad,CuDef*%
%ADD24RoundRect,0.237500X-0.237500X0.250000X-0.237500X-0.250000X0.237500X-0.250000X0.237500X0.250000X0*%
%TD*%
%TA.AperFunction,SMDPad,CuDef*%
%ADD25RoundRect,0.237500X-0.300000X-0.237500X0.300000X-0.237500X0.300000X0.237500X-0.300000X0.237500X0*%
%TD*%
%TA.AperFunction,SMDPad,CuDef*%
%ADD26C,1.500000*%
%TD*%
%TA.AperFunction,SMDPad,CuDef*%
%ADD27RoundRect,0.237500X-0.237500X0.300000X-0.237500X-0.300000X0.237500X-0.300000X0.237500X0.300000X0*%
%TD*%
%TA.AperFunction,SMDPad,CuDef*%
%ADD28RoundRect,0.237500X0.237500X-0.250000X0.237500X0.250000X-0.237500X0.250000X-0.237500X-0.250000X0*%
%TD*%
%TA.AperFunction,SMDPad,CuDef*%
%ADD29R,0.650000X2.000000*%
%TD*%
%TA.AperFunction,SMDPad,CuDef*%
%ADD30RoundRect,0.237500X0.237500X-0.300000X0.237500X0.300000X-0.237500X0.300000X-0.237500X-0.300000X0*%
%TD*%
%TA.AperFunction,SMDPad,CuDef*%
%ADD31C,1.000000*%
%TD*%
%TA.AperFunction,SMDPad,CuDef*%
%ADD32RoundRect,0.150000X0.150000X-0.825000X0.150000X0.825000X-0.150000X0.825000X-0.150000X-0.825000X0*%
%TD*%
%TA.AperFunction,SMDPad,CuDef*%
%ADD33RoundRect,0.250000X-1.450000X0.400000X-1.450000X-0.400000X1.450000X-0.400000X1.450000X0.400000X0*%
%TD*%
%TA.AperFunction,SMDPad,CuDef*%
%ADD34RoundRect,0.237500X0.250000X0.237500X-0.250000X0.237500X-0.250000X-0.237500X0.250000X-0.237500X0*%
%TD*%
%TA.AperFunction,SMDPad,CuDef*%
%ADD35RoundRect,0.150000X0.512500X0.150000X-0.512500X0.150000X-0.512500X-0.150000X0.512500X-0.150000X0*%
%TD*%
%TA.AperFunction,SMDPad,CuDef*%
%ADD36RoundRect,0.250000X0.337500X0.475000X-0.337500X0.475000X-0.337500X-0.475000X0.337500X-0.475000X0*%
%TD*%
%TA.AperFunction,SMDPad,CuDef*%
%ADD37R,1.050000X0.800000*%
%TD*%
%TA.AperFunction,ViaPad*%
%ADD38C,0.800000*%
%TD*%
%TA.AperFunction,Conductor*%
%ADD39C,0.500000*%
%TD*%
%TA.AperFunction,Conductor*%
%ADD40C,0.200000*%
%TD*%
G04 APERTURE END LIST*
D10*
D11*
X157158458Y-59103771D02*
X157158458Y-58503771D01*
X157158458Y-58503771D02*
X156958458Y-58932342D01*
X156958458Y-58932342D02*
X156758458Y-58503771D01*
X156758458Y-58503771D02*
X156758458Y-59103771D01*
X156215602Y-59103771D02*
X156215602Y-58789485D01*
X156215602Y-58789485D02*
X156244173Y-58732342D01*
X156244173Y-58732342D02*
X156301316Y-58703771D01*
X156301316Y-58703771D02*
X156415602Y-58703771D01*
X156415602Y-58703771D02*
X156472744Y-58732342D01*
X156215602Y-59075200D02*
X156272744Y-59103771D01*
X156272744Y-59103771D02*
X156415602Y-59103771D01*
X156415602Y-59103771D02*
X156472744Y-59075200D01*
X156472744Y-59075200D02*
X156501316Y-59018057D01*
X156501316Y-59018057D02*
X156501316Y-58960914D01*
X156501316Y-58960914D02*
X156472744Y-58903771D01*
X156472744Y-58903771D02*
X156415602Y-58875200D01*
X156415602Y-58875200D02*
X156272744Y-58875200D01*
X156272744Y-58875200D02*
X156215602Y-58846628D01*
X155958459Y-59075200D02*
X155901316Y-59103771D01*
X155901316Y-59103771D02*
X155787030Y-59103771D01*
X155787030Y-59103771D02*
X155729887Y-59075200D01*
X155729887Y-59075200D02*
X155701316Y-59018057D01*
X155701316Y-59018057D02*
X155701316Y-58989485D01*
X155701316Y-58989485D02*
X155729887Y-58932342D01*
X155729887Y-58932342D02*
X155787030Y-58903771D01*
X155787030Y-58903771D02*
X155872745Y-58903771D01*
X155872745Y-58903771D02*
X155929887Y-58875200D01*
X155929887Y-58875200D02*
X155958459Y-58818057D01*
X155958459Y-58818057D02*
X155958459Y-58789485D01*
X155958459Y-58789485D02*
X155929887Y-58732342D01*
X155929887Y-58732342D02*
X155872745Y-58703771D01*
X155872745Y-58703771D02*
X155787030Y-58703771D01*
X155787030Y-58703771D02*
X155729887Y-58732342D01*
X155529888Y-58703771D02*
X155301316Y-58703771D01*
X155444173Y-58503771D02*
X155444173Y-59018057D01*
X155444173Y-59018057D02*
X155415602Y-59075200D01*
X155415602Y-59075200D02*
X155358459Y-59103771D01*
X155358459Y-59103771D02*
X155301316Y-59103771D01*
X154872745Y-59075200D02*
X154929888Y-59103771D01*
X154929888Y-59103771D02*
X155044174Y-59103771D01*
X155044174Y-59103771D02*
X155101316Y-59075200D01*
X155101316Y-59075200D02*
X155129888Y-59018057D01*
X155129888Y-59018057D02*
X155129888Y-58789485D01*
X155129888Y-58789485D02*
X155101316Y-58732342D01*
X155101316Y-58732342D02*
X155044174Y-58703771D01*
X155044174Y-58703771D02*
X154929888Y-58703771D01*
X154929888Y-58703771D02*
X154872745Y-58732342D01*
X154872745Y-58732342D02*
X154844174Y-58789485D01*
X154844174Y-58789485D02*
X154844174Y-58846628D01*
X154844174Y-58846628D02*
X155129888Y-58903771D01*
X154587030Y-59103771D02*
X154587030Y-58703771D01*
X154587030Y-58818057D02*
X154558459Y-58760914D01*
X154558459Y-58760914D02*
X154529888Y-58732342D01*
X154529888Y-58732342D02*
X154472745Y-58703771D01*
X154472745Y-58703771D02*
X154415602Y-58703771D01*
X153415601Y-59046628D02*
X153444173Y-59075200D01*
X153444173Y-59075200D02*
X153529887Y-59103771D01*
X153529887Y-59103771D02*
X153587030Y-59103771D01*
X153587030Y-59103771D02*
X153672744Y-59075200D01*
X153672744Y-59075200D02*
X153729887Y-59018057D01*
X153729887Y-59018057D02*
X153758458Y-58960914D01*
X153758458Y-58960914D02*
X153787030Y-58846628D01*
X153787030Y-58846628D02*
X153787030Y-58760914D01*
X153787030Y-58760914D02*
X153758458Y-58646628D01*
X153758458Y-58646628D02*
X153729887Y-58589485D01*
X153729887Y-58589485D02*
X153672744Y-58532342D01*
X153672744Y-58532342D02*
X153587030Y-58503771D01*
X153587030Y-58503771D02*
X153529887Y-58503771D01*
X153529887Y-58503771D02*
X153444173Y-58532342D01*
X153444173Y-58532342D02*
X153415601Y-58560914D01*
X153072744Y-59103771D02*
X153129887Y-59075200D01*
X153129887Y-59075200D02*
X153158458Y-59018057D01*
X153158458Y-59018057D02*
X153158458Y-58503771D01*
X152758458Y-59103771D02*
X152815601Y-59075200D01*
X152815601Y-59075200D02*
X152844172Y-59046628D01*
X152844172Y-59046628D02*
X152872744Y-58989485D01*
X152872744Y-58989485D02*
X152872744Y-58818057D01*
X152872744Y-58818057D02*
X152844172Y-58760914D01*
X152844172Y-58760914D02*
X152815601Y-58732342D01*
X152815601Y-58732342D02*
X152758458Y-58703771D01*
X152758458Y-58703771D02*
X152672744Y-58703771D01*
X152672744Y-58703771D02*
X152615601Y-58732342D01*
X152615601Y-58732342D02*
X152587030Y-58760914D01*
X152587030Y-58760914D02*
X152558458Y-58818057D01*
X152558458Y-58818057D02*
X152558458Y-58989485D01*
X152558458Y-58989485D02*
X152587030Y-59046628D01*
X152587030Y-59046628D02*
X152615601Y-59075200D01*
X152615601Y-59075200D02*
X152672744Y-59103771D01*
X152672744Y-59103771D02*
X152758458Y-59103771D01*
X152044173Y-59075200D02*
X152101315Y-59103771D01*
X152101315Y-59103771D02*
X152215601Y-59103771D01*
X152215601Y-59103771D02*
X152272744Y-59075200D01*
X152272744Y-59075200D02*
X152301315Y-59046628D01*
X152301315Y-59046628D02*
X152329887Y-58989485D01*
X152329887Y-58989485D02*
X152329887Y-58818057D01*
X152329887Y-58818057D02*
X152301315Y-58760914D01*
X152301315Y-58760914D02*
X152272744Y-58732342D01*
X152272744Y-58732342D02*
X152215601Y-58703771D01*
X152215601Y-58703771D02*
X152101315Y-58703771D01*
X152101315Y-58703771D02*
X152044173Y-58732342D01*
X151787029Y-59103771D02*
X151787029Y-58503771D01*
X151729887Y-58875200D02*
X151558458Y-59103771D01*
X151558458Y-58703771D02*
X151787029Y-58932342D01*
X157244173Y-59469771D02*
X157044173Y-60069771D01*
X157044173Y-60069771D02*
X156844173Y-59469771D01*
X156329887Y-60069771D02*
X156672744Y-60069771D01*
X156501315Y-60069771D02*
X156501315Y-59469771D01*
X156501315Y-59469771D02*
X156558458Y-59555485D01*
X156558458Y-59555485D02*
X156615601Y-59612628D01*
X156615601Y-59612628D02*
X156672744Y-59641200D01*
X156072743Y-60012628D02*
X156044172Y-60041200D01*
X156044172Y-60041200D02*
X156072743Y-60069771D01*
X156072743Y-60069771D02*
X156101315Y-60041200D01*
X156101315Y-60041200D02*
X156072743Y-60012628D01*
X156072743Y-60012628D02*
X156072743Y-60069771D01*
X155672744Y-59469771D02*
X155615601Y-59469771D01*
X155615601Y-59469771D02*
X155558458Y-59498342D01*
X155558458Y-59498342D02*
X155529887Y-59526914D01*
X155529887Y-59526914D02*
X155501315Y-59584057D01*
X155501315Y-59584057D02*
X155472744Y-59698342D01*
X155472744Y-59698342D02*
X155472744Y-59841200D01*
X155472744Y-59841200D02*
X155501315Y-59955485D01*
X155501315Y-59955485D02*
X155529887Y-60012628D01*
X155529887Y-60012628D02*
X155558458Y-60041200D01*
X155558458Y-60041200D02*
X155615601Y-60069771D01*
X155615601Y-60069771D02*
X155672744Y-60069771D01*
X155672744Y-60069771D02*
X155729887Y-60041200D01*
X155729887Y-60041200D02*
X155758458Y-60012628D01*
X155758458Y-60012628D02*
X155787029Y-59955485D01*
X155787029Y-59955485D02*
X155815601Y-59841200D01*
X155815601Y-59841200D02*
X155815601Y-59698342D01*
X155815601Y-59698342D02*
X155787029Y-59584057D01*
X155787029Y-59584057D02*
X155758458Y-59526914D01*
X155758458Y-59526914D02*
X155729887Y-59498342D01*
X155729887Y-59498342D02*
X155672744Y-59469771D01*
X154444172Y-60069771D02*
X154787029Y-60069771D01*
X154615600Y-60069771D02*
X154615600Y-59469771D01*
X154615600Y-59469771D02*
X154672743Y-59555485D01*
X154672743Y-59555485D02*
X154729886Y-59612628D01*
X154729886Y-59612628D02*
X154787029Y-59641200D01*
X154215600Y-59526914D02*
X154187028Y-59498342D01*
X154187028Y-59498342D02*
X154129886Y-59469771D01*
X154129886Y-59469771D02*
X153987028Y-59469771D01*
X153987028Y-59469771D02*
X153929886Y-59498342D01*
X153929886Y-59498342D02*
X153901314Y-59526914D01*
X153901314Y-59526914D02*
X153872743Y-59584057D01*
X153872743Y-59584057D02*
X153872743Y-59641200D01*
X153872743Y-59641200D02*
X153901314Y-59726914D01*
X153901314Y-59726914D02*
X154244171Y-60069771D01*
X154244171Y-60069771D02*
X153872743Y-60069771D01*
X153187028Y-59441200D02*
X153701314Y-60212628D01*
X153015600Y-59526914D02*
X152987028Y-59498342D01*
X152987028Y-59498342D02*
X152929886Y-59469771D01*
X152929886Y-59469771D02*
X152787028Y-59469771D01*
X152787028Y-59469771D02*
X152729886Y-59498342D01*
X152729886Y-59498342D02*
X152701314Y-59526914D01*
X152701314Y-59526914D02*
X152672743Y-59584057D01*
X152672743Y-59584057D02*
X152672743Y-59641200D01*
X152672743Y-59641200D02*
X152701314Y-59726914D01*
X152701314Y-59726914D02*
X153044171Y-60069771D01*
X153044171Y-60069771D02*
X152672743Y-60069771D01*
X152301314Y-59469771D02*
X152244171Y-59469771D01*
X152244171Y-59469771D02*
X152187028Y-59498342D01*
X152187028Y-59498342D02*
X152158457Y-59526914D01*
X152158457Y-59526914D02*
X152129885Y-59584057D01*
X152129885Y-59584057D02*
X152101314Y-59698342D01*
X152101314Y-59698342D02*
X152101314Y-59841200D01*
X152101314Y-59841200D02*
X152129885Y-59955485D01*
X152129885Y-59955485D02*
X152158457Y-60012628D01*
X152158457Y-60012628D02*
X152187028Y-60041200D01*
X152187028Y-60041200D02*
X152244171Y-60069771D01*
X152244171Y-60069771D02*
X152301314Y-60069771D01*
X152301314Y-60069771D02*
X152358457Y-60041200D01*
X152358457Y-60041200D02*
X152387028Y-60012628D01*
X152387028Y-60012628D02*
X152415599Y-59955485D01*
X152415599Y-59955485D02*
X152444171Y-59841200D01*
X152444171Y-59841200D02*
X152444171Y-59698342D01*
X152444171Y-59698342D02*
X152415599Y-59584057D01*
X152415599Y-59584057D02*
X152387028Y-59526914D01*
X152387028Y-59526914D02*
X152358457Y-59498342D01*
X152358457Y-59498342D02*
X152301314Y-59469771D01*
X151872742Y-59526914D02*
X151844170Y-59498342D01*
X151844170Y-59498342D02*
X151787028Y-59469771D01*
X151787028Y-59469771D02*
X151644170Y-59469771D01*
X151644170Y-59469771D02*
X151587028Y-59498342D01*
X151587028Y-59498342D02*
X151558456Y-59526914D01*
X151558456Y-59526914D02*
X151529885Y-59584057D01*
X151529885Y-59584057D02*
X151529885Y-59641200D01*
X151529885Y-59641200D02*
X151558456Y-59726914D01*
X151558456Y-59726914D02*
X151901313Y-60069771D01*
X151901313Y-60069771D02*
X151529885Y-60069771D01*
X151329884Y-59469771D02*
X150958456Y-59469771D01*
X150958456Y-59469771D02*
X151158456Y-59698342D01*
X151158456Y-59698342D02*
X151072741Y-59698342D01*
X151072741Y-59698342D02*
X151015599Y-59726914D01*
X151015599Y-59726914D02*
X150987027Y-59755485D01*
X150987027Y-59755485D02*
X150958456Y-59812628D01*
X150958456Y-59812628D02*
X150958456Y-59955485D01*
X150958456Y-59955485D02*
X150987027Y-60012628D01*
X150987027Y-60012628D02*
X151015599Y-60041200D01*
X151015599Y-60041200D02*
X151072741Y-60069771D01*
X151072741Y-60069771D02*
X151244170Y-60069771D01*
X151244170Y-60069771D02*
X151301313Y-60041200D01*
X151301313Y-60041200D02*
X151329884Y-60012628D01*
X156815601Y-60978628D02*
X156844173Y-61007200D01*
X156844173Y-61007200D02*
X156929887Y-61035771D01*
X156929887Y-61035771D02*
X156987030Y-61035771D01*
X156987030Y-61035771D02*
X157072744Y-61007200D01*
X157072744Y-61007200D02*
X157129887Y-60950057D01*
X157129887Y-60950057D02*
X157158458Y-60892914D01*
X157158458Y-60892914D02*
X157187030Y-60778628D01*
X157187030Y-60778628D02*
X157187030Y-60692914D01*
X157187030Y-60692914D02*
X157158458Y-60578628D01*
X157158458Y-60578628D02*
X157129887Y-60521485D01*
X157129887Y-60521485D02*
X157072744Y-60464342D01*
X157072744Y-60464342D02*
X156987030Y-60435771D01*
X156987030Y-60435771D02*
X156929887Y-60435771D01*
X156929887Y-60435771D02*
X156844173Y-60464342D01*
X156844173Y-60464342D02*
X156815601Y-60492914D01*
X156558458Y-60978628D02*
X156529887Y-61007200D01*
X156529887Y-61007200D02*
X156558458Y-61035771D01*
X156558458Y-61035771D02*
X156587030Y-61007200D01*
X156587030Y-61007200D02*
X156558458Y-60978628D01*
X156558458Y-60978628D02*
X156558458Y-61035771D01*
X155815601Y-61035771D02*
X155815601Y-60435771D01*
X155815601Y-60435771D02*
X155615601Y-60864342D01*
X155615601Y-60864342D02*
X155415601Y-60435771D01*
X155415601Y-60435771D02*
X155415601Y-61035771D01*
X154872745Y-61035771D02*
X154872745Y-60721485D01*
X154872745Y-60721485D02*
X154901316Y-60664342D01*
X154901316Y-60664342D02*
X154958459Y-60635771D01*
X154958459Y-60635771D02*
X155072745Y-60635771D01*
X155072745Y-60635771D02*
X155129887Y-60664342D01*
X154872745Y-61007200D02*
X154929887Y-61035771D01*
X154929887Y-61035771D02*
X155072745Y-61035771D01*
X155072745Y-61035771D02*
X155129887Y-61007200D01*
X155129887Y-61007200D02*
X155158459Y-60950057D01*
X155158459Y-60950057D02*
X155158459Y-60892914D01*
X155158459Y-60892914D02*
X155129887Y-60835771D01*
X155129887Y-60835771D02*
X155072745Y-60807200D01*
X155072745Y-60807200D02*
X154929887Y-60807200D01*
X154929887Y-60807200D02*
X154872745Y-60778628D01*
X154329888Y-60635771D02*
X154329888Y-61035771D01*
X154587030Y-60635771D02*
X154587030Y-60950057D01*
X154587030Y-60950057D02*
X154558459Y-61007200D01*
X154558459Y-61007200D02*
X154501316Y-61035771D01*
X154501316Y-61035771D02*
X154415602Y-61035771D01*
X154415602Y-61035771D02*
X154358459Y-61007200D01*
X154358459Y-61007200D02*
X154329888Y-60978628D01*
X153787031Y-61035771D02*
X153787031Y-60435771D01*
X153787031Y-61007200D02*
X153844173Y-61035771D01*
X153844173Y-61035771D02*
X153958459Y-61035771D01*
X153958459Y-61035771D02*
X154015602Y-61007200D01*
X154015602Y-61007200D02*
X154044173Y-60978628D01*
X154044173Y-60978628D02*
X154072745Y-60921485D01*
X154072745Y-60921485D02*
X154072745Y-60750057D01*
X154072745Y-60750057D02*
X154044173Y-60692914D01*
X154044173Y-60692914D02*
X154015602Y-60664342D01*
X154015602Y-60664342D02*
X153958459Y-60635771D01*
X153958459Y-60635771D02*
X153844173Y-60635771D01*
X153844173Y-60635771D02*
X153787031Y-60664342D01*
X153272745Y-61007200D02*
X153329888Y-61035771D01*
X153329888Y-61035771D02*
X153444174Y-61035771D01*
X153444174Y-61035771D02*
X153501316Y-61007200D01*
X153501316Y-61007200D02*
X153529888Y-60950057D01*
X153529888Y-60950057D02*
X153529888Y-60721485D01*
X153529888Y-60721485D02*
X153501316Y-60664342D01*
X153501316Y-60664342D02*
X153444174Y-60635771D01*
X153444174Y-60635771D02*
X153329888Y-60635771D01*
X153329888Y-60635771D02*
X153272745Y-60664342D01*
X153272745Y-60664342D02*
X153244174Y-60721485D01*
X153244174Y-60721485D02*
X153244174Y-60778628D01*
X153244174Y-60778628D02*
X153529888Y-60835771D01*
X152987030Y-61035771D02*
X152987030Y-60635771D01*
X152987030Y-60750057D02*
X152958459Y-60692914D01*
X152958459Y-60692914D02*
X152929888Y-60664342D01*
X152929888Y-60664342D02*
X152872745Y-60635771D01*
X152872745Y-60635771D02*
X152815602Y-60635771D01*
X152387030Y-61007200D02*
X152444173Y-61035771D01*
X152444173Y-61035771D02*
X152558459Y-61035771D01*
X152558459Y-61035771D02*
X152615601Y-61007200D01*
X152615601Y-61007200D02*
X152644173Y-60950057D01*
X152644173Y-60950057D02*
X152644173Y-60721485D01*
X152644173Y-60721485D02*
X152615601Y-60664342D01*
X152615601Y-60664342D02*
X152558459Y-60635771D01*
X152558459Y-60635771D02*
X152444173Y-60635771D01*
X152444173Y-60635771D02*
X152387030Y-60664342D01*
X152387030Y-60664342D02*
X152358459Y-60721485D01*
X152358459Y-60721485D02*
X152358459Y-60778628D01*
X152358459Y-60778628D02*
X152644173Y-60835771D01*
X152101315Y-61035771D02*
X152101315Y-60635771D01*
X152101315Y-60750057D02*
X152072744Y-60692914D01*
X152072744Y-60692914D02*
X152044173Y-60664342D01*
X152044173Y-60664342D02*
X151987030Y-60635771D01*
X151987030Y-60635771D02*
X151929887Y-60635771D01*
D12*
%TO.P,J2,1,Pin_1*%
%TO.N,/SlaveClock*%
X155100000Y-119900000D03*
D13*
%TO.P,J2,2,Pin_2*%
%TO.N,GND*%
X160100000Y-119900000D03*
%TD*%
D14*
%TO.P,H1,1*%
%TO.N,N/C*%
X147500000Y-61500000D03*
%TD*%
D15*
%TO.P,SW1,1,1*%
%TO.N,/Key1*%
X155750000Y-79750000D03*
X155750000Y-73250000D03*
%TO.P,SW1,2,2*%
%TO.N,GND*%
X160250000Y-79750000D03*
X160250000Y-73250000D03*
%TD*%
D16*
%TO.P,C5,1*%
%TO.N,Net-(C5-Pad1)*%
X145600000Y-116500000D03*
%TO.P,C5,2*%
%TO.N,/SlaveClock*%
X145600000Y-121500000D03*
%TD*%
D14*
%TO.P,H2,1*%
%TO.N,N/C*%
X160500000Y-107000000D03*
%TD*%
D17*
%TO.P,J3,1,Pin_1*%
%TO.N,+1V8*%
X150250000Y-66500000D03*
D18*
%TO.P,J3,2,Pin_2*%
%TO.N,/~{RESET}{slash}UPDI*%
X147710000Y-66500000D03*
%TO.P,J3,3,Pin_3*%
%TO.N,GND*%
X145170000Y-66500000D03*
%TD*%
D15*
%TO.P,SW2,1,1*%
%TO.N,/Key2*%
X155750000Y-92250000D03*
X155750000Y-85750000D03*
%TO.P,SW2,2,2*%
%TO.N,GND*%
X160250000Y-92250000D03*
X160250000Y-85750000D03*
%TD*%
D12*
%TO.P,J1,1,Pin_1*%
%TO.N,+BATT*%
X160100000Y-62900000D03*
D13*
%TO.P,J1,2,Pin_2*%
%TO.N,GND*%
X155100000Y-62900000D03*
%TD*%
D16*
%TO.P,C4,1*%
%TO.N,+24V*%
X145600000Y-107275000D03*
%TO.P,C4,2*%
%TO.N,GND*%
X145600000Y-102275000D03*
%TD*%
D19*
%TO.P,C13,1*%
%TO.N,+1V8*%
X148862500Y-74500000D03*
%TO.P,C13,2*%
%TO.N,GND*%
X147137500Y-74500000D03*
%TD*%
D20*
%TO.P,D1,1,K*%
%TO.N,+24V*%
X157000000Y-104400000D03*
%TO.P,D1,2,A*%
%TO.N,Net-(D1-A)*%
X157000000Y-101600000D03*
%TD*%
D21*
%TO.P,R10,1*%
%TO.N,Net-(Q1-B)*%
X147137500Y-90437500D03*
%TO.P,R10,2*%
%TO.N,GND*%
X148962500Y-90437500D03*
%TD*%
D22*
%TO.P,Q1,1,B*%
%TO.N,Net-(Q1-B)*%
X147100000Y-92500000D03*
%TO.P,Q1,2,E*%
%TO.N,GND*%
X149000000Y-92500000D03*
%TO.P,Q1,3,C*%
%TO.N,Net-(Q1-C)*%
X148050000Y-94375000D03*
%TD*%
D23*
%TO.P,C9,1*%
%TO.N,+1V8*%
X152500000Y-68462500D03*
%TO.P,C9,2*%
%TO.N,GND*%
X152500000Y-70537500D03*
%TD*%
D24*
%TO.P,R5,1*%
%TO.N,Net-(D2-K)*%
X150600000Y-92587500D03*
%TO.P,R5,2*%
%TO.N,Net-(Q1-C)*%
X150600000Y-94412500D03*
%TD*%
D25*
%TO.P,C12,1*%
%TO.N,/Key2*%
X155137500Y-90000000D03*
%TO.P,C12,2*%
%TO.N,GND*%
X156862500Y-90000000D03*
%TD*%
D21*
%TO.P,R13,1*%
%TO.N,Net-(U2-Vin)*%
X159587500Y-95500000D03*
%TO.P,R13,2*%
%TO.N,+BATT*%
X161412500Y-95500000D03*
%TD*%
D26*
%TO.P,REF\u002A\u002A,1*%
%TO.N,N/C*%
X152400000Y-123200000D03*
%TD*%
D19*
%TO.P,C14,1*%
%TO.N,+1V8*%
X148862500Y-69500000D03*
%TO.P,C14,2*%
%TO.N,GND*%
X147137500Y-69500000D03*
%TD*%
D27*
%TO.P,C6,1*%
%TO.N,Net-(U2-INTVCC)*%
X150500000Y-96637500D03*
%TO.P,C6,2*%
%TO.N,GND*%
X150500000Y-98362500D03*
%TD*%
D24*
%TO.P,R14,1*%
%TO.N,Net-(U4-VI)*%
X161500000Y-68587500D03*
%TO.P,R14,2*%
%TO.N,+BATT*%
X161500000Y-70412500D03*
%TD*%
D28*
%TO.P,R2,1*%
%TO.N,+24V*%
X150500000Y-105412500D03*
%TO.P,R2,2*%
%TO.N,Net-(U2-FBX)*%
X150500000Y-103587500D03*
%TD*%
%TO.P,R4,1*%
%TO.N,Net-(U2-FBX)*%
X150500000Y-101912500D03*
%TO.P,R4,2*%
%TO.N,GND*%
X150500000Y-100087500D03*
%TD*%
D29*
%TO.P,U2,1,SW*%
%TO.N,Net-(D1-A)*%
X154450000Y-101710000D03*
%TO.P,U2,2,GND*%
%TO.N,GND*%
X153500000Y-101710000D03*
%TO.P,U2,3,FBX*%
%TO.N,Net-(U2-FBX)*%
X152550000Y-101710000D03*
%TO.P,U2,4,EN/UVLO*%
%TO.N,Net-(U2-EN{slash}UVLO)*%
X152550000Y-98290000D03*
%TO.P,U2,5,INTVCC*%
%TO.N,Net-(U2-INTVCC)*%
X153500000Y-98290000D03*
%TO.P,U2,6,Vin*%
%TO.N,Net-(U2-Vin)*%
X154450000Y-98290000D03*
%TD*%
D30*
%TO.P,C1,1*%
%TO.N,+24V*%
X149000000Y-105362500D03*
%TO.P,C1,2*%
%TO.N,Net-(U2-FBX)*%
X149000000Y-103637500D03*
%TD*%
D31*
%TO.P,TP2,1,1*%
%TO.N,/MinPulse*%
X146000000Y-97000000D03*
%TD*%
%TO.P,TP1,1,1*%
%TO.N,/32kHz*%
X150800000Y-78600000D03*
%TD*%
D32*
%TO.P,U5,1,VCC*%
%TO.N,+1V8*%
X150905000Y-85975000D03*
%TO.P,U5,2,PA6*%
%TO.N,/Key1*%
X149635000Y-85975000D03*
%TO.P,U5,3,PA7*%
%TO.N,/Key2*%
X148365000Y-85975000D03*
%TO.P,U5,4,PA1*%
%TO.N,/MinPulse*%
X147095000Y-85975000D03*
%TO.P,U5,5,PA2*%
%TO.N,/LED*%
X147095000Y-81025000D03*
%TO.P,U5,6,~{RESET}/PA0*%
%TO.N,/~{RESET}{slash}UPDI*%
X148365000Y-81025000D03*
%TO.P,U5,7,PA3*%
%TO.N,/32kHz*%
X149635000Y-81025000D03*
%TO.P,U5,8,GND*%
%TO.N,GND*%
X150905000Y-81025000D03*
%TD*%
D25*
%TO.P,C11,1*%
%TO.N,/Key1*%
X155137500Y-75500000D03*
%TO.P,C11,2*%
%TO.N,GND*%
X156862500Y-75500000D03*
%TD*%
D26*
%TO.P,REF\u002A\u002A,1*%
%TO.N,N/C*%
X157480000Y-123200000D03*
%TD*%
D33*
%TO.P,L1,1,1*%
%TO.N,Net-(U2-Vin)*%
X160500000Y-97275000D03*
%TO.P,L1,2,2*%
%TO.N,Net-(D1-A)*%
X160500000Y-101725000D03*
%TD*%
D32*
%TO.P,U3,1,NULL*%
%TO.N,unconnected-(U3-NULL-Pad1)*%
X158905000Y-116275000D03*
%TO.P,U3,2,-*%
%TO.N,Net-(U1A--)*%
X157635000Y-116275000D03*
%TO.P,U3,3,+*%
%TO.N,/MinPulse*%
X156365000Y-116275000D03*
%TO.P,U3,4,V-*%
%TO.N,GND*%
X155095000Y-116275000D03*
%TO.P,U3,5,NULL*%
%TO.N,unconnected-(U3-NULL-Pad5)*%
X155095000Y-111325000D03*
%TO.P,U3,6*%
%TO.N,Net-(R11-Pad1)*%
X156365000Y-111325000D03*
%TO.P,U3,7,V+*%
%TO.N,+24V*%
X157635000Y-111325000D03*
%TO.P,U3,8,NC*%
%TO.N,unconnected-(U3-NC-Pad8)*%
X158905000Y-111325000D03*
%TD*%
D34*
%TO.P,R8,1*%
%TO.N,+1V8*%
X156912500Y-88000000D03*
%TO.P,R8,2*%
%TO.N,/Key2*%
X155087500Y-88000000D03*
%TD*%
D25*
%TO.P,C10,1*%
%TO.N,/~{RESET}{slash}UPDI*%
X147137500Y-78500000D03*
%TO.P,C10,2*%
%TO.N,GND*%
X148862500Y-78500000D03*
%TD*%
D30*
%TO.P,C7,1*%
%TO.N,+1V8*%
X152500000Y-84387500D03*
%TO.P,C7,2*%
%TO.N,GND*%
X152500000Y-82662500D03*
%TD*%
D34*
%TO.P,R9,1*%
%TO.N,/LED*%
X148962500Y-88937500D03*
%TO.P,R9,2*%
%TO.N,Net-(Q1-B)*%
X147137500Y-88937500D03*
%TD*%
%TO.P,R7,1*%
%TO.N,+1V8*%
X156912500Y-77500000D03*
%TO.P,R7,2*%
%TO.N,/Key1*%
X155087500Y-77500000D03*
%TD*%
D26*
%TO.P,REF\u002A\u002A,1*%
%TO.N,N/C*%
X154940000Y-123200000D03*
%TD*%
%TO.P,REF\u002A\u002A,1*%
%TO.N,N/C*%
X149860000Y-123200000D03*
%TD*%
D28*
%TO.P,R12,1*%
%TO.N,Net-(U2-EN{slash}UVLO)*%
X149000000Y-98412500D03*
%TO.P,R12,2*%
%TO.N,Net-(U2-Vin)*%
X149000000Y-96587500D03*
%TD*%
D34*
%TO.P,R6,1*%
%TO.N,+1V8*%
X148912500Y-77000000D03*
%TO.P,R6,2*%
%TO.N,/~{RESET}{slash}UPDI*%
X147087500Y-77000000D03*
%TD*%
D24*
%TO.P,R1,1*%
%TO.N,+1V8*%
X161000000Y-110887500D03*
%TO.P,R1,2*%
%TO.N,Net-(U1A--)*%
X161000000Y-112712500D03*
%TD*%
D35*
%TO.P,U4,1,VI*%
%TO.N,Net-(U4-VI)*%
X157137500Y-68550000D03*
%TO.P,U4,2,GND*%
%TO.N,GND*%
X157137500Y-69500000D03*
%TO.P,U4,3,NC*%
%TO.N,unconnected-(U4-NC-Pad3)*%
X157137500Y-70450000D03*
%TO.P,U4,4,NC*%
%TO.N,unconnected-(U4-NC-Pad4)*%
X154862500Y-70450000D03*
%TO.P,U4,5,VO*%
%TO.N,+1V8*%
X154862500Y-68550000D03*
%TD*%
D23*
%TO.P,C2,1*%
%TO.N,Net-(U2-Vin)*%
X157000000Y-97737500D03*
%TO.P,C2,2*%
%TO.N,GND*%
X157000000Y-99812500D03*
%TD*%
%TO.P,C8,1*%
%TO.N,Net-(U4-VI)*%
X159500000Y-68462500D03*
%TO.P,C8,2*%
%TO.N,GND*%
X159500000Y-70537500D03*
%TD*%
D32*
%TO.P,U1,1,+*%
%TO.N,/MinPulse*%
X151905000Y-116275000D03*
%TO.P,U1,2,V-*%
%TO.N,GND*%
X150635000Y-116275000D03*
%TO.P,U1,3,+*%
%TO.N,+1V8*%
X149365000Y-116275000D03*
%TO.P,U1,4,-*%
%TO.N,GND*%
X148095000Y-116275000D03*
%TO.P,U1,5*%
%TO.N,unconnected-(U1-Pad5)*%
X148095000Y-111325000D03*
%TO.P,U1,6,V+*%
%TO.N,+24V*%
X149365000Y-111325000D03*
%TO.P,U1,7*%
%TO.N,Net-(R11-Pad1)*%
X150635000Y-111325000D03*
%TO.P,U1,8,-*%
%TO.N,Net-(U1A--)*%
X151905000Y-111325000D03*
%TD*%
D26*
%TO.P,REF\u002A\u002A,1*%
%TO.N,N/C*%
X160020000Y-123190000D03*
%TD*%
%TO.P,REF\u002A\u002A,1*%
%TO.N,N/C*%
X162560000Y-123190000D03*
%TD*%
D36*
%TO.P,C3,1*%
%TO.N,+24V*%
X154537500Y-104500000D03*
%TO.P,C3,2*%
%TO.N,GND*%
X152462500Y-104500000D03*
%TD*%
D37*
%TO.P,X1,1,VIO*%
%TO.N,+1V8*%
X149325000Y-72600000D03*
%TO.P,X1,2,GND*%
%TO.N,GND*%
X146675000Y-72600000D03*
%TO.P,X1,3,OUT*%
%TO.N,/32kHz*%
X146675000Y-71400000D03*
%TO.P,X1,4,Vcc*%
%TO.N,+1V8*%
X149325000Y-71400000D03*
%TD*%
D26*
%TO.P,REF\u002A\u002A,1*%
%TO.N,N/C*%
X147320000Y-123200000D03*
%TD*%
D24*
%TO.P,R11,1*%
%TO.N,Net-(R11-Pad1)*%
X145500000Y-112587500D03*
%TO.P,R11,2*%
%TO.N,Net-(C5-Pad1)*%
X145500000Y-114412500D03*
%TD*%
%TO.P,R3,1*%
%TO.N,Net-(U1A--)*%
X161000000Y-114887500D03*
%TO.P,R3,2*%
%TO.N,GND*%
X161000000Y-116712500D03*
%TD*%
D38*
%TO.N,+BATT*%
X150300000Y-90500000D03*
%TO.N,GND*%
X162500000Y-81000000D03*
X150500000Y-118000000D03*
X149412500Y-100087500D03*
X153537500Y-69500000D03*
X148500000Y-118000000D03*
X145700000Y-74500000D03*
X161000000Y-118000000D03*
X145500000Y-72500000D03*
X160500000Y-99812500D03*
X152500000Y-80800000D03*
X153500000Y-100000000D03*
X152500000Y-103309502D03*
X150800000Y-76900000D03*
X155500000Y-100000000D03*
X163200000Y-65500000D03*
X145900000Y-69500000D03*
X152000000Y-100000000D03*
X158000000Y-90000000D03*
X159000000Y-99812500D03*
X149200000Y-94100000D03*
X158000000Y-75500000D03*
X155000000Y-118000000D03*
X151000000Y-83000000D03*
%TO.N,+1V8*%
X153000000Y-113000000D03*
X162700000Y-82500000D03*
X150955378Y-114244622D03*
X159100000Y-82500000D03*
%TO.N,/Key1*%
X155750000Y-82400000D03*
%TO.N,Net-(D2-K)*%
X150300000Y-91500000D03*
%TO.N,/MinPulse*%
X147600000Y-107400000D03*
X147000000Y-101000000D03*
%TD*%
D39*
%TO.N,+24V*%
X149000000Y-106500000D02*
X146275000Y-106500000D01*
X154000000Y-106500000D02*
X154500000Y-106000000D01*
X157635000Y-110135000D02*
X154000000Y-106500000D01*
D40*
X150500000Y-105412500D02*
X150500000Y-106500000D01*
D39*
X149365000Y-106535000D02*
X149400000Y-106500000D01*
X154500000Y-104537500D02*
X154500000Y-106000000D01*
X146275000Y-106500000D02*
X145500000Y-107275000D01*
X150500000Y-106500000D02*
X154000000Y-106500000D01*
X149365000Y-111325000D02*
X149365000Y-106535000D01*
X149400000Y-106500000D02*
X149000000Y-106500000D01*
X157635000Y-111325000D02*
X157635000Y-110135000D01*
X150500000Y-106500000D02*
X149400000Y-106500000D01*
D40*
X149000000Y-105362500D02*
X149000000Y-106500000D01*
D39*
X157000000Y-104400000D02*
X154637500Y-104400000D01*
D40*
%TO.N,Net-(U2-FBX)*%
X150500000Y-102750000D02*
X151000000Y-102750000D01*
X150500000Y-101912500D02*
X150500000Y-102750000D01*
X149250000Y-102750000D02*
X150500000Y-102750000D01*
X150500000Y-103587500D02*
X150500000Y-102750000D01*
X152040000Y-101710000D02*
X151000000Y-102750000D01*
X149000000Y-103637500D02*
X149000000Y-103000000D01*
X152550000Y-101710000D02*
X152040000Y-101710000D01*
X149000000Y-103000000D02*
X149250000Y-102750000D01*
D39*
%TO.N,+BATT*%
X162750000Y-79547918D02*
X162750000Y-70500000D01*
X161950000Y-94962500D02*
X161412500Y-95500000D01*
X160950000Y-81347918D02*
X162750000Y-79547918D01*
X160950000Y-84399390D02*
X160950000Y-81347918D01*
X162662500Y-70412500D02*
X161500000Y-70412500D01*
X161950000Y-85399390D02*
X160950000Y-84399390D01*
X161950000Y-93900000D02*
X161950000Y-85399390D01*
X162750000Y-70500000D02*
X162662500Y-70412500D01*
X162750000Y-67250000D02*
X160000000Y-64500000D01*
X162750000Y-70500000D02*
X162750000Y-67250000D01*
X161950000Y-93900000D02*
X161950000Y-94962500D01*
D40*
X154300000Y-93900000D02*
X161950000Y-93900000D01*
D39*
X160000000Y-64500000D02*
X160000000Y-63000000D01*
D40*
X150300000Y-90500000D02*
X150900000Y-90500000D01*
X150900000Y-90500000D02*
X154300000Y-93900000D01*
%TO.N,GND*%
X145500000Y-69900000D02*
X145900000Y-69500000D01*
D39*
X150635000Y-116275000D02*
X150635000Y-117865000D01*
X160500000Y-99812500D02*
X157000000Y-99812500D01*
X161687500Y-99812500D02*
X159000000Y-99812500D01*
X151500000Y-100000000D02*
X153500000Y-100000000D01*
X158200000Y-118200000D02*
X160000000Y-120000000D01*
D40*
X156862500Y-90000000D02*
X158000000Y-90000000D01*
D39*
X149412500Y-100087500D02*
X147225000Y-102275000D01*
X162650000Y-98850000D02*
X161687500Y-99812500D01*
D40*
X145900000Y-69500000D02*
X147137500Y-69500000D01*
D39*
X150635000Y-117865000D02*
X150500000Y-118000000D01*
X151500000Y-98750000D02*
X151500000Y-100000000D01*
X153500000Y-100000000D02*
X155750000Y-100000000D01*
X161650000Y-82000000D02*
X161650000Y-84109440D01*
D40*
X156862500Y-75500000D02*
X158000000Y-75500000D01*
D39*
X153500000Y-101710000D02*
X153500000Y-100000000D01*
X150905000Y-82205000D02*
X151000000Y-83000000D01*
X157000000Y-99812500D02*
X159000000Y-99812500D01*
D40*
X147137500Y-74500000D02*
X145700000Y-74500000D01*
D39*
X162500000Y-81150000D02*
X161650000Y-82000000D01*
D40*
X149200000Y-78500000D02*
X150800000Y-76900000D01*
X161000000Y-116712500D02*
X161000000Y-118000000D01*
D39*
X154000000Y-118150000D02*
X158350000Y-118150000D01*
X151000000Y-83000000D02*
X151362500Y-82662500D01*
X158350000Y-118150000D02*
X160100000Y-119900000D01*
X153500000Y-101710000D02*
X153500000Y-102985000D01*
X151112500Y-98362500D02*
X151500000Y-98750000D01*
X163450000Y-62950000D02*
X163450000Y-80050000D01*
D40*
X146675000Y-72600000D02*
X145500000Y-72600000D01*
D39*
X162650000Y-85109440D02*
X162650000Y-98850000D01*
D40*
X149000000Y-92500000D02*
X149000000Y-90475000D01*
D39*
X155095000Y-117905000D02*
X155000000Y-118000000D01*
D40*
X145500000Y-72600000D02*
X145500000Y-72500000D01*
D39*
X153537500Y-69500000D02*
X157137500Y-69500000D01*
D40*
X149000000Y-93900000D02*
X149200000Y-94100000D01*
X145700000Y-74500000D02*
X145500000Y-74300000D01*
D39*
X148550000Y-118150000D02*
X148095000Y-117695000D01*
X150500000Y-118000000D02*
X150635000Y-118135000D01*
X162500000Y-81000000D02*
X162500000Y-81150000D01*
X161300000Y-60800000D02*
X163450000Y-62950000D01*
X161650000Y-84109440D02*
X162650000Y-85109440D01*
X148550000Y-118150000D02*
X154400000Y-118150000D01*
X155750000Y-100000000D02*
X155937500Y-99812500D01*
D40*
X161000000Y-118000000D02*
X161000000Y-118800000D01*
D39*
X150635000Y-118135000D02*
X150635000Y-118165000D01*
D40*
X145500000Y-74300000D02*
X145500000Y-72600000D01*
X149000000Y-92500000D02*
X149000000Y-93900000D01*
D39*
X148500000Y-118000000D02*
X148500000Y-118100000D01*
X151362500Y-82662500D02*
X152500000Y-82662500D01*
X155095000Y-116275000D02*
X155095000Y-117905000D01*
X147225000Y-102275000D02*
X145500000Y-102275000D01*
X150500000Y-98362500D02*
X151112500Y-98362500D01*
D40*
X160000000Y-119800000D02*
X161000000Y-118800000D01*
D39*
X158462500Y-69500000D02*
X159500000Y-70537500D01*
X148095000Y-116275000D02*
X148095000Y-117695000D01*
X155000000Y-63000000D02*
X156200000Y-63000000D01*
X148400000Y-118000000D02*
X148500000Y-118000000D01*
X153537500Y-69500000D02*
X152500000Y-70537500D01*
X157137500Y-69500000D02*
X158462500Y-69500000D01*
X163450000Y-80050000D02*
X162500000Y-81000000D01*
X154000000Y-118150000D02*
X154400000Y-118150000D01*
X150905000Y-81025000D02*
X150905000Y-82205000D01*
X155937500Y-99812500D02*
X157000000Y-99812500D01*
X152462500Y-104022500D02*
X152462500Y-104500000D01*
X150500000Y-100087500D02*
X149412500Y-100087500D01*
X153500000Y-102985000D02*
X152462500Y-104022500D01*
D40*
X145500000Y-72500000D02*
X145500000Y-69900000D01*
D39*
X152500000Y-82662500D02*
X152500000Y-80800000D01*
X148095000Y-117695000D02*
X148400000Y-118000000D01*
X150500000Y-100000000D02*
X151500000Y-100000000D01*
X156200000Y-63000000D02*
X158400000Y-60800000D01*
X158400000Y-60800000D02*
X161300000Y-60800000D01*
%TO.N,Net-(C5-Pad1)*%
X145500000Y-114712500D02*
X145500000Y-116500000D01*
%TO.N,/SlaveClock*%
X147000000Y-120000000D02*
X155000000Y-120000000D01*
X145500000Y-121500000D02*
X147000000Y-120000000D01*
%TO.N,Net-(U2-INTVCC)*%
X153500000Y-98290000D02*
X153500000Y-97000000D01*
X151500000Y-96250000D02*
X151112500Y-96637500D01*
X151112500Y-96637500D02*
X150500000Y-96637500D01*
X153500000Y-97000000D02*
X152750000Y-96250000D01*
X152750000Y-96250000D02*
X151500000Y-96250000D01*
D40*
%TO.N,+1V8*%
X150155378Y-114244622D02*
X149365000Y-115035000D01*
D39*
X151600000Y-75700000D02*
X151900000Y-76000000D01*
D40*
X150800000Y-72600000D02*
X150900000Y-72700000D01*
X159800000Y-103100000D02*
X162100000Y-103100000D01*
D39*
X150900000Y-68500000D02*
X150937500Y-68462500D01*
D40*
X150955378Y-114244622D02*
X150155378Y-114244622D01*
X156912500Y-88000000D02*
X157500000Y-88000000D01*
D39*
X150900000Y-75000000D02*
X150900000Y-74500000D01*
X151900000Y-76000000D02*
X151150000Y-75250000D01*
X150905000Y-85975000D02*
X150905000Y-84695000D01*
X150900000Y-69500000D02*
X150900000Y-68500000D01*
D40*
X158000000Y-87500000D02*
X158000000Y-81400000D01*
D39*
X153500000Y-79800000D02*
X153500000Y-81400000D01*
X150937500Y-68462500D02*
X152500000Y-68462500D01*
D40*
X153000000Y-113000000D02*
X159458278Y-113000000D01*
D39*
X150900000Y-74500000D02*
X150900000Y-72700000D01*
D40*
X157500000Y-77500000D02*
X156912500Y-77500000D01*
X159458278Y-113000000D02*
X160000000Y-112458278D01*
X159200000Y-110000000D02*
X158500000Y-110000000D01*
D39*
X152700000Y-79000000D02*
X153500000Y-79800000D01*
D40*
X160087500Y-110887500D02*
X160000000Y-110800000D01*
X157000000Y-105900000D02*
X159800000Y-103100000D01*
X157500000Y-88000000D02*
X158000000Y-87500000D01*
X148862500Y-74500000D02*
X150900000Y-74500000D01*
D39*
X150900000Y-67275000D02*
X150025000Y-66400000D01*
X151150000Y-75250000D02*
X150900000Y-75000000D01*
X150900000Y-68500000D02*
X150900000Y-67562500D01*
X151212500Y-84387500D02*
X152500000Y-84387500D01*
X150905000Y-84695000D02*
X151212500Y-84387500D01*
D40*
X149365000Y-116275000D02*
X149365000Y-115035000D01*
D39*
X150900000Y-71400000D02*
X150900000Y-69500000D01*
D40*
X163200000Y-84000000D02*
X162700000Y-83500000D01*
X162100000Y-103100000D02*
X163200000Y-102000000D01*
X161000000Y-110887500D02*
X160087500Y-110887500D01*
X160000000Y-112458278D02*
X160000000Y-110800000D01*
X148862500Y-69500000D02*
X150900000Y-69500000D01*
D39*
X153500000Y-83387500D02*
X152500000Y-84387500D01*
X153500000Y-81400000D02*
X158000000Y-81400000D01*
X153500000Y-81400000D02*
X153500000Y-83387500D01*
X158000000Y-81400000D02*
X159100000Y-82500000D01*
D40*
X148912500Y-77000000D02*
X149400000Y-77000000D01*
X162700000Y-83500000D02*
X162700000Y-82500000D01*
X163200000Y-102000000D02*
X163200000Y-84000000D01*
X149325000Y-72600000D02*
X150800000Y-72600000D01*
D39*
X152700000Y-76800000D02*
X152700000Y-79000000D01*
X154862500Y-68550000D02*
X152587500Y-68550000D01*
D40*
X158000000Y-81400000D02*
X158000000Y-78000000D01*
D39*
X150900000Y-75000000D02*
X152700000Y-76800000D01*
X150900000Y-72700000D02*
X150900000Y-71400000D01*
D40*
X158000000Y-78000000D02*
X157500000Y-77500000D01*
X149325000Y-71400000D02*
X150900000Y-71400000D01*
X149400000Y-77000000D02*
X151150000Y-75250000D01*
X160087500Y-110887500D02*
X159200000Y-110000000D01*
X157000000Y-108500000D02*
X157000000Y-105900000D01*
X158500000Y-110000000D02*
X157000000Y-108500000D01*
D39*
X150900000Y-68500000D02*
X150900000Y-67275000D01*
D40*
%TO.N,/~{RESET}{slash}UPDI*%
X144800000Y-69085000D02*
X147485000Y-66400000D01*
X148365000Y-81025000D02*
X148365000Y-80050001D01*
X148365000Y-80050001D02*
X147709999Y-79395000D01*
X146100000Y-78500000D02*
X146100000Y-77000000D01*
X144800000Y-75700000D02*
X144800000Y-69085000D01*
X146100000Y-77000000D02*
X144800000Y-75700000D01*
X147087500Y-77000000D02*
X146100000Y-77000000D01*
X147137500Y-78500000D02*
X146100000Y-78500000D01*
X146495000Y-79395000D02*
X146100000Y-79000000D01*
X146100000Y-79000000D02*
X146100000Y-78500000D01*
X147709999Y-79395000D02*
X146495000Y-79395000D01*
%TO.N,/Key2*%
X155750000Y-85750000D02*
X154000000Y-87500000D01*
X148365000Y-87365000D02*
X149000000Y-88000000D01*
X149000000Y-88000000D02*
X154000000Y-88000000D01*
X155137500Y-90000000D02*
X154000000Y-90000000D01*
X154000000Y-87500000D02*
X154000000Y-88000000D01*
X148365000Y-85975000D02*
X148365000Y-87365000D01*
X154000000Y-90500000D02*
X154000000Y-90000000D01*
X154000000Y-88000000D02*
X154000000Y-90000000D01*
X155750000Y-92250000D02*
X154000000Y-90500000D01*
X155087500Y-88000000D02*
X154000000Y-88000000D01*
%TO.N,/Key1*%
X149635000Y-86949999D02*
X149935001Y-87250000D01*
X151950000Y-87250000D02*
X153200000Y-86000000D01*
X154900000Y-84300000D02*
X155500500Y-83699500D01*
X154100000Y-74900000D02*
X154100000Y-75500000D01*
X155137500Y-75500000D02*
X154100000Y-75500000D01*
X149935001Y-87250000D02*
X151950000Y-87250000D01*
X153200000Y-86000000D02*
X154900000Y-84300000D01*
X155750000Y-82400000D02*
X155750000Y-83450000D01*
X155750000Y-73250000D02*
X154100000Y-74900000D01*
X154100000Y-75500000D02*
X154100000Y-77500000D01*
X149635000Y-85975000D02*
X149635000Y-86949999D01*
X155087500Y-77500000D02*
X154100000Y-77500000D01*
X155750000Y-83450000D02*
X153200000Y-86000000D01*
X154100000Y-78100000D02*
X155750000Y-79750000D01*
X154100000Y-77500000D02*
X154100000Y-78100000D01*
D39*
%TO.N,Net-(D1-A)*%
X154450000Y-101710000D02*
X160485000Y-101710000D01*
D40*
%TO.N,Net-(D2-K)*%
X150600000Y-91800000D02*
X150300000Y-91500000D01*
X150600000Y-92587500D02*
X150600000Y-91800000D01*
%TO.N,Net-(Q1-C)*%
X148300000Y-95500000D02*
X149512500Y-95500000D01*
X148050000Y-95250000D02*
X148300000Y-95500000D01*
X148050000Y-94375000D02*
X148050000Y-95250000D01*
X149512500Y-95500000D02*
X150600000Y-94412500D01*
%TO.N,Net-(Q1-B)*%
X147137500Y-88937500D02*
X147137500Y-90437500D01*
X147137500Y-90437500D02*
X147137500Y-92462500D01*
%TO.N,Net-(U1A--)*%
X160900000Y-113900000D02*
X161000000Y-113800000D01*
X152400000Y-113900000D02*
X160900000Y-113900000D01*
X151905000Y-111325000D02*
X151905000Y-113405000D01*
X151905000Y-113405000D02*
X152400000Y-113900000D01*
X161000000Y-113800000D02*
X161000000Y-112712500D01*
X161000000Y-114887500D02*
X161000000Y-113800000D01*
X157635000Y-116275000D02*
X157635000Y-113935000D01*
%TO.N,/LED*%
X147700000Y-87675000D02*
X148962500Y-88937500D01*
X147700000Y-83600000D02*
X147700000Y-87675000D01*
X147095000Y-81025000D02*
X147095000Y-82995000D01*
X147095000Y-82995000D02*
X147700000Y-83600000D01*
%TO.N,/MinPulse*%
X147600000Y-107400000D02*
X144725000Y-110275000D01*
X145900000Y-99900000D02*
X145900000Y-88500000D01*
X145900000Y-99900000D02*
X147000000Y-101000000D01*
X144725000Y-110275000D02*
X144725000Y-113066722D01*
X151905000Y-114505000D02*
X151900000Y-114500000D01*
X151900000Y-114800000D02*
X151905000Y-114805000D01*
X151900000Y-114500000D02*
X155900000Y-114500000D01*
X144725000Y-113066722D02*
X145158278Y-113500000D01*
X151905000Y-114205000D02*
X151905000Y-114505000D01*
X147095000Y-85975000D02*
X147095000Y-87305000D01*
X156365000Y-116275000D02*
X156365000Y-114965000D01*
X145158278Y-113500000D02*
X151200000Y-113500000D01*
X156365000Y-114965000D02*
X155900000Y-114500000D01*
X147095000Y-87305000D02*
X145900000Y-88500000D01*
X151905000Y-114805000D02*
X151905000Y-116275000D01*
X151905000Y-116275000D02*
X151905000Y-114505000D01*
X151200000Y-113500000D02*
X151905000Y-114205000D01*
%TO.N,/32kHz*%
X148025000Y-72025000D02*
X148025000Y-78966722D01*
X149635000Y-79565000D02*
X149700000Y-79500000D01*
X149570000Y-79500000D02*
X149635000Y-79565000D01*
X148558278Y-79500000D02*
X148900000Y-79500000D01*
X148900000Y-79500000D02*
X149900000Y-79500000D01*
X147400000Y-71400000D02*
X148025000Y-72025000D01*
X148900000Y-79500000D02*
X149570000Y-79500000D01*
X149700000Y-79500000D02*
X149900000Y-79500000D01*
X149635000Y-81025000D02*
X149635000Y-79565000D01*
X149900000Y-79500000D02*
X150800000Y-78600000D01*
X148025000Y-78966722D02*
X148558278Y-79500000D01*
X146675000Y-71400000D02*
X147400000Y-71400000D01*
D39*
%TO.N,Net-(R11-Pad1)*%
X146700000Y-112587500D02*
X145500000Y-112587500D01*
X149912500Y-112887500D02*
X147000000Y-112887500D01*
X150635000Y-112165000D02*
X149912500Y-112887500D01*
X150635000Y-109665000D02*
X150635000Y-111325000D01*
X150635000Y-111325000D02*
X150635000Y-112165000D01*
X155550000Y-109150000D02*
X151150000Y-109150000D01*
X156365000Y-111325000D02*
X156365000Y-109965000D01*
X156365000Y-109965000D02*
X155550000Y-109150000D01*
X151150000Y-109150000D02*
X150635000Y-109665000D01*
X147000000Y-112887500D02*
X146700000Y-112587500D01*
D40*
%TO.N,Net-(U2-EN{slash}UVLO)*%
X152550000Y-97050000D02*
X152550000Y-98290000D01*
X149250000Y-97500000D02*
X151136396Y-97500000D01*
X151136396Y-97500000D02*
X151761396Y-96875000D01*
X149000000Y-97750000D02*
X149250000Y-97500000D01*
X152375000Y-96875000D02*
X152550000Y-97050000D01*
X149000000Y-98412500D02*
X149000000Y-97750000D01*
X151761396Y-96875000D02*
X152375000Y-96875000D01*
D39*
%TO.N,Net-(U4-VI)*%
X158450000Y-68550000D02*
X157137500Y-68550000D01*
X159500000Y-68462500D02*
X158537500Y-68462500D01*
X161500000Y-68587500D02*
X159625000Y-68587500D01*
X158537500Y-68462500D02*
X158450000Y-68550000D01*
%TO.N,Net-(U2-Vin)*%
X157000000Y-97737500D02*
X160037500Y-97737500D01*
X155802500Y-97737500D02*
X155250000Y-98290000D01*
X159587500Y-95500000D02*
X158000000Y-95500000D01*
X160037500Y-97737500D02*
X160500000Y-97275000D01*
X157000000Y-97737500D02*
X155802500Y-97737500D01*
X157000000Y-96500000D02*
X157000000Y-97737500D01*
D40*
X153200000Y-95700000D02*
X154450000Y-96950000D01*
X149000000Y-96587500D02*
X149887500Y-95700000D01*
D39*
X158000000Y-95500000D02*
X157000000Y-96500000D01*
X154450000Y-98290000D02*
X155250000Y-98290000D01*
D40*
X154450000Y-96950000D02*
X154450000Y-98290000D01*
X149887500Y-95700000D02*
X153200000Y-95700000D01*
%TD*%
M02*
