%TF.GenerationSoftware,KiCad,Pcbnew,7.0.10*%
%TF.CreationDate,2024-01-02T15:41:24+01:00*%
%TF.ProjectId,Master_Clock,4d617374-6572-45f4-936c-6f636b2e6b69,1.0*%
%TF.SameCoordinates,Original*%
%TF.FileFunction,Copper,L1,Top*%
%TF.FilePolarity,Positive*%
%FSLAX46Y46*%
G04 Gerber Fmt 4.6, Leading zero omitted, Abs format (unit mm)*
G04 Created by KiCad (PCBNEW 7.0.10) date 2024-01-02 15:41:24*
%MOMM*%
%LPD*%
G01*
G04 APERTURE LIST*
G04 Aperture macros list*
%AMRoundRect*
0 Rectangle with rounded corners*
0 $1 Rounding radius*
0 $2 $3 $4 $5 $6 $7 $8 $9 X,Y pos of 4 corners*
0 Add a 4 corners polygon primitive as box body*
4,1,4,$2,$3,$4,$5,$6,$7,$8,$9,$2,$3,0*
0 Add four circle primitives for the rounded corners*
1,1,$1+$1,$2,$3*
1,1,$1+$1,$4,$5*
1,1,$1+$1,$6,$7*
1,1,$1+$1,$8,$9*
0 Add four rect primitives between the rounded corners*
20,1,$1+$1,$2,$3,$4,$5,0*
20,1,$1+$1,$4,$5,$6,$7,0*
20,1,$1+$1,$6,$7,$8,$9,0*
20,1,$1+$1,$8,$9,$2,$3,0*%
G04 Aperture macros list end*
%TA.AperFunction,ComponentPad*%
%ADD10R,2.600000X2.600000*%
%TD*%
%TA.AperFunction,ComponentPad*%
%ADD11C,2.600000*%
%TD*%
%TA.AperFunction,ComponentPad*%
%ADD12C,5.700000*%
%TD*%
%TA.AperFunction,ComponentPad*%
%ADD13C,2.000000*%
%TD*%
%TA.AperFunction,ComponentPad*%
%ADD14C,1.600000*%
%TD*%
%TA.AperFunction,ComponentPad*%
%ADD15R,1.700000X1.700000*%
%TD*%
%TA.AperFunction,ComponentPad*%
%ADD16O,1.700000X1.700000*%
%TD*%
%TA.AperFunction,SMDPad,CuDef*%
%ADD17RoundRect,0.237500X0.237500X-0.287500X0.237500X0.287500X-0.237500X0.287500X-0.237500X-0.287500X0*%
%TD*%
%TA.AperFunction,ViaPad*%
%ADD18C,0.800000*%
%TD*%
%TA.AperFunction,Conductor*%
%ADD19C,0.200000*%
%TD*%
%TA.AperFunction,Conductor*%
%ADD20C,0.500000*%
%TD*%
G04 APERTURE END LIST*
D10*
%TO.P,J2,1,Pin_1*%
%TO.N,/SlaveClock*%
X155100000Y-119900000D03*
D11*
%TO.P,J2,2,Pin_2*%
%TO.N,GND*%
X160100000Y-119900000D03*
%TD*%
D12*
%TO.P,H1,1*%
%TO.N,N/C*%
X147500000Y-61500000D03*
%TD*%
D13*
%TO.P,SW1,1,1*%
%TO.N,/Key1*%
X155750000Y-79750000D03*
X155750000Y-73250000D03*
%TO.P,SW1,2,2*%
%TO.N,GND*%
X160250000Y-79750000D03*
X160250000Y-73250000D03*
%TD*%
D14*
%TO.P,C5,1*%
%TO.N,Net-(C5-Pad1)*%
X145600000Y-116500000D03*
%TO.P,C5,2*%
%TO.N,/SlaveClock*%
X145600000Y-121500000D03*
%TD*%
D12*
%TO.P,H2,1*%
%TO.N,N/C*%
X160500000Y-107000000D03*
%TD*%
D15*
%TO.P,J3,1,Pin_1*%
%TO.N,+1V8*%
X150250000Y-66500000D03*
D16*
%TO.P,J3,2,Pin_2*%
%TO.N,/~{RESET}{slash}UPDI*%
X147710000Y-66500000D03*
%TO.P,J3,3,Pin_3*%
%TO.N,GND*%
X145170000Y-66500000D03*
%TD*%
D13*
%TO.P,SW2,1,1*%
%TO.N,/Key2*%
X155750000Y-92250000D03*
X155750000Y-85750000D03*
%TO.P,SW2,2,2*%
%TO.N,GND*%
X160250000Y-92250000D03*
X160250000Y-85750000D03*
%TD*%
D10*
%TO.P,J1,1,Pin_1*%
%TO.N,+BATT*%
X160100000Y-62900000D03*
D11*
%TO.P,J1,2,Pin_2*%
%TO.N,GND*%
X155100000Y-62900000D03*
%TD*%
D17*
%TO.P,D2,1,K*%
%TO.N,Net-(D2-K)*%
X147000000Y-90375000D03*
%TO.P,D2,2,A*%
%TO.N,+BATT*%
X147000000Y-88625000D03*
%TD*%
D14*
%TO.P,C4,1*%
%TO.N,+24V*%
X145600000Y-107275000D03*
%TO.P,C4,2*%
%TO.N,GND*%
X145600000Y-102275000D03*
%TD*%
D18*
%TO.N,+BATT*%
X150300000Y-90500000D03*
%TO.N,GND*%
X162500000Y-81000000D03*
X150500000Y-118000000D03*
X149412500Y-100087500D03*
X153537500Y-69500000D03*
X148500000Y-118000000D03*
X145700000Y-74500000D03*
X161000000Y-118000000D03*
X145500000Y-72500000D03*
X160500000Y-99812500D03*
X152500000Y-80800000D03*
X153500000Y-100000000D03*
X152500000Y-103309502D03*
X150800000Y-76900000D03*
X155500000Y-100000000D03*
X163200000Y-65500000D03*
X145900000Y-69500000D03*
X152000000Y-100000000D03*
X158000000Y-90000000D03*
X159000000Y-99812500D03*
X149200000Y-94100000D03*
X158000000Y-75500000D03*
X155000000Y-118000000D03*
X151000000Y-83000000D03*
%TO.N,+1V8*%
X153000000Y-113000000D03*
X162700000Y-82500000D03*
X150955378Y-114244622D03*
X159100000Y-82500000D03*
%TO.N,/Key1*%
X155750000Y-82400000D03*
%TO.N,Net-(D2-K)*%
X150300000Y-91500000D03*
%TO.N,/MinPulse*%
X147600000Y-107400000D03*
X147000000Y-101000000D03*
%TD*%
D19*
%TO.N,+BATT*%
X147725000Y-88625000D02*
X147000000Y-88625000D01*
X149600000Y-90500000D02*
X147725000Y-88625000D01*
X150300000Y-90500000D02*
X149600000Y-90500000D01*
%TO.N,GND*%
X150800000Y-76900000D02*
X154000000Y-76900000D01*
X158000000Y-90000000D02*
X154000000Y-90000000D01*
D20*
X154000000Y-94100000D02*
X154000000Y-90000000D01*
X154000000Y-94100000D02*
X154000000Y-109300000D01*
X160000000Y-115300000D02*
X160000000Y-120000000D01*
X154000000Y-76900000D02*
X154000000Y-75500000D01*
D19*
X149200000Y-94100000D02*
X154000000Y-94100000D01*
X158000000Y-75500000D02*
X154000000Y-75500000D01*
D20*
X154000000Y-90000000D02*
X154000000Y-76900000D01*
X155000000Y-71000000D02*
X155000000Y-69400000D01*
D19*
X154900000Y-69500000D02*
X155000000Y-69400000D01*
X145700000Y-74500000D02*
X154000000Y-74500000D01*
D20*
X154000000Y-75500000D02*
X154000000Y-74500000D01*
X154000000Y-109300000D02*
X160000000Y-115300000D01*
X160187500Y-99500000D02*
X154000000Y-99500000D01*
X155000000Y-69400000D02*
X155000000Y-63000000D01*
X154000000Y-72000000D02*
X155000000Y-71000000D01*
D19*
X145900000Y-69500000D02*
X154900000Y-69500000D01*
D20*
X154000000Y-74500000D02*
X154000000Y-72000000D01*
X160500000Y-99812500D02*
X160187500Y-99500000D01*
D19*
%TO.N,+1V8*%
X162700000Y-82500000D02*
X159100000Y-82500000D01*
X152200000Y-113000000D02*
X153000000Y-113000000D01*
X150955378Y-114244622D02*
X152200000Y-113000000D01*
%TO.N,/Key1*%
X155750000Y-82400000D02*
X155750000Y-79750000D01*
%TO.N,Net-(D2-K)*%
X150000000Y-91500000D02*
X150300000Y-91500000D01*
X148875000Y-90375000D02*
X150000000Y-91500000D01*
X147000000Y-90375000D02*
X148875000Y-90375000D01*
%TO.N,/MinPulse*%
X147000000Y-101000000D02*
X147600000Y-101600000D01*
X147600000Y-101600000D02*
X147600000Y-107400000D01*
%TD*%
%TA.AperFunction,Conductor*%
%TO.N,GND*%
G36*
X163658691Y-58319407D02*
G01*
X163694655Y-58368907D01*
X163699500Y-58399500D01*
X163699500Y-106445944D01*
X163680593Y-106504135D01*
X163631093Y-106540099D01*
X163569907Y-106540099D01*
X163520407Y-106504135D01*
X163502899Y-106462527D01*
X163478706Y-106320141D01*
X163478702Y-106320123D01*
X163469728Y-106288974D01*
X163383853Y-105990896D01*
X163252736Y-105674352D01*
X163252734Y-105674347D01*
X163087004Y-105374483D01*
X163087002Y-105374479D01*
X162888735Y-105095047D01*
X162723249Y-104909868D01*
X162660434Y-104839578D01*
X162660421Y-104839565D01*
X162578415Y-104766280D01*
X162404953Y-104611265D01*
X162125521Y-104412998D01*
X162125516Y-104412995D01*
X161825651Y-104247265D01*
X161825652Y-104247265D01*
X161509102Y-104116146D01*
X161179876Y-104021297D01*
X161179858Y-104021293D01*
X160842096Y-103963905D01*
X160842076Y-103963902D01*
X160500005Y-103944693D01*
X160499995Y-103944693D01*
X160157923Y-103963902D01*
X160157903Y-103963905D01*
X159820141Y-104021293D01*
X159820123Y-104021297D01*
X159490897Y-104116146D01*
X159174347Y-104247265D01*
X158874483Y-104412995D01*
X158874479Y-104412998D01*
X158595047Y-104611265D01*
X158520031Y-104678302D01*
X158339578Y-104839565D01*
X158339565Y-104839578D01*
X158178302Y-105020031D01*
X158111265Y-105095047D01*
X158111263Y-105095050D01*
X157912995Y-105374483D01*
X157747265Y-105674347D01*
X157616146Y-105990897D01*
X157521297Y-106320123D01*
X157521293Y-106320141D01*
X157463905Y-106657903D01*
X157463902Y-106657923D01*
X157444693Y-106999995D01*
X157444693Y-107000004D01*
X157463902Y-107342076D01*
X157463905Y-107342096D01*
X157521293Y-107679858D01*
X157521297Y-107679876D01*
X157616146Y-108009102D01*
X157747265Y-108325652D01*
X157912995Y-108625516D01*
X157912998Y-108625521D01*
X158111265Y-108904953D01*
X158266280Y-109078415D01*
X158339565Y-109160421D01*
X158339578Y-109160434D01*
X158409868Y-109223249D01*
X158595047Y-109388735D01*
X158874479Y-109587002D01*
X158874483Y-109587004D01*
X159174348Y-109752734D01*
X159174347Y-109752734D01*
X159174352Y-109752736D01*
X159490896Y-109883853D01*
X159820130Y-109978704D01*
X159820138Y-109978705D01*
X159820141Y-109978706D01*
X159989022Y-110007400D01*
X160157914Y-110036096D01*
X160157917Y-110036096D01*
X160157923Y-110036097D01*
X160499995Y-110055307D01*
X160500000Y-110055307D01*
X160500005Y-110055307D01*
X160842076Y-110036097D01*
X160842080Y-110036096D01*
X160842086Y-110036096D01*
X161179870Y-109978704D01*
X161509104Y-109883853D01*
X161825648Y-109752736D01*
X162125521Y-109587002D01*
X162404953Y-109388735D01*
X162660428Y-109160428D01*
X162888735Y-108904953D01*
X163087002Y-108625521D01*
X163252736Y-108325648D01*
X163383853Y-108009104D01*
X163478704Y-107679870D01*
X163482126Y-107659727D01*
X163502899Y-107537472D01*
X163531286Y-107483270D01*
X163586111Y-107456106D01*
X163646432Y-107466355D01*
X163689208Y-107510103D01*
X163699500Y-107554055D01*
X163699500Y-124600500D01*
X163680593Y-124658691D01*
X163631093Y-124694655D01*
X163600500Y-124699500D01*
X144399500Y-124699500D01*
X144341309Y-124680593D01*
X144305345Y-124631093D01*
X144300500Y-124600500D01*
X144300500Y-121500003D01*
X144594659Y-121500003D01*
X144613974Y-121696126D01*
X144613975Y-121696129D01*
X144671187Y-121884730D01*
X144671188Y-121884732D01*
X144742218Y-122017618D01*
X144764090Y-122058538D01*
X144764092Y-122058540D01*
X144764093Y-122058542D01*
X144889112Y-122210878D01*
X144889121Y-122210887D01*
X145041457Y-122335906D01*
X145041462Y-122335910D01*
X145215273Y-122428814D01*
X145403868Y-122486024D01*
X145403870Y-122486024D01*
X145403873Y-122486025D01*
X145599997Y-122505341D01*
X145600000Y-122505341D01*
X145600003Y-122505341D01*
X145796126Y-122486025D01*
X145796127Y-122486024D01*
X145796132Y-122486024D01*
X145984727Y-122428814D01*
X146158538Y-122335910D01*
X146310883Y-122210883D01*
X146435910Y-122058538D01*
X146528814Y-121884727D01*
X146586024Y-121696132D01*
X146605341Y-121500000D01*
X146605341Y-121499996D01*
X146586025Y-121303873D01*
X146586024Y-121303870D01*
X146586024Y-121303868D01*
X146560506Y-121219746D01*
X153599500Y-121219746D01*
X153599501Y-121219758D01*
X153611132Y-121278227D01*
X153611134Y-121278233D01*
X153632659Y-121310447D01*
X153655448Y-121344552D01*
X153721769Y-121388867D01*
X153766231Y-121397711D01*
X153780241Y-121400498D01*
X153780246Y-121400498D01*
X153780252Y-121400500D01*
X153780253Y-121400500D01*
X156419747Y-121400500D01*
X156419748Y-121400500D01*
X156478231Y-121388867D01*
X156544552Y-121344552D01*
X156588867Y-121278231D01*
X156600500Y-121219748D01*
X156600500Y-119900000D01*
X158645031Y-119900000D01*
X158664874Y-120139478D01*
X158723865Y-120372428D01*
X158820392Y-120592488D01*
X158820395Y-120592493D01*
X158912687Y-120733756D01*
X159497451Y-120148991D01*
X159507188Y-120178956D01*
X159595186Y-120317619D01*
X159714903Y-120430040D01*
X159849511Y-120504041D01*
X159265573Y-121087980D01*
X159304203Y-121118048D01*
X159304207Y-121118051D01*
X159515542Y-121232420D01*
X159742829Y-121310447D01*
X159979850Y-121350000D01*
X160220150Y-121350000D01*
X160457170Y-121310447D01*
X160684457Y-121232420D01*
X160895788Y-121118053D01*
X160934425Y-121087980D01*
X160347532Y-120501087D01*
X160415629Y-120474126D01*
X160548492Y-120377595D01*
X160653175Y-120251055D01*
X160701632Y-120148077D01*
X161287311Y-120733756D01*
X161379604Y-120592493D01*
X161379607Y-120592488D01*
X161476134Y-120372428D01*
X161535125Y-120139478D01*
X161554968Y-119900000D01*
X161535125Y-119660521D01*
X161476134Y-119427571D01*
X161379607Y-119207511D01*
X161379604Y-119207506D01*
X161287311Y-119066242D01*
X160702547Y-119651005D01*
X160692812Y-119621044D01*
X160604814Y-119482381D01*
X160485097Y-119369960D01*
X160350486Y-119295956D01*
X160934425Y-118712018D01*
X160895796Y-118681951D01*
X160895792Y-118681948D01*
X160684457Y-118567579D01*
X160457170Y-118489552D01*
X160220150Y-118450000D01*
X159979850Y-118450000D01*
X159742829Y-118489552D01*
X159515542Y-118567579D01*
X159304206Y-118681949D01*
X159304203Y-118681951D01*
X159265573Y-118712018D01*
X159852467Y-119298912D01*
X159784371Y-119325874D01*
X159651508Y-119422405D01*
X159546825Y-119548945D01*
X159498367Y-119651922D01*
X158912688Y-119066243D01*
X158820392Y-119207513D01*
X158723865Y-119427571D01*
X158664874Y-119660521D01*
X158645031Y-119900000D01*
X156600500Y-119900000D01*
X156600500Y-118580252D01*
X156588867Y-118521769D01*
X156544552Y-118455448D01*
X156536399Y-118450000D01*
X156478233Y-118411134D01*
X156478231Y-118411133D01*
X156478228Y-118411132D01*
X156478227Y-118411132D01*
X156419758Y-118399501D01*
X156419748Y-118399500D01*
X153780252Y-118399500D01*
X153780251Y-118399500D01*
X153780241Y-118399501D01*
X153721772Y-118411132D01*
X153721766Y-118411134D01*
X153655451Y-118455445D01*
X153655445Y-118455451D01*
X153611134Y-118521766D01*
X153611132Y-118521772D01*
X153599501Y-118580241D01*
X153599500Y-118580253D01*
X153599500Y-121219746D01*
X146560506Y-121219746D01*
X146528814Y-121115273D01*
X146435910Y-120941462D01*
X146435906Y-120941457D01*
X146310887Y-120789121D01*
X146310878Y-120789112D01*
X146158542Y-120664093D01*
X146158540Y-120664092D01*
X146158538Y-120664090D01*
X146024590Y-120592493D01*
X145984732Y-120571188D01*
X145984730Y-120571187D01*
X145914886Y-120550000D01*
X145796132Y-120513976D01*
X145796129Y-120513975D01*
X145796126Y-120513974D01*
X145600003Y-120494659D01*
X145599997Y-120494659D01*
X145403873Y-120513974D01*
X145403870Y-120513975D01*
X145215269Y-120571187D01*
X145215267Y-120571188D01*
X145041467Y-120664087D01*
X145041457Y-120664093D01*
X144889121Y-120789112D01*
X144889112Y-120789121D01*
X144764093Y-120941457D01*
X144764087Y-120941467D01*
X144671188Y-121115267D01*
X144671187Y-121115269D01*
X144613975Y-121303870D01*
X144613974Y-121303873D01*
X144594659Y-121499996D01*
X144594659Y-121500003D01*
X144300500Y-121500003D01*
X144300500Y-116500003D01*
X144594659Y-116500003D01*
X144613974Y-116696126D01*
X144613975Y-116696129D01*
X144671187Y-116884730D01*
X144671188Y-116884732D01*
X144742218Y-117017618D01*
X144764090Y-117058538D01*
X144764092Y-117058540D01*
X144764093Y-117058542D01*
X144889112Y-117210878D01*
X144889121Y-117210887D01*
X145041457Y-117335906D01*
X145041462Y-117335910D01*
X145215273Y-117428814D01*
X145403868Y-117486024D01*
X145403870Y-117486024D01*
X145403873Y-117486025D01*
X145599997Y-117505341D01*
X145600000Y-117505341D01*
X145600003Y-117505341D01*
X145796126Y-117486025D01*
X145796127Y-117486024D01*
X145796132Y-117486024D01*
X145984727Y-117428814D01*
X146158538Y-117335910D01*
X146310883Y-117210883D01*
X146435910Y-117058538D01*
X146528814Y-116884727D01*
X146586024Y-116696132D01*
X146605341Y-116500000D01*
X146605341Y-116499996D01*
X146586025Y-116303873D01*
X146586024Y-116303870D01*
X146586024Y-116303868D01*
X146528814Y-116115273D01*
X146435910Y-115941462D01*
X146435906Y-115941457D01*
X146310887Y-115789121D01*
X146310878Y-115789112D01*
X146158542Y-115664093D01*
X146158540Y-115664092D01*
X146158538Y-115664090D01*
X146117618Y-115642218D01*
X145984732Y-115571188D01*
X145984730Y-115571187D01*
X145796129Y-115513975D01*
X145796126Y-115513974D01*
X145600003Y-115494659D01*
X145599997Y-115494659D01*
X145403873Y-115513974D01*
X145403870Y-115513975D01*
X145215269Y-115571187D01*
X145215267Y-115571188D01*
X145041467Y-115664087D01*
X145041457Y-115664093D01*
X144889121Y-115789112D01*
X144889112Y-115789121D01*
X144764093Y-115941457D01*
X144764087Y-115941467D01*
X144671188Y-116115267D01*
X144671187Y-116115269D01*
X144613975Y-116303870D01*
X144613974Y-116303873D01*
X144594659Y-116499996D01*
X144594659Y-116500003D01*
X144300500Y-116500003D01*
X144300500Y-114244622D01*
X150349696Y-114244622D01*
X150370333Y-114401380D01*
X150370335Y-114401388D01*
X150430840Y-114547460D01*
X150430840Y-114547461D01*
X150430842Y-114547463D01*
X150527096Y-114672904D01*
X150652537Y-114769158D01*
X150798616Y-114829666D01*
X150916187Y-114845144D01*
X150955377Y-114850304D01*
X150955378Y-114850304D01*
X150955379Y-114850304D01*
X150986730Y-114846176D01*
X151112140Y-114829666D01*
X151258219Y-114769158D01*
X151383660Y-114672904D01*
X151479914Y-114547463D01*
X151540422Y-114401384D01*
X151561060Y-114244622D01*
X151546409Y-114133336D01*
X151557559Y-114073176D01*
X151574559Y-114050411D01*
X152295476Y-113329496D01*
X152349992Y-113301719D01*
X152365479Y-113300500D01*
X152424846Y-113300500D01*
X152483037Y-113319407D01*
X152503388Y-113339233D01*
X152571718Y-113428282D01*
X152697159Y-113524536D01*
X152843238Y-113585044D01*
X152960809Y-113600522D01*
X152999999Y-113605682D01*
X153000000Y-113605682D01*
X153000001Y-113605682D01*
X153031352Y-113601554D01*
X153156762Y-113585044D01*
X153302841Y-113524536D01*
X153428282Y-113428282D01*
X153524536Y-113302841D01*
X153585044Y-113156762D01*
X153605682Y-113000000D01*
X153585044Y-112843238D01*
X153556398Y-112774080D01*
X153524537Y-112697161D01*
X153524537Y-112697160D01*
X153428286Y-112571723D01*
X153428285Y-112571722D01*
X153428282Y-112571718D01*
X153428277Y-112571714D01*
X153428276Y-112571713D01*
X153302838Y-112475462D01*
X153156766Y-112414957D01*
X153156758Y-112414955D01*
X153000001Y-112394318D01*
X152999999Y-112394318D01*
X152843241Y-112414955D01*
X152843233Y-112414957D01*
X152697161Y-112475462D01*
X152697160Y-112475462D01*
X152571723Y-112571713D01*
X152571713Y-112571723D01*
X152503388Y-112660767D01*
X152452963Y-112695423D01*
X152424846Y-112699500D01*
X152265164Y-112699500D01*
X152251488Y-112697267D01*
X152251317Y-112698494D01*
X152242233Y-112697226D01*
X152201886Y-112699092D01*
X152194206Y-112699447D01*
X152191930Y-112699500D01*
X152172153Y-112699500D01*
X152168658Y-112700153D01*
X152161845Y-112700943D01*
X152130010Y-112702414D01*
X152130006Y-112702415D01*
X152121015Y-112706385D01*
X152099227Y-112713132D01*
X152089570Y-112714937D01*
X152089564Y-112714939D01*
X152062466Y-112731717D01*
X152056399Y-112734915D01*
X152027237Y-112747792D01*
X152027233Y-112747795D01*
X152020284Y-112754744D01*
X152002409Y-112768903D01*
X151994048Y-112774080D01*
X151974839Y-112799515D01*
X151970335Y-112804692D01*
X151149586Y-113625441D01*
X151095069Y-113653218D01*
X151066660Y-113653590D01*
X150955379Y-113638940D01*
X150955377Y-113638940D01*
X150798619Y-113659577D01*
X150798611Y-113659579D01*
X150652539Y-113720084D01*
X150652538Y-113720084D01*
X150527101Y-113816335D01*
X150527091Y-113816345D01*
X150430840Y-113941782D01*
X150430840Y-113941783D01*
X150370335Y-114087855D01*
X150370333Y-114087863D01*
X150349696Y-114244621D01*
X150349696Y-114244622D01*
X144300500Y-114244622D01*
X144300500Y-107275003D01*
X144594659Y-107275003D01*
X144613974Y-107471126D01*
X144613975Y-107471129D01*
X144671187Y-107659730D01*
X144671188Y-107659732D01*
X144742218Y-107792618D01*
X144764090Y-107833538D01*
X144764092Y-107833540D01*
X144764093Y-107833542D01*
X144889112Y-107985878D01*
X144889121Y-107985887D01*
X145041457Y-108110906D01*
X145041462Y-108110910D01*
X145215273Y-108203814D01*
X145403868Y-108261024D01*
X145403870Y-108261024D01*
X145403873Y-108261025D01*
X145599997Y-108280341D01*
X145600000Y-108280341D01*
X145600003Y-108280341D01*
X145796126Y-108261025D01*
X145796127Y-108261024D01*
X145796132Y-108261024D01*
X145984727Y-108203814D01*
X146158538Y-108110910D01*
X146310883Y-107985883D01*
X146435910Y-107833538D01*
X146528814Y-107659727D01*
X146586024Y-107471132D01*
X146586495Y-107466355D01*
X146605341Y-107275003D01*
X146605341Y-107274996D01*
X146586025Y-107078873D01*
X146586024Y-107078870D01*
X146586024Y-107078868D01*
X146528814Y-106890273D01*
X146520898Y-106875464D01*
X146506942Y-106849353D01*
X146435910Y-106716462D01*
X146387852Y-106657903D01*
X146310887Y-106564121D01*
X146310878Y-106564112D01*
X146158542Y-106439093D01*
X146158540Y-106439092D01*
X146158538Y-106439090D01*
X146117618Y-106417218D01*
X145984732Y-106346188D01*
X145984730Y-106346187D01*
X145796129Y-106288975D01*
X145796126Y-106288974D01*
X145600003Y-106269659D01*
X145599997Y-106269659D01*
X145403873Y-106288974D01*
X145403870Y-106288975D01*
X145215269Y-106346187D01*
X145215267Y-106346188D01*
X145041467Y-106439087D01*
X145041457Y-106439093D01*
X144889121Y-106564112D01*
X144889112Y-106564121D01*
X144764093Y-106716457D01*
X144764087Y-106716467D01*
X144671188Y-106890267D01*
X144671187Y-106890269D01*
X144613975Y-107078870D01*
X144613974Y-107078873D01*
X144594659Y-107274996D01*
X144594659Y-107275003D01*
X144300500Y-107275003D01*
X144300500Y-102275003D01*
X144645403Y-102275003D01*
X144663743Y-102461227D01*
X144663744Y-102461233D01*
X144718067Y-102640308D01*
X144718069Y-102640313D01*
X144774868Y-102746576D01*
X145202045Y-102319398D01*
X145214835Y-102400148D01*
X145272359Y-102513045D01*
X145361955Y-102602641D01*
X145474852Y-102660165D01*
X145555598Y-102672953D01*
X145128422Y-103100130D01*
X145234691Y-103156932D01*
X145413766Y-103211255D01*
X145413772Y-103211256D01*
X145599997Y-103229597D01*
X145600003Y-103229597D01*
X145786227Y-103211256D01*
X145786233Y-103211255D01*
X145965309Y-103156932D01*
X146071576Y-103100130D01*
X145644399Y-102672953D01*
X145725148Y-102660165D01*
X145838045Y-102602641D01*
X145927641Y-102513045D01*
X145985165Y-102400148D01*
X145997953Y-102319399D01*
X146425130Y-102746576D01*
X146481932Y-102640309D01*
X146536255Y-102461233D01*
X146536256Y-102461227D01*
X146554597Y-102275003D01*
X146554597Y-102274996D01*
X146536256Y-102088772D01*
X146536255Y-102088766D01*
X146481932Y-101909691D01*
X146425130Y-101803422D01*
X145997953Y-102230598D01*
X145985165Y-102149852D01*
X145927641Y-102036955D01*
X145838045Y-101947359D01*
X145725148Y-101889835D01*
X145644398Y-101877045D01*
X146071576Y-101449868D01*
X145965313Y-101393069D01*
X145965308Y-101393067D01*
X145786233Y-101338744D01*
X145786227Y-101338743D01*
X145600003Y-101320403D01*
X145599997Y-101320403D01*
X145413772Y-101338743D01*
X145413766Y-101338744D01*
X145234691Y-101393067D01*
X145234686Y-101393069D01*
X145128422Y-101449868D01*
X145555600Y-101877046D01*
X145474852Y-101889835D01*
X145361955Y-101947359D01*
X145272359Y-102036955D01*
X145214835Y-102149852D01*
X145202046Y-102230600D01*
X144774868Y-101803422D01*
X144718069Y-101909686D01*
X144718067Y-101909691D01*
X144663744Y-102088766D01*
X144663743Y-102088772D01*
X144645403Y-102274996D01*
X144645403Y-102275003D01*
X144300500Y-102275003D01*
X144300500Y-101000000D01*
X146394318Y-101000000D01*
X146414955Y-101156758D01*
X146414957Y-101156766D01*
X146475462Y-101302838D01*
X146475462Y-101302839D01*
X146571713Y-101428276D01*
X146571718Y-101428282D01*
X146571722Y-101428285D01*
X146571723Y-101428286D01*
X146601082Y-101450813D01*
X146697159Y-101524536D01*
X146697160Y-101524536D01*
X146697161Y-101524537D01*
X146812128Y-101572158D01*
X146843238Y-101585044D01*
X146960809Y-101600522D01*
X146999999Y-101605682D01*
X147000000Y-101605682D01*
X147111284Y-101591031D01*
X147171443Y-101602181D01*
X147194209Y-101619180D01*
X147270504Y-101695475D01*
X147298281Y-101749992D01*
X147299500Y-101765479D01*
X147299500Y-106824846D01*
X147280593Y-106883037D01*
X147260767Y-106903388D01*
X147171723Y-106971713D01*
X147171713Y-106971723D01*
X147075462Y-107097160D01*
X147075462Y-107097161D01*
X147014957Y-107243233D01*
X147014955Y-107243241D01*
X146994318Y-107399999D01*
X146994318Y-107400000D01*
X147014955Y-107556758D01*
X147014957Y-107556766D01*
X147075462Y-107702838D01*
X147075462Y-107702839D01*
X147075464Y-107702841D01*
X147171718Y-107828282D01*
X147297159Y-107924536D01*
X147443238Y-107985044D01*
X147560809Y-108000522D01*
X147599999Y-108005682D01*
X147600000Y-108005682D01*
X147600001Y-108005682D01*
X147631352Y-108001554D01*
X147756762Y-107985044D01*
X147902841Y-107924536D01*
X148028282Y-107828282D01*
X148124536Y-107702841D01*
X148185044Y-107556762D01*
X148205682Y-107400000D01*
X148185044Y-107243238D01*
X148124537Y-107097161D01*
X148124537Y-107097160D01*
X148028286Y-106971723D01*
X148028285Y-106971722D01*
X148028282Y-106971718D01*
X148028277Y-106971714D01*
X148028276Y-106971713D01*
X147939233Y-106903388D01*
X147904577Y-106852963D01*
X147900500Y-106824846D01*
X147900500Y-101665168D01*
X147902731Y-101651495D01*
X147901505Y-101651324D01*
X147902773Y-101642232D01*
X147900553Y-101594215D01*
X147900500Y-101591928D01*
X147900500Y-101572160D01*
X147900500Y-101572156D01*
X147899846Y-101568664D01*
X147899056Y-101561859D01*
X147897585Y-101530008D01*
X147893615Y-101521017D01*
X147886864Y-101499215D01*
X147885061Y-101489568D01*
X147885061Y-101489567D01*
X147868276Y-101462458D01*
X147865084Y-101456401D01*
X147852206Y-101427235D01*
X147852205Y-101427233D01*
X147845256Y-101420284D01*
X147831090Y-101402399D01*
X147825919Y-101394048D01*
X147800483Y-101374839D01*
X147795306Y-101370334D01*
X147619180Y-101194209D01*
X147591403Y-101139692D01*
X147591031Y-101111283D01*
X147605682Y-101000000D01*
X147605682Y-100999999D01*
X147585044Y-100843241D01*
X147585044Y-100843238D01*
X147524537Y-100697161D01*
X147524537Y-100697160D01*
X147428286Y-100571723D01*
X147428285Y-100571722D01*
X147428282Y-100571718D01*
X147428277Y-100571714D01*
X147428276Y-100571713D01*
X147302838Y-100475462D01*
X147156766Y-100414957D01*
X147156758Y-100414955D01*
X147000001Y-100394318D01*
X146999999Y-100394318D01*
X146843241Y-100414955D01*
X146843233Y-100414957D01*
X146697161Y-100475462D01*
X146697160Y-100475462D01*
X146571723Y-100571713D01*
X146571713Y-100571723D01*
X146475462Y-100697160D01*
X146475462Y-100697161D01*
X146414957Y-100843233D01*
X146414955Y-100843241D01*
X146394318Y-100999999D01*
X146394318Y-101000000D01*
X144300500Y-101000000D01*
X144300500Y-92250000D01*
X154544357Y-92250000D01*
X154564885Y-92471536D01*
X154625771Y-92685528D01*
X154724942Y-92884689D01*
X154859019Y-93062236D01*
X155023438Y-93212124D01*
X155212599Y-93329247D01*
X155420060Y-93409618D01*
X155638757Y-93450500D01*
X155861243Y-93450500D01*
X156079940Y-93409618D01*
X156287401Y-93329247D01*
X156476562Y-93212124D01*
X156640981Y-93062236D01*
X156775058Y-92884689D01*
X156874229Y-92685528D01*
X156935115Y-92471536D01*
X156955643Y-92250000D01*
X159095073Y-92250000D01*
X159114738Y-92462216D01*
X159173064Y-92667210D01*
X159268061Y-92857992D01*
X159276834Y-92869609D01*
X159724070Y-92422373D01*
X159726884Y-92435915D01*
X159796442Y-92570156D01*
X159899638Y-92680652D01*
X160028819Y-92759209D01*
X160080002Y-92773550D01*
X159632992Y-93220561D01*
X159735202Y-93283846D01*
X159735204Y-93283847D01*
X159933941Y-93360838D01*
X160143437Y-93400000D01*
X160356563Y-93400000D01*
X160566058Y-93360838D01*
X160764795Y-93283847D01*
X160764800Y-93283844D01*
X160867006Y-93220561D01*
X160421566Y-92775121D01*
X160538458Y-92724349D01*
X160655739Y-92628934D01*
X160742928Y-92505415D01*
X160773355Y-92419800D01*
X161223164Y-92869609D01*
X161231941Y-92857987D01*
X161231942Y-92857984D01*
X161326935Y-92667210D01*
X161385261Y-92462216D01*
X161404926Y-92250000D01*
X161385261Y-92037783D01*
X161326935Y-91832789D01*
X161231942Y-91642016D01*
X161231932Y-91642000D01*
X161223164Y-91630389D01*
X160775929Y-92077623D01*
X160773116Y-92064085D01*
X160703558Y-91929844D01*
X160600362Y-91819348D01*
X160471181Y-91740791D01*
X160419993Y-91726449D01*
X160867006Y-91279437D01*
X160764797Y-91216153D01*
X160764795Y-91216152D01*
X160566058Y-91139161D01*
X160356563Y-91100000D01*
X160143437Y-91100000D01*
X159933941Y-91139161D01*
X159735204Y-91216152D01*
X159735202Y-91216153D01*
X159632992Y-91279437D01*
X160078433Y-91724878D01*
X159961542Y-91775651D01*
X159844261Y-91871066D01*
X159757072Y-91994585D01*
X159726644Y-92080198D01*
X159276835Y-91630389D01*
X159268057Y-91642013D01*
X159173064Y-91832789D01*
X159114738Y-92037783D01*
X159095073Y-92250000D01*
X156955643Y-92250000D01*
X156935115Y-92028464D01*
X156874229Y-91814472D01*
X156775058Y-91615311D01*
X156640981Y-91437764D01*
X156476562Y-91287876D01*
X156287401Y-91170753D01*
X156079940Y-91090382D01*
X156079939Y-91090381D01*
X156079937Y-91090381D01*
X155861243Y-91049500D01*
X155638757Y-91049500D01*
X155420062Y-91090381D01*
X155395233Y-91100000D01*
X155212599Y-91170753D01*
X155037068Y-91279437D01*
X155023438Y-91287876D01*
X154859020Y-91437763D01*
X154724943Y-91615309D01*
X154724938Y-91615318D01*
X154625772Y-91814469D01*
X154625771Y-91814472D01*
X154564885Y-92028464D01*
X154544357Y-92250000D01*
X144300500Y-92250000D01*
X144300500Y-90715266D01*
X146324500Y-90715266D01*
X146327274Y-90744844D01*
X146327276Y-90744852D01*
X146370884Y-90869476D01*
X146414285Y-90928282D01*
X146449289Y-90975711D01*
X146449292Y-90975713D01*
X146449293Y-90975714D01*
X146555523Y-91054115D01*
X146555524Y-91054115D01*
X146555525Y-91054116D01*
X146680151Y-91097725D01*
X146704412Y-91100000D01*
X146709733Y-91100499D01*
X146709738Y-91100500D01*
X146709744Y-91100500D01*
X147290262Y-91100500D01*
X147290265Y-91100499D01*
X147319849Y-91097725D01*
X147444475Y-91054116D01*
X147550711Y-90975711D01*
X147629116Y-90869475D01*
X147649186Y-90812117D01*
X147673792Y-90741802D01*
X147710858Y-90693121D01*
X147767236Y-90675500D01*
X148709521Y-90675500D01*
X148767712Y-90694407D01*
X148779525Y-90704496D01*
X149690037Y-91615008D01*
X149711030Y-91651365D01*
X149712473Y-91650768D01*
X149775462Y-91802838D01*
X149775462Y-91802839D01*
X149871713Y-91928276D01*
X149871718Y-91928282D01*
X149871722Y-91928285D01*
X149871723Y-91928286D01*
X149901082Y-91950813D01*
X149997159Y-92024536D01*
X149997160Y-92024536D01*
X149997161Y-92024537D01*
X150143233Y-92085042D01*
X150143238Y-92085044D01*
X150260809Y-92100522D01*
X150299999Y-92105682D01*
X150300000Y-92105682D01*
X150300001Y-92105682D01*
X150331352Y-92101554D01*
X150456762Y-92085044D01*
X150602841Y-92024536D01*
X150728282Y-91928282D01*
X150824536Y-91802841D01*
X150885044Y-91656762D01*
X150905682Y-91500000D01*
X150885044Y-91343238D01*
X150824537Y-91197161D01*
X150824537Y-91197160D01*
X150728286Y-91071723D01*
X150728285Y-91071722D01*
X150728282Y-91071718D01*
X150728277Y-91071714D01*
X150726567Y-91070004D01*
X150725776Y-91068452D01*
X150724332Y-91066570D01*
X150724680Y-91066302D01*
X150698790Y-91015487D01*
X150708361Y-90955055D01*
X150726567Y-90929996D01*
X150728273Y-90928288D01*
X150728282Y-90928282D01*
X150824536Y-90802841D01*
X150885044Y-90656762D01*
X150905682Y-90500000D01*
X150885044Y-90343238D01*
X150824537Y-90197161D01*
X150824537Y-90197160D01*
X150728286Y-90071723D01*
X150728285Y-90071722D01*
X150728282Y-90071718D01*
X150728277Y-90071714D01*
X150728276Y-90071713D01*
X150602838Y-89975462D01*
X150456766Y-89914957D01*
X150456758Y-89914955D01*
X150300001Y-89894318D01*
X150299999Y-89894318D01*
X150143241Y-89914955D01*
X150143233Y-89914957D01*
X149997161Y-89975462D01*
X149997160Y-89975462D01*
X149871723Y-90071713D01*
X149871716Y-90071720D01*
X149821030Y-90137776D01*
X149770605Y-90172431D01*
X149709441Y-90170829D01*
X149672484Y-90147512D01*
X147983565Y-88458594D01*
X147975479Y-88447344D01*
X147974487Y-88448094D01*
X147968958Y-88440772D01*
X147933428Y-88408382D01*
X147931775Y-88406804D01*
X147917797Y-88392826D01*
X147914859Y-88390813D01*
X147909496Y-88386564D01*
X147885933Y-88365084D01*
X147876762Y-88361531D01*
X147856586Y-88350895D01*
X147848484Y-88345345D01*
X147848479Y-88345343D01*
X147817457Y-88338046D01*
X147810902Y-88336016D01*
X147781177Y-88324501D01*
X147781174Y-88324500D01*
X147781173Y-88324500D01*
X147781172Y-88324500D01*
X147771348Y-88324500D01*
X147748665Y-88321866D01*
X147744183Y-88320811D01*
X147691872Y-88289074D01*
X147673422Y-88257143D01*
X147629115Y-88130523D01*
X147550714Y-88024293D01*
X147550713Y-88024292D01*
X147550711Y-88024289D01*
X147550706Y-88024285D01*
X147444476Y-87945884D01*
X147319852Y-87902276D01*
X147319851Y-87902275D01*
X147319849Y-87902275D01*
X147319847Y-87902274D01*
X147319844Y-87902274D01*
X147290266Y-87899500D01*
X147290256Y-87899500D01*
X146709744Y-87899500D01*
X146709733Y-87899500D01*
X146680155Y-87902274D01*
X146680147Y-87902276D01*
X146555523Y-87945884D01*
X146449293Y-88024285D01*
X146449285Y-88024293D01*
X146370884Y-88130523D01*
X146327276Y-88255147D01*
X146327274Y-88255155D01*
X146324500Y-88284733D01*
X146324500Y-88965266D01*
X146327274Y-88994844D01*
X146327276Y-88994852D01*
X146370884Y-89119476D01*
X146449285Y-89225706D01*
X146449289Y-89225711D01*
X146449292Y-89225713D01*
X146449293Y-89225714D01*
X146555523Y-89304115D01*
X146555524Y-89304115D01*
X146555525Y-89304116D01*
X146680151Y-89347725D01*
X146707441Y-89350284D01*
X146709733Y-89350499D01*
X146709738Y-89350500D01*
X146709744Y-89350500D01*
X147290262Y-89350500D01*
X147290265Y-89350499D01*
X147319849Y-89347725D01*
X147444475Y-89304116D01*
X147550711Y-89225711D01*
X147629116Y-89119475D01*
X147629116Y-89119472D01*
X147631031Y-89116879D01*
X147680799Y-89081286D01*
X147741982Y-89081743D01*
X147780691Y-89105662D01*
X148580525Y-89905496D01*
X148608302Y-89960013D01*
X148598731Y-90020445D01*
X148555466Y-90063710D01*
X148510521Y-90074500D01*
X147767236Y-90074500D01*
X147709045Y-90055593D01*
X147673792Y-90008198D01*
X147629115Y-89880523D01*
X147550714Y-89774293D01*
X147550713Y-89774292D01*
X147550711Y-89774289D01*
X147550706Y-89774285D01*
X147444476Y-89695884D01*
X147319852Y-89652276D01*
X147319851Y-89652275D01*
X147319849Y-89652275D01*
X147319847Y-89652274D01*
X147319844Y-89652274D01*
X147290266Y-89649500D01*
X147290256Y-89649500D01*
X146709744Y-89649500D01*
X146709733Y-89649500D01*
X146680155Y-89652274D01*
X146680147Y-89652276D01*
X146555523Y-89695884D01*
X146449293Y-89774285D01*
X146449285Y-89774293D01*
X146370884Y-89880523D01*
X146327276Y-90005147D01*
X146327274Y-90005155D01*
X146324500Y-90034733D01*
X146324500Y-90715266D01*
X144300500Y-90715266D01*
X144300500Y-85750000D01*
X154544357Y-85750000D01*
X154564885Y-85971536D01*
X154625771Y-86185528D01*
X154724942Y-86384689D01*
X154859019Y-86562236D01*
X155023438Y-86712124D01*
X155212599Y-86829247D01*
X155420060Y-86909618D01*
X155638757Y-86950500D01*
X155861243Y-86950500D01*
X156079940Y-86909618D01*
X156287401Y-86829247D01*
X156476562Y-86712124D01*
X156640981Y-86562236D01*
X156775058Y-86384689D01*
X156874229Y-86185528D01*
X156935115Y-85971536D01*
X156955643Y-85750000D01*
X159095073Y-85750000D01*
X159114738Y-85962216D01*
X159173064Y-86167210D01*
X159268061Y-86357992D01*
X159276834Y-86369609D01*
X159724070Y-85922373D01*
X159726884Y-85935915D01*
X159796442Y-86070156D01*
X159899638Y-86180652D01*
X160028819Y-86259209D01*
X160080002Y-86273550D01*
X159632992Y-86720561D01*
X159735202Y-86783846D01*
X159735204Y-86783847D01*
X159933941Y-86860838D01*
X160143437Y-86900000D01*
X160356563Y-86900000D01*
X160566058Y-86860838D01*
X160764795Y-86783847D01*
X160764800Y-86783844D01*
X160867006Y-86720561D01*
X160421566Y-86275121D01*
X160538458Y-86224349D01*
X160655739Y-86128934D01*
X160742928Y-86005415D01*
X160773355Y-85919800D01*
X161223164Y-86369609D01*
X161231941Y-86357987D01*
X161231942Y-86357984D01*
X161326935Y-86167210D01*
X161385261Y-85962216D01*
X161404926Y-85750000D01*
X161385261Y-85537783D01*
X161326935Y-85332789D01*
X161231942Y-85142016D01*
X161231932Y-85142000D01*
X161223164Y-85130389D01*
X160775929Y-85577623D01*
X160773116Y-85564085D01*
X160703558Y-85429844D01*
X160600362Y-85319348D01*
X160471181Y-85240791D01*
X160419993Y-85226449D01*
X160867006Y-84779437D01*
X160764797Y-84716153D01*
X160764795Y-84716152D01*
X160566058Y-84639161D01*
X160356563Y-84600000D01*
X160143437Y-84600000D01*
X159933941Y-84639161D01*
X159735204Y-84716152D01*
X159735202Y-84716153D01*
X159632992Y-84779437D01*
X160078433Y-85224878D01*
X159961542Y-85275651D01*
X159844261Y-85371066D01*
X159757072Y-85494585D01*
X159726644Y-85580198D01*
X159276835Y-85130389D01*
X159268057Y-85142013D01*
X159173064Y-85332789D01*
X159114738Y-85537783D01*
X159095073Y-85750000D01*
X156955643Y-85750000D01*
X156935115Y-85528464D01*
X156874229Y-85314472D01*
X156775058Y-85115311D01*
X156640981Y-84937764D01*
X156476562Y-84787876D01*
X156287401Y-84670753D01*
X156079940Y-84590382D01*
X156079939Y-84590381D01*
X156079937Y-84590381D01*
X155861243Y-84549500D01*
X155638757Y-84549500D01*
X155420062Y-84590381D01*
X155395233Y-84600000D01*
X155212599Y-84670753D01*
X155037068Y-84779437D01*
X155023438Y-84787876D01*
X154859020Y-84937763D01*
X154724943Y-85115309D01*
X154724938Y-85115318D01*
X154625772Y-85314469D01*
X154625771Y-85314472D01*
X154564885Y-85528464D01*
X154544357Y-85750000D01*
X144300500Y-85750000D01*
X144300500Y-79750000D01*
X154544357Y-79750000D01*
X154564885Y-79971536D01*
X154625771Y-80185528D01*
X154724942Y-80384689D01*
X154859019Y-80562236D01*
X155023438Y-80712124D01*
X155212599Y-80829247D01*
X155386265Y-80896525D01*
X155433694Y-80935176D01*
X155449500Y-80988839D01*
X155449500Y-81824846D01*
X155430593Y-81883037D01*
X155410767Y-81903388D01*
X155321723Y-81971713D01*
X155321713Y-81971723D01*
X155225462Y-82097160D01*
X155225462Y-82097161D01*
X155164957Y-82243233D01*
X155164955Y-82243241D01*
X155144318Y-82399999D01*
X155144318Y-82400000D01*
X155164955Y-82556758D01*
X155164957Y-82556766D01*
X155225462Y-82702838D01*
X155225462Y-82702839D01*
X155314908Y-82819407D01*
X155321718Y-82828282D01*
X155447159Y-82924536D01*
X155447160Y-82924536D01*
X155447161Y-82924537D01*
X155456212Y-82928286D01*
X155593238Y-82985044D01*
X155710809Y-83000522D01*
X155749999Y-83005682D01*
X155750000Y-83005682D01*
X155750001Y-83005682D01*
X155781352Y-83001554D01*
X155906762Y-82985044D01*
X156052841Y-82924536D01*
X156178282Y-82828282D01*
X156274536Y-82702841D01*
X156335044Y-82556762D01*
X156342517Y-82500000D01*
X158494318Y-82500000D01*
X158514955Y-82656758D01*
X158514957Y-82656766D01*
X158575462Y-82802838D01*
X158575462Y-82802839D01*
X158668844Y-82924537D01*
X158671718Y-82928282D01*
X158797159Y-83024536D01*
X158943238Y-83085044D01*
X159060809Y-83100522D01*
X159099999Y-83105682D01*
X159100000Y-83105682D01*
X159100001Y-83105682D01*
X159131352Y-83101554D01*
X159256762Y-83085044D01*
X159402841Y-83024536D01*
X159528282Y-82928282D01*
X159596612Y-82839233D01*
X159647037Y-82804577D01*
X159675154Y-82800500D01*
X162124846Y-82800500D01*
X162183037Y-82819407D01*
X162203388Y-82839233D01*
X162268844Y-82924537D01*
X162271718Y-82928282D01*
X162397159Y-83024536D01*
X162543238Y-83085044D01*
X162660809Y-83100522D01*
X162699999Y-83105682D01*
X162700000Y-83105682D01*
X162700001Y-83105682D01*
X162731352Y-83101554D01*
X162856762Y-83085044D01*
X163002841Y-83024536D01*
X163128282Y-82928282D01*
X163224536Y-82802841D01*
X163285044Y-82656762D01*
X163305682Y-82500000D01*
X163285044Y-82343238D01*
X163224537Y-82197161D01*
X163224537Y-82197160D01*
X163128286Y-82071723D01*
X163128285Y-82071722D01*
X163128282Y-82071718D01*
X163128277Y-82071714D01*
X163128276Y-82071713D01*
X163002838Y-81975462D01*
X162856766Y-81914957D01*
X162856758Y-81914955D01*
X162700001Y-81894318D01*
X162699999Y-81894318D01*
X162543241Y-81914955D01*
X162543233Y-81914957D01*
X162397161Y-81975462D01*
X162397160Y-81975462D01*
X162271723Y-82071713D01*
X162271713Y-82071723D01*
X162203388Y-82160767D01*
X162152963Y-82195423D01*
X162124846Y-82199500D01*
X159675154Y-82199500D01*
X159616963Y-82180593D01*
X159596612Y-82160767D01*
X159528286Y-82071723D01*
X159528285Y-82071722D01*
X159528282Y-82071718D01*
X159528277Y-82071714D01*
X159528276Y-82071713D01*
X159402838Y-81975462D01*
X159256766Y-81914957D01*
X159256758Y-81914955D01*
X159100001Y-81894318D01*
X159099999Y-81894318D01*
X158943241Y-81914955D01*
X158943233Y-81914957D01*
X158797161Y-81975462D01*
X158797160Y-81975462D01*
X158671723Y-82071713D01*
X158671713Y-82071723D01*
X158575462Y-82197160D01*
X158575462Y-82197161D01*
X158514957Y-82343233D01*
X158514955Y-82343241D01*
X158494318Y-82499999D01*
X158494318Y-82500000D01*
X156342517Y-82500000D01*
X156355682Y-82400000D01*
X156335044Y-82243238D01*
X156315958Y-82197160D01*
X156274537Y-82097161D01*
X156274537Y-82097160D01*
X156178286Y-81971723D01*
X156178285Y-81971722D01*
X156178282Y-81971718D01*
X156178277Y-81971714D01*
X156178276Y-81971713D01*
X156089233Y-81903388D01*
X156054577Y-81852963D01*
X156050500Y-81824846D01*
X156050500Y-80988839D01*
X156069407Y-80930648D01*
X156113734Y-80896525D01*
X156287401Y-80829247D01*
X156476562Y-80712124D01*
X156640981Y-80562236D01*
X156775058Y-80384689D01*
X156874229Y-80185528D01*
X156935115Y-79971536D01*
X156955643Y-79750000D01*
X159095073Y-79750000D01*
X159114738Y-79962216D01*
X159173064Y-80167210D01*
X159268061Y-80357992D01*
X159276834Y-80369609D01*
X159724070Y-79922373D01*
X159726884Y-79935915D01*
X159796442Y-80070156D01*
X159899638Y-80180652D01*
X160028819Y-80259209D01*
X160080002Y-80273550D01*
X159632992Y-80720561D01*
X159735202Y-80783846D01*
X159735204Y-80783847D01*
X159933941Y-80860838D01*
X160143437Y-80900000D01*
X160356563Y-80900000D01*
X160566058Y-80860838D01*
X160764795Y-80783847D01*
X160764800Y-80783844D01*
X160867006Y-80720561D01*
X160421566Y-80275121D01*
X160538458Y-80224349D01*
X160655739Y-80128934D01*
X160742928Y-80005415D01*
X160773355Y-79919800D01*
X161223164Y-80369609D01*
X161231941Y-80357987D01*
X161231942Y-80357984D01*
X161326935Y-80167210D01*
X161385261Y-79962216D01*
X161404926Y-79750000D01*
X161385261Y-79537783D01*
X161326935Y-79332789D01*
X161231942Y-79142016D01*
X161231932Y-79142000D01*
X161223164Y-79130389D01*
X160775929Y-79577623D01*
X160773116Y-79564085D01*
X160703558Y-79429844D01*
X160600362Y-79319348D01*
X160471181Y-79240791D01*
X160419993Y-79226449D01*
X160867006Y-78779437D01*
X160764797Y-78716153D01*
X160764795Y-78716152D01*
X160566058Y-78639161D01*
X160356563Y-78600000D01*
X160143437Y-78600000D01*
X159933941Y-78639161D01*
X159735204Y-78716152D01*
X159735202Y-78716153D01*
X159632992Y-78779437D01*
X160078433Y-79224878D01*
X159961542Y-79275651D01*
X159844261Y-79371066D01*
X159757072Y-79494585D01*
X159726644Y-79580198D01*
X159276835Y-79130389D01*
X159268057Y-79142013D01*
X159173064Y-79332789D01*
X159114738Y-79537783D01*
X159095073Y-79750000D01*
X156955643Y-79750000D01*
X156935115Y-79528464D01*
X156874229Y-79314472D01*
X156775058Y-79115311D01*
X156640981Y-78937764D01*
X156476562Y-78787876D01*
X156287401Y-78670753D01*
X156079940Y-78590382D01*
X156079939Y-78590381D01*
X156079937Y-78590381D01*
X155861243Y-78549500D01*
X155638757Y-78549500D01*
X155420062Y-78590381D01*
X155395233Y-78600000D01*
X155212599Y-78670753D01*
X155037068Y-78779437D01*
X155023438Y-78787876D01*
X154859020Y-78937763D01*
X154724943Y-79115309D01*
X154724938Y-79115318D01*
X154625772Y-79314469D01*
X154625771Y-79314472D01*
X154564885Y-79528464D01*
X154544357Y-79750000D01*
X144300500Y-79750000D01*
X144300500Y-73250000D01*
X154544357Y-73250000D01*
X154564885Y-73471536D01*
X154625771Y-73685528D01*
X154724942Y-73884689D01*
X154859019Y-74062236D01*
X155023438Y-74212124D01*
X155212599Y-74329247D01*
X155420060Y-74409618D01*
X155638757Y-74450500D01*
X155861243Y-74450500D01*
X156079940Y-74409618D01*
X156287401Y-74329247D01*
X156476562Y-74212124D01*
X156640981Y-74062236D01*
X156775058Y-73884689D01*
X156874229Y-73685528D01*
X156935115Y-73471536D01*
X156955643Y-73250000D01*
X159095073Y-73250000D01*
X159114738Y-73462216D01*
X159173064Y-73667210D01*
X159268061Y-73857992D01*
X159276834Y-73869609D01*
X159724070Y-73422373D01*
X159726884Y-73435915D01*
X159796442Y-73570156D01*
X159899638Y-73680652D01*
X160028819Y-73759209D01*
X160080002Y-73773550D01*
X159632992Y-74220561D01*
X159735202Y-74283846D01*
X159735204Y-74283847D01*
X159933941Y-74360838D01*
X160143437Y-74400000D01*
X160356563Y-74400000D01*
X160566058Y-74360838D01*
X160764795Y-74283847D01*
X160764800Y-74283844D01*
X160867006Y-74220561D01*
X160421566Y-73775121D01*
X160538458Y-73724349D01*
X160655739Y-73628934D01*
X160742928Y-73505415D01*
X160773355Y-73419800D01*
X161223164Y-73869609D01*
X161231941Y-73857987D01*
X161231942Y-73857984D01*
X161326935Y-73667210D01*
X161385261Y-73462216D01*
X161404926Y-73250000D01*
X161385261Y-73037783D01*
X161326935Y-72832789D01*
X161231942Y-72642016D01*
X161231932Y-72642000D01*
X161223164Y-72630389D01*
X160775929Y-73077623D01*
X160773116Y-73064085D01*
X160703558Y-72929844D01*
X160600362Y-72819348D01*
X160471181Y-72740791D01*
X160419993Y-72726449D01*
X160867006Y-72279437D01*
X160764797Y-72216153D01*
X160764795Y-72216152D01*
X160566058Y-72139161D01*
X160356563Y-72100000D01*
X160143437Y-72100000D01*
X159933941Y-72139161D01*
X159735204Y-72216152D01*
X159735202Y-72216153D01*
X159632992Y-72279437D01*
X160078433Y-72724878D01*
X159961542Y-72775651D01*
X159844261Y-72871066D01*
X159757072Y-72994585D01*
X159726644Y-73080198D01*
X159276835Y-72630389D01*
X159268057Y-72642013D01*
X159173064Y-72832789D01*
X159114738Y-73037783D01*
X159095073Y-73250000D01*
X156955643Y-73250000D01*
X156935115Y-73028464D01*
X156874229Y-72814472D01*
X156775058Y-72615311D01*
X156640981Y-72437764D01*
X156476562Y-72287876D01*
X156287401Y-72170753D01*
X156079940Y-72090382D01*
X156079939Y-72090381D01*
X156079937Y-72090381D01*
X155861243Y-72049500D01*
X155638757Y-72049500D01*
X155420062Y-72090381D01*
X155395233Y-72100000D01*
X155212599Y-72170753D01*
X155037068Y-72279437D01*
X155023438Y-72287876D01*
X154859020Y-72437763D01*
X154724943Y-72615309D01*
X154724938Y-72615318D01*
X154625772Y-72814469D01*
X154625771Y-72814472D01*
X154564885Y-73028464D01*
X154544357Y-73250000D01*
X144300500Y-73250000D01*
X144300500Y-67289380D01*
X144319407Y-67231189D01*
X144368907Y-67195225D01*
X144430093Y-67195225D01*
X144462306Y-67212852D01*
X144611747Y-67335497D01*
X144785459Y-67428347D01*
X144785464Y-67428349D01*
X144919999Y-67469160D01*
X144920000Y-67469160D01*
X144920000Y-66935501D01*
X145027685Y-66984680D01*
X145134237Y-67000000D01*
X145205763Y-67000000D01*
X145312315Y-66984680D01*
X145420000Y-66935501D01*
X145420000Y-67469160D01*
X145554535Y-67428349D01*
X145554540Y-67428347D01*
X145728252Y-67335497D01*
X145728258Y-67335493D01*
X145880523Y-67210531D01*
X145880531Y-67210523D01*
X146005493Y-67058258D01*
X146005497Y-67058252D01*
X146098347Y-66884540D01*
X146098348Y-66884538D01*
X146139161Y-66750000D01*
X145603686Y-66750000D01*
X145629493Y-66709844D01*
X145670000Y-66571889D01*
X145670000Y-66500003D01*
X146654417Y-66500003D01*
X146674698Y-66705929D01*
X146674699Y-66705934D01*
X146734768Y-66903954D01*
X146832316Y-67086452D01*
X146963585Y-67246404D01*
X146963590Y-67246410D01*
X146963595Y-67246414D01*
X147123547Y-67377683D01*
X147123548Y-67377683D01*
X147123550Y-67377685D01*
X147306046Y-67475232D01*
X147443997Y-67517078D01*
X147504065Y-67535300D01*
X147504070Y-67535301D01*
X147709997Y-67555583D01*
X147710000Y-67555583D01*
X147710003Y-67555583D01*
X147915929Y-67535301D01*
X147915934Y-67535300D01*
X148113954Y-67475232D01*
X148296450Y-67377685D01*
X148306124Y-67369746D01*
X149199500Y-67369746D01*
X149199501Y-67369758D01*
X149211132Y-67428227D01*
X149211134Y-67428233D01*
X149255445Y-67494548D01*
X149255448Y-67494552D01*
X149321769Y-67538867D01*
X149366231Y-67547711D01*
X149380241Y-67550498D01*
X149380246Y-67550498D01*
X149380252Y-67550500D01*
X149380253Y-67550500D01*
X151119747Y-67550500D01*
X151119748Y-67550500D01*
X151178231Y-67538867D01*
X151244552Y-67494552D01*
X151288867Y-67428231D01*
X151300500Y-67369748D01*
X151300500Y-65630252D01*
X151298921Y-65622316D01*
X151297711Y-65616231D01*
X151288867Y-65571769D01*
X151244552Y-65505448D01*
X151244548Y-65505445D01*
X151178233Y-65461134D01*
X151178231Y-65461133D01*
X151178228Y-65461132D01*
X151178227Y-65461132D01*
X151119758Y-65449501D01*
X151119748Y-65449500D01*
X149380252Y-65449500D01*
X149380251Y-65449500D01*
X149380241Y-65449501D01*
X149321772Y-65461132D01*
X149321766Y-65461134D01*
X149255451Y-65505445D01*
X149255445Y-65505451D01*
X149211134Y-65571766D01*
X149211132Y-65571772D01*
X149199501Y-65630241D01*
X149199500Y-65630253D01*
X149199500Y-67369746D01*
X148306124Y-67369746D01*
X148456410Y-67246410D01*
X148587685Y-67086450D01*
X148685232Y-66903954D01*
X148745300Y-66705934D01*
X148745301Y-66705929D01*
X148765583Y-66500003D01*
X148765583Y-66499996D01*
X148745301Y-66294070D01*
X148745300Y-66294065D01*
X148691121Y-66115461D01*
X148685232Y-66096046D01*
X148587685Y-65913550D01*
X148456410Y-65753590D01*
X148448017Y-65746702D01*
X148296452Y-65622316D01*
X148113954Y-65524768D01*
X147915934Y-65464699D01*
X147915929Y-65464698D01*
X147710003Y-65444417D01*
X147709997Y-65444417D01*
X147504070Y-65464698D01*
X147504065Y-65464699D01*
X147306045Y-65524768D01*
X147123547Y-65622316D01*
X146963595Y-65753585D01*
X146963585Y-65753595D01*
X146832316Y-65913547D01*
X146734768Y-66096045D01*
X146674699Y-66294065D01*
X146674698Y-66294070D01*
X146654417Y-66499996D01*
X146654417Y-66500003D01*
X145670000Y-66500003D01*
X145670000Y-66428111D01*
X145629493Y-66290156D01*
X145603686Y-66250000D01*
X146139161Y-66250000D01*
X146098348Y-66115461D01*
X146098347Y-66115459D01*
X146005497Y-65941747D01*
X146005493Y-65941741D01*
X145880531Y-65789476D01*
X145880523Y-65789468D01*
X145728258Y-65664506D01*
X145728252Y-65664502D01*
X145554540Y-65571652D01*
X145554538Y-65571651D01*
X145420000Y-65530838D01*
X145420000Y-66064498D01*
X145312315Y-66015320D01*
X145205763Y-66000000D01*
X145134237Y-66000000D01*
X145027685Y-66015320D01*
X144920000Y-66064498D01*
X144920000Y-65530838D01*
X144785461Y-65571651D01*
X144785459Y-65571652D01*
X144611747Y-65664502D01*
X144611741Y-65664506D01*
X144462305Y-65787147D01*
X144405329Y-65809447D01*
X144346126Y-65793999D01*
X144307310Y-65746702D01*
X144300500Y-65710619D01*
X144300500Y-62054055D01*
X144319407Y-61995864D01*
X144368907Y-61959900D01*
X144430093Y-61959900D01*
X144479593Y-61995864D01*
X144497101Y-62037472D01*
X144521293Y-62179858D01*
X144521297Y-62179876D01*
X144616146Y-62509102D01*
X144747265Y-62825652D01*
X144856207Y-63022766D01*
X144912998Y-63125521D01*
X145111265Y-63404953D01*
X145266280Y-63578415D01*
X145339565Y-63660421D01*
X145339578Y-63660434D01*
X145409868Y-63723249D01*
X145595047Y-63888735D01*
X145874479Y-64087002D01*
X145930658Y-64118051D01*
X146174348Y-64252734D01*
X146174347Y-64252734D01*
X146174352Y-64252736D01*
X146490896Y-64383853D01*
X146820130Y-64478704D01*
X146820138Y-64478705D01*
X146820141Y-64478706D01*
X146989022Y-64507400D01*
X147157914Y-64536096D01*
X147157917Y-64536096D01*
X147157923Y-64536097D01*
X147499995Y-64555307D01*
X147500000Y-64555307D01*
X147500005Y-64555307D01*
X147842076Y-64536097D01*
X147842080Y-64536096D01*
X147842086Y-64536096D01*
X148179870Y-64478704D01*
X148509104Y-64383853D01*
X148825648Y-64252736D01*
X149125521Y-64087002D01*
X149404953Y-63888735D01*
X149660428Y-63660428D01*
X149888735Y-63404953D01*
X150087002Y-63125521D01*
X150211643Y-62900000D01*
X153645031Y-62900000D01*
X153664874Y-63139478D01*
X153723865Y-63372428D01*
X153820392Y-63592488D01*
X153820395Y-63592493D01*
X153912687Y-63733756D01*
X154497451Y-63148991D01*
X154507188Y-63178956D01*
X154595186Y-63317619D01*
X154714903Y-63430040D01*
X154849511Y-63504041D01*
X154265573Y-64087980D01*
X154304203Y-64118048D01*
X154304207Y-64118051D01*
X154515542Y-64232420D01*
X154742829Y-64310447D01*
X154979850Y-64350000D01*
X155220150Y-64350000D01*
X155457170Y-64310447D01*
X155684457Y-64232420D01*
X155707876Y-64219746D01*
X158599500Y-64219746D01*
X158599501Y-64219758D01*
X158611132Y-64278227D01*
X158611133Y-64278231D01*
X158655448Y-64344552D01*
X158721769Y-64388867D01*
X158766231Y-64397711D01*
X158780241Y-64400498D01*
X158780246Y-64400498D01*
X158780252Y-64400500D01*
X158780253Y-64400500D01*
X161419747Y-64400500D01*
X161419748Y-64400500D01*
X161478231Y-64388867D01*
X161544552Y-64344552D01*
X161588867Y-64278231D01*
X161600500Y-64219748D01*
X161600500Y-61580252D01*
X161588867Y-61521769D01*
X161544552Y-61455448D01*
X161536399Y-61450000D01*
X161478233Y-61411134D01*
X161478231Y-61411133D01*
X161478228Y-61411132D01*
X161478227Y-61411132D01*
X161419758Y-61399501D01*
X161419748Y-61399500D01*
X158780252Y-61399500D01*
X158780251Y-61399500D01*
X158780241Y-61399501D01*
X158721772Y-61411132D01*
X158721766Y-61411134D01*
X158655451Y-61455445D01*
X158655445Y-61455451D01*
X158611134Y-61521766D01*
X158611132Y-61521772D01*
X158599501Y-61580241D01*
X158599500Y-61580253D01*
X158599500Y-64219746D01*
X155707876Y-64219746D01*
X155895788Y-64118053D01*
X155934425Y-64087980D01*
X155347532Y-63501087D01*
X155415629Y-63474126D01*
X155548492Y-63377595D01*
X155653175Y-63251055D01*
X155701632Y-63148077D01*
X156287311Y-63733756D01*
X156379604Y-63592493D01*
X156379607Y-63592488D01*
X156476134Y-63372428D01*
X156535125Y-63139478D01*
X156554968Y-62900000D01*
X156535125Y-62660521D01*
X156476134Y-62427571D01*
X156379607Y-62207511D01*
X156379604Y-62207506D01*
X156287311Y-62066242D01*
X155702547Y-62651005D01*
X155692812Y-62621044D01*
X155604814Y-62482381D01*
X155485097Y-62369960D01*
X155350486Y-62295956D01*
X155934425Y-61712018D01*
X155895796Y-61681951D01*
X155895792Y-61681948D01*
X155684457Y-61567579D01*
X155457170Y-61489552D01*
X155220150Y-61450000D01*
X154979850Y-61450000D01*
X154742829Y-61489552D01*
X154515542Y-61567579D01*
X154304206Y-61681949D01*
X154304203Y-61681951D01*
X154265573Y-61712018D01*
X154852467Y-62298912D01*
X154784371Y-62325874D01*
X154651508Y-62422405D01*
X154546825Y-62548945D01*
X154498367Y-62651922D01*
X153912688Y-62066243D01*
X153820392Y-62207513D01*
X153723865Y-62427571D01*
X153664874Y-62660521D01*
X153645031Y-62900000D01*
X150211643Y-62900000D01*
X150252736Y-62825648D01*
X150383853Y-62509104D01*
X150478704Y-62179870D01*
X150536096Y-61842086D01*
X150543401Y-61712018D01*
X150555307Y-61500004D01*
X150555307Y-61499995D01*
X150536097Y-61157923D01*
X150536094Y-61157903D01*
X150478706Y-60820141D01*
X150478702Y-60820123D01*
X150383853Y-60490897D01*
X150252734Y-60174347D01*
X150087004Y-59874483D01*
X150087002Y-59874479D01*
X149888735Y-59595047D01*
X149723249Y-59409868D01*
X149660434Y-59339578D01*
X149660421Y-59339565D01*
X149578415Y-59266280D01*
X149404953Y-59111265D01*
X149125521Y-58912998D01*
X149125516Y-58912995D01*
X148825651Y-58747265D01*
X148825652Y-58747265D01*
X148509102Y-58616146D01*
X148179876Y-58521297D01*
X148179858Y-58521293D01*
X148037472Y-58497101D01*
X147983270Y-58468714D01*
X147956106Y-58413889D01*
X147966355Y-58353568D01*
X148010103Y-58310792D01*
X148054055Y-58300500D01*
X163600500Y-58300500D01*
X163658691Y-58319407D01*
G37*
%TD.AperFunction*%
%TD*%
M02*
