<?xml version="1.0" encoding="utf-8" standalone="no"?>
<!DOCTYPE svg PUBLIC "-//W3C//DTD SVG 1.1//EN"
  "http://www.w3.org/Graphics/SVG/1.1/DTD/svg11.dtd">
<svg xmlns:xlink="http://www.w3.org/1999/xlink" width="689.76pt" height="375.12pt" viewBox="0 0 689.76 375.12" xmlns="http://www.w3.org/2000/svg" version="1.1">
 <metadata>
  <rdf:RDF xmlns:dc="http://purl.org/dc/elements/1.1/" xmlns:cc="http://creativecommons.org/ns#" xmlns:rdf="http://www.w3.org/1999/02/22-rdf-syntax-ns#">
   <cc:Work>
    <dc:type rdf:resource="http://purl.org/dc/dcmitype/StillImage"/>
    <dc:date>2024-02-17T16:07:10.239954</dc:date>
    <dc:format>image/svg+xml</dc:format>
    <dc:creator>
     <cc:Agent>
      <dc:title>Matplotlib v3.8.2, https://matplotlib.org/</dc:title>
     </cc:Agent>
    </dc:creator>
   </cc:Work>
  </rdf:RDF>
 </metadata>
 <defs>
  <style type="text/css">*{stroke-linejoin: round; stroke-linecap: butt}</style>
 </defs>
 <g id="figure_1">
  <g id="patch_1">
   <path d="M 0 375.12 
L 689.76 375.12 
L 689.76 0 
L 0 0 
z
" style="fill: #ffffff"/>
  </g>
  <g id="axes_1">
   <g id="patch_2">
    <path d="M 86.22 333.8568 
L 620.784 333.8568 
L 620.784 45.0144 
L 86.22 45.0144 
z
" style="fill: #ffffff"/>
   </g>
   <g id="matplotlib.axis_1">
    <g id="xtick_1">
     <g id="line2d_1">
      <defs>
       <path id="m838cea3b18" d="M 0 0 
L 0 3.5 
" style="stroke: #000000; stroke-width: 0.8"/>
      </defs>
      <g>
       <use xlink:href="#m838cea3b18" x="110.512593" y="333.8568" style="stroke: #000000; stroke-width: 0.8"/>
      </g>
     </g>
     <g id="text_1">
      <!-- 0 -->
      <g transform="translate(107.331343 348.455238) scale(0.1 -0.1)">
       <defs>
        <path id="DejaVuSans-30" d="M 2034 4250 
Q 1547 4250 1301 3770 
Q 1056 3291 1056 2328 
Q 1056 1369 1301 889 
Q 1547 409 2034 409 
Q 2525 409 2770 889 
Q 3016 1369 3016 2328 
Q 3016 3291 2770 3770 
Q 2525 4250 2034 4250 
z
M 2034 4750 
Q 2819 4750 3233 4129 
Q 3647 3509 3647 2328 
Q 3647 1150 3233 529 
Q 2819 -91 2034 -91 
Q 1250 -91 836 529 
Q 422 1150 422 2328 
Q 422 3509 836 4129 
Q 1250 4750 2034 4750 
z
" transform="scale(0.015625)"/>
       </defs>
       <use xlink:href="#DejaVuSans-30"/>
      </g>
     </g>
    </g>
    <g id="xtick_2">
     <g id="line2d_2">
      <g>
       <use xlink:href="#m838cea3b18" x="216.887298" y="333.8568" style="stroke: #000000; stroke-width: 0.8"/>
      </g>
     </g>
     <g id="text_2">
      <!-- 100 -->
      <g transform="translate(207.343548 348.455238) scale(0.1 -0.1)">
       <defs>
        <path id="DejaVuSans-31" d="M 794 531 
L 1825 531 
L 1825 4091 
L 703 3866 
L 703 4441 
L 1819 4666 
L 2450 4666 
L 2450 531 
L 3481 531 
L 3481 0 
L 794 0 
L 794 531 
z
" transform="scale(0.015625)"/>
       </defs>
       <use xlink:href="#DejaVuSans-31"/>
       <use xlink:href="#DejaVuSans-30" x="63.623047"/>
       <use xlink:href="#DejaVuSans-30" x="127.246094"/>
      </g>
     </g>
    </g>
    <g id="xtick_3">
     <g id="line2d_3">
      <g>
       <use xlink:href="#m838cea3b18" x="323.262004" y="333.8568" style="stroke: #000000; stroke-width: 0.8"/>
      </g>
     </g>
     <g id="text_3">
      <!-- 200 -->
      <g transform="translate(313.718254 348.455238) scale(0.1 -0.1)">
       <defs>
        <path id="DejaVuSans-32" d="M 1228 531 
L 3431 531 
L 3431 0 
L 469 0 
L 469 531 
Q 828 903 1448 1529 
Q 2069 2156 2228 2338 
Q 2531 2678 2651 2914 
Q 2772 3150 2772 3378 
Q 2772 3750 2511 3984 
Q 2250 4219 1831 4219 
Q 1534 4219 1204 4116 
Q 875 4013 500 3803 
L 500 4441 
Q 881 4594 1212 4672 
Q 1544 4750 1819 4750 
Q 2544 4750 2975 4387 
Q 3406 4025 3406 3419 
Q 3406 3131 3298 2873 
Q 3191 2616 2906 2266 
Q 2828 2175 2409 1742 
Q 1991 1309 1228 531 
z
" transform="scale(0.015625)"/>
       </defs>
       <use xlink:href="#DejaVuSans-32"/>
       <use xlink:href="#DejaVuSans-30" x="63.623047"/>
       <use xlink:href="#DejaVuSans-30" x="127.246094"/>
      </g>
     </g>
    </g>
    <g id="xtick_4">
     <g id="line2d_4">
      <g>
       <use xlink:href="#m838cea3b18" x="429.636709" y="333.8568" style="stroke: #000000; stroke-width: 0.8"/>
      </g>
     </g>
     <g id="text_4">
      <!-- 300 -->
      <g transform="translate(420.092959 348.455238) scale(0.1 -0.1)">
       <defs>
        <path id="DejaVuSans-33" d="M 2597 2516 
Q 3050 2419 3304 2112 
Q 3559 1806 3559 1356 
Q 3559 666 3084 287 
Q 2609 -91 1734 -91 
Q 1441 -91 1130 -33 
Q 819 25 488 141 
L 488 750 
Q 750 597 1062 519 
Q 1375 441 1716 441 
Q 2309 441 2620 675 
Q 2931 909 2931 1356 
Q 2931 1769 2642 2001 
Q 2353 2234 1838 2234 
L 1294 2234 
L 1294 2753 
L 1863 2753 
Q 2328 2753 2575 2939 
Q 2822 3125 2822 3475 
Q 2822 3834 2567 4026 
Q 2313 4219 1838 4219 
Q 1578 4219 1281 4162 
Q 984 4106 628 3988 
L 628 4550 
Q 988 4650 1302 4700 
Q 1616 4750 1894 4750 
Q 2613 4750 3031 4423 
Q 3450 4097 3450 3541 
Q 3450 3153 3228 2886 
Q 3006 2619 2597 2516 
z
" transform="scale(0.015625)"/>
       </defs>
       <use xlink:href="#DejaVuSans-33"/>
       <use xlink:href="#DejaVuSans-30" x="63.623047"/>
       <use xlink:href="#DejaVuSans-30" x="127.246094"/>
      </g>
     </g>
    </g>
    <g id="xtick_5">
     <g id="line2d_5">
      <g>
       <use xlink:href="#m838cea3b18" x="536.011415" y="333.8568" style="stroke: #000000; stroke-width: 0.8"/>
      </g>
     </g>
     <g id="text_5">
      <!-- 400 -->
      <g transform="translate(526.467665 348.455238) scale(0.1 -0.1)">
       <defs>
        <path id="DejaVuSans-34" d="M 2419 4116 
L 825 1625 
L 2419 1625 
L 2419 4116 
z
M 2253 4666 
L 3047 4666 
L 3047 1625 
L 3713 1625 
L 3713 1100 
L 3047 1100 
L 3047 0 
L 2419 0 
L 2419 1100 
L 313 1100 
L 313 1709 
L 2253 4666 
z
" transform="scale(0.015625)"/>
       </defs>
       <use xlink:href="#DejaVuSans-34"/>
       <use xlink:href="#DejaVuSans-30" x="63.623047"/>
       <use xlink:href="#DejaVuSans-30" x="127.246094"/>
      </g>
     </g>
    </g>
    <g id="text_6">
     <!-- Zeit -->
     <g transform="translate(343.651219 362.133363) scale(0.1 -0.1)">
      <defs>
       <path id="DejaVuSans-5a" d="M 359 4666 
L 4025 4666 
L 4025 4184 
L 1075 531 
L 4097 531 
L 4097 0 
L 288 0 
L 288 481 
L 3238 4134 
L 359 4134 
L 359 4666 
z
" transform="scale(0.015625)"/>
       <path id="DejaVuSans-65" d="M 3597 1894 
L 3597 1613 
L 953 1613 
Q 991 1019 1311 708 
Q 1631 397 2203 397 
Q 2534 397 2845 478 
Q 3156 559 3463 722 
L 3463 178 
Q 3153 47 2828 -22 
Q 2503 -91 2169 -91 
Q 1331 -91 842 396 
Q 353 884 353 1716 
Q 353 2575 817 3079 
Q 1281 3584 2069 3584 
Q 2775 3584 3186 3129 
Q 3597 2675 3597 1894 
z
M 3022 2063 
Q 3016 2534 2758 2815 
Q 2500 3097 2075 3097 
Q 1594 3097 1305 2825 
Q 1016 2553 972 2059 
L 3022 2063 
z
" transform="scale(0.015625)"/>
       <path id="DejaVuSans-69" d="M 603 3500 
L 1178 3500 
L 1178 0 
L 603 0 
L 603 3500 
z
M 603 4863 
L 1178 4863 
L 1178 4134 
L 603 4134 
L 603 4863 
z
" transform="scale(0.015625)"/>
       <path id="DejaVuSans-74" d="M 1172 4494 
L 1172 3500 
L 2356 3500 
L 2356 3053 
L 1172 3053 
L 1172 1153 
Q 1172 725 1289 603 
Q 1406 481 1766 481 
L 2356 481 
L 2356 0 
L 1766 0 
Q 1100 0 847 248 
Q 594 497 594 1153 
L 594 3053 
L 172 3053 
L 172 3500 
L 594 3500 
L 594 4494 
L 1172 4494 
z
" transform="scale(0.015625)"/>
      </defs>
      <use xlink:href="#DejaVuSans-5a"/>
      <use xlink:href="#DejaVuSans-65" x="68.505859"/>
      <use xlink:href="#DejaVuSans-69" x="130.029297"/>
      <use xlink:href="#DejaVuSans-74" x="157.8125"/>
     </g>
    </g>
   </g>
   <g id="matplotlib.axis_2">
    <g id="ytick_1">
     <g id="line2d_6">
      <defs>
       <path id="mfc7ca0a153" d="M 0 0 
L -3.5 0 
" style="stroke: #000000; stroke-width: 0.8"/>
      </defs>
      <g>
       <use xlink:href="#mfc7ca0a153" x="86.22" y="322.27982" style="stroke: #000000; stroke-width: 0.8"/>
      </g>
     </g>
     <g id="text_7">
      <!-- 0.00 -->
      <g transform="translate(56.954375 326.079039) scale(0.1 -0.1)">
       <defs>
        <path id="DejaVuSans-2e" d="M 684 794 
L 1344 794 
L 1344 0 
L 684 0 
L 684 794 
z
" transform="scale(0.015625)"/>
       </defs>
       <use xlink:href="#DejaVuSans-30"/>
       <use xlink:href="#DejaVuSans-2e" x="63.623047"/>
       <use xlink:href="#DejaVuSans-30" x="95.410156"/>
       <use xlink:href="#DejaVuSans-30" x="159.033203"/>
      </g>
     </g>
    </g>
    <g id="ytick_2">
     <g id="line2d_7">
      <g>
       <use xlink:href="#mfc7ca0a153" x="86.22" y="275.522855" style="stroke: #000000; stroke-width: 0.8"/>
      </g>
     </g>
     <g id="text_8">
      <!-- 0.01 -->
      <g transform="translate(56.954375 279.322074) scale(0.1 -0.1)">
       <use xlink:href="#DejaVuSans-30"/>
       <use xlink:href="#DejaVuSans-2e" x="63.623047"/>
       <use xlink:href="#DejaVuSans-30" x="95.410156"/>
       <use xlink:href="#DejaVuSans-31" x="159.033203"/>
      </g>
     </g>
    </g>
    <g id="ytick_3">
     <g id="line2d_8">
      <g>
       <use xlink:href="#mfc7ca0a153" x="86.22" y="228.76589" style="stroke: #000000; stroke-width: 0.8"/>
      </g>
     </g>
     <g id="text_9">
      <!-- 0.02 -->
      <g transform="translate(56.954375 232.565109) scale(0.1 -0.1)">
       <use xlink:href="#DejaVuSans-30"/>
       <use xlink:href="#DejaVuSans-2e" x="63.623047"/>
       <use xlink:href="#DejaVuSans-30" x="95.410156"/>
       <use xlink:href="#DejaVuSans-32" x="159.033203"/>
      </g>
     </g>
    </g>
    <g id="ytick_4">
     <g id="line2d_9">
      <g>
       <use xlink:href="#mfc7ca0a153" x="86.22" y="182.008925" style="stroke: #000000; stroke-width: 0.8"/>
      </g>
     </g>
     <g id="text_10">
      <!-- 0.03 -->
      <g transform="translate(56.954375 185.808144) scale(0.1 -0.1)">
       <use xlink:href="#DejaVuSans-30"/>
       <use xlink:href="#DejaVuSans-2e" x="63.623047"/>
       <use xlink:href="#DejaVuSans-30" x="95.410156"/>
       <use xlink:href="#DejaVuSans-33" x="159.033203"/>
      </g>
     </g>
    </g>
    <g id="ytick_5">
     <g id="line2d_10">
      <g>
       <use xlink:href="#mfc7ca0a153" x="86.22" y="135.25196" style="stroke: #000000; stroke-width: 0.8"/>
      </g>
     </g>
     <g id="text_11">
      <!-- 0.04 -->
      <g transform="translate(56.954375 139.051179) scale(0.1 -0.1)">
       <use xlink:href="#DejaVuSans-30"/>
       <use xlink:href="#DejaVuSans-2e" x="63.623047"/>
       <use xlink:href="#DejaVuSans-30" x="95.410156"/>
       <use xlink:href="#DejaVuSans-34" x="159.033203"/>
      </g>
     </g>
    </g>
    <g id="ytick_6">
     <g id="line2d_11">
      <g>
       <use xlink:href="#mfc7ca0a153" x="86.22" y="88.494995" style="stroke: #000000; stroke-width: 0.8"/>
      </g>
     </g>
     <g id="text_12">
      <!-- 0.05 -->
      <g transform="translate(56.954375 92.294214) scale(0.1 -0.1)">
       <defs>
        <path id="DejaVuSans-35" d="M 691 4666 
L 3169 4666 
L 3169 4134 
L 1269 4134 
L 1269 2991 
Q 1406 3038 1543 3061 
Q 1681 3084 1819 3084 
Q 2600 3084 3056 2656 
Q 3513 2228 3513 1497 
Q 3513 744 3044 326 
Q 2575 -91 1722 -91 
Q 1428 -91 1123 -41 
Q 819 9 494 109 
L 494 744 
Q 775 591 1075 516 
Q 1375 441 1709 441 
Q 2250 441 2565 725 
Q 2881 1009 2881 1497 
Q 2881 1984 2565 2268 
Q 2250 2553 1709 2553 
Q 1456 2553 1204 2497 
Q 953 2441 691 2322 
L 691 4666 
z
" transform="scale(0.015625)"/>
       </defs>
       <use xlink:href="#DejaVuSans-30"/>
       <use xlink:href="#DejaVuSans-2e" x="63.623047"/>
       <use xlink:href="#DejaVuSans-30" x="95.410156"/>
       <use xlink:href="#DejaVuSans-35" x="159.033203"/>
      </g>
     </g>
    </g>
    <g id="text_13">
     <!-- ampere -->
     <g transform="translate(50.874687 208.640288) rotate(-90) scale(0.1 -0.1)">
      <defs>
       <path id="DejaVuSans-61" d="M 2194 1759 
Q 1497 1759 1228 1600 
Q 959 1441 959 1056 
Q 959 750 1161 570 
Q 1363 391 1709 391 
Q 2188 391 2477 730 
Q 2766 1069 2766 1631 
L 2766 1759 
L 2194 1759 
z
M 3341 1997 
L 3341 0 
L 2766 0 
L 2766 531 
Q 2569 213 2275 61 
Q 1981 -91 1556 -91 
Q 1019 -91 701 211 
Q 384 513 384 1019 
Q 384 1609 779 1909 
Q 1175 2209 1959 2209 
L 2766 2209 
L 2766 2266 
Q 2766 2663 2505 2880 
Q 2244 3097 1772 3097 
Q 1472 3097 1187 3025 
Q 903 2953 641 2809 
L 641 3341 
Q 956 3463 1253 3523 
Q 1550 3584 1831 3584 
Q 2591 3584 2966 3190 
Q 3341 2797 3341 1997 
z
" transform="scale(0.015625)"/>
       <path id="DejaVuSans-6d" d="M 3328 2828 
Q 3544 3216 3844 3400 
Q 4144 3584 4550 3584 
Q 5097 3584 5394 3201 
Q 5691 2819 5691 2113 
L 5691 0 
L 5113 0 
L 5113 2094 
Q 5113 2597 4934 2840 
Q 4756 3084 4391 3084 
Q 3944 3084 3684 2787 
Q 3425 2491 3425 1978 
L 3425 0 
L 2847 0 
L 2847 2094 
Q 2847 2600 2669 2842 
Q 2491 3084 2119 3084 
Q 1678 3084 1418 2786 
Q 1159 2488 1159 1978 
L 1159 0 
L 581 0 
L 581 3500 
L 1159 3500 
L 1159 2956 
Q 1356 3278 1631 3431 
Q 1906 3584 2284 3584 
Q 2666 3584 2933 3390 
Q 3200 3197 3328 2828 
z
" transform="scale(0.015625)"/>
       <path id="DejaVuSans-70" d="M 1159 525 
L 1159 -1331 
L 581 -1331 
L 581 3500 
L 1159 3500 
L 1159 2969 
Q 1341 3281 1617 3432 
Q 1894 3584 2278 3584 
Q 2916 3584 3314 3078 
Q 3713 2572 3713 1747 
Q 3713 922 3314 415 
Q 2916 -91 2278 -91 
Q 1894 -91 1617 61 
Q 1341 213 1159 525 
z
M 3116 1747 
Q 3116 2381 2855 2742 
Q 2594 3103 2138 3103 
Q 1681 3103 1420 2742 
Q 1159 2381 1159 1747 
Q 1159 1113 1420 752 
Q 1681 391 2138 391 
Q 2594 391 2855 752 
Q 3116 1113 3116 1747 
z
" transform="scale(0.015625)"/>
       <path id="DejaVuSans-72" d="M 2631 2963 
Q 2534 3019 2420 3045 
Q 2306 3072 2169 3072 
Q 1681 3072 1420 2755 
Q 1159 2438 1159 1844 
L 1159 0 
L 581 0 
L 581 3500 
L 1159 3500 
L 1159 2956 
Q 1341 3275 1631 3429 
Q 1922 3584 2338 3584 
Q 2397 3584 2469 3576 
Q 2541 3569 2628 3553 
L 2631 2963 
z
" transform="scale(0.015625)"/>
      </defs>
      <use xlink:href="#DejaVuSans-61"/>
      <use xlink:href="#DejaVuSans-6d" x="61.279297"/>
      <use xlink:href="#DejaVuSans-70" x="158.691406"/>
      <use xlink:href="#DejaVuSans-65" x="222.167969"/>
      <use xlink:href="#DejaVuSans-72" x="283.691406"/>
      <use xlink:href="#DejaVuSans-65" x="322.554688"/>
     </g>
    </g>
   </g>
   <g id="line2d_12">
    <path d="M 110.518364 320.65966 
L 110.71194 320.660784 
L 110.848682 320.672374 
L 110.864721 320.640069 
L 111.277214 320.688246 
L 111.394199 320.636069 
L 111.510752 320.699901 
L 111.530147 320.671271 
L 111.631647 320.643464 
L 111.647015 320.672396 
L 112.283092 320.677693 
L 112.384651 320.685456 
L 112.400425 320.669671 
L 112.587444 320.642707 
L 112.723719 320.693587 
L 112.823648 320.641993 
L 112.838939 320.66792 
L 112.939743 320.674169 
L 112.955288 320.660784 
L 113.419841 320.659595 
L 113.524986 320.652113 
L 113.470413 320.707317 
L 113.540926 320.674817 
L 113.640432 320.69763 
L 113.655988 320.684916 
L 113.756589 320.656286 
L 113.686442 320.696852 
L 113.771815 320.678256 
L 113.978221 320.691316 
L 114.097331 320.648437 
L 114.389783 320.664914 
L 114.50111 320.664719 
L 114.885799 320.654665 
L 114.981017 320.698236 
L 115.012408 320.65514 
L 115.324591 320.680353 
L 115.631484 320.648178 
L 115.725533 320.695511 
L 115.741215 320.672569 
L 115.866244 320.639723 
L 116.023161 320.698301 
L 116.117871 320.66513 
L 116.133367 320.695836 
L 117.22167 320.686235 
L 117.265168 320.644113 
L 117.324287 320.69616 
L 120.843971 320.642123 
L 121.08114 320.650643 
L 121.192278 320.679012 
L 121.318826 320.654686 
L 121.44297 320.681305 
L 121.60312 320.665195 
L 121.800814 320.654967 
L 121.940653 320.692916 
L 121.960453 320.717567 
L 122.03608 320.642383 
L 122.279192 320.694322 
L 122.612157 320.649064 
L 122.754029 320.669282 
L 122.948258 320.672352 
L 123.187807 320.642685 
L 123.29867 320.673909 
L 123.378353 320.644696 
L 123.413914 320.688743 
L 124.150158 320.703706 
L 124.166002 320.639982 
L 124.260964 320.700787 
L 124.736605 320.650124 
L 124.832029 320.685738 
L 124.86402 320.654038 
L 125.282951 320.692224 
L 125.414886 320.675271 
L 125.542551 320.674969 
L 125.638467 320.661195 
L 125.6662 320.698171 
L 125.894226 320.684224 
L 125.972783 320.666125 
L 126.005037 320.699533 
L 126.167783 320.645583 
L 126.336299 320.649713 
L 126.548596 320.646534 
L 126.644046 320.694798 
L 126.660098 320.673585 
L 134.107899 320.666406 
L 134.187437 320.650599 
L 134.139639 320.684635 
L 134.203405 320.671141 
L 134.283045 320.702214 
L 134.315282 320.662946 
L 134.475388 320.687878 
L 134.491445 320.652048 
L 135.365154 320.678839 
L 135.49296 320.676331 
L 135.588927 320.686927 
L 135.611978 320.661389 
L 135.753354 320.692787 
L 136.028184 320.700571 
L 136.145412 320.65021 
L 136.302092 320.683445 
L 136.419066 320.661584 
L 136.563634 320.685046 
L 136.740582 320.651529 
L 136.878125 320.703295 
L 137.095686 320.688311 
L 137.261053 320.686711 
L 137.526971 320.644394 
L 137.670583 320.688484 
L 138.691631 320.674471 
L 138.836236 320.688873 
L 138.932294 320.645864 
L 138.948209 320.677045 
L 139.111982 320.69843 
L 139.207712 320.650059 
L 139.244955 320.681175 
L 139.372875 320.672979 
L 139.764872 320.658535 
L 139.886547 320.668114 
L 140.204492 320.659595 
L 140.332639 320.676244 
L 140.473541 320.697868 
L 140.755977 320.666536 
L 141.292217 320.643399 
L 141.371765 320.71988 
L 141.404127 320.652264 
L 141.872064 320.649324 
L 141.984516 320.697652 
L 142.081694 320.650837 
L 142.09794 320.695403 
L 142.228697 320.655011 
L 142.344007 320.686927 
L 142.461176 320.677066 
L 142.611445 320.688549 
L 142.734032 320.683359 
L 142.766322 320.643723 
L 142.898779 320.692246 
L 144.338886 320.654189 
L 144.483707 320.680115 
L 144.676714 320.653821 
L 144.772752 320.706409 
L 144.789194 320.665303 
L 144.870368 320.648221 
L 144.90667 320.675055 
L 145.047701 320.697652 
L 145.163391 320.662644 
L 145.264818 320.703187 
L 145.281467 320.674061 
L 145.400083 320.656243 
L 145.5609 320.704766 
L 145.657672 320.649086 
L 145.673766 320.68111 
L 145.82398 320.671963 
L 145.995803 320.649021 
L 146.157408 320.6935 
L 146.313348 320.682321 
L 151.6215 320.690322 
L 151.775358 320.695771 
L 151.919372 320.660265 
L 152.371306 320.718821 
L 152.513396 320.647529 
L 154.717052 320.682645 
L 154.847679 320.676807 
L 155.365817 320.670817 
L 155.394251 320.709285 
L 155.472235 320.643399 
L 155.922492 320.688613 
L 156.003098 320.655248 
L 156.035788 320.671401 
L 156.218839 320.702041 
L 156.259377 320.646556 
L 156.332029 320.679705 
L 156.574897 320.640783 
L 156.689974 320.696571 
L 156.710397 320.685046 
L 156.8702 320.668741 
L 157.674126 320.679791 
L 157.792551 320.681889 
L 157.853634 320.644458 
L 157.907247 320.691251 
L 160.118641 320.685024 
L 160.172729 320.642577 
L 160.233954 320.674925 
L 160.440143 320.679229 
L 160.520874 320.694581 
L 160.473024 320.655508 
L 160.537787 320.680353 
L 160.61935 320.652935 
L 160.652459 320.684937 
L 161.009462 320.702106 
L 161.107204 320.646426 
L 161.123817 320.675574 
L 161.357851 320.683856 
L 161.501496 320.686667 
L 161.734531 320.684483 
L 161.832837 320.641907 
L 161.870356 320.66859 
L 161.994929 320.673325 
L 162.109702 320.659616 
L 162.502374 320.690235 
L 162.62411 320.691273 
L 162.640573 320.66859 
L 162.787565 320.652589 
L 162.902184 320.698841 
L 162.918525 320.659119 
L 163.509457 320.649691 
L 163.58749 320.70496 
L 163.62468 320.674104 
L 163.772943 320.668849 
L 163.908796 320.67205 
L 163.989617 320.704809 
L 164.006258 320.673001 
L 164.119781 320.679294 
L 164.201097 320.704247 
L 164.217657 320.678083 
L 164.364357 320.645756 
L 164.479094 320.710474 
L 164.495682 320.671552 
L 164.674107 320.670255 
L 164.859446 320.686365 
L 165.20695 320.677239 
L 165.255357 320.640285 
L 165.353521 320.700333 
L 165.452354 320.639593 
L 165.485101 320.676158 
L 165.58314 320.677131 
L 165.599769 320.644221 
L 166.248302 320.679488 
L 166.281516 320.649691 
L 166.346527 320.667898 
L 166.444464 320.666665 
L 166.46093 320.694819 
L 166.776252 320.687446 
L 166.918135 320.635701 
L 167.160552 320.697479 
L 167.25801 320.648524 
L 167.291175 320.677282 
L 167.437807 320.697176 
L 167.454371 320.667379 
L 167.585643 320.694884 
L 168.054413 320.696441 
L 168.311739 320.681456 
L 168.433183 320.667898 
L 168.531342 320.669109 
L 168.547959 320.686905 
L 168.646659 320.702604 
L 168.747197 320.650383 
L 168.763619 320.659011 
L 168.883286 320.695187 
L 168.907288 320.680872 
L 169.071989 58.1436 
L 169.629005 184.869844 
L 170.024603 234.901293 
L 170.490256 269.605481 
L 170.948053 289.135678 
L 171.417099 300.717205 
L 171.795633 306.382284 
L 172.443436 312.6869 
L 172.859648 314.920807 
L 173.676113 317.444898 
L 173.823856 317.72133 
L 174.226957 318.327713 
L 174.243773 318.302435 
L 174.300688 318.367154 
L 175.544353 319.313456 
L 175.560983 319.258468 
L 175.643528 319.293195 
L 175.825531 319.407539 
L 176.002508 319.42008 
L 176.327831 319.537149 
L 176.344858 319.499135 
L 176.361426 319.563638 
L 176.406992 319.535246 
L 176.691311 319.635297 
L 176.832233 319.633784 
L 177.470163 319.750615 
L 177.569001 319.784779 
L 177.585821 319.769124 
L 177.624837 319.747588 
L 177.672468 319.816371 
L 178.129965 319.795808 
L 178.356674 319.867835 
L 178.472109 319.846017 
L 178.488953 319.86124 
L 178.653792 319.89268 
L 180.063018 319.938132 
L 180.162436 319.973119 
L 180.178935 319.944252 
L 180.360403 319.968383 
L 180.460105 319.996321 
L 180.4771 319.953485 
L 180.660142 319.961788 
L 181.069119 319.959345 
L 181.185726 320.001164 
L 181.302447 319.975562 
L 181.319522 319.994786 
L 181.468195 319.99911 
L 181.589979 320.031631 
L 181.708047 319.98153 
L 181.724766 320.018895 
L 181.874404 319.988363 
L 182.01212 320.022679 
L 182.150915 320.004581 
L 183.241972 320.006527 
L 183.267999 320.071332 
L 183.36366 320.017187 
L 183.5934 320.03241 
L 183.693556 320.049774 
L 183.792755 320.01416 
L 183.80966 320.064499 
L 184.042355 320.051114 
L 184.213492 320.044433 
L 184.53524 320.033945 
L 184.717723 320.084392 
L 184.817457 320.043979 
L 184.834062 320.066337 
L 185.425343 320.072716 
L 185.525224 320.081127 
L 185.541869 320.051093 
L 185.624934 320.042465 
L 185.58713 320.095053 
L 185.658711 320.07304 
L 186.129968 320.060585 
L 186.288956 320.077019 
L 187.239358 320.054942 
L 187.429015 320.05492 
L 187.545736 320.089042 
L 187.562641 320.053687 
L 187.680011 320.071462 
L 188.052597 320.063742 
L 188.086439 320.079657 
L 188.152453 320.045644 
L 188.269409 320.077235 
L 188.391007 320.060715 
L 188.595329 320.076802 
L 188.743101 320.072824 
L 189.267654 320.065321 
L 189.401872 320.066164 
L 191.414285 320.050725 
L 191.703733 320.075873 
L 191.804417 320.087658 
L 191.821411 320.074597 
L 191.969572 320.070662 
L 192.12757 320.087939 
L 192.313712 320.086555 
L 192.431196 320.046617 
L 192.614993 320.066467 
L 192.777787 320.064823 
L 192.884379 320.062012 
L 192.903833 320.043935 
L 197.09564 320.044887 
L 197.387336 320.07397 
L 197.487947 320.087398 
L 197.505055 320.049384 
L 199.06538 320.073948 
L 199.19218 320.087225 
L 199.394327 320.04333 
L 199.523043 320.053471 
L 200.357252 320.076284 
L 200.519283 320.036735 
L 200.750136 320.082143 
L 200.924145 320.063266 
L 201.128183 320.091269 
L 201.299012 320.079073 
L 201.401294 320.096199 
L 201.520945 320.033621 
L 201.74537 320.0845 
L 201.8748 320.091896 
L 202.202984 320.035156 
L 202.344636 320.073494 
L 202.468515 320.078078 
L 202.851521 320.079981 
L 203.365411 320.070467 
L 203.567712 320.05745 
L 203.617835 320.098231 
L 203.691801 320.03827 
L 204.385341 320.088371 
L 204.415401 320.026744 
L 204.509081 320.080651 
L 204.679861 320.095399 
L 204.799219 320.037038 
L 204.917523 320.093842 
L 205.119442 320.038162 
L 205.243013 320.058639 
L 205.923899 320.071332 
L 206.170342 320.091074 
L 206.353117 320.03933 
L 206.455107 320.068413 
L 206.478797 320.047006 
L 208.977887 320.094664 
L 209.096986 320.046725 
L 209.215362 320.093691 
L 209.316914 320.068975 
L 209.340344 320.091139 
L 209.524061 320.036562 
L 209.553318 320.106751 
L 209.62653 320.054055 
L 209.779082 320.044195 
L 209.957328 320.07531 
L 211.510584 320.092631 
L 211.583796 320.073256 
L 211.548964 320.046681 
L 211.606074 320.050271 
L 211.860284 320.060066 
L 212.00295 320.091593 
L 212.206647 320.040497 
L 212.340387 320.088934 
L 212.461425 320.042573 
L 212.620623 320.113281 
L 212.774425 320.058834 
L 212.893661 320.091031 
L 213.01362 320.045557 
L 213.138335 320.06824 
L 213.312475 320.049687 
L 213.450669 320.095053 
L 213.603538 320.056434 
L 213.704936 320.108329 
L 213.722336 320.053125 
L 213.926512 320.071548 
L 214.449547 320.090836 
L 214.568695 320.044022 
L 214.701898 320.070056 
L 214.822636 320.029534 
L 214.840085 320.081343 
L 215.465663 320.052131 
L 215.675228 320.043762 
L 216.084489 320.058509 
L 216.186942 320.031826 
L 216.204131 320.051828 
L 216.361317 320.042616 
L 216.624153 320.075765 
L 216.725811 320.114362 
L 216.742927 320.052693 
L 216.974372 320.077019 
L 217.100385 320.039546 
L 217.259633 320.09462 
L 217.488618 320.063893 
L 217.61744 320.055828 
L 217.758045 320.068132 
L 217.925497 320.069515 
L 224.129433 320.055936 
L 224.231513 320.040065 
L 224.181593 320.092739 
L 224.248832 320.064239 
L 232.739947 320.072089 
L 232.904356 317.724617 
L 233.051503 318.484914 
L 233.393882 319.436925 
L 233.446723 319.502941 
L 233.710152 319.878235 
L 233.767498 319.913201 
L 234.028655 320.140765 
L 234.132512 320.178865 
L 234.358 320.339137 
L 234.462855 320.384157 
L 234.827699 320.471407 
L 234.957867 320.500404 
L 235.205819 320.567414 
L 237.820956 320.695879 
L 237.943252 320.643658 
L 238.072122 320.653821 
L 238.20759 320.697587 
L 238.346921 320.650189 
L 238.750769 320.65008 
L 238.844303 320.694754 
L 238.862507 320.672158 
L 239.00842 320.641993 
L 239.138986 320.646123 
L 239.57907 320.651356 
L 239.718677 320.693176 
L 240.631009 320.667011 
L 240.774057 320.64355 
L 240.891289 320.6943 
L 240.912228 320.67951 
L 241.082536 320.692224 
L 241.229431 320.690408 
L 241.479494 320.655032 
L 241.652716 320.69536 
L 241.774428 320.653173 
L 242.688545 320.659508 
L 242.859025 320.641842 
L 243.025868 320.661476 
L 243.206094 320.688376 
L 243.328034 320.665065 
L 248.30228 320.679121 
L 248.425753 320.694473 
L 248.667066 320.651918 
L 248.906805 320.65527 
L 249.116386 320.661433 
L 249.30537 320.682062 
L 249.436861 320.649994 
L 249.600767 320.69216 
L 249.75753 320.638382 
L 249.932197 320.68444 
L 250.008145 320.64368 
L 250.038222 320.678191 
L 250.287992 320.64301 
L 250.56073 320.674579 
L 250.67784 320.662038 
L 250.787776 320.692246 
L 250.946633 320.651659 
L 251.081988 320.675877 
L 251.267546 320.649994 
L 251.548578 320.68124 
L 251.672295 320.638123 
L 251.833019 320.697436 
L 252.027667 320.671379 
L 252.191637 320.695381 
L 252.314591 320.652437 
L 252.443355 320.681024 
L 253.293317 320.674017 
L 253.42127 320.648934 
L 253.602836 320.667595 
L 253.778428 320.645669 
L 253.911331 320.674536 
L 254.102652 320.677217 
L 254.230475 320.663162 
L 254.364823 320.710409 
L 254.382743 320.679337 
L 254.510176 320.670493 
L 255.280799 320.680851 
L 255.517584 320.691057 
L 255.688988 320.672244 
L 256.169278 320.698603 
L 256.311076 320.644567 
L 256.439159 320.650578 
L 256.931817 320.65047 
L 257.087088 320.696354 
L 257.517401 320.667422 
L 257.65157 320.639766 
L 257.669474 320.68297 
L 261.331818 320.670622 
L 261.42497 320.656048 
L 261.453521 320.691424 
L 262.63407 320.666601 
L 262.804501 320.64688 
L 262.929045 320.671185 
L 263.059579 320.656957 
L 263.687153 320.696398 
L 263.86182 320.664892 
L 263.9869 320.703166 
L 264.145742 320.658535 
L 264.306888 320.675726 
L 264.636566 320.64515 
L 264.772423 320.705047 
L 265.025586 320.658103 
L 265.136625 320.709069 
L 265.154967 320.673996 
L 265.302106 320.681283 
L 265.455104 320.704874 
L 265.49156 320.667725 
L 265.560754 320.697998 
L 265.890254 320.648416 
L 266.014278 320.671141 
L 266.366875 320.696203 
L 266.495883 320.650578 
L 266.708629 320.673152 
L 266.793325 320.649064 
L 266.820708 320.692873 
L 267.791383 320.65767 
L 267.902926 320.702193 
L 267.921024 320.667811 
L 268.031382 320.690862 
L 268.157176 320.696225 
L 268.567021 320.692765 
L 268.65571 320.679596 
L 268.678094 320.652827 
L 268.878942 320.693046 
L 269.003681 320.654492 
L 269.161824 320.692376 
L 269.648185 320.679683 
L 270.112195 320.668179 
L 270.262807 320.697911 
L 270.410367 320.666665 
L 270.654895 320.681975 
L 270.89228 320.678147 
L 270.97386 320.685435 
L 271.000609 320.652221 
L 271.282339 320.668806 
L 271.562787 320.690062 
L 271.581437 320.635528 
L 271.674135 320.671314 
L 271.799994 320.70282 
L 271.959533 320.630793 
L 272.08906 320.652481 
L 272.239835 320.661454 
L 272.675861 320.683272 
L 272.808375 320.654146 
L 272.891269 320.67765 
L 272.917646 320.657108 
L 273.142403 320.682494 
L 273.268327 320.688743 
L 273.810443 320.658384 
L 273.958652 320.666082 
L 274.137312 320.695511 
L 274.282454 320.653281 
L 274.479667 320.704874 
L 274.770324 320.646621 
L 274.914395 320.674839 
L 275.074129 320.669736 
L 275.495401 320.64474 
L 275.818392 320.652005 
L 275.967851 320.688311 
L 276.093597 320.642794 
L 276.228789 320.675985 
L 277.544384 320.680461 
L 277.693259 320.692376 
L 277.818826 320.672893 
L 277.996333 320.709523 
L 278.260468 320.643572 
L 278.396894 320.6959 
L 278.415463 320.672223 
L 278.433642 320.631917 
L 278.504087 320.707404 
L 280.819607 320.673801 
L 280.951796 320.707188 
L 281.110085 320.652891 
L 281.236918 320.667076 
L 282.177777 320.660481 
L 282.45764 320.674904 
L 282.632681 320.685802 
L 282.858753 320.641431 
L 282.998181 320.701371 
L 283.326918 320.644026 
L 283.453361 320.6562 
L 283.984666 320.675726 
L 284.115849 320.648134 
L 284.403439 320.692138 
L 285.440972 320.668006 
L 285.590432 320.691987 
L 285.735298 320.655443 
L 285.759888 320.684764 
L 285.896363 320.67538 
L 286.079194 320.675596 
L 286.229547 320.704982 
L 286.374169 320.664741 
L 286.534553 320.687078 
L 291.16741 320.660005 
L 291.299615 320.682927 
L 296.569965 320.642512 
L 296.799283 77.278794 
L 296.82178 87.824454 
L 297.239741 179.078526 
L 297.787391 245.533967 
L 298.312172 278.363004 
L 298.865438 296.505993 
L 299.385853 305.684268 
L 300.197589 313.384514 
L 300.997234 316.624238 
L 301.692461 318.060492 
L 301.963884 318.436517 
L 302.078073 318.520596 
L 302.262057 318.711372 
L 302.46284 318.838958 
L 303.03513 319.214294 
L 303.151932 319.235874 
L 303.289429 319.325478 
L 303.407497 319.358972 
L 303.654784 319.432865 
L 303.892072 319.488975 
L 304.045946 319.559761 
L 304.779707 319.709791 
L 304.895503 319.685966 
L 305.056308 319.761068 
L 305.609461 319.827709 
L 305.705422 319.805265 
L 305.839705 319.847909 
L 306.150148 319.818732 
L 306.37536 319.883475 
L 306.492552 319.860858 
L 306.668566 319.921284 
L 307.568213 319.947181 
L 307.859324 319.96272 
L 308.242875 319.993278 
L 308.64139 319.966345 
L 308.79606 320.026772 
L 309.002768 319.954432 
L 309.142375 319.99863 
L 309.252684 319.989825 
L 309.367262 320.003464 
L 310.099871 320.030743 
L 310.240874 320.00968 
L 310.442729 320.030052 
L 310.55596 320.011579 
L 310.719946 320.030397 
L 310.86504 320.0449 
L 310.994096 320.044209 
L 311.109242 320.003464 
L 311.13893 320.041792 
L 311.311097 320.055776 
L 311.469387 320.018484 
L 312.257913 320.030915 
L 312.440809 320.055086 
L 312.570369 320.066308 
L 312.661541 320.035059 
L 312.82522 320.073386 
L 313.27006 320.056294 
L 313.47891 320.093931 
L 313.66382 320.026772 
L 313.800278 320.094795 
L 313.964313 320.042137 
L 314.056216 320.099801 
L 314.086699 320.032641 
L 314.424752 320.054395 
L 317.781457 320.084954 
L 317.91053 320.084436 
L 318.024329 320.046971 
L 318.215049 320.052496 
L 318.740868 320.069761 
L 318.832414 320.043691 
L 318.863951 320.08599 
L 319.015829 320.083745 
L 319.199245 320.039202 
L 319.291034 320.104635 
L 319.321209 320.046453 
L 319.826706 320.07494 
L 320.058151 320.102046 
L 320.219768 320.041792 
L 320.31219 320.09842 
L 320.342592 320.039893 
L 320.501417 320.084263 
L 320.714812 320.068725 
L 322.314702 320.064754 
L 322.444765 320.072868 
L 322.778468 320.060956 
L 323.348777 320.056294 
L 323.36806 320.029361 
L 323.441021 320.081846 
L 323.610348 320.094622 
L 323.906102 320.073214 
L 323.998751 320.071315 
L 324.018148 320.089097 
L 324.392738 320.041447 
L 324.485793 320.090651 
L 324.512202 320.052323 
L 324.70375 320.065272 
L 324.862332 320.064754 
L 325.140767 320.093586 
L 325.287175 320.026772 
L 325.448581 320.090306 
L 325.602715 320.029361 
L 325.884299 320.073731 
L 326.746256 320.067343 
L 326.869696 320.078739 
L 327.033521 320.061301 
L 327.372694 320.041792 
L 327.611378 320.092205 
L 327.727563 320.068034 
L 327.938362 320.075113 
L 328.031644 320.034368 
L 328.081881 320.080465 
L 328.291835 320.095485 
L 328.365737 320.049906 
L 328.404076 320.076321 
L 328.643263 320.064236 
L 329.659013 320.079602 
L 329.789839 320.077703 
L 329.936053 320.058539 
L 330.066278 320.079429 
L 330.25182 320.081156 
L 330.363671 320.063545 
L 330.479872 320.055949 
L 330.528762 320.106017 
L 330.601511 320.053532 
L 330.824889 320.098593 
L 331.161141 320.050942 
L 331.320647 320.080983 
L 331.415959 320.034196 
L 331.442432 320.108952 
L 331.746968 320.054913 
L 331.766137 320.10429 
L 331.859484 320.053014 
L 332.075753 320.044554 
L 332.235081 320.083572 
L 332.328104 320.028153 
L 332.352045 320.053359 
L 332.49511 320.077357 
L 332.815243 320.062855 
L 334.415863 320.055604 
L 334.556541 320.077875 
L 335.160353 320.04818 
L 335.25607 320.10757 
L 335.285173 320.076839 
L 335.475471 320.051978 
L 335.830519 320.051288 
L 335.915588 320.099111 
L 335.94435 320.062164 
L 336.756006 320.041792 
L 336.851788 320.084609 
L 336.880469 320.06907 
L 337.091917 320.04818 
L 337.234819 320.10947 
L 337.396517 320.054568 
L 337.471166 320.094795 
L 337.521305 320.054741 
L 345.518902 320.071833 
L 345.655538 320.057676 
L 345.749275 320.107398 
L 345.77656 320.066653 
L 345.897696 320.089443 
L 346.029853 320.074249 
L 346.294588 320.060092 
L 346.407543 320.091515 
L 346.834951 320.070106 
L 346.967546 320.079084 
L 347.275798 320.050251 
L 347.43946 320.058884 
L 347.719567 320.042137 
L 347.812752 320.099456 
L 347.840183 320.077703 
L 347.936177 320.065099 
L 347.960199 320.094277 
L 348.786918 320.053877 
L 348.926703 320.060438 
L 349.068323 320.088579 
L 349.22869 320.041101 
L 349.350832 320.084609 
L 349.495228 320.081501 
L 349.703396 320.08668 
L 349.891795 320.037303 
L 350.010204 320.071487 
L 350.039859 320.043518 
L 350.39317 320.063718 
L 350.519078 320.065445 
L 350.776119 320.08599 
L 350.871837 320.062855 
L 350.899609 320.090824 
L 351.127353 320.056812 
L 351.246573 320.068898 
L 351.487854 320.03972 
L 351.883318 320.076667 
L 352.010313 320.066135 
L 352.259077 320.091687 
L 352.430953 320.083572 
L 352.765354 320.037821 
L 352.888681 320.080637 
L 352.908645 320.062682 
L 353.096687 320.067516 
L 353.304012 320.090996 
L 353.475741 320.081501 
L 353.648071 320.0834 
L 353.835707 320.081846 
L 354.043827 320.070624 
L 354.185561 320.044209 
L 354.494284 320.081846 
L 354.732578 320.09186 
L 354.827646 320.032641 
L 354.859622 320.084609 
L 355.233222 320.032124 
L 355.375053 320.073731 
L 355.608283 320.076494 
L 355.776604 320.069243 
L 356.084272 320.03385 
L 356.179956 320.0834 
L 356.207842 320.057503 
L 356.341931 320.062682 
L 356.436771 320.091342 
L 356.467416 320.052669 
L 356.680195 320.053704 
L 356.819412 320.071315 
L 356.914854 320.049043 
L 356.946067 320.087889 
L 357.413907 320.072178 
L 357.555592 320.074768 
L 357.744039 320.042482 
L 358.06552 320.073559 
L 360.236044 320.077703 
L 360.334764 320.046281 
L 360.354956 320.083918 
L 360.38177 320.043864 
L 360.545611 317.762329 
L 360.621023 318.143535 
L 360.925769 319.188396 
L 361.145738 319.58514 
L 361.364993 319.919903 
L 361.384747 319.885546 
L 361.435097 319.960993 
L 361.459444 319.958576 
L 361.669204 320.159019 
L 361.972473 320.284879 
L 362.190121 320.378972 
L 362.316613 320.405905 
L 362.646567 320.527449 
L 362.764553 320.506558 
L 362.860027 320.555245 
L 362.890818 320.510357 
L 363.119666 320.573546 
L 363.338986 320.587185 
L 363.483462 320.606521 
L 364.319433 320.616845 
L 364.367608 320.663638 
L 364.442938 320.617148 
L 365.221011 320.699165 
L 365.315771 320.631009 
L 365.349759 320.658189 
L 365.605551 320.673952 
L 365.756017 320.669585 
L 366.066688 320.656027 
L 366.181721 320.670536 
L 366.352362 320.665109 
L 366.49843 320.673758 
L 366.716191 320.670644 
L 367.445083 320.652243 
L 367.540946 320.674904 
L 367.743125 320.647702 
L 368.189994 320.638707 
L 368.285257 320.688008 
L 368.31014 320.669303 
L 368.402448 320.656027 
L 368.434522 320.688116 
L 368.934403 320.649929 
L 369.131226 320.696441 
L 370.411972 320.687575 
L 370.646907 320.691057 
L 370.742656 320.646448 
L 370.772749 320.698906 
L 370.945242 320.669066 
L 371.061053 320.663206 
L 371.80129 320.681997 
L 371.913028 320.656654 
L 371.942991 320.679791 
L 372.177082 320.691511 
L 372.325048 320.691533 
L 392.794339 320.666601 
L 392.865303 320.701825 
L 392.889878 320.671833 
L 393.134876 320.6562 
L 393.379192 320.690992 
L 393.474926 320.652848 
L 393.504727 320.691446 
L 393.646817 320.662644 
L 393.821014 320.699187 
L 393.964305 320.655919 
L 394.060006 320.698733 
L 394.090326 320.648653 
L 394.597658 320.664373 
L 394.741014 320.703533 
L 395.009808 320.649345 
L 395.163812 320.698949 
L 396.384518 320.675963 
L 396.543522 320.648416 
L 396.951646 320.686365 
L 397.14545 320.698387 
L 397.687355 320.65261 
L 397.760851 320.712053 
L 397.786789 320.680007 
L 397.857721 320.653367 
L 397.889697 320.697414 
L 398.891894 320.690257 
L 399.057553 320.675898 
L 399.548977 320.660979 
L 399.612312 320.70749 
L 399.64497 320.650881 
L 399.906362 320.661606 
L 400.036734 320.679488 
L 404.178815 320.652373 
L 404.31714 320.702258 
L 404.607781 320.638555 
L 404.704716 320.681932 
L 404.729355 320.66113 
L 405.02743 320.677347 
L 405.156049 320.663292 
L 406.112506 320.67858 
L 406.264335 320.653302 
L 407.664399 320.690949 
L 407.889042 320.654859 
L 407.957539 320.695706 
L 408.013603 320.652675 
L 412.301995 320.699425 
L 412.457006 320.665282 
L 412.889089 320.645475 
L 413.068024 320.690862 
L 413.441998 320.655032 
L 413.894078 320.67778 
L 414.07389 320.674061 
L 414.611639 320.632177 
L 414.744803 320.679423 
L 414.909422 320.640307 
L 414.982107 320.70003 
L 415.016128 320.653908 
L 415.380233 320.651162 
L 415.409385 320.715621 
L 415.505183 320.658968 
L 415.600851 320.690041 
L 415.633087 320.647702 
L 416.127726 320.674861 
L 416.398759 320.642966 
L 416.49446 320.684354 
L 416.52543 320.65341 
L 416.644958 320.669887 
L 416.792275 320.705069 
L 416.922095 320.684981 
L 417.090188 320.684246 
L 417.25721 320.684224 
L 417.412448 320.682689 
L 417.733767 320.676612 
L 417.877286 320.699468 
L 418.011131 320.672417 
L 418.448569 320.682581 
L 418.646074 320.679705 
L 418.801215 320.663033 
L 418.967685 320.674558 
L 419.164475 320.648351 
L 419.29449 320.6538 
L 424.155951 320.709826 
L 424.197536 320.695965 
L 424.38527 66.818279 
L 424.992587 195.70895 
L 425.587829 257.276558 
L 426.055393 282.420906 
L 426.55766 297.534454 
L 427.025452 305.611757 
L 427.680133 312.20578 
L 428.18279 315.066567 
L 428.618962 316.553345 
L 429.079904 317.650838 
L 429.546819 318.326156 
L 430.440168 319.096509 
L 430.512398 319.090757 
L 430.668318 319.21827 
L 432.792339 319.73723 
L 435.12396 319.95448 
L 435.223751 319.946738 
L 435.380223 319.963929 
L 436.053148 319.981919 
L 436.18524 319.990158 
L 436.556746 319.965918 
L 436.652447 320.019479 
L 436.684261 319.976859 
L 436.805932 320.01883 
L 437.026291 319.964167 
L 437.183964 320.041124 
L 437.313945 320.035545 
L 437.990214 320.048584 
L 438.341042 320.037535 
L 438.498 320.017728 
L 442.790516 320.076219 
L 442.916667 320.071051 
L 443.896692 320.076046 
L 444.064526 320.082424 
L 444.368217 320.054855 
L 447.654574 320.093518 
L 447.754301 320.046811 
L 448.034813 320.062466 
L 448.207192 320.071483 
L 448.533153 320.078273 
L 448.70894 320.046876 
L 449.276263 320.095464 
L 449.376086 320.059396 
L 454.286535 320.060477 
L 454.417004 320.051417 
L 454.645673 320.073364 
L 454.821492 320.044498 
L 454.968485 320.063375 
L 455.119081 320.062077 
L 456.081446 320.066921 
L 456.38478 320.097561 
L 457.246542 320.055006 
L 457.399962 320.049471 
L 457.757217 320.047222 
L 457.959267 320.08582 
L 458.092722 320.061753 
L 458.315126 320.063093 
L 458.462378 320.052801 
L 458.594632 320.077148 
L 458.778665 320.056758 
L 459.076253 320.033448 
L 459.151567 320.104026 
L 459.209546 320.060282 
L 459.458018 320.049211 
L 459.559432 320.093972 
L 459.586506 320.057558 
L 459.845691 320.058315 
L 459.967947 320.066056 
L 460.097441 320.060391 
L 471.740453 320.051568 
L 471.82002 320.078749 
L 471.847581 320.051157 
L 475.543069 320.063202 
L 475.699379 320.044519 
L 478.819136 320.082641 
L 478.955968 320.078013 
L 479.468234 320.0448 
L 479.627108 320.101324 
L 479.776729 320.077257 
L 479.956315 320.040151 
L 480.117591 320.093734 
L 480.404434 320.043525 
L 480.582915 320.104481 
L 480.766169 320.035329 
L 480.992403 320.078403 
L 481.127741 320.050617 
L 481.264768 320.088047 
L 481.90549 320.085863 
L 482.159577 320.096934 
L 482.292286 320.062834 
L 483.056432 320.074986 
L 483.191641 320.053644 
L 483.394015 320.097648 
L 483.595642 320.044043 
L 483.774319 320.101453 
L 483.956371 320.045254 
L 484.31895 320.053233 
L 484.451886 320.062596 
L 484.733827 320.088934 
L 484.91364 320.044325 
L 485.042258 320.063893 
L 485.249469 320.060585 
L 485.639804 320.044779 
L 485.776376 320.084911 
L 486.028873 320.091204 
L 486.31432 320.072975 
L 486.443717 320.065602 
L 488.023236 320.034529 
L 488.206879 317.923465 
L 488.467752 318.871107 
L 488.882467 319.752539 
L 489.037575 319.911752 
L 489.371911 320.207408 
L 489.577824 320.246135 
L 489.739392 320.38273 
L 489.890345 320.410213 
L 490.058828 320.464812 
L 490.367259 320.511172 
L 490.616412 320.536472 
L 490.754802 320.613083 
L 490.886407 320.618943 
L 491.063168 320.596044 
L 491.220451 320.61211 
L 491.512553 320.612521 
L 491.685872 320.619375 
L 491.944148 320.653973 
L 492.159345 320.673823 
L 493.32811 320.69257 
L 493.431115 320.63795 
L 493.456533 320.687597 
L 493.64154 320.636869 
L 493.774021 320.687057 
L 493.977792 320.664892 
L 494.144132 320.686408 
L 494.27064 320.684527 
L 494.433182 320.657454 
L 494.55836 320.653583 
L 496.746073 320.665476 
L 496.871185 320.664352 
L 497.31794 320.663249 
L 497.445845 320.656632 
L 497.698407 320.658989 
L 497.882407 320.702301 
L 498.169023 320.653692 
L 498.371137 320.672287 
L 506.400694 320.671963 
L 506.529994 320.680807 
L 507.794752 320.656503 
L 507.949957 320.701912 
L 508.078348 320.696484 
L 508.273321 320.682343 
L 508.400446 320.683878 
L 508.564189 320.682883 
L 509.061912 320.667747 
L 509.242633 320.647334 
L 509.381023 320.685175 
L 509.53717 320.642512 
L 509.871863 320.654492 
L 510.528849 320.701306 
L 510.709506 320.668936 
L 510.873119 320.665282 
L 511.108865 320.664784 
L 512.024224 320.670882 
L 512.173002 320.634555 
L 512.412514 320.675553 
L 512.660077 320.677672 
L 513.4723 320.656697 
L 513.613579 320.679986 
L 514.079942 320.694127 
L 514.221027 320.645605 
L 514.376752 320.715642 
L 514.540235 320.66686 
L 514.699012 320.696463 
L 514.859281 320.63968 
L 514.992412 320.6959 
L 515.274028 320.698474 
L 515.410438 320.663833 
L 515.5424 320.700917 
L 515.564734 320.676936 
L 516.095407 320.66286 
L 516.260384 320.664892 
L 516.539825 320.650643 
L 516.67841 320.702495 
L 516.836147 320.638339 
L 516.97616 320.681413 
L 517.284461 320.649605 
L 517.445997 320.68191 
L 518.242087 320.667855 
L 518.423782 320.687813 
L 518.561133 320.655811 
L 518.694426 320.708463 
L 518.912999 320.676007 
L 519.486945 320.693954 
L 519.624945 320.643853 
L 519.757491 320.69017 
L 520.156591 320.648091 
L 520.313387 320.692722 
L 520.655125 320.708853 
L 520.795073 320.663249 
L 520.821271 320.723686 
L 520.901422 320.664979 
L 521.823403 320.700355 
L 521.963676 320.655443 
L 522.123134 320.710474 
L 522.284345 320.655011 
L 522.442732 320.69337 
L 522.675524 320.698495 
L 522.816186 320.643421 
L 522.94659 320.682451 
L 524.035041 320.684029 
L 524.188169 320.680786 
L 524.331915 320.666492 
L 524.354769 320.706344 
L 524.724522 320.702647 
L 524.859114 320.66273 
L 525.039219 320.684591 
L 525.325542 320.644134 
L 525.464906 320.691187 
L 525.646439 320.651637 
L 525.780608 320.707534 
L 525.811123 320.669217 
L 525.961265 320.661952 
L 526.127183 320.689478 
L 526.282291 320.642512 
L 526.422109 320.680526 
L 526.602214 320.655097 
L 526.847634 320.693479 
L 527.005047 320.659097 
L 527.132075 320.652589 
L 527.273256 320.694754 
L 527.456607 320.649151 
L 527.592238 320.699101 
L 527.749586 320.647226 
L 527.96462 320.662016 
L 528.198614 320.64861 
L 528.336971 320.69536 
L 528.629138 320.676612 
L 528.866929 320.70096 
L 529.027653 320.652502 
L 533.205282 320.675812 
L 533.37198 320.64887 
L 533.527607 320.707036 
L 533.666289 320.653151 
L 533.801335 320.68617 
L 534.738606 320.644956 
L 534.872062 320.682818 
L 535.133648 320.673174 
L 535.300248 320.677109 
L 535.455843 320.641518 
L 535.591571 320.696527 
L 535.750867 320.633387 
L 535.773753 320.663552 
L 535.910715 320.702236 
L 536.10163 320.693457 
L 536.479661 320.651724 
L 536.612889 320.70029 
L 536.741702 320.715837 
L 536.878729 320.651918 
L 537.124993 320.708117 
L 537.280068 320.677412 
L 537.418815 320.665606 
L 537.59655 320.672417 
L 537.78964 320.679337 
L 539.307479 320.654729 
L 539.44233 320.698344 
L 539.584388 320.643161 
L 539.772317 320.654946 
L 539.903792 320.653454 
L 540.166839 320.703058 
L 540.303411 320.667984 
L 540.951307 320.669822 
L 541.109856 320.675034 
L 541.243085 320.64688 
L 541.414489 320.649064 
L 541.887475 320.693068 
L 542.021774 320.686256 
L 542.183245 320.654556 
L 542.342833 320.680505 
L 542.449928 320.685175 
L 542.850132 320.687208 
L 543.092079 320.675898 
L 543.23365 320.703425 
L 543.362723 320.674774 
L 543.55565 320.68178 
L 543.712284 320.648351 
L 543.846259 320.685738 
L 544.16537 320.666838 
L 544.331548 320.656351 
L 544.594888 320.695965 
L 544.736783 320.644718 
L 544.847807 320.707793 
L 544.87105 320.691273 
L 545.027424 320.672309 
L 545.214411 320.690062 
L 545.348256 320.669931 
L 545.515051 320.67672 
L 546.005761 320.670212 
L 546.162428 320.644913 
L 546.291273 320.675358 
L 548.290344 320.669693 
L 548.447205 320.707771 
L 548.584978 320.634728 
L 548.615006 320.675336 
L 548.855362 320.687813 
L 549.05027 320.65008 
L 549.263389 320.656286 
L 549.481865 320.644069 
L 549.612529 320.681478 
L 550.748538 320.694279 
L 550.884461 320.649497 
L 551.367056 320.687338 
L 551.505251 320.648588 
L 551.534759 320.693954 
L 551.860558 320.661541 
L 552.09559 77.760999 
L 552.122437 89.9057 
L 552.790979 215.732106 
L 553.303538 261.860704 
L 553.730101 283.424161 
L 554.162378 296.563658 
L 554.682046 305.740035 
L 555.486089 313.323393 
L 556.02663 315.849569 
L 556.270817 316.567092 
L 556.600738 317.423595 
L 556.652484 317.476599 
L 556.897222 317.949479 
L 556.927673 317.939811 
L 557.112062 318.238664 
L 557.19559 318.347604 
L 557.4712 318.588274 
L 557.98022 319.037675 
L 558.015053 318.991923 
L 558.065143 319.083427 
L 560.368522 319.769354 
L 560.504509 319.740005 
L 560.644522 319.788518 
L 560.783334 319.755715 
L 560.913445 319.820803 
L 561.270441 319.821494 
L 561.432593 319.880022 
L 561.589552 319.831335 
L 561.753912 319.897804 
L 561.888893 319.87605 
L 562.000014 319.912306 
L 562.031438 319.881575 
L 562.89794 319.962547 
L 563.039511 319.948045 
L 563.197443 319.974805 
L 563.33408 319.94252 
L 563.497109 319.982919 
L 563.52032 319.955468 
L 563.740257 319.946491 
L 563.770285 320.013996 
L 563.848164 319.977222 
L 591.565904 320.085019 
L 591.710202 320.055374 
L 591.885274 320.095637 
L 592.131539 320.043308 
L 593.662396 320.049579 
L 593.842533 320.096826 
L 593.981734 320.042335 
L 594.587006 320.096977 
L 594.755132 320.062553 
L 594.840964 320.108157 
L 594.86859 320.090361 
L 595.106252 320.062985 
L 595.246784 320.060607 
L 595.427311 320.079657 
L 596.383443 320.052758 
L 596.485636 320.066596 
L 596.485636 320.066596 
" clip-path="url(#p1de56b77ef)" style="fill: none; stroke: #ff7f0e; stroke-width: 1.5; stroke-linecap: square"/>
   </g>
   <g id="patch_3">
    <path d="M 86.22 333.8568 
L 86.22 45.0144 
" style="fill: none; stroke: #000000; stroke-width: 0.8; stroke-linejoin: miter; stroke-linecap: square"/>
   </g>
   <g id="patch_4">
    <path d="M 620.784 333.8568 
L 620.784 45.0144 
" style="fill: none; stroke: #000000; stroke-width: 0.8; stroke-linejoin: miter; stroke-linecap: square"/>
   </g>
   <g id="patch_5">
    <path d="M 86.22 333.8568 
L 620.784 333.8568 
" style="fill: none; stroke: #000000; stroke-width: 0.8; stroke-linejoin: miter; stroke-linecap: square"/>
   </g>
   <g id="patch_6">
    <path d="M 86.22 45.0144 
L 620.784 45.0144 
" style="fill: none; stroke: #000000; stroke-width: 0.8; stroke-linejoin: miter; stroke-linecap: square"/>
   </g>
  </g>
  <g id="axes_2">
   <g id="matplotlib.axis_3">
    <g id="ytick_7">
     <g id="line2d_13">
      <defs>
       <path id="m5e9c58351f" d="M 0 0 
L 3.5 0 
" style="stroke: #000000; stroke-width: 0.8"/>
      </defs>
      <g>
       <use xlink:href="#m5e9c58351f" x="620.784" y="320.7276" style="stroke: #000000; stroke-width: 0.8"/>
      </g>
     </g>
     <g id="text_14">
      <!-- 0.00 -->
      <g transform="translate(627.784 324.526819) scale(0.1 -0.1)">
       <use xlink:href="#DejaVuSans-30"/>
       <use xlink:href="#DejaVuSans-2e" x="63.623047"/>
       <use xlink:href="#DejaVuSans-30" x="95.410156"/>
       <use xlink:href="#DejaVuSans-30" x="159.033203"/>
      </g>
     </g>
    </g>
    <g id="ytick_8">
     <g id="line2d_14">
      <g>
       <use xlink:href="#m5e9c58351f" x="620.784" y="287.874302" style="stroke: #000000; stroke-width: 0.8"/>
      </g>
     </g>
     <g id="text_15">
      <!-- 0.05 -->
      <g transform="translate(627.784 291.673521) scale(0.1 -0.1)">
       <use xlink:href="#DejaVuSans-30"/>
       <use xlink:href="#DejaVuSans-2e" x="63.623047"/>
       <use xlink:href="#DejaVuSans-30" x="95.410156"/>
       <use xlink:href="#DejaVuSans-35" x="159.033203"/>
      </g>
     </g>
    </g>
    <g id="ytick_9">
     <g id="line2d_15">
      <g>
       <use xlink:href="#m5e9c58351f" x="620.784" y="255.021004" style="stroke: #000000; stroke-width: 0.8"/>
      </g>
     </g>
     <g id="text_16">
      <!-- 0.10 -->
      <g transform="translate(627.784 258.820223) scale(0.1 -0.1)">
       <use xlink:href="#DejaVuSans-30"/>
       <use xlink:href="#DejaVuSans-2e" x="63.623047"/>
       <use xlink:href="#DejaVuSans-31" x="95.410156"/>
       <use xlink:href="#DejaVuSans-30" x="159.033203"/>
      </g>
     </g>
    </g>
    <g id="ytick_10">
     <g id="line2d_16">
      <g>
       <use xlink:href="#m5e9c58351f" x="620.784" y="222.167706" style="stroke: #000000; stroke-width: 0.8"/>
      </g>
     </g>
     <g id="text_17">
      <!-- 0.15 -->
      <g transform="translate(627.784 225.966925) scale(0.1 -0.1)">
       <use xlink:href="#DejaVuSans-30"/>
       <use xlink:href="#DejaVuSans-2e" x="63.623047"/>
       <use xlink:href="#DejaVuSans-31" x="95.410156"/>
       <use xlink:href="#DejaVuSans-35" x="159.033203"/>
      </g>
     </g>
    </g>
    <g id="ytick_11">
     <g id="line2d_17">
      <g>
       <use xlink:href="#m5e9c58351f" x="620.784" y="189.314408" style="stroke: #000000; stroke-width: 0.8"/>
      </g>
     </g>
     <g id="text_18">
      <!-- 0.20 -->
      <g transform="translate(627.784 193.113627) scale(0.1 -0.1)">
       <use xlink:href="#DejaVuSans-30"/>
       <use xlink:href="#DejaVuSans-2e" x="63.623047"/>
       <use xlink:href="#DejaVuSans-32" x="95.410156"/>
       <use xlink:href="#DejaVuSans-30" x="159.033203"/>
      </g>
     </g>
    </g>
    <g id="ytick_12">
     <g id="line2d_18">
      <g>
       <use xlink:href="#m5e9c58351f" x="620.784" y="156.46111" style="stroke: #000000; stroke-width: 0.8"/>
      </g>
     </g>
     <g id="text_19">
      <!-- 0.25 -->
      <g transform="translate(627.784 160.260329) scale(0.1 -0.1)">
       <use xlink:href="#DejaVuSans-30"/>
       <use xlink:href="#DejaVuSans-2e" x="63.623047"/>
       <use xlink:href="#DejaVuSans-32" x="95.410156"/>
       <use xlink:href="#DejaVuSans-35" x="159.033203"/>
      </g>
     </g>
    </g>
    <g id="ytick_13">
     <g id="line2d_19">
      <g>
       <use xlink:href="#m5e9c58351f" x="620.784" y="123.607812" style="stroke: #000000; stroke-width: 0.8"/>
      </g>
     </g>
     <g id="text_20">
      <!-- 0.30 -->
      <g transform="translate(627.784 127.407031) scale(0.1 -0.1)">
       <use xlink:href="#DejaVuSans-30"/>
       <use xlink:href="#DejaVuSans-2e" x="63.623047"/>
       <use xlink:href="#DejaVuSans-33" x="95.410156"/>
       <use xlink:href="#DejaVuSans-30" x="159.033203"/>
      </g>
     </g>
    </g>
    <g id="ytick_14">
     <g id="line2d_20">
      <g>
       <use xlink:href="#m5e9c58351f" x="620.784" y="90.754514" style="stroke: #000000; stroke-width: 0.8"/>
      </g>
     </g>
     <g id="text_21">
      <!-- 0.35 -->
      <g transform="translate(627.784 94.553733) scale(0.1 -0.1)">
       <use xlink:href="#DejaVuSans-30"/>
       <use xlink:href="#DejaVuSans-2e" x="63.623047"/>
       <use xlink:href="#DejaVuSans-33" x="95.410156"/>
       <use xlink:href="#DejaVuSans-35" x="159.033203"/>
      </g>
     </g>
    </g>
    <g id="ytick_15">
     <g id="line2d_21">
      <g>
       <use xlink:href="#m5e9c58351f" x="620.784" y="57.901216" style="stroke: #000000; stroke-width: 0.8"/>
      </g>
     </g>
     <g id="text_22">
      <!-- 0.40 -->
      <g transform="translate(627.784 61.700435) scale(0.1 -0.1)">
       <use xlink:href="#DejaVuSans-30"/>
       <use xlink:href="#DejaVuSans-2e" x="63.623047"/>
       <use xlink:href="#DejaVuSans-34" x="95.410156"/>
       <use xlink:href="#DejaVuSans-30" x="159.033203"/>
      </g>
     </g>
    </g>
    <g id="text_23">
     <!-- ampere * second -->
     <g transform="translate(661.648063 232.151225) rotate(-90) scale(0.1 -0.1)">
      <defs>
       <path id="DejaVuSans-20" transform="scale(0.015625)"/>
       <path id="DejaVuSans-2a" d="M 3009 3897 
L 1888 3291 
L 3009 2681 
L 2828 2375 
L 1778 3009 
L 1778 1831 
L 1422 1831 
L 1422 3009 
L 372 2375 
L 191 2681 
L 1313 3291 
L 191 3897 
L 372 4206 
L 1422 3572 
L 1422 4750 
L 1778 4750 
L 1778 3572 
L 2828 4206 
L 3009 3897 
z
" transform="scale(0.015625)"/>
       <path id="DejaVuSans-73" d="M 2834 3397 
L 2834 2853 
Q 2591 2978 2328 3040 
Q 2066 3103 1784 3103 
Q 1356 3103 1142 2972 
Q 928 2841 928 2578 
Q 928 2378 1081 2264 
Q 1234 2150 1697 2047 
L 1894 2003 
Q 2506 1872 2764 1633 
Q 3022 1394 3022 966 
Q 3022 478 2636 193 
Q 2250 -91 1575 -91 
Q 1294 -91 989 -36 
Q 684 19 347 128 
L 347 722 
Q 666 556 975 473 
Q 1284 391 1588 391 
Q 1994 391 2212 530 
Q 2431 669 2431 922 
Q 2431 1156 2273 1281 
Q 2116 1406 1581 1522 
L 1381 1569 
Q 847 1681 609 1914 
Q 372 2147 372 2553 
Q 372 3047 722 3315 
Q 1072 3584 1716 3584 
Q 2034 3584 2315 3537 
Q 2597 3491 2834 3397 
z
" transform="scale(0.015625)"/>
       <path id="DejaVuSans-63" d="M 3122 3366 
L 3122 2828 
Q 2878 2963 2633 3030 
Q 2388 3097 2138 3097 
Q 1578 3097 1268 2742 
Q 959 2388 959 1747 
Q 959 1106 1268 751 
Q 1578 397 2138 397 
Q 2388 397 2633 464 
Q 2878 531 3122 666 
L 3122 134 
Q 2881 22 2623 -34 
Q 2366 -91 2075 -91 
Q 1284 -91 818 406 
Q 353 903 353 1747 
Q 353 2603 823 3093 
Q 1294 3584 2113 3584 
Q 2378 3584 2631 3529 
Q 2884 3475 3122 3366 
z
" transform="scale(0.015625)"/>
       <path id="DejaVuSans-6f" d="M 1959 3097 
Q 1497 3097 1228 2736 
Q 959 2375 959 1747 
Q 959 1119 1226 758 
Q 1494 397 1959 397 
Q 2419 397 2687 759 
Q 2956 1122 2956 1747 
Q 2956 2369 2687 2733 
Q 2419 3097 1959 3097 
z
M 1959 3584 
Q 2709 3584 3137 3096 
Q 3566 2609 3566 1747 
Q 3566 888 3137 398 
Q 2709 -91 1959 -91 
Q 1206 -91 779 398 
Q 353 888 353 1747 
Q 353 2609 779 3096 
Q 1206 3584 1959 3584 
z
" transform="scale(0.015625)"/>
       <path id="DejaVuSans-6e" d="M 3513 2113 
L 3513 0 
L 2938 0 
L 2938 2094 
Q 2938 2591 2744 2837 
Q 2550 3084 2163 3084 
Q 1697 3084 1428 2787 
Q 1159 2491 1159 1978 
L 1159 0 
L 581 0 
L 581 3500 
L 1159 3500 
L 1159 2956 
Q 1366 3272 1645 3428 
Q 1925 3584 2291 3584 
Q 2894 3584 3203 3211 
Q 3513 2838 3513 2113 
z
" transform="scale(0.015625)"/>
       <path id="DejaVuSans-64" d="M 2906 2969 
L 2906 4863 
L 3481 4863 
L 3481 0 
L 2906 0 
L 2906 525 
Q 2725 213 2448 61 
Q 2172 -91 1784 -91 
Q 1150 -91 751 415 
Q 353 922 353 1747 
Q 353 2572 751 3078 
Q 1150 3584 1784 3584 
Q 2172 3584 2448 3432 
Q 2725 3281 2906 2969 
z
M 947 1747 
Q 947 1113 1208 752 
Q 1469 391 1925 391 
Q 2381 391 2643 752 
Q 2906 1113 2906 1747 
Q 2906 2381 2643 2742 
Q 2381 3103 1925 3103 
Q 1469 3103 1208 2742 
Q 947 2381 947 1747 
z
" transform="scale(0.015625)"/>
      </defs>
      <use xlink:href="#DejaVuSans-61"/>
      <use xlink:href="#DejaVuSans-6d" x="61.279297"/>
      <use xlink:href="#DejaVuSans-70" x="158.691406"/>
      <use xlink:href="#DejaVuSans-65" x="222.167969"/>
      <use xlink:href="#DejaVuSans-72" x="283.691406"/>
      <use xlink:href="#DejaVuSans-65" x="322.554688"/>
      <use xlink:href="#DejaVuSans-20" x="384.078125"/>
      <use xlink:href="#DejaVuSans-2a" x="415.865234"/>
      <use xlink:href="#DejaVuSans-20" x="465.865234"/>
      <use xlink:href="#DejaVuSans-73" x="497.652344"/>
      <use xlink:href="#DejaVuSans-65" x="549.751953"/>
      <use xlink:href="#DejaVuSans-63" x="611.275391"/>
      <use xlink:href="#DejaVuSans-6f" x="666.255859"/>
      <use xlink:href="#DejaVuSans-6e" x="727.4375"/>
      <use xlink:href="#DejaVuSans-64" x="790.816406"/>
     </g>
    </g>
   </g>
   <g id="line2d_22">
    <path d="M 110.518364 320.7276 
L 140.332639 314.392095 
L 168.907288 308.326248 
L 168.92862 308.170555 
L 169.529198 291.033554 
L 170.024603 283.449183 
L 170.511 279.155817 
L 171.024565 276.462934 
L 171.55602 274.765018 
L 172.142111 273.594323 
L 172.774056 272.79277 
L 173.577218 272.135203 
L 174.704885 271.518801 
L 176.534612 270.791716 
L 180.212356 269.599204 
L 190.060043 266.690477 
L 236.361729 253.166476 
L 295.04659 240.699741 
L 296.569965 240.37622 
L 297.422897 219.713067 
L 297.905849 214.094528 
L 298.407921 210.668966 
L 298.93353 208.522309 
L 299.512994 207.07061 
L 300.13117 206.100759 
L 300.865402 205.380612 
L 301.823644 204.765429 
L 303.31178 204.099417 
L 305.972868 203.174892 
L 312.185553 201.286163 
L 361.096248 186.869164 
L 362.551207 186.463386 
L 369.217464 185.020996 
L 400.666353 178.344185 
L 424.197536 173.353788 
L 424.228052 173.096861 
L 424.837707 156.058058 
L 425.328482 148.654617 
L 425.832892 144.291159 
L 426.355351 141.64067 
L 426.905404 139.952504 
L 427.484706 138.843356 
L 428.125947 138.060763 
L 428.924537 137.426173 
L 430.096191 136.800559 
L 432.097047 136.023956 
L 436.805932 134.530776 
L 453.02379 129.776311 
L 488.159289 119.492037 
L 489.059714 119.119498 
L 490.93416 118.653335 
L 499.970101 116.724622 
L 551.860558 105.712718 
L 552.706089 85.187739 
L 553.164693 79.727093 
L 553.675304 76.132952 
L 554.212534 73.895323 
L 554.788816 72.434046 
L 555.409217 71.447685 
L 556.133076 70.729071 
L 557.088851 70.108874 
L 558.588446 69.433989 
L 561.217429 68.518455 
L 567.698274 66.551843 
L 596.485636 58.1436 
L 596.485636 58.1436 
" clip-path="url(#p1de56b77ef)" style="fill: none; stroke: #2ca02c; stroke-width: 1.5; stroke-linecap: square"/>
   </g>
   <g id="patch_7">
    <path d="M 86.22 333.8568 
L 86.22 45.0144 
" style="fill: none; stroke: #000000; stroke-width: 0.8; stroke-linejoin: miter; stroke-linecap: square"/>
   </g>
   <g id="patch_8">
    <path d="M 620.784 333.8568 
L 620.784 45.0144 
" style="fill: none; stroke: #000000; stroke-width: 0.8; stroke-linejoin: miter; stroke-linecap: square"/>
   </g>
   <g id="patch_9">
    <path d="M 86.22 333.8568 
L 620.784 333.8568 
" style="fill: none; stroke: #000000; stroke-width: 0.8; stroke-linejoin: miter; stroke-linecap: square"/>
   </g>
   <g id="patch_10">
    <path d="M 86.22 45.0144 
L 620.784 45.0144 
" style="fill: none; stroke: #000000; stroke-width: 0.8; stroke-linejoin: miter; stroke-linecap: square"/>
   </g>
  </g>
 </g>
 <defs>
  <clipPath id="p1de56b77ef">
   <rect x="86.22" y="45.0144" width="534.564" height="288.8424"/>
  </clipPath>
 </defs>
</svg>
